<svg xmlns="http://www.w3.org/2000/svg" viewBox="0 0 99 130"><g id="ikoner"><polygon points="5.67 47.39 17.29 47.39 17.29 91.91 55.95 91.91 55.95 57.36 99 57 99 104 17.39 103.64 17.39 118.66 5.67 118.66 5.67 47.39"/><circle cx="36.52" cy="74.02" r="12.96"/><path d="M47.85,50.67a4.91,4.91,0,0,1-1.17-1.51,4.37,4.37,0,0,1-.43-2,4.11,4.11,0,0,1,.43-1.81,8.5,8.5,0,0,1,1.08-1.67l7.88-9.26H47.21a7.76,7.76,0,0,1-.53-1.28,5.46,5.46,0,0,1-.25-1.7,3.18,3.18,0,0,1,.71-2.31,2.54,2.54,0,0,1,1.9-.71H63.48A4.91,4.91,0,0,1,64.65,30a4.36,4.36,0,0,1,.44,2,4.09,4.09,0,0,1-.44,1.81,8.22,8.22,0,0,1-1.08,1.67l-7.7,9.26h9A7.47,7.47,0,0,1,65.38,46a5.39,5.39,0,0,1,.26,1.69A3.22,3.22,0,0,1,64.93,50a2.6,2.6,0,0,1-1.91.71Z"/><path d="M72.29,34a3.7,3.7,0,0,1-.94-1.21A3.49,3.49,0,0,1,71,31.19a3.29,3.29,0,0,1,.35-1.45,6.51,6.51,0,0,1,.86-1.34L78.52,21H71.77a5.46,5.46,0,0,1-.42-1,4.45,4.45,0,0,1-.2-1.35,2.53,2.53,0,0,1,.57-1.85,2,2,0,0,1,1.52-.57H84.79a3.81,3.81,0,0,1,.93,1.21A3.36,3.36,0,0,1,86.07,19a3.16,3.16,0,0,1-.35,1.45,6.11,6.11,0,0,1-.86,1.34L78.7,29.17h7.19a5.46,5.46,0,0,1,.42,1,4.16,4.16,0,0,1,.2,1.35,2.51,2.51,0,0,1-.57,1.85,2,2,0,0,1-1.52.57Z"/></g></svg>