<svg xmlns="http://www.w3.org/2000/svg" viewBox="0 0 99 130"><g id="ikoner"><path d="M2.73,61s-4.32,31.13,25.19,45.28H53.85s7.9,0,15.1-9.91c0,0,21.59.71,26.63-18.39,0,0,2.88-8.49-6.48-10.61H81.19L81,61Z"/><path d="M30.8,56.76s-5,1.42-7.92-8.49a17.28,17.28,0,0,1,4-10.41c4-4.44,8.28-8.69,8.28-8.69s2.16-1.41,2.16-7.78,4.32,5.66,4.32,5.66v4.72a30.43,30.43,0,0,1-4.87,6.41c-3,3-5.93,6.56-5.93,6.56a7.19,7.19,0,0,0-.72,2.83C30.08,49,29.36,49.69,30.8,56.76Z"/><path d="M48.08,52.6S43,54,40.16,44.11a17.29,17.29,0,0,1,4-10.41c4-4.44,8.28-8.69,8.28-8.69s2.15-1.41,2.15-7.78,4.32,5.66,4.32,5.66v4.72A30.43,30.43,0,0,1,54,34c-3,3-5.92,6.56-5.92,6.56a7.19,7.19,0,0,0-.72,2.83C47.36,44.82,46.64,45.53,48.08,52.6Z"/><rect x="9.91" y="109.01" width="64.06" height="7.98"/></g></svg>