<svg id="background_artboard" data-name="background artboard" xmlns="http://www.w3.org/2000/svg" xmlns:xlink="http://www.w3.org/1999/xlink" viewBox="0 0 1920 1080"><defs><style>.cls-1{fill:url(#linear-gradient);}.cls-2{fill:#707070;}.cls-3{fill:#848484;}.cls-4{fill:#919191;}.cls-5{fill:#7c7c7c;}.cls-6{fill:#db8c00;}.cls-7{fill:#8f5b00;}.cls-8{fill:#050300;}.cls-9{fill:#fff;}</style><linearGradient id="linear-gradient" x1="960.86" y1="-0.53" x2="960.86" y2="1078.97" gradientUnits="userSpaceOnUse"><stop offset="0" stop-color="#3995ff"/><stop offset="1" stop-color="#00438e"/></linearGradient></defs><rect class="cls-1" x="-0.17" y="-0.53" width="1922.06" height="1079.5"/><path class="cls-2" d="M971.15,928.17a129.26,129.26,0,0,0,6.34-24.88c2.54-16.1,27.92-17.56,27.92-17.56s21.57-2.93,36.79-2.93,88.82,2.93,88.82,2.93l30.45,1.46s10.15,1.46,19,11.71S1191.92,915,1191.92,915v10.93l2.54,6.64-1.27,7.31,1.27,15.11,1.27,1,1.27,10.24v123.24l-3.81,20.18-3.8,7.32-8.88,17.56-5.08,11.71-21.57,14.63-30.45,1.47h-55.13l-36.23-1.47-17.76-4.39-16.5-8.78-12.69-10.24L972.42,1114l-2.82-11.47-1-44.14L971.15,994V928.17"/><g id="Layer_12" data-name="Layer 12"><path class="cls-3" d="M459.7,44.66l129-7.15L1034,23.21h321.7s199,0,274.44,35.75,99.76,85.8,111.93,102.49,34.06,90.56,36.5,138.23-12.17,407.55-12.17,407.55l-4.87,250.24-56,62-12.17,9.53-442.85,9.54H646.64s-177.2,2.38-206.4-50-46.23-45.29-56-228.8S391.57,364,391.57,364l9.74-262.17Z"/><path class="cls-4" d="M481.6,163.83h804.86s156.27-14.3,226.83,35.75,99.77,85.8,102.2,185.9,0,522.2,0,522.2l1.08,24.56L688.43,950.32S552.17,933.64,532.7,902.66c0,0-60.83-38.14-65.7-126.32Z"/><path class="cls-5" d="M481.14,159.06l702.06-8.9s286.53-20.54,368.56,59,65.7,176.37,65.7,176.37V774s-102-303.62-166.47-368.58c-64.69-65.18-211.36-115.21-327.48-98.55S673.36,204.35,673.36,204.35Z"/><path class="cls-2" d="M459.7,44.66l513.15-19s397.79-1.94,460.22,0S1583.24,21,1690.23,94.4s88.56,248.26,88.56,248.26L1765.87,853l-4.39,104.43-56,62,5.65-306.58s11.68-291.66,11.15-370.54-52.6-173.15-80.22-194.54S1545.43,85,1467.87,80.7s-623.66-2.12-623.66-2.12l-442.9,23.28Z"/></g><path class="cls-6" d="M83,206s45.05,3.73,145.16,65.72c0,.61-25-83-6-135,16-56,50.12-84.06,55.06-89,7-7,15.85-74.94,21-78,0,0,21.52,69.9,18,79,0,0-.13,27.06-27,65-17,24-6,58-6,79,4,33,11,35,26,51,35.51,37.83,10.62,101.76,9,105h0c16,24,38,65,38,65,1-6-3-5,1-31,3.17-20.56,5.83-9.56,2-34-5-32-1-40,12-75-3-51,75.08-101,121.13-189,16.72-31.95,50.05-70,76.08-85,22.76-13.11,101.11,11,125.13,14,19.11,2.38,73.23,32,121.13,32,30,0,210.25-.5,252.27,3,24,2,212.59,4.36,242.26,6,36,2,153.91,24.42,143.16,25-21.13,1.14,1.6-.83-154.17,5-70.26,2.62-151.24,18.87-223.24,22-183.73,8-433.46,3-471.5,14-18.5,5.35-109.12,108-127.14,127-33.62,35.45-24,74-13,107,10.18,30.52,17,66,13,92-4.34,28.2-37.84,78.51-52.38,88.79a6,6,0,0,0-1.61,8.1c5.5,8.61,17.33,26.46,27,36.08,13,13,13.79,46.41,13.79,46.41s-9.85,44.48-13.32,47,1.53,42.55,1.53,42.55l35,68s56.4,125.23,271.29,85c64.07-12,95.1-21,139.15-27s172.94,13.91,195.21,26c46.05,25,65.07,36,87.09,54,92.69,75.74,220.31,66,242.26,66,85.09,0,170.18-12,190.21-31,0,0,54.12-39,61.06-89a197.88,197.88,0,0,0-2-64c-6.1-12.58-18-53.16-59.06-24-9.47,6.73-31,21-32,40-.89,17,39.52-1.72,46.05-16,3.93-8.61,16.87,68.17-49.05,59-86.09-12-51.06-93-51.06-93,18-49,102.11-53,102.11-53,25,1.39,45,3,55.06,10,21.28,14.88,94.29,35.23,104.11,137,8,83-8.51,121-83.09,182-55.06,45-285.3,31-418.44,32-71.37.53-143.16-46-168.18-85-10.16-15.82-34-101-73.08-119-1.47-.68-1.33-.93,0,0,9,6.29,24.57,15.08,45,56,27,54,28,80,27,106s.9,21.51.9,21.51-15.92,69-73,91.76-97,9.71-107.09,5.71-64.09-26.17-72.1-67.57,23-99.4,63.06-102.4c15.79-1.18,27.63-3.37,41.05,4,20,11,31.31,30.39,33,36,4,13-13-12.36-36-14-4.72-.34-34.36-6.45-51.05,13-24,28,12,73,35,75,25.64,2.23,55.63-10.54,59.06-13,1.82-1.29,14.22-10.36,21-24s8-31.81,8-32c1-42-28-59-28-59s-43-32-71.07-30-71.26,42.75-88.69,59.37-132.55,140.59-153.57,147.59-39,32-103.11,38-123.14-2-155.17-18-49.05-25-63.07-36c0,0-54.05,39-97.1,48s-61.82,10-83.47,8-54.71-33-54.71-33l-34,11s-25,17-59.07,16-72.08-21-72.08-21-10,21-64.06,17c0,0-14.16,21-37.11,20s-38-7-38-7-23,12-43.05-4-30.47-32-30.47-32-35.6-10-42.61-39,0-45.08,0-45.08-17.45-32.94.29-77.42,22.74-63.47,60.78-71.46c0,0,7-22-4-27s-49.05-49-49.05-65v-43s-22-85-10-138,38-110,38-110-46-212,70.08-260.95c0,0-19-50-92.1-54,0,0,69.07-43,142.15,9C-124.21,232.71-31.11,182.25,83,206Z"/><g id="shadow"><path class="cls-7" d="M1239.66,1074.28s324.34-34.2,373.72-67.11c30.06-20,76.63-42.07,91.17-126.2s-51-150.24-55.1-162.26c0,0,51.89.12,94.18,45.07,25.37,27,51.49,77.85,51.1,121.2-.4,44.52,0,74.11-32.06,113.18-33.15,40.38-66.13,60.09-66.13,60.09s-45.17,16.88-106.2,22C1551.86,1083.54,1322.82,1108.33,1239.66,1074.28Z"/><path class="cls-7" d="M1649.45,772.79s-23.92-13.14-79.15,5c0,0-25,19-28.06,49.08s10,30,10,30,23,12.18,50.1,6,30.15-42.76,26.05-56.09c-4-13-21.2,14.31-27.05,16-41.08,12-13-30,11-42.06,6.2-3.1,10.43-7.5,16-9A35.42,35.42,0,0,1,1649.45,772.79Z"/><path class="cls-7" d="M1026.94,986.74S1005.21,910,951.11,898s-82.52,6-135.44,52.55-104,116.72-182.17,164.8-160.31,13-160.31,13-69.35-22.71-84.16-58.1c-3.13-7.47-15-32-15-32-13,8-58.11,11-58.11,11s6,52.08-14,83.13c-11.57,17.94-24.49,23.18-33.33,24.4-5.46.75-36.11-10.51-40.81-13.38l-29.06-23c-2.63-.7-15.59-12.23-17-14-11.52-14.32-26.07-43-40.07-42.07-9.15.61-58.12,0-72.14,0-2.55,0,8.81,20.3,10,24,1.84,5.74,37.37,47.53,33.31,51.53-10.65,10.51-20.83,18.48-30.31,16.58l-52.1-30.05s-43.08-45.07-99.19-103.16c-7.66-7.94-57.11-9-67.13-8-13.63,1.37-30.48,8.2-30.06,9l41.08,59.09,17,26h0a14.64,14.64,0,0,0-8.77,20.12l-15.26,4.94c-7,3-30.08,6-44.1-1l-52.1-33.06c-20.45-8.17-27.66-47.82-28-68.42,0-1.18-4-19.72-6-27.73L-268,978.73c-.49-2.19-2.27-11.62-4.27-6.61l-13,35a209.43,209.43,0,0,0-4,28.05l1,12,2,11c1,5,5,14,5,14l-2,6c-1.66,5-1,19-.51,22.77a104.3,104.3,0,0,0,2.51,16.29c.2.77,1.32,4,1.88,5.63.08.25,0,.17.13.38l2,4a62.85,62.85,0,0,0,4,6l3,4a34.77,34.77,0,0,0,6,5.06l5.05,4c.48.33,9.47,5.81,10,6,3.65,1.31,10.88,4,11,4l7,10,24,23,12,6,9,1c2.88-.23,10.59,1.21,21-4a155.1,155.1,0,0,0,25,6,91.26,91.26,0,0,0,24.05,0l10-4c.53-.31,10-6,16-15l8.87,1a9.48,9.48,0,0,0,4.06-.91c7.37-3.5,28.15,6.92,51.19-17.12,0,0,47.09,19,63.13,20,10.61.67,36.1.14,45.08-4,13-6,58.11-21,58.11-21,32.06,27,39,46.19,116.23,29C331.5,1169.87,376,1134.38,376,1134.38s37,36.3,111.22,50.08c65.79,12.21,118.72,3.14,137.26-1,2.48-.56,34.08-12.37,50.1-23,5.57-3.71,37.07-15,69.13-50.08,16.91-18.49,38.16-33.92,55.11-56.09,5.57-7.29,39.77-41.23,47.09-47.08,3.22-2.58,29.05-30,46.09-42.07,11.22-7.92,31.45-21.73,47.09-23C951.11,941.07,1002.21,957.09,1026.94,986.74Z"/><path class="cls-7" d="M-220.14,923s-18-184.3,53.1-275.45S-42.84,511.72,28.82,481s148.8-37.74,211.93-63.78C285,399,281.48,323.09,275.43,279.37c-2.45-17.63-12.56-25.06-18.65-37.43-9.26-18.8-17-52.08-16.11-72.17,0,0,10.09-69.06,27.13-87.09S297.85-30.5,297.85-30.5l17.78,69.11s5.52,34.45-26.79,75.12c-15.15,19.07-10,52.09-6.74,77.11,2.45,18.64,5.94,28.46,17.76,43.09,6.92,8.56,22,23,24.58,37.89,3.63,21.18,11.09,60.13,9.48,77.29-3,32.05,6,74.12-99.19,124.2S83.44,556.45,83.44,556.45l-105.2,66.1s-59.11,47.08-88.17,97.16-37.07,81.13-25,123.2A497.26,497.26,0,0,1-119.36,923S-164,904-220.14,923Z"/><path class="cls-7" d="M472.19,913s96.18,108.17,217.42,50.08c0,0,92.22-48.51,81.15-47.07-.48.06-11,50.08-128.24,109.17s-174.09-65.41-174.09-65.41L435.12,874Z"/><path class="cls-7" d="M315.56,994.63S348,996.15,365,986.14c0,0-24-55.09-21-68.11l-60.11,10S317.69,986.63,315.56,994.63Z"/><path class="cls-7" d="M87.82,984.72S113.5,894,167.6,877,234.06,860.14,288.5,854s53.44,1.9,86.5-16.13,51.1-30,63.12-42.07,35.16-41.43,22.05-61.1c-18-27-12-50.08-10-68.11L457,633c1.61-4.71.07-9.14-1-14l-4-24c-.89-4.06-5-19.48-7.86-22.53C434.27,561.84,423.22,544.6,425,547c2.38,3.21,27.15,12.45,36.17,31.48,7.51,15.85,15,57.74,15,64.1,0,8.31,15.67,47.37,15,55.09-2.45,29.31,26,67.11,20,82.14C481,855.57,384.34,902.88,347.61,913c-7.28,2-19.43,4.43-30.62,6.5-4.11.76-8.1,1.48-11.66,2.11-4.71.82-8.69,1.5-11.28,1.93l-3.21.54c-28.08,3.83-61,6.57-85,6-43.2-1-47.64,54.67-47.64,54.67l-1.58,20.45Z"/><path class="cls-7" d="M931,1091a2.56,2.56,0,0,1-2.23,4.48c-19.53-5-51.72-18-48.85-48.64,4-42.08,44.53-60.14,47.46-61.39l.35-.12c2.31-.59,26.5-6.27,50.25,10.68a2.47,2.47,0,0,1,.42.37l9.83,8.81c10,10,11.31,14.6,11.88,15.74l2.07,4.13c3.08,8.17-1.58,4.76-3.77,3.24-12.34-8.55-36-21.16-61.28-14.1-25.05,7-30.06,24.94-30.06,30.05C907,1063.35,918.12,1080.72,931,1091Z"/></g><g id="left_eye" data-name="left eye"><path class="cls-8" d="M300,670s-7.1-74.83-79.22-75.07-71.89,85-66.07,98.28,12.66,47.65,61.86,41.32S309.89,694.89,300,670Z"/><path class="cls-9" d="M298.43,659.68s-13.85-52.7-63-51.72-56.83,64.12-56.83,64.12-.22,44,21,60.33c0,0,3.42,3.18,21.41.25,0,0-17.66-23.8-21.56-40.2s1.74-48.4,20.36-60.14,39.44-17.34,53.86-9.43S298.43,659.68,298.43,659.68Z"/><ellipse class="cls-9" cx="271.01" cy="646.37" rx="10.39" ry="10.37"/><path class="cls-9" d="M269.2,716.78l19.7-14.94S259.05,681.86,269.2,716.78Z"/></g><g id="right_eye" data-name="right eye"><path class="cls-8" d="M384.7,645.89s-5.22-74.45,30-91.31S459.6,620.72,458.3,635s-.65,49.28-25.4,54.47S382.74,672.35,384.7,645.89Z"/><path class="cls-9" d="M384.25,635.45S384.9,581,409,570.61s35.18,49.28,35.18,49.28,5.21,42.79-3.26,63.54c0,0-1.3,3.89-10.42,5.19,0,0,5.86-27.23,5.86-44.09s-6.46-46.69-16.91-53.82-21.26-7.78-27.38,3.24S384.25,635.45,384.25,635.45Z"/><ellipse class="cls-9" cx="396.09" cy="616.18" rx="5.21" ry="10.37"/><path class="cls-9" d="M405.14,684.27l-11.34-10S406.05,648,405.14,684.27Z"/></g><circle id="mund" cx="396" cy="774" r="20"/></svg>