<svg id="Layer_1" data-name="Layer 1" xmlns="http://www.w3.org/2000/svg" viewBox="0 0 192 192"><path d="M101.8,2.9A61.54,61.54,0,0,0,91.1,8.2a45.15,45.15,0,0,1-7,3.8c-1.4,0-10,9.4-12.9,14C66.4,33.6,61,50,63.3,50c.5,0,.3.8-.5,1.7a10.74,10.74,0,0,0-2,3.8,31.92,31.92,0,0,1-1.3,3.7c-.4,1.1-.3,1.8.4,1.8s1.1-.7,1.1-1.5.5-1.5,1-1.5q1.05,0,0,2.1c-.7,1.1-.9,2.3-.6,2.7,1.2,1.1,1.9-.8,1.8-5.3-.1-2.9.3-4.8,1.2-5.1s1.1-1.5.9-2.8,0-2.7.6-3A3.34,3.34,0,0,0,67,44a2.87,2.87,0,0,1,1.5-2.4,2.39,2.39,0,0,0,1.5-2,4.81,4.81,0,0,1,1.3-2.8c2.5-2.5,6.5-10.3,6-11.8-.4-1.2-.3-1.2.5-.2s1.7.4,4.2-2.7A36.63,36.63,0,0,1,89.6,15c2.5-1.8,4.1-3.6,3.8-4.3-.4-1.1,3-3.6,5.6-4.2a12.23,12.23,0,0,0,2.6-1.2c3.1-1.8,17-1,21.9,1.2a30.88,30.88,0,0,0,4.7,1.9,6.59,6.59,0,0,1,2.2,2.1c.9,1.1,1.6,1.6,1.6,1.1s.7-.3,1.5.4,1.2,1.7.8,2.3-.1.7.4.4,1.3.3,1.6,1.4,1,1.8,1.6,1.5a1.11,1.11,0,0,1,1.6.5c1.3,2.1-.4,2.1-3.4-.1-1.7-1.2-3.1-1.7-3.1-1.1s-.7,1.1-1.5,1.1a1.45,1.45,0,0,0-1.5,1.4c0,.9.7,1.2,2,.9,1.1-.3,1.7-.9,1.4-1.4-1.3-2.1,1.5-.7,2.9,1.5a3.83,3.83,0,0,0,3.9,2c1.9-.3,3,.7,6.1,5.6a57.18,57.18,0,0,1,4.7,8.8,30.2,30.2,0,0,0,1.9,5.1c1.5,2.7.7,2.7-1.8-.1a4.55,4.55,0,0,1-1.5-4.5c.4-1.2.2-2.3-.3-2.3-.9,0-4.1-4.8-4.2-6.3,0-1-4.5-4.7-5-4.1-.2.2.8,2.2,2.3,4.4s2.6,4.4,2.6,4.9.9,1.6,2.1,2.4c1.3,1,1.6,1.6.8,1.9s0,1.8,2.3,4.4c3.5,3.9,5.3,8,3.8,8.6-.4.2-.2,3,.5,6.3,1.1,4.9,1.4,5.4,1.5,2.7.2-1.7.3-3.8.3-4.5.3-3.5-1.4-13.8-2.8-17.2-3.6-9-8.3-16.8-13.5-22.4C133.6,9.1,124,3,119.5,3c-1.8,0-3.5-.3-3.9-.7C114.4,1.1,106.2,1.4,101.8,2.9ZM86,14.5c-.7.9-1.5,1.3-1.7,1.1-.7-.7.7-2.6,1.9-2.6C86.8,13,86.8,13.6,86,14.5Zm-4.2,3.9c-1,.7-1.5,1.5-1.3,1.8s-.1,1.1-1,1.8c-1.3,1.1-1.5.9-1.2-.9.3-2.2,2.3-4.1,4.2-4.1C83.1,17.1,82.7,17.7,81.8,18.4Zm-6.5,7.3a6.1,6.1,0,0,1-1.7,2.5,5.94,5.94,0,0,0-1.1,3.5c0,2-.6,2.9-2,3.1-2,.4-2,.4,0-1.2,1.1-.8,1.5-1.6.8-1.6-1.9,0,2.4-7.8,4.4-8A4.64,4.64,0,0,1,75.3,25.7ZM67.1,40.3c-1,.9-1.1.8-.5-.6.3-1,.9-1.5,1.2-1.2S67.8,39.6,67.1,40.3Z"/><path d="M162,2c2,1.3,3.3,1.3,2.5,0a2.78,2.78,0,0,0-2.3-1C160.7,1,160.7,1.2,162,2Z"/><path d="M168.8,1.7a2,2,0,0,0,1.9-.1c.4-.3-.2-.6-1.3-.5S168,1.4,168.8,1.7Z"/><path d="M186.2,1.7c2.4.3,3.8,1,4,2.1.3,1.3.5,1.2,1-.6.6-2.1.3-2.2-4-2S182.8,1.4,186.2,1.7Z"/><path d="M97.2,11.2c.5,3.4,3.8,5.4,3.8,2.3,0-.8-.6-1.4-1.2-1.3s-1.2-.5-1-1.5S98.6,9,98,9,97,10,97.2,11.2Z"/><path d="M106,12.8c0,1.9,1.8,4.2,3.2,4.2.4,0,.8-.7.8-1.5s-.6-1.4-1.2-1.3-1.2-.5-1.2-1.5-.2-1.7-.7-1.7S106,11.8,106,12.8Z"/><path d="M103,13.1c0,.5.5.7,1,.4s1-.8,1-1.1-.4-.4-1-.4A1.1,1.1,0,0,0,103,13.1Z"/><path d="M111.5,13c.3.5.8,1,1.1,1s.4-.5.4-1a1,1,0,0,0-1.1-1C111.4,12,111.2,12.4,111.5,13Z"/><path d="M94.5,14c-.3.5-.1,1,.4,1A1.1,1.1,0,0,0,96,14c0-.6-.2-1-.4-1S94.8,13.4,94.5,14Z"/><path d="M118,14.1c0,.5.5.7,1,.4s1-.8,1-1.1-.4-.4-1-.4A1.1,1.1,0,0,0,118,14.1Z"/><path d="M124.6,15.5c.4.8.8,1.5,1,1.5s.4-.7.4-1.5-.4-1.5-1-1.5S124.3,14.7,124.6,15.5Z"/><path d="M111.7,17.4a2.16,2.16,0,0,0,.1,2.1,2.84,2.84,0,0,1,.7,1.7,1.8,1.8,0,0,0,1.3,1.5c1.5.6,1.6-1.2.1-3.9-.9-1.6-.8-1.9.2-1.3.8.5,1,.4.5-.3C113.6,15.6,112.3,15.7,111.7,17.4Z"/><path d="M116.3,16.7c.4.3.1,1.3-.6,2.1-1,1.3-.9,1.4.3,1,1.9-.6,2.6-3.8.9-3.8C116.2,16,116,16.3,116.3,16.7Z"/><path d="M120.5,16.9c-.2.5.4,1.1,1.5,1.4s2,.2,2-.3C124,16.8,121.2,15.9,120.5,16.9Z"/><path d="M127.5,19c.3.5.8,1,1.1,1s.4-.5.4-1a1,1,0,0,0-1.1-1C127.4,18,127.2,18.4,127.5,19Z"/><path d="M90.6,29.3c.3,1,.9,1.5,1.2,1.2s0-1.1-.7-1.8C90.1,27.8,90,27.9,90.6,29.3Z"/><path d="M78,35a1.1,1.1,0,0,0,1.1,1c.5,0,.7-.5.4-1s-.8-1-1.1-1S78,34.4,78,35Z"/><path d="M111.5,37c-.3.6.1.7.9.4,1.8-.7,2.1-1.4.7-1.4A1.9,1.9,0,0,0,111.5,37Z"/><path d="M105.5,38c-.3.5-.1,1,.4,1a1.1,1.1,0,0,0,1.1-1c0-.6-.2-1-.4-1S105.8,37.4,105.5,38Z"/><path d="M130,38a1.1,1.1,0,0,0,1.1,1c.5,0,.7-.5.4-1s-.8-1-1.1-1S130,37.4,130,38Z"/><path d="M34.8,45.7a5.28,5.28,0,0,0,2.5,0c.6-.3.1-.5-1.3-.5S34.1,45.4,34.8,45.7Z"/><path d="M40.3,45.7a10.28,10.28,0,0,0,3.5,0c.9-.3.1-.5-1.8-.5S39.3,45.4,40.3,45.7Z"/><path d="M96,45.8c0,.6-.7.9-1.5.6-1.9-.8-1.9.3-.1,2.1,1.2,1.2,1.6,1.2,2.7-.1.9-1.1.9-1.8.1-2.6S96,44.9,96,45.8Z"/><path d="M100,46.3c0,1.5,2.9,5.7,3,4.2a21.49,21.49,0,0,0-.6-3.3C101.7,44.8,100,44.1,100,46.3Z"/><path d="M69.9,47.7c-2.2,2.6-5,9.3-4.4,10.3.3.5,0,2.1-.5,3.6s-.7,3.1-.2,3.6,1.4-1.7,2.2-5.4a47.47,47.47,0,0,1,3.1-10C72.2,45.7,72.1,45,69.9,47.7Z"/><path d="M84,47.4c0,.4-.6.6-1.4.3-1.9-.8-5.2,3.1-6.1,7.2-.5,2.6-.4,3.2.6,2.9.8-.3,1.5-1,1.5-1.6s.2-1.7.3-2.3.5-.8,1-.4a1.22,1.22,0,0,0,1.6-.5c.3-.5.1-1-.4-1A1.1,1.1,0,0,1,80,51c0-1.6,8.9-1.1,11.5.6,2.1,1.4,2.8,1.4,4.2.3s1.6-1.2,1.1.2c-.4,1,.6,2.3,2.9,3.9,3.2,2.2,3.5,2.7,3,6.2-.3,2.1-.1,3.8.4,3.8s.9-.9.9-1.9.4-2.3,1-2.6.9-1.7.8-3-.6-2.1-1.1-1.8-1.1-.5-1.4-1.7-.8-1.7-1.3-1.1c-.3.7-1.4.9-2.4.5-1.3-.5-1.4-.9-.5-2s.8-1.4-.2-1.5c-3.5-.2-5.4-.9-6.7-2.6S84,45.7,84,47.4Z"/><path d="M122,47.4a2,2,0,0,1-.9,1.8c-.5.1-.3.9.5,1.6,1.2,1.1,1.4.8,1.4-1.8,0-1.6-.2-3-.5-3S122,46.6,122,47.4Z"/><path d="M151,46.9a2.34,2.34,0,0,0,1,1.6c.6.3,1,.2,1-.4a2,2,0,0,0-1-1.6C151.5,46.2,151,46.3,151,46.9Z"/><path d="M108,49.4c0,.2.7.7,1.6,1s1.2.2.9-.4C109.9,49,108,48.6,108,49.4Z"/><path d="M126.5,50.9c.5,1.6.2,2.1-1.1,2.1s-1.5.3-.6,1.2,1.5.8,2.7-.2c1-.9,1.5-.9,1.5-.1s.9.9,2.3.6c3.5-.9,8.8,1.9,10.8,5.6l1.8,3.4.1-3.6c0-4.1-3.6-8.4-6.3-7.3-1,.3-1.7.2-1.7-.4s-1.2-1.2-2.7-1.5a35.9,35.9,0,0,1-5.2-1.3C126,48.8,125.9,49,126.5,50.9Z"/><path d="M148.5,51.7a83.44,83.44,0,0,0,1.3,8.3c1.1,5.1,1.8,12,2.1,21.2,0,2.1.6,3.8,1.1,3.8.7,0,.9-2.6.4-7.8-.4-4.2-.8-10.2-.8-13.2s-.7-6.5-1.4-7.7a10.91,10.91,0,0,1-1.2-4.7c0-1.4-.4-2.6-.9-2.6S148.4,50.2,148.5,51.7Z"/><path d="M105.7,52.1c.7.9,1,1.9.6,2.2s-.1.7.5.7c1.7,0,1.5-1.6-.5-3.1C104.7,50.7,104.6,50.7,105.7,52.1Z"/><path d="M50.3,53.7a7.56,7.56,0,0,0,3,0c.6-.3-.1-.5-1.8-.5S49.3,53.4,50.3,53.7Z"/><path d="M110,55c0,.9,3.1,3,4.4,3,.3,0,.6-.7.6-1.6s-.6-1.4-1.5-1-1.5.1-1.5-.4a.94.94,0,0,0-1-1A1,1,0,0,0,110,55Z"/><path d="M123,56c0,.5-.7,1-1.5,1s-1.5.4-1.5.9.9.7,2,.4c1.7-.5,3-3.3,1.5-3.3C123.2,55,123,55.4,123,56Z"/><path d="M91,57a7.48,7.48,0,0,0,3.2,1,3.24,3.24,0,0,1,2.3.9c.3.5-1.9.3-4.9-.6-5-1.4-5.6-1.4-7.1.1-2.5,2.5-7.8,5-9.7,4.7-1-.1-1.8.2-1.8.7s1.5.7,3.3.5,4.3-.5,5.6-.7a6.1,6.1,0,0,0,3.6-2c1.1-1.5,1.3-1.5,1.9-.1.7,2,5.6,2,5.6,0s.9-1.9,3.4,0,4.9,2,4.3.2a1.5,1.5,0,0,0-1.5-1c-.6.2-.9-.3-.6-1,.3-.9-.9-1.8-3.4-2.5C90.5,55.8,89,55.7,91,57Z"/><path d="M116.3,58.7c-1.5.6-1.8,6.3-.3,6.3.6,0,1-.9,1-1.9a3.5,3.5,0,0,1,1-2.6C120.3,59,118.9,57.6,116.3,58.7Z"/><path d="M121,61.7c-1.1.8-2,1.8-2,2.4,0,1.7,2.9.9,4.4-1.2l1.4-2.1.4,2.3c.2,1.8,1,2.5,3.1,2.7,1.9.2,2.7-.1,2.7-1.2,0-2.2,2.1-2,2.6.1s7.6,5.8,9.6,5q1.35-.6-.3-.6a5.84,5.84,0,0,1-3.3-2.6c-.9-1.4-2.2-2.3-2.8-1.9s-.8.3-.4-.4C138.5,60.8,125.4,58.7,121,61.7Zm8,1.3c0,.5-.2,1-.4,1s-.8-.5-1.1-1-.1-1,.4-1A1,1,0,0,1,129,63Z"/><path d="M1.5,63c-.3.5.9,1.6,2.7,2.3s9.6,4.9,17.2,9.1S35.7,82,36.1,82s.9.7,1.3,1.5A2.55,2.55,0,0,0,39.6,85c.9,0,3.6,1.3,6,3,6.2,4.1,8.4,5.2,8.4,4.1,0-.5-5.4-4.1-12-8.1s-12-7.6-12-8.2-.3-.9-.6-.5c-.9.8-16.4-7.2-16.4-8.4,0-.6-.4-.8-.8-.5s-2.2-.3-3.8-1.3C4.2,62.6,2.1,62,1.5,63Z"/><path d="M57.2,73.5c.2,6.3,0,11.5-.4,11.5s-.8,2-.8,4.5c0,3.3.5,4.7,1.9,5.4,2,1.1,3.1.5,3.1-1.5,0-.6-.8-1.1-1.7-1-1.5.1-1.7-.6-1.5-3.4.1-1.9.4-6.9.6-11a47.58,47.58,0,0,1,1.5-10.4c.9-2.1.9-3.2,0-4.2C57.5,60.5,57,62.4,57.2,73.5Z"/><path d="M96.5,64c.7,1.1-2.2,1.9-9,2.2l-5,.3,4.1,1.4c3.6,1.1,4.7,1.1,7.3,0,1.7-.8,3.1-1.8,3.1-2.2s.6-.5,1.3-.1.8.2-.2-.9C96.7,62.9,95.5,62.4,96.5,64Z"/><path d="M155.1,69c.1,5.5.1,5.5.9,1.5.4-2.2.4-4.7-.1-5.5C155.4,64,155.1,65.5,155.1,69Z"/><path d="M115.5,67.3a5.43,5.43,0,0,0-.9,2.7c.1.8.2,2.3.3,3.2s1,2.5,2,3.5c2.3,2.2,9.1,12.2,9.1,13.4a1,1,0,0,0,1,.9c.6,0,1,.6,1,1.4a2.53,2.53,0,0,0,1.5,2c2.1.8,1.9-.7-.5-3.7a9,9,0,0,1-2-4.1,4.86,4.86,0,0,0-2.2-3c-1.2-.9-1.9-1.6-1.5-1.6s-.8-1.7-2.7-3.8c-4-4.1-5.4-8.5-3.6-10.7.7-.8.9-1.5.4-1.5A4,4,0,0,0,115.5,67.3Z"/><path d="M61.6,71.1c-.4,2.2-.4,4.4-.1,5s.2.9-.3.9-.9,1.1-.9,2.5c0,3.6,1,3.1,2.5-1.3,2.3-6.6,2.6-8.6,1.2-7.7-1,.6-1.2.3-.8-1.3.4-1.2.3-2.2-.2-2.2S62,68.8,61.6,71.1Z"/><path d="M124,68.9c0,.6.7,1.1,1.6,1.1s1.3.4,1,.9,1.9.9,5,1c6.4.1,6.5-1.4.2-2.2a24.77,24.77,0,0,1-6-1.2C124.7,68.1,124,68.2,124,68.9Z"/><path d="M101.5,72c.3.5.8,1,1.1,1s.4-.5.4-1a1,1,0,0,0-1.1-1C101.4,71,101.2,71.4,101.5,72Z"/><path d="M75.5,73c-.3.6.1.7.9.4,1.8-.7,2.1-1.4.7-1.4A1.9,1.9,0,0,0,75.5,73Z"/><path d="M123,72.8c0,1.5,4.9,5.2,5.5,4.2.4-.6.1-1-.4-1a6.78,6.78,0,0,1-3.1-2C123.9,72.9,123,72.4,123,72.8Z"/><path d="M103.7,73.7c-1,.9-.9,2.3.1,2.3.5,0,.9-.7.9-1.5C104.7,72.8,104.6,72.7,103.7,73.7Z"/><path d="M97.8,76A4.26,4.26,0,0,1,95,78c-.8,0-2.4,1.7-3.6,3.8s-2.6,3.6-3.5,3.4-1.1,0-.7.3S87,87,85.8,87.9s-1.9,2.3-1.7,2.9c.5,1.5,9.9-7.5,9.9-9.4,0-.8.5-1.4,1-1.4s1,.6,1,1.3,1.2,2.4,2.6,3.8l2.6,2.4-.6-2.3c-.4-1.2-.5-2.2-.1-2.2,1.3,0,6.5,3.1,6.5,3.9,0,.5,1.1,1.1,2.4,1.3,1.7.4,2.3.1,1.9-.8-.7-1.8,4.7-3.1,5.7-1.3.7,1,1.1,1,2.4,0,.9-.7,1.3-1.8,1-2.3s-1-.5-1.5.3c-.6,1-.9,1.1-.9.1,0-1.7-4.1-1.5-6.8.4-2.2,1.5-2.5,1.5-4.7-.6a11.51,11.51,0,0,0-5.5-2.5c-4.3-.3-4.7-1.1-2.1-4.5,1.2-1.7,1.7-3,1.1-3S98.5,74.9,97.8,76Z"/><path d="M68.6,76.5c.4.8.8,1.5,1,1.5s.4-.7.4-1.5S69.6,75,69,75,68.3,75.7,68.6,76.5Z"/><path d="M103.5,80c.3.5.8,1,1.1,1s.4-.5.4-1a1,1,0,0,0-1.1-1C103.4,79,103.2,79.4,103.5,80Z"/><path d="M107,80.6c0,1.1,2.9,3.4,3.4,2.6.2-.4-.4-1.3-1.5-2S107,80.2,107,80.6Z"/><path d="M112.5,81c-.8,1.3,1.5,1.3,3.5,0,1.2-.8,1.1-1-.7-1C114.1,80,112.8,80.4,112.5,81Z"/><path d="M130,83c0,.5.7.7,1.5.4s1.5-.8,1.5-1-.7-.4-1.5-.4S130,82.4,130,83Z"/><path d="M156,91.2c0,9.9-.7,11.6-4.5,10.2-.8-.4-1.5-.1-1.5.5,0,1.6,5.5,1.4,6.9-.3,1-1.2.6-18.3-.5-19.5C156.2,81.9,156,86,156,91.2Z"/><path d="M62,85a1.08,1.08,0,0,0,1,1,1,1,0,0,0,1-1,.94.94,0,0,0-1-1A1,1,0,0,0,62,85Z"/><path d="M135.5,85.1c-.4.6-.5,1.2-.2,1.5s.7-.2,1-1.1C137,83.8,136.4,83.5,135.5,85.1Z"/><path d="M73,85.7c0,1.5,1.9,3.7,2.6,3.1.3-.4-.1-1.4-1-2.3S73,85.2,73,85.7Z"/><path d="M1.8,86.6c-.9,1.4.7,5,1.6,3.6a3.13,3.13,0,0,0-.2-2.8C2.7,86.5,2,86.1,1.8,86.6Z"/><path d="M81.8,86.7a2,2,0,0,0,1.9-.1c.4-.3-.2-.6-1.3-.5S81,86.4,81.8,86.7Z"/><path d="M62.5,88c.3.5.8,1,1.1,1s.4-.5.4-1a1,1,0,0,0-1.1-1C62.4,87,62.2,87.4,62.5,88Z"/><path d="M6.2,90.4C7.5,91.8,9,91.6,9,89.9c0-.5-.9-.9-2-.9C5.3,89,5.1,89.2,6.2,90.4Z"/><path d="M61,89.4c0,1.1,3,3.9,3.6,3.4.2-.3-.5-1.3-1.6-2.3S61,89,61,89.4Z"/><path d="M9.4,92.1a2.09,2.09,0,0,0,.5,2.2c.8.8,1.1.6,1.1-.7,0-1.5.3-1.6,1.5-.6A4.22,4.22,0,0,1,14,95.5c0,.8,1.4,1.9,3,2.7s3,1.7,3,2.1.3.6.8.4,2.1.4,3.7,1.4a70.5,70.5,0,0,0,10.8,5.3c1,.3,1.5,1.1,1.2,1.6s-.3,1,.2.9c1.7-.4,6.3,1.3,5.7,2.2-.3.5.2.6,1,.3,3.5-1.3,0-5-3.6-3.8-2,.6-2.1.5-.9-1,.7-.9,1.2-1.7,1-1.7a30.21,30.21,0,0,0-3.3-.5,8.18,8.18,0,0,1-4.8-2.4,6.41,6.41,0,0,0-3.9-2c-1.3,0-1.8-.4-1.3-1.3.5-.7.1-.6-1,.3-1.6,1.3-2,1.2-3.1-.3A4.24,4.24,0,0,0,19.7,98c-1.1,0-1.4-.5-1-1.7s.3-1.4-.5-.9-2.4-.4-3.9-1.8C11.2,90.7,10.4,90.5,9.4,92.1Z"/><path d="M72,92c0,.6.4.9.9.6s1.2.7,1.5,2.4.9,4.3,1.2,6,1,3,1.5,3,.9.7.9,1.7c0,1.9,1.3.9,1.6-1.2.1-.8-.2-1.3-.7-.9-1.3.8-1.1-1,.4-2.5,1-1.1.9-1.3-.3-.9s-2-.8-3.1-4C74.5,92,72,89.3,72,92Z"/><path d="M121,92c0,.4.9,1,2,1.3s2,.2,2-.3-.9-1-2-1.3S121,91.5,121,92Z"/><path d="M150.1,93.2a16,16,0,0,1-.7,4.2c-.3.9-.2,1.6.4,1.6,1.5,0,1.9-2.1,1.1-5.5C150.2,90.5,150.2,90.5,150.1,93.2Z"/><path d="M100,94.4c0,.4,1,1.1,2.3,1.6,2.1.8,2.1.9-.5.9a21,21,0,0,0-5.1,1c-1.4.6-2.8.7-3.2.3s.9-1.2,2.7-1.8,2.5-1.3,1.5-1.3c-2.4-.1-8.6,3.4-10.4,5.8-.8,1.2-1,2.1-.5,2.1s1.2-.7,1.6-1.5c.5-1.5,1.8-1.5,11.6.6,3.6.7,24.1,1.4,28.4,1,.6-.1.1-.8-1-1.6-1.4-1.1-1.5-1.4-.4-1.5.8,0,.2-.7-1.4-1.5-3.2-1.7-5.1-2-2.3-.4s2,2.9-1.7,2.9c-3.9,0-13.4-3.9-10.1-4.1,1.1-.1,0-.5-2.5-.9a54.32,54.32,0,0,1-6.7-1.5C101,94.1,100,94.1,100,94.4Zm6,3.6c-1.2.8-.9,1,1.2,1,3.3,0,8.3,1.8,7.5,2.7-.4.3-4.8,0-9.9-.7q-9.15-1.35-7.2-2.1a7.72,7.72,0,0,1,4-.2c1.2.2,2.5,0,2.8-.6a2.71,2.71,0,0,1,1.9-1.1C107,97,106.9,97.4,106,98Z"/><path d="M116.5,95c.3.5.8,1,1.1,1s.4-.5.4-1a1,1,0,0,0-1.1-1C116.4,94,116.2,94.4,116.5,95Z"/><path d="M61.5,95.9c-.3.6-.6,5.9-.5,11.9,0,12.4-.1,14.3-1,13.7-.7-.4-4.1,6.7-5.6,11.9-.8,2.8-1.6,3.2-11.4,5.8-5.8,1.5-14.5,4.1-19.5,5.8a126.68,126.68,0,0,1-14,4c-7.9,1.5-9.8,2-9,2.8.4.4,2.6.7,5,.7,2.7,0,3.9-.3,3.2-.8s.3-.5,2.2-.2c2.5.5,3.2.4,2.6-.5s-.2-.9,1.5,0,2.1.9,1.5,0c-.4-.7-.1-1.1.6-1a10.51,10.51,0,0,0,3.7-.5c1.8-.6,2.1-1,1-1.7q-1.35-1.05,1.5-.3c1.7.3,2.6.2,2.3-.3s.4-1.2,1.5-1.5c1.5-.4,1.9-.2,1.5.9-.8,2-.1,1.8,3-1.1,1.5-1.4,3.2-2.5,3.8-2.5s.4.5-.4,1-1,1-.4,1a8.14,8.14,0,0,0,3-1.5c2.2-1.7,3.8-2,2.9-.5-.3.5-.1,1,.5,1s1.3-.7,1.6-1.5,1-1.5,1.5-1.5.6.6.3,1.3a1,1,0,0,0,1,1.4c.9,0,1.3-.8,1-2-.3-1.6.1-1.8,2.2-1.3,1.7.5,2.3.3,1.9-.4-.3-.5.1-1,.9-1s1.6.4,1.6.9a4.17,4.17,0,0,0,1.4,2.3,38.06,38.06,0,0,1,3.5,5.6c1.2,2.3,2.5,4.2,3,4.2s1.2,1.1,1.5,2.4a34.94,34.94,0,0,0,1.3,4.2c.4,1.1.3,1.5-.5,1s-.8.3-.2,2.5c1.3,4.5,2.3,5.1,1.7.9-.4-2.1.2-1.1,1.4,2.5,1,3.2,2.2,7.3,2.5,8.9a40.89,40.89,0,0,0,2.5,7.5,52.77,52.77,0,0,1,2.4,6.9c.5,2.9,1.5,4.2,1.5,1.9a31.16,31.16,0,0,0-2.1-7.1c-1.1-3-3.1-9.2-4.3-13.8s-2.7-9.2-3.1-10.3c-.5-1.3.1-.9,1.6,1,1.3,1.6,2.3,3.4,2.1,3.9s.4.6,1.3.3c1.1-.5,1.5,0,1.5,1.7,0,1.3,1.2,6.4,2.6,11.2s3,10.2,3.4,11.9c.8,2.9.8,2.9.9.4.1-1.4-.8-5.2-1.9-8.4-2.1-6.2-2.7-10.1-1.1-7.6.7,1.1.9,1.1,1.3,0,.3-.8,1.4,1.5,2.5,5.1s1.6,6.7,1.2,6.8a1.54,1.54,0,0,0-.9,1.3c0,.6.5.7,1,.4s1.1.6,1.1,2.2c.2,2.3.2,2.4.6.6.2-1.3,1-2.3,1.6-2.3.9,0,.9-.2.1-.8-1.1-.6-6.5-15.2-5.7-15.2a9.5,9.5,0,0,1,2.1,1.8c2.4,2.4,4,6.5,5.1,13.2l1,5.5-.3-5.9c-.3-5.8-.3-5.8,1.5-3.5a9.21,9.21,0,0,1,1.9,4.4,6.9,6.9,0,0,0,1.1,3.5c.8,1.1.9.6.4-2s-.4-3.1.4-2c.9,1.3,1.1,1.3,1.1-.3,0-.9-.3-1.7-.8-1.7s-1.3-.9-2-2.1c-1.2-1.9-1.1-1.9.7-.9s4.8,5,4.3,5.7c-.6.9,0,4.3.7,4.3,1.2,0-.7-8.4-2-8.8a1.54,1.54,0,0,1-.9-1.3c0-.4.7-.6,1.6-.2,1.4.5,1.6.1,1.2-2-1.1-5.6,1.1-1.4,2.7,5.3.9,3.8,1.8,7,2,7a6,6,0,0,0,.8-2c.3-1.1.1-1.8-.4-1.4s-.9-.5-.9-1.8a29.54,29.54,0,0,0-1.4-6c-1.3-3.7-.2-5.6,1.1-2.1a11,11,0,0,0,2,3.1,7.3,7.3,0,0,1,1.4,4,13.53,13.53,0,0,0,1,4.7c.6,1.4.7.4.3-2.9-.6-4.7-.6-4.8,1.5-3.7,1.1.7,2.1,1.7,2.1,2.3s.9.2,2-1c2.6-2.8,3.3-2.8,2.5,0-.4,1.7-.1,1.5,1.2-.7.9-1.7,1.6-3.3,1.5-3.8s.3-.7.8-.7c1.3,0,1.3,2.7,0,3.5-1.5.9-1.2,4.5.4,4.5a2.21,2.21,0,0,1,1.9,1.8c.3,1,.5.7.6-1,.1-2-.3-2.6-1.4-2.2-.9.4-1.5,0-1.5-1s.6-1.5,1.3-1.3c1,.2,1.2-1.7.4-4.3-.1-.3.3-.6.8-.8s1.4,1.4,1.8,3.5,1.3,5.1,1.8,6.8c.8,2.8.8,2.8.4-.8-.4-4.1,1.8-5.4,3-1.6.6,1.9.9,1.9,2.2.7s1.2-2-.6-5.2c-2-3.6-3.1-7.7-1.2-4.8.6,1,1.3.3,2.4-2.5,1.4-3.5,8.7-11.8,8.7-9.9,0,.5,1.2.1,2.6-.9,2.2-1.4,2.8-1.5,3.6-.4.5.9.6.4.2-1.4-.3-1.5-.2-2.7.2-2.7,1.2.1,5,3,3.9,3-.5,0,0,.6,1,1.4s2.3,1.2,2.7.9,1.1.3,1.4,1.1,1,1.6,1.6,1.6.6-.5.3-1.1,1.2-.1,3.5,1.1,3.9,2.4,3.6,2.8-1.2,0-1.8-.6c-1.4-1.4-2.8-1.6-2.8-.5,0,1.4,4.9,3.2,5.3,2,.5-1.6,11.9,4.3,12.5,6.5.2,1,.8,1.5,1.3,1.2a.55.55,0,0,1,.9.5c0,.6.8,1.1,1.8,1.1a3.59,3.59,0,0,1,2.8,2.2c.6,1.3.9,1.7.7,1.1-.2-1,.2-1,1.6-.1a2.29,2.29,0,0,1,1.4,2.5,1.1,1.1,0,0,1-1.5.7c-.6-.4-.4.4.2,1.7,1.7,3.3,2.4,3.8,1.6,1.2-1-3.1.9-3.7,2.3-.6.6,1.4,1.4,2.3,1.8,2,1.3-1.4-4.6-9-10.1-13.1A169,169,0,0,0,161.5,168c-6.6-3.4-13.5-7.4-15.3-8.9-3-2.5-3.2-2.8-2.1-6.4.9-3.3.7-4.5-1.5-9.5-2.2-4.8-2.3-5.3-.6-3.3,2.6,3,2.6,1.5-.1-2.8-1.3-2.1-2.4-3-3-2.4-1.3,1.3-5,14.6-4.4,16,.9,2.6,2.7,1.3,2.3-1.7-.3-1.7-.1-3.3.4-3.6a4.68,4.68,0,0,0,.8-3c0-1.3.5-2.4,1.1-2.4s.8.7.5,1.6-.2,1.2.4.9.8,1,.4,3.7a26.89,26.89,0,0,0,.5,8.5c1.4,5.1,0,10.2-2.3,8.1a2.86,2.86,0,0,1-.8-2.7c.8-2-5.7,1.9-7,4.2a6.88,6.88,0,0,1-3.1,2.7c-1.6.6-1.8.9-.5.9.9.1,3-1.1,4.7-2.5s3.1-2,3.1-1.4c0,1.4-4,4.9-5.7,5-.8,0-1,.7-.6,1.7.6,1.6.5,1.6-1,.4-.9-.7-1.7-1-1.7-.6s-.7.2-1.5-.5c-1.1-.9-1.3-1.5-.5-2s-.1-1.2-1.9-2-3.1-1.8-3.1-2.4-.7-.3-1.4.7c-1,1.2-1.1,2.8-.6,5.3.8,3.4.6,3.9-3.8,8-2.6,2.4-4.1,4.4-3.4,4.4s1,.5.6,1.1c-.4.8-.9.8-1.7,0a4.33,4.33,0,0,0-2.6-1.1c-2.2,0-5-3-4.4-4.6a2.15,2.15,0,0,1,1.9-1.4c1,0,1.4-1.2,1.4-4s-.4-4-1.5-4c-.8,0-1.5-.5-1.5-1.1s.5-.7,1.2-.3.8.3.4-.5a1.66,1.66,0,0,0-3.1,1c0,1.8-3.7,1.8-4.3,0-.3-.8,0-1.1.7-.7s1.1.2,1.1-.3a1,1,0,0,0-1-1.1c-1,0-.9-2.7.1-4.5a13.58,13.58,0,0,0,1.2-3.6c.6-2.1,0-3.1-3.1-5.5-2-1.6-5.1-4.3-6.8-6a29.63,29.63,0,0,0-7-5.2c-5.4-2.8-14.9-11.9-17.3-16.7-1.9-3.5-1.9-4.1-.6-6.2.9-1.3,1.2-2.3.7-2.3-1,0-1-15.3,0-16,.3-.3,0-1.3-.7-2.3C62.7,95.5,62,95.3,61.5,95.9Zm.5,29.9c0,1,1.1,3.4,2.5,5.5s2.3,3.7,1.9,3.7.1.9,1.1,2,1.3,2,.7,2-1.9-1.1-3-2.5c-1.6-2.1-2.1-2.2-2.6-.9-.3.8-1,1.3-1.5.9s-.7-1.3-.4-2.2.2-1.4-.4-1c-1.3.8-2.4-1.8-1.7-3.8.4-.8,1.1-1.2,1.8-.8s.8.3,0-.6c-1.3-1.4-.7-5.4.7-4.5A2.83,2.83,0,0,1,62,125.8Zm14.4,13.8c6.4,6.5,11.6,12.2,11.6,12.8s-2-1-4.5-3.4-4.5-4-4.5-3.6-.9.1-2-.9-1.7-2.1-1.5-2.6-.5-1.8-1.7-3.1-1.7-1.6-.9-.6,1.2,2.1.8,2.4-1.5-.8-2.8-2.5-2.7-2.7-3.2-2.4-.7.2-.4-.4-.5-2.5-1.8-4.3-2.5-4.3-2.4-5.4c0-2.1,0-2.1.9,0C64.5,126.8,70.1,133.1,76.4,139.6Zm-15-.2c3.8,6.8,4.3,8.1,2.4,7-.7-.4-.8-.3-.4.5a1.27,1.27,0,0,0,1.6.6,1.27,1.27,0,0,1,1.6.6c.4.8.3.9-.4.5-1.8-1.1-1.4.2,1,3.4,1.1,1.6,2.5,2.7,2.9,2.4s1.1.1,1.5.7c.5.8.3.9-.7.4-.8-.5-.3.4,1,1.8,3.5,3.9,1.1,3.3-2.6-.6-6.6-6.9-14.7-20.6-13.7-23.1C56.5,131.3,57.4,132.3,61.4,139.4Zm4.7-.7c2.2,2.4,2.2,2.6.4,2s-1.9-.7-.1.8c1,.8,2.3,1.2,2.8.9s1.5,0,2.3.6,1.5.9,1.5.4,1.4.5,3,2.1c1.8,1.8,3,2.3,3,1.5s1.8.3,4,2.5,4,4.4,4,4.9-1.3-.4-2.9-2.2-3.3-3.2-3.7-3.2.2,1,1.4,2.3,1.9,2.7,1.5,3.2-.3.5.3.2,3,1.3,5.3,3.8c3.2,3.5,4,4,3.7,2.2-.2-1.2-.8-2.1-1.4-2s-1.8-.7-2.7-1.7-1.3-2-.7-2a2.33,2.33,0,0,1,1.7,1,1.1,1.1,0,0,0,1.5.5c1.3-.8,3.5,2.6,3.2,5-.2,1.3.1,2.6.7,2.9s.7,1.5.1,3.1c-.7,1.9-.6,2.3.5,1.8,1.7-.6,1.9,1,.5,3.8-.7,1.3-.7,1.9,0,1.9a1.08,1.08,0,0,1,1,1c0,.6-.6.9-1.2.8s-1.2.5-1.2,1.4c.2,2-2.1,3-5.5,2.3-2.8-.5-5.3-2.5-3.2-2.5.7,0,.9-.5.6-1a1.28,1.28,0,0,0-1.7-.4c-.6.4-.8.2-.5-.3s-.5-1.8-1.8-2.7-2.3-2.2-1.9-2.8.3-.8-.3-.5c-1.1.7-6.8-3.2-6-3.9.9-1-8.2-9.6-9.4-8.9-.7.5-1,.3-.7-.6.2-.7-2-5.1-4.9-9.7s-5.3-8.7-5.1-9.3,2.1,1.8,4.2,5.3c5.3,9.1,9.8,14.4,18.7,21.9,4.3,3.5,7.5,6.8,7.2,7.3s-.1.6.4.3c1.5-.9,3.1,1.4,2.8,4.1-.1,1.3.2,2.5.6,2.7s.6-.6.5-1.9c-.3-2.2,0-2.4,2.4-2.1,3,.4,3.2-.5,1.2-4.1-.6-1.2-.8-2.5-.4-2.9s.3-.5-.3-.3c-1.6.5-5.8-2.9-5.1-4.1.4-.6.1-.9-.7-.5a2.66,2.66,0,0,1-2.7-1.1,4.29,4.29,0,0,0-2.2-1.5c-.6,0-.5.7.2,1.5,1.4,1.7,0,2.1-1.7.4-.9-.9-.8-1.5,0-2.4,1-1,1.7-1,4,.2,2.6,1.3,2.8,1.3,1.9-.4a5.18,5.18,0,0,1-.5-3.1c.3-.6,0-1.2-.6-1.2a.8.8,0,0,0-.8,1.1,1.58,1.58,0,0,1-1.1,1.6c-.9.4-1.1-.4-.7-2.7.4-2.5.3-3.1-.8-2.7-.8.3-2.9-.7-4.7-2.3-2-1.7-2.7-2.9-2-3.2s.1-1.1-1.6-2.3l-2.9-1.8,1.9,2.1c2.8,3.2,1.1,2.7-3.5-1-2.3-1.8-3.7-3.8-3.4-4.5a1.58,1.58,0,0,0-1-1.9c-.8-.4-1.2-1-.9-1.5C63.3,135.7,63.4,135.7,66.1,138.7Zm5.9,1.8c2,2.4.6,2.8-1.5.5-1-1.1-1.3-2-.8-2A4.12,4.12,0,0,1,72,140.5Zm22.2,12.4c3.1,1.8,3.5,2.5,2.5,3.6s-2.2.4-7-4.3a82.19,82.19,0,0,1-7.9-8.7q-2.25-3.15,3.3,2.1A72.06,72.06,0,0,0,94.2,152.9Zm-18.9-.7c3.2,2.7,5.3,4.8,4.6,4.8s-1,.3-.6.6-.1,1.3-.9,2.1c-1.3,1.4-1.3,1.8.2,3.5,1,1,2.4,1.6,3.3,1.3,1.9-.8,11.6,8.6,9.9,9.6s-18.2-12.6-17.2-14.3c.3-.5-.2-1.6-1.2-2.3-1.5-1.1-1.6-1.5-.4-1.5.9-.1.2-1.2-1.9-3-1.9-1.6-3.2-3.3-2.8-3.6s-.1-1.7-1-2.8c-1.8-2-1.7-2,.2-.6C68.6,146.8,72.1,149.6,75.3,152.2Zm67.7-2.5c0,4.3-.9,3.9-1.5-.6-.2-1.7,0-3.1.5-3.1S143,147.6,143,149.7Zm-52.5,4.4c1.1,1.7-.1,2.1-1.5.4-.8-.9-.8-1.5-.2-1.5A2.17,2.17,0,0,1,90.5,154.1Zm31,12.9c1.7,0,1.3,4.3-.6,6.7a33.1,33.1,0,0,1-4.2,4.1c-1.5,1.3-2.5,2.7-2.3,3.1s-.5.8-1.6.8c-1.8.2-1.5-.4,1.7-3.7,3.9-4,5.2-8.4,3.2-10.9-1-1.2-.9-1.4.6-.8A10.93,10.93,0,0,0,121.5,167Zm-46.1,2.6c2,1.9,2,3.1.1,3.1-.8,0-1.5-.4-1.5-.8a11.15,11.15,0,0,0-.6-2.3C72.6,167.6,73.4,167.6,75.4,169.6Zm28.3.9c0,.8-.4,1.5-.7,1.5-1.2,0-3-2.6-2.4-3.3C101.6,167.7,103.7,169,103.7,170.5Zm.3,3.8c0,.5-.5.5-1,.2s-1.3.1-1.6,1c-.6,1.5-.8,1.5-2.4,0a3.84,3.84,0,0,1-1.3-3.5c.5-1.7.6-1.7,3.4-.2C102.7,172.8,104,173.9,104,174.3Zm21-2.1c0,.9.4.8,1.1-.2.8-1.2.9-1,.7.9-.3,2.8-2.8,4.1-2.8,1.5,0-.9-.3-1.5-.6-1.2s.1,3.1.9,6.1c1.4,5.2,1.4,5.4-.4,5-2.6-.7-3.4-4.7-2-9.4C123,171.2,125,169.5,125,172.2Zm3,13.8a1.1,1.1,0,0,1-1.1,1c-.5,0-.7-.5-.4-1s.8-1,1.1-1S128,185.4,128,186Z"/><path d="M76,142.4a6,6,0,0,0,1.5,1.6c1.3,1.1,1.4,1,.9-.4S76,141.3,76,142.4Z"/><path d="M58,138c.6,1.1,1.3,2,1.6,2s0-.9-.6-2-1.3-2-1.6-2S57.4,136.9,58,138Z"/><path d="M74.3,145.6c.9,1.1,1.5,2.3,1.2,2.6s.5,1.2,1.8,2c2.1,1.4,2.3,1.4,2.3-.3,0-1-.2-1.6-.5-1.3s-1.8-.8-3.5-2.3S73.3,144.4,74.3,145.6Z"/><path d="M86,159.5a4.29,4.29,0,0,0,2.2,1.5c.6,0,.5-.7-.2-1.5a4.29,4.29,0,0,0-2.2-1.5C85.2,158,85.3,158.7,86,159.5Z"/><path d="M88,162.3c0,1.6,2.1,4.7,3.3,4.7.8,0,.9-.3.1-.8a9.1,9.1,0,0,1-2.2-2.7C88.6,162.4,88,161.9,88,162.3Z"/><path d="M69,149.3a12.89,12.89,0,0,0,2.5,2.5c1.4,1.2,2.5,1.8,2.5,1.3s-1.1-1.6-2.5-2.5S69,149.1,69,149.3Z"/><path d="M75.4,154.9c.4.6.2,1.1-.5,1.1s-.8.4.1,1.5a4.29,4.29,0,0,0,2.2,1.5c.6,0,.4-.8-.3-1.7-1.2-1.5-1.2-1.6.4-1,2.4.9,2.1,0-.4-1.4C75.4,154.1,75,154.1,75.4,154.9Z"/><path d="M83.5,167a7.65,7.65,0,0,0,2.3,2c.3,0-.3-.9-1.3-2a7.65,7.65,0,0,0-2.3-2C81.9,165,82.5,165.9,83.5,167Z"/><path d="M88.5,171a7.65,7.65,0,0,0,2.3,2c.3,0-.3-.9-1.3-2a7.65,7.65,0,0,0-2.3-2C86.9,169,87.5,169.9,88.5,171Z"/><path d="M117,99c2,1.3,3.3,1.3,2.5,0a2.78,2.78,0,0,0-2.3-1C115.7,98,115.7,98.2,117,99Z"/><path d="M139.7,100.6a3.7,3.7,0,0,0-.7,2.3c0,1.1.3,1.2,1.1.4a2.33,2.33,0,0,0,.7-2.3C140.6,100.4,140.1,100.2,139.7,100.6Z"/><path d="M103.9,107c2.5,2.2,4.8,2.5,7.1,1,1.6-1.1.9-1.3-3.2-1-1.4.1-2.9-.3-3.3-.9a2.34,2.34,0,0,0-1.8-1.1C102,105.1,102.6,106,103.9,107Z"/><path d="M94.5,107c.3.5.8,1,1.1,1s.4-.5.4-1a1,1,0,0,0-1.1-1C94.4,106,94.2,106.4,94.5,107Z"/><path d="M121,107a1.1,1.1,0,0,0,1.1,1c.5,0,.7-.5.4-1s-.8-1-1.1-1S121,106.4,121,107Z"/><path d="M99.5,108c.9,1.4,8.1,5,10,5,.8,0,1.5-.4,1.5-1s-.7-.6-1.7-.3c-1.2.5-1.4.3-.8-.7.5-.8.4-1.1-.3-.6-1.2.7-6.2-1.3-6.2-2.6,0-.4-.7-.8-1.6-.8S99.2,107.5,99.5,108Z"/><path d="M144,109a1.08,1.08,0,0,0,1,1,1,1,0,0,0,1-1,.94.94,0,0,0-1-1A1,1,0,0,0,144,109Z"/><path d="M134.5,110c.3.5.8,1,1.1,1s.4-.5.4-1a1,1,0,0,0-1.1-1C134.4,109,134.2,109.4,134.5,110Z"/><path d="M45.4,112.1c-.7,1.2,1.5,3.1,2.8,2.3a.47.47,0,0,1,.8.4c0,.9,3.1,2.3,5.5,2.6a3,3,0,0,1,1.8,1.4c1,1.6,2.7.6,2.7-1.5,0-.9-.3-1.4-.6-1.1s-3-.7-6.1-2.3C46,110.6,46.3,110.7,45.4,112.1Z"/><path d="M85.4,113.4c-.9,2-.9,2.6.3,3,2.3.9,2.9.7,1.3-.5-1.1-.8-1.2-1.2-.2-1.6,1.3-.5,1.7-3.3.5-3.3C86.8,111,86,112.1,85.4,113.4Z"/><path d="M57,114a1.08,1.08,0,0,0,1,1,1,1,0,0,0,1-1,.94.94,0,0,0-1-1A1,1,0,0,0,57,114Z"/><path d="M112,116.9a2,2,0,0,0,.8,1.5c.5.3.9-.1.9-.9s-.4-1.5-.9-1.5A.88.88,0,0,0,112,116.9Z"/><path d="M189.6,116.8a2.51,2.51,0,0,0,.5,2.2c.7,1.2.9,1,.9-.8C191,115.9,190.5,115.4,189.6,116.8Z"/><path d="M100.1,117.9a2.1,2.1,0,0,0-1,2c.2.6,1,.2,1.7-.9C102.2,116.8,102.1,116.7,100.1,117.9Z"/><path d="M115.6,118.5c.4.8,1.1,1.5,1.6,1.5s.5-.6-.2-1.5a6,6,0,0,0-1.6-1.5C115.2,117,115.3,117.7,115.6,118.5Z"/><path d="M91.1,121.6c0,1.1.3,1.4.6.6a2,2,0,0,0-.1-1.9C91.3,119.9,91,120.5,91.1,121.6Z"/><path d="M118,122c-1.3,1.1-1.9,2-1.3,2a6.31,6.31,0,0,0,2.8-2c1-1.1,1.6-2,1.3-2A11.38,11.38,0,0,0,118,122Z"/><path d="M87.2,125.4a12.26,12.26,0,0,0,5.2,5.9c5.2,2.4,14.5,4,19.9,3.2,7.2-.9,10.3-2.8,14-8.7,2.1-3.4,2.2-4.4.2-2.8a4.31,4.31,0,0,0-1.5,2.4c0,1.5-6.2,6.8-8.6,7.3-5.1,1.1-14.3.5-19.1-1.2-2.9-1-5.3-2.3-5.3-2.7s-.5-.7-1.2-.6a1,1,0,0,1-1.3-.9,3.16,3.16,0,0,0-.7-1.9,3.84,3.84,0,0,1-.8-2.6,1.69,1.69,0,0,0-1.5-1.8C85.3,121,85.4,121.8,87.2,125.4Z"/><path d="M105,122.6c0,1.7,2.2,1.4,2.8-.4.2-.7-.3-1.2-1.2-1.2A1.58,1.58,0,0,0,105,122.6Z"/><path d="M132,123a1.1,1.1,0,0,0,1.1,1c.5,0,.7-.5.4-1s-.8-1-1.1-1S132,122.4,132,123Z"/><path d="M140.7,127.4c-1.5,3.1-2.3,5.6-1.9,5.6,1.1,0,5.4-8.8,5-10.1C143.6,122.4,142.2,124.4,140.7,127.4Z"/><path d="M100.8,123.7a2,2,0,0,0,1.9-.1c.4-.3-.2-.6-1.3-.5S100,123.4,100.8,123.7Z"/><path d="M112.8,124.7c-1.6.4-3.4,3.3-2,3.3,1-.1,4.6-2.9,4.1-3.3A3.46,3.46,0,0,0,112.8,124.7Z"/><path d="M189.9,126.2c-.5,1.6-.3,5.8.3,5.8.4,0,.8-1.4.8-3s-.2-3-.5-3A.85.85,0,0,0,189.9,126.2Z"/><path d="M39,147.5c-1.9,1.4-2.9,2.5-2.3,2.5a2.23,2.23,0,0,0,1.8-1,1.61,1.61,0,0,1,1.9-.4c.8.3,3.1-.4,5.3-1.6,3.6-2,3.2-2.2-1.1-.4-1.4.5-1.7.4-1.2-.4C44.5,144.3,42.8,144.9,39,147.5Z"/><path d="M53.3,145.7c.9.2,1.7.9,1.7,1.4s-.4.7-1,.4-.7.1-.3,1c.4,1.2.8,1.3,1.3.5.8-1.3,3.8,6.6,7.4,19.5,3,10.7,7.1,22.3,8.1,23.3.5.4.5.1.1-.6s-.2-1.2.6-1.2.9-.3.2-.8c-2.6-1.8-11.8-31.9-10.6-35,.3-1,.1-1.3-.6-.8s-1.9-1.1-3.1-3.9c-1.4-3.1-2.6-4.5-3.8-4.4C51.6,145.2,51.6,145.3,53.3,145.7Z"/><path d="M45.3,149c-2.4,1-4.3,2.5-4.3,3.2,0,1,.2,1,.9-.1s1.2-.4,2,2.5c1.5,5.3,1.2,6.7-.4,2.4-.7-1.9-1.4-2.8-1.4-2-.1,2,5.9,21.3,6.4,20.8.3-.2-.4-3.3-1.5-6.9-3.7-12-1.9-8.4,3.1,6.1,6.1,18,5.8,17.4,6.4,16.8.3-.3-.4-3.1-1.5-6.3-2.7-7.8-1.9-8.2,1-.5,1.2,3.3,2.6,6.3,3,6.5s-.4-2.7-1.8-6.5-3.2-7-3.8-7-2.8-5.5-4.8-12.3c-5.1-16.6-5-16.1-3.7-15.3.6.4,1.1.1,1.1-.6.1-2.5,2.8,3.8,4.4,10.3,2.7,11.1,10.4,32.5,11.3,31.5.2-.2-.7-3-2-6.2S56,175.2,54.5,170s-3.5-12-4.6-15c-1.4-4.1-1.5-5.6-.6-6.2a1.65,1.65,0,0,1,1.9,0c.3.4,2.3,6.3,4.3,13.2,4.7,16.3,10.4,31.9,10.5,28.7,0-1-1.1-4.3-2.4-7.5S59.8,172.3,58,166c-4-14.1-5.9-19-7.4-19A23.32,23.32,0,0,0,45.3,149Z"/><path d="M147.7,149.7c-.4.7.1,1.7,1.2,2.2,2.5,1.4,3.1,1.4,3.1.1,0-.6-.6-1-1.4-1a1.87,1.87,0,0,1-1.8-1.2C148.5,148.9,148.2,148.9,147.7,149.7Z"/><path d="M21.5,151c-.4.6.1.7,1.1.3s1.5-.2,1.1.4,0,1.3.8,1.7c1.6.6,1.6-1.4,0-2.6C23.1,149.8,22.2,149.8,21.5,151Z"/><path d="M50,150.6c0,1.5,3.3,10.4,3.7,10S51.1,150,50.4,150C50.2,150,50,150.3,50,150.6Z"/><path d="M29,152c-.9.6-1,1-.3,1a2.53,2.53,0,0,0,1.8-1C31.3,150.8,30.9,150.8,29,152Z"/><path d="M32.9,151.7a4.29,4.29,0,0,0,0,1.6c.1.4-.5,1-1.2,1.3-1.1.4-.9,2.5,1.4,10.7,3.7,13.7,8,27,8.6,26.4.2-.3-1.6-7-4.1-14.8-4.4-14.4-6.6-23.7-4.7-21,.7,1.1,1,1,1.4-.5.3-1,.4.3.2,3.1-.3,4-.2,4.4.4,2,.5-1.7.9-2.2,1-1.2s1.2,5.1,2.5,9S41.8,178.9,43,183s2.7,7.9,3.3,8.5.8.5.5-.5c-3.9-11.8-4.9-15.2-4.6-16.2.2-.6,1.7,3.1,3.4,8.2s3,8.7,3.1,7.9S47.2,184.3,45,178s-3.8-9.9-3.5-8l.5,3.5-1.4-3a77.55,77.55,0,0,1-3.2-9.9c-1.4-5.7-1.5-7-.3-7.7s1.7.3,2.7,3.9c2.6,9.3,10.4,32.7,11.3,34.2,1.3,1.8,1.7,3.2-5-17.4-2.8-8.7-5.1-16.5-5.1-17.5a7.77,7.77,0,0,0-1.4-3.7c-1.2-1.5-1.7-1.7-2.7-.7-1.5,1.5-4.3,1.7-3.4.3.3-.6.4-1,.1-1A.75.75,0,0,0,32.9,151.7Z"/><path d="M137,154.5c-1,2.4-1.3,2.7-1.9,1.3s-.9-1.2-2.4,1.3c-1.7,3-1.7,3.1,0,2.4a23.38,23.38,0,0,1,4-1.2c2.6-.6,3.7-2.8,2.4-5.1C138.3,151.7,138,151.9,137,154.5Z"/><path d="M3,154.5c-1.4.8-2,1.4-1.4,1.5a8.14,8.14,0,0,0,3-1.5C7,152.7,6.2,152.6,3,154.5Z"/><path d="M12.6,153.9c-.3.4.6.6,1.9.3s2.5-.6,2.5-.8C17,152.6,13.1,153,12.6,153.9Z"/><path d="M18.5,155c-.3.5-.1,1,.4,1a1.1,1.1,0,0,0,1.1-1c0-.6-.2-1-.4-1S18.8,154.4,18.5,155Z"/><path d="M24.8,155.2c-3.2,1.1-3.4,2.2-1.3,10.1,2,7.7,1.7,8.5-.5,1.7-1.1-3-1.9-4.6-1.9-3.5.1,3,2.5,9,3.6,8.8.9-.2,2.5,4.4,5.4,15.1.7,2.8,1.4,4.5,1.6,4s-1.3-6.6-3.3-13.5c-5.3-18-5.7-20.1-4.2-21,1.8-1.1,2.8-.1,2.7,2.9,0,2.6-.1,2.6-.9.4-1.2-2.9-1.8-2.8-1.2.3.2,1.4.9,2.5,1.6,2.5,1.6,0,5.1,12.5,5.1,18.2,0,2.6.6,5.3,1.3,6,1,1,1,.6.1-2a10.21,10.21,0,0,1-.7-4.4c.2-.6,1.2,1.6,2.2,5.1s2,6.1,2.2,5.8-.2-2.9-1.1-5.9c-2.8-9.2-6.2-21.2-6.9-24.3-.4-1.7-.9-3.8-1.3-4.9s-.1-1.6.6-1.2,1.1.2,1.1-.3C29,153.8,28.4,153.8,24.8,155.2Z"/><path d="M3.6,157.2c-2.1,1-3.6,2.1-3.3,2.4s7.3-2.9,8.6-4.2C9.9,154.5,7.2,155.4,3.6,157.2Z"/><path d="M47.1,156.6c0,1.1.3,1.4.6.6a2,2,0,0,0-.1-1.9C47.3,154.9,47,155.5,47.1,156.6Z"/><path d="M15,157a1,1,0,0,0,1,1c.5,0,.7,1.5.5,3.2-.4,2.5-.3,2.7.3.9s1.7,1.3,5.2,13.8c2.5,8.8,4.8,16.1,5.2,16.1s.5-.6.3-1.3S25.3,183,23,175s-4.6-15.5-5.2-16.8C16.6,155.9,15,155.2,15,157Z"/><path d="M57.1,157.6c0,1.1.3,1.4.6.6a2,2,0,0,0-.1-1.9C57.3,155.9,57,156.5,57.1,157.6Z"/><path d="M10.8,157.7c1,.4.9.8-.3,1.7-1.5,1.1-1.3,2.5,2,15.6,4,16.2,4.4,17.5,5,16.9.2-.3-1.4-7.4-3.5-15.9-2.9-11.3-3.6-15.6-2.8-16.1,1.8-1.1,2.8-.1,2.8,2.7,0,1.4-.4,2.3-.9,2s-.6.7-.2,2.2l.5,2.7.4-2.5c.3-1.7,1.3.6,3.3,7.5A115.31,115.31,0,0,1,20,185.7c0,1.8,2,6.6,2.5,6.1.3-.3-1.3-6.9-3.5-14.7s-4-14.8-4-15.5c0-1.8-2.7-4.6-4.3-4.5C9.9,157.1,9.9,157.3,10.8,157.7Z"/><path d="M29.1,158.6c0,1.1.3,1.4.6.6a2,2,0,0,0-.1-1.9C29.3,156.9,29,157.5,29.1,158.6Z"/><path d="M4.5,160.4c-2.2,1.3-3.9,2.8-3.9,3.2.8,5.8,5.9,27.1,6.7,27.9.6.7.7.3.4-1-.3-1.1-1.5-6.3-2.7-11.5s-2.4-10.9-2.9-12.7c-.7-2.5-.5-3.3.7-3.8a3.32,3.32,0,0,1,1.7-.3c.1.2,1.7,6.6,3.5,14.3s3.6,14.4,4.2,15,.7.1.3-1.5c-.3-1.4-2.1-8.5-3.9-15.7L5.3,161l2.1-1.4C10.6,157.3,9,157.8,4.5,160.4Z"/><path d="M20.1,159.6c0,1.1.3,1.4.6.6a2,2,0,0,0-.1-1.9C20.3,157.9,20,158.5,20.1,159.6Z"/><path d="M48.1,160a10.63,10.63,0,0,0,.9,3.5c.5,1.3.9,1.4.9.5a10.63,10.63,0,0,0-.9-3.5C48.5,159.2,48.1,159.1,48.1,160Z"/><path d="M127.2,160.8c-1.3,1.3-2.5,1.6-3.8,1.1-1.1-.5-1.3-.8-.5-.8s1.2-.4.8-.7-1.3-.2-2.2.3c-1.4.8-1.3,1.1,1.2,2.1,5.3,2,7.3,2.4,7.3,1.2,0-.6-.4-.9-.9-.5-1.9,1.1-2.3-1.7-.5-3,1.1-.8,1.6-1.5,1.2-1.5A6,6,0,0,0,127.2,160.8Z"/><path d="M7.2,162a20,20,0,0,0,.8,4c.6,2,.8,2.1.8.5a11.4,11.4,0,0,0-.8-4C7.5,161.3,7.2,161.1,7.2,162Z"/><path d="M30.1,162.6c0,1.1.3,1.4.6.6a2,2,0,0,0-.1-1.9C30.3,160.9,30,161.5,30.1,162.6Z"/><path d="M98,162c.8.5,1.1,1,.6,1s-.5.5.1,1.1c.8.8,1.6.8,3,0,1.7-1,1.7-1,.1-1.1-1,0-1.8-.5-1.8-1s-.8-1-1.7-1C96.8,161,96.7,161.2,98,162Z"/><path d="M55.3,169c1.1,3.9,2.2,6.8,2.4,6.6.6-.6-3-13.6-3.8-13.6C53.5,162,54.1,165.2,55.3,169Z"/><path d="M59.2,164.5a11.4,11.4,0,0,0,.8,4c1.1,2.5,1.1-.1,0-3.5C59.4,163,59.2,162.9,59.2,164.5Z"/><path d="M26.1,165.6c0,1.1.3,1.4.6.6a2,2,0,0,0-.1-1.9C26.3,163.9,26,164.5,26.1,165.6Z"/><path d="M31.1,166.6c0,1.1.3,1.4.6.6a2,2,0,0,0-.1-1.9C31.3,164.9,31,165.5,31.1,166.6Z"/><path d="M4.1,168.6c0,1.1.3,1.4.6.6a2,2,0,0,0-.1-1.9C4.3,166.9,4,167.5,4.1,168.6Z"/><path d="M66.5,174.6c1.3,4.2,2.7,7.9,3.1,8.2s.4,0,.1-.8-1.3-4.5-2.3-8.3-2.2-6.7-2.5-6.7S65.2,170.4,66.5,174.6Z"/><path d="M138.5,168a1.17,1.17,0,0,1-1.4.6c-1.2-.8-10.1,9.7-10.1,11.8s3.3,0,6.1-3.7c2-2.5,2.4-3.4,1.1-2.3s-2.2,1.5-2.2.9c0-1.4,3.5-4.4,4.3-3.7.3.3,1.1-.3,1.9-1.5,1.2-2,1.3-2,3,1.2l1.8,3.2-.6-3C141.4,166.9,140,165.6,138.5,168ZM131,178.5c-.7.9-1.5,1.3-1.8,1s.1-1.1.8-2,1.5-1.3,1.8-1S131.7,177.6,131,178.5Z"/><path d="M9,169.4c0,2.1,5.4,22.8,5.7,21.9.2-.6-.8-5.7-2.3-11.4C10,170.5,9,167.4,9,169.4Z"/><path d="M18.6,171.5c1.4,5.7,4.3,13.9,4.3,12.4C23,182.1,19,169,18.4,169,18.2,169,18.2,170.1,18.6,171.5Z"/><path d="M32.6,171.5c1.1,4.8,2.5,7.6,1.8,3.5a21.66,21.66,0,0,0-1.5-5Q32,168.5,32.6,171.5Z"/><path d="M154,170.9a1.9,1.9,0,0,0,1,1.6c.6.3.7-.1.4-.9C154.7,169.8,154,169.5,154,170.9Z"/><path d="M.1,172.6c0,1.1.3,1.4.6.6a2,2,0,0,0-.1-1.9C.3,170.9,0,171.5.1,172.6Z"/><path d="M4.7,173c.3,1.1.7,2,.9,2s.4-.9.4-2-.4-2-.9-2S4.4,171.9,4.7,173Z"/><path d="M14.1,171.5c.1,1.9,1.8,5.1,1.8,3.5a6.91,6.91,0,0,0-.9-3C14.5,171.2,14.1,170.9,14.1,171.5Z"/><path d="M61.1,172a6.91,6.91,0,0,0,.9,3c1.2,1.8,1.2.2,0-2.5C61.4,171.2,61.1,171,61.1,172Z"/><path d="M134.8,177c-4.7,5.8-5.8,7.7-3.8,6.5.6-.3,1-.2,1,.4a2,2,0,0,1-1,1.6,2.14,2.14,0,0,0-.9,1.8c0,.9.2.8.6-.1.7-1.8,2.3-.4,2.4,2.1.1,2,.2,2,.8-.3.4-1.4.4-2.7,0-3-1.1-.8-1.3-3.3-.5-5.3,1.1-2.3,2.6-2.2,2.6.4,0,1.1-.4,1.7-1,1.4s-1-.1-1,.4.4,1.1.8,1.1,1.3,1.7,1.9,3.7c1.1,3.8,1.1,3.8.7-1.2-.3-2.8-.8-6.3-1.1-7.9-.4-2.1-.2-2.7.7-2.1s1.1.4.5-.5-.4-1.2.7-.7,1.5-.1,1.4-1.9c0-1.3-.1-2.4-.1-2.4S137.4,173.7,134.8,177Z"/><path d="M71.1,173.6c0,1.1.3,1.4.6.6a2,2,0,0,0-.1-1.9C71.3,171.9,71,172.5,71.1,173.6Z"/><path d="M152.1,172.5c.1,1.9,1.8,5.1,1.8,3.5a6.91,6.91,0,0,0-.9-3C152.5,172.2,152.1,171.9,152.1,172.5Z"/><path d="M158,172.9a1.9,1.9,0,0,0,1,1.6c.6.3.7-.1.4-.9C158.7,171.8,158,171.5,158,172.9Z"/><path d="M38.1,174a6.91,6.91,0,0,0,.9,3c1.2,1.8,1.2.2,0-2.5C38.4,173.2,38.1,173,38.1,174Z"/><path d="M147.1,174a10.63,10.63,0,0,0,.9,3.5c.5,1.3.9,1.4.9.5a10.63,10.63,0,0,0-.9-3.5C147.5,173.2,147.1,173.1,147.1,174Z"/><path d="M165,175.3c1.1,1.2,2.9,3.3,4.1,4.7,2.5,2.8,2.3,2-.6-2.7-1.1-1.8-2.8-3.4-3.8-3.7C163.1,173.2,163.2,173.4,165,175.3Z"/><path d="M29.1,175a6.91,6.91,0,0,0,.9,3c1.2,1.8,1.2.2,0-2.5C29.4,174.2,29.1,174,29.1,175Z"/><path d="M179.4,175.2c-.3.4.1.8.8.9s3.2.1,5.5.3c3.6.2,8.8-1.1,5.8-1.5C187.4,174.4,179.8,174.6,179.4,175.2Z"/><path d="M1.2,177.5c0,1.6.2,2.2.5,1.2a7.56,7.56,0,0,0,0-3C1.4,175.1,1.2,175.8,1.2,177.5Z"/><path d="M141.5,176.1a14.59,14.59,0,0,1,1.1,4.7,57.07,57.07,0,0,0,1.3,7.2c.8,3,.9,2.8.6-2.1-.4-5.5-1.9-10.9-3-10.9C141.1,175,141.2,175.5,141.5,176.1Z"/><path d="M169,175.9a2.34,2.34,0,0,0,1,1.6c.6.3,1,.2,1-.4a2,2,0,0,0-1-1.6C169.5,175.2,169,175.3,169,175.9Z"/><path d="M6.1,177.6c0,1.1.3,1.4.6.6a2,2,0,0,0-.1-1.9C6.3,175.9,6,176.5,6.1,177.6Z"/><path d="M72.1,177c0,1.7,3.8,11,3.8,9.5.1-.6-.8-3.3-1.9-6S72.1,176.2,72.1,177Z"/><path d="M77.8,180.5c.9,2.4,1.8,4.3,1.9,4.1.6-.6-2.1-8.6-2.9-8.6C76.4,176,76.8,178,77.8,180.5Z"/><path d="M159.1,177.6c0,1.1.3,1.4.6.6a2,2,0,0,0-.1-1.9C159.3,175.9,159,176.5,159.1,177.6Z"/><path d="M16.7,180.5a28.09,28.09,0,0,0,1.4,6c.8,2,.8,2,.8,0a28.74,28.74,0,0,0-1.4-6l-1.4-4Z"/><path d="M103.2,178.7a2.76,2.76,0,0,0,2.6,1.9c2.7.2,2.9-1.2.3-2.6S102.8,176.7,103.2,178.7Z"/><path d="M164,177.7a2.19,2.19,0,0,0,1.1,1.8,1.93,1.93,0,0,1,.5,2.2c-.3.8-.2,1.2.3.9,1.5-.9,3.4,2.3,3.3,5.4,0,1.7.3,3,.7,3,1.8,0-.1-6.4-2.9-10.3C165.4,178.4,164,177.1,164,177.7Z"/><path d="M172,178.5c0,.8.4,1.5,1,1.5s.7-.7.4-1.5-.8-1.5-1-1.5S172,177.7,172,178.5Z"/><path d="M40.1,180.6c0,1.1.3,1.4.6.6a2,2,0,0,0-.1-1.9C40.3,178.9,40,179.5,40.1,180.6Z"/><path d="M145.6,180.3c.3,1,.9,1.5,1.2,1.2s0-1.1-.7-1.8C145.1,178.8,145,178.9,145.6,180.3Z"/><path d="M151.6,180.3c.3,1,.9,1.5,1.2,1.2s0-1.1-.7-1.8C151.1,178.8,151,178.9,151.6,180.3Z"/><path d="M162.6,180.3c.3,1,.9,1.5,1.2,1.2s0-1.1-.7-1.8C162.1,178.8,162,178.9,162.6,180.3Z"/><path d="M7.3,184c.6,2.2,1.3,3.8,1.5,3.6.6-.7-1-7.6-1.8-7.6C6.6,180,6.8,181.8,7.3,184Z"/><path d="M50.1,181a6.91,6.91,0,0,0,.9,3c1.2,1.8,1.2.2,0-2.5C50.4,180.2,50.1,180,50.1,181Z"/><path d="M59.1,180c-.1.3,1,3.2,2.4,6.5S64,191.8,64,191C64,189.6,59.2,178.9,59.1,180Z"/><path d="M160,180.8a6.18,6.18,0,0,0,2,2.7c1.1,1,2,1.5,2,1.2a7.56,7.56,0,0,0-2-2.7C160.9,180.9,160,180.4,160,180.8Z"/><path d="M.6,185.5c.3,2.7,1,5.4,1.5,5.9,1.1,1.2,1.1,1.3-.6-5.4L0,180.5Z"/><path d="M83.1,182.6c0,1.1.3,1.4.6.6a2,2,0,0,0-.1-1.9C83.3,180.9,83,181.5,83.1,182.6Z"/><path d="M159,184c.6,1.1,1.6,2,2.2,2s.3-.9-.7-2a9.54,9.54,0,0,0-2.2-2C158.1,182,158.4,182.9,159,184Z"/><path d="M178,182.7a1,1,0,0,1,.6,1.2c-.3.4,0,1.3.5,2.1.8,1.2.9.9.7-.9-.2-1.4-.9-2.6-1.6-2.7S177.4,182.4,178,182.7Z"/><path d="M146.4,185c0,1.1.4,2,.8,2s.8.9.8,2,.4,2,.9,2,.6-1.3-.1-3.3C147.4,183.6,146.4,182.5,146.4,185Z"/><path d="M150.2,184a21.56,21.56,0,0,0,1.3,5c.9,2.3,1.4,2.8,1.4,1.5a14.12,14.12,0,0,0-1.4-5C150.8,183.8,150.2,183.2,150.2,184Z"/><path d="M153,183.5a6.8,6.8,0,0,0,1,2.5c.5.8,1,1,1,.5a6.21,6.21,0,0,0-1-2.5C153.5,183.2,153,182.9,153,183.5Z"/><path d="M156,183.1c0,.2.7,2.2,1.5,4.4,1.1,3.2,1.4,3.5,1.4,1.5a8.2,8.2,0,0,0-1.4-4.4C156.7,183.5,156,182.8,156,183.1Z"/><path d="M171,183.9a1.9,1.9,0,0,0,1,1.6c.6.3.7-.1.4-.9C171.7,182.8,171,182.5,171,183.9Z"/><path d="M3.2,185.5A20.39,20.39,0,0,0,4,190c.6,2,.8,2.1.8.5A20.39,20.39,0,0,0,4,186C3.4,184,3.2,183.9,3.2,185.5Z"/><path d="M139.8,186.5c.2,1.5,1.1,2.5,2.1,2.4s1.1-.2.4-.6a2.54,2.54,0,0,1-1.3-2.4c0-1-.4-1.9-.9-1.9S139.5,185.1,139.8,186.5Z"/><path d="M189,185.9a4.12,4.12,0,0,0,1.5,2.1c1.3,1,1.5.9,1.5-.9,0-1.2-.6-2.1-1.5-2.1S189,185.4,189,185.9Z"/><path d="M23.1,187.6c0,1.1.3,1.4.6.6a2,2,0,0,0-.1-1.9C23.3,185.9,23,186.5,23.1,187.6Z"/><path d="M52.1,187a6.91,6.91,0,0,0,.9,3c1.2,1.8,1.2.2,0-2.5C52.4,186.2,52.1,186,52.1,187Z"/><path d="M88.1,187.6c0,1.1.3,1.4.6.6a2,2,0,0,0-.1-1.9C88.3,185.9,88,186.5,88.1,187.6Z"/><path d="M163.5,187c.3.5.8,1,1.1,1s.4-.5.4-1a1,1,0,0,0-1.1-1C163.4,186,163.2,186.4,163.5,187Z"/><path d="M28.1,188a6.91,6.91,0,0,0,.9,3c1.2,1.8,1.2.2,0-2.5C28.4,187.2,28.1,187,28.1,188Z"/><path d="M110,188.4c0,.7,1.1,1.8,2.5,2.4,1.9.9,2.5.9,2.5-.1,0-.6-1.1-1.7-2.5-2.4C110.6,187.4,110,187.5,110,188.4Z"/><path d="M38.1,189.6c0,1.1.3,1.4.6.6a2,2,0,0,0-.1-1.9C38.3,187.9,38,188.5,38.1,189.6Z"/><path d="M106,189a1.1,1.1,0,0,0,1.1,1c.5,0,.7-.5.4-1s-.8-1-1.1-1S106,188.4,106,189Z"/><path d="M155.1,189.6c0,1.1.3,1.4.6.6a2,2,0,0,0-.1-1.9C155.3,187.9,155,188.5,155.1,189.6Z"/><path d="M161.1,189.6c0,1.1.3,1.4.6.6a2,2,0,0,0-.1-1.9C161.3,187.9,161,188.5,161.1,189.6Z"/><path d="M172.1,189.6c0,1.1.3,1.4.6.6a2,2,0,0,0-.1-1.9C172.3,187.9,172,188.5,172.1,189.6Z"/><path d="M180,188.5a6.8,6.8,0,0,0,1,2.5c.5.8,1,1.1,1,.5a6.21,6.21,0,0,0-1-2.5C180.5,188.2,180,187.9,180,188.5Z"/><path d="M9.1,190.6c0,1.1.3,1.4.6.6a2,2,0,0,0-.1-1.9C9.3,188.9,9,189.5,9.1,190.6Z"/><path d="M19.1,190.6c0,1.1.3,1.4.6.6a2,2,0,0,0-.1-1.9C19.3,188.9,19,189.5,19.1,190.6Z"/><path d="M33,189.9a1.9,1.9,0,0,0,1,1.6c.6.3.7-.1.4-.9C33.7,188.8,33,188.5,33,189.9Z"/><path d="M43.1,190.6c0,1.1.3,1.4.6.6a2,2,0,0,0-.1-1.9C43.3,188.9,43,189.5,43.1,190.6Z"/><path d="M84.1,190.6c0,1.1.3,1.4.6.6a2,2,0,0,0-.1-1.9C84.3,188.9,84,189.5,84.1,190.6Z"/><path d="M128,189.9a2.14,2.14,0,0,0,1,1.6c.6.3,1-.1,1-.9s-.4-1.6-1-1.6A1,1,0,0,0,128,189.9Z"/></svg>