<?xml version="1.0" encoding="utf-8"?>
<!-- Generator: Adobe Illustrator 25.2.1, SVG Export Plug-In . SVG Version: 6.00 Build 0)  -->
<svg version="1.1" id="Layer_1" xmlns="http://www.w3.org/2000/svg" xmlns:xlink="http://www.w3.org/1999/xlink" x="0px" y="0px"
	 viewBox="0 0 192 192" style="enable-background:new 0 0 192 192;" xml:space="preserve">
<g transform="translate(0.000000,192.000000) scale(0.100000,-0.100000)">
	<path d="M1353,1913c9-2,23-2,30,0c6,3-1,5-18,5C1349,1918,1343,1916,1353,1913z"/>
	<path d="M915,1680c-4-6-11-7-17-4c-6,4-8,2-5-3c4-6-15-20-43-32s-50-26-50-32s-5-7-12-3c-7,5-8,3-3-6c6-10,4-12-10-6
		c-25,9-58-15-96-71l-32-48l52,58c29,31,58,57,64,57s-1-12-15-27c-40-43-78-117-77-149c0-25,4-21,30,32c47,98,164,214,202,201
		c7-2-1-11-18-21c-27-15-28-16-5-11c24,6,24,5,6-9c-10-9-24-13-30-9c-6,3-8,3-4-1c4-5-4-20-18-35c-38-40-65-104-71-168
		c-7-67,4-69,12-2c12,95,77,190,160,235c40,21,45,34,14,34c-15,0-19,5-15,15C940,1692,925,1696,915,1680z M915,1632c-11-9-15-11-8-3
		c6,7,9,21,6,30c-5,13-3,14,8,3C932,1652,931,1647,915,1632z"/>
	<path d="M960,1681c0-5,7-14,15-21c11-10,18-10,29-1c8,7,26,9,43,5c20-5,25-3,18,4C1052,1682,960,1693,960,1681z"/>
	<path d="M1105,1646c17-7,32-11,35-9c8,7-24,23-45,22C1080,1659,1082,1656,1105,1646z"/>
	<path d="M1160,1640c8-5,22-9,30-9c10,0,8,3-5,9C1158,1652,1142,1652,1160,1640z"/>
	<path d="M1129,1608c13-15,21-34,18-42c-4-9-2-16,3-16c20,0,9,37-17,61l-28,24L1129,1608z"/>
	<path d="M1222,1614c10-10,20-15,24-12c3,4-5,12-18,18C1206,1632,1206,1632,1222,1614z"/>
	<path d="M688,1573c-59-63-88-114-88-155c0-21,4-38,9-38c4,0,8,17,8,38c0,46,19,83,73,145C740,1619,739,1625,688,1573z"/>
	<path d="M1176,1584c5-24,1-37-14-52c-17-17-18-21-6-26c8-3,13-2,10,3s1,14,9,21c17,14,19,48,5,70C1173,1611,1172,1606,1176,1584z"
		/>
	<path d="M990,1590c0-5,4-10,10-10c5,0,7-8,4-17c-4-11-2-14,3-8c13,15,34,17,50,4c12-11,12-9,2,14c-7,15-16,27-21,27s-6-4-3-10
		c3-5,2-10-4-10c-5,0-13,5-16,10c-3,6-10,10-16,10C994,1600,990,1596,990,1590z"/>
	<path d="M1078,1582c9-10,19-17,21-16c6,5-20,34-30,34C1064,1600,1068,1592,1078,1582z"/>
	<path d="M925,1558c-22-26-26-38-21-67c3-20,6-49,7-66c2-26,3-24,8,10c3,22,3,41,0,43c-10,4,2,45,17,60c7,7,15,8,18,3c4-5,1-11-5-13
		c-7-2-9-13-5-26c4-12,12-19,18-16c7,4,6,9-3,14c-10,7-10,11,0,24c7,8,10,20,6,26c-3,5-1,10,4,10c6,0,11,7,11,15
		C980,1600,953,1592,925,1558z"/>
	<path d="M1270,1573l35-17l-35-4c-19-2-39-7-43-11s5-6,21-3c16,2,44-4,61-13l33-16l-24,33c-29,41-38,48-63,47
		C1241,1589,1245,1584,1270,1573z"/>
	<path d="M786,1537c-47-62-68-202-34-223c7-5,8-2,4,5c-12,19-9,108,5,149c7,20,23,52,37,70c13,17,22,32,19,32S800,1555,786,1537z"/>
	<path d="M1110,1560c0-5,5-10,11-10c5,0,7,5,4,10c-3,6-8,10-11,10C1112,1570,1110,1566,1110,1560z"/>
	<path d="M1201,1533c0-12-7-24-13-27c-7-2,1-5,17-5c35,1,109-17,137-32c10-6,28-25,38-42c11-18,20-27,20-21s-10,26-23,45
		c-23,34-31,38-119,60c-28,7-49,18-51,28C1204,1550,1202,1548,1201,1533z"/>
	<path d="M1095,1530c-4-6,3-10,14-10c25,0,27,6,6,13C1107,1537,1098,1535,1095,1530z"/>
	<path d="M1065,1510c-3-5-1-10,4-10c6,0,11,5,11,10c0,6-2,10-4,10C1073,1520,1068,1516,1065,1510z"/>
	<path d="M1120,1500c0-5,5-10,11-10c5,0,7,5,4,10c-3,6-8,10-11,10C1122,1510,1120,1506,1120,1500z"/>
	<path d="M846,1475c-3-9-6-22-5-28c0-7,5-1,10,12s8,26,5,28C854,1489,850,1484,846,1475z"/>
	<path d="M1190,1480c-9-6-10-10-3-10c6,0,15,5,18,10C1213,1492,1209,1492,1190,1480z"/>
	<path d="M861,1440c-7-22-9-45-6-50c3-6,1-10-4-10c-7,0-11-37-11-103c0-83-4-109-20-140c-24-45-25-50-2-39c9,5,26,6,37,1
		c11-4,30-8,43-8c20-1,21,2,12,20c-7,11-17,18-24,16c-18-7-54,22-39,31c14,9,20,112,9,160c-6,24-4,38,7,50c11,14,23,112,13,112
		C874,1480,868,1462,861,1440z"/>
	<path d="M636,1444c-4-14-5-28-3-31c3-2,8,8,11,23c4,14,5,28,3,31C644,1469,639,1459,636,1444z"/>
	<path d="M891,1463c0-6-4-20-7-30c-5-14-4-15,5-7c7,7,11,20,8,30C894,1467,892,1470,891,1463z"/>
	<path d="M1255,1460c3-5,12-10,20-10s17,5,20,10c4,6-5,10-20,10S1251,1466,1255,1460z"/>
	<path d="M568,1443c-17-20-38-58-38-69c0-4,7,1,16,12c15,18,15,18,11-9c-2-15-1-30,4-32c4-3,6,14,5,37c-3,30,1,46,13,54
		c9,7,13,15,10,18S576,1452,568,1443z"/>
	<path d="M1060,1452c0-5,7-13,16-16c10-4,14-1,12,6C1083,1457,1060,1465,1060,1452z"/>
	<path d="M1336,1449c4-8-1-9-15-4c-13,4-21,2-21-5s-7-10-14-7c-10,4-13,1-10-7s16-11,32-9c19,3,23,2,13-5c-8-6-9-12-3-16
		c6-3,13,3,17,14s11,17,17,14c7-4,6-9-2-14c-9-6-7-11,8-19c11-6,23-11,26-11c11,0-28,69-41,74C1334,1458,1332,1455,1336,1449z"/>
	<path d="M716,1424c-4-14-5-28-3-31c3-2,8,8,11,23c4,14,5,28,3,31C724,1449,719,1439,716,1424z"/>
	<path d="M1210,1436c0-2,11-6,25-8c13-3,22-1,19,3C1249,1440,1210,1444,1210,1436z"/>
	<path d="M686,1359c-3-17-6-52-6-77c0-60-33-127-78-157c-20-14-30-25-21-25c26,0,96,67,112,109c12,28,14,58,10,107c-3,38-6,70-8,72
		C694,1389,690,1376,686,1359z"/>
	<path d="M1296,1368c3-5,10-6,15-3c13,9,11,12-6,12C1297,1377,1293,1373,1296,1368z"/>
	<path d="M1362,1340c12-47,13-47,22,0c4,25,3,31-4,20c-8-13-10-12-10,3c0,9-4,17-9,17S1357,1362,1362,1340z"/>
	<path d="M1402,1355c0-16,2-22,5-12c2,9,2,23,0,30C1404,1379,1402,1372,1402,1355z"/>
	<path d="M610,1365c0-5,5-17,10-25s10-10,10-5c0,6-5,17-10,25S610,1371,610,1365z"/>
	<path d="M1323,1359c-9-9-8-15,3-26c12-12,19-49,15-75c0-5,4-8,10-8s8-9,3-22c-10-32-13-88-3-88c4,0,6-8,4-17c-1-10,3-32,10-49
		l13-31l-42,8c-70,14-141,10-208-11c-85-27-134-25-204,7c-40,18-81,28-131,31c-68,4-79,2-142-29c-40-20-73-44-80-57c-6-13-7-21-1-17
		s9-12,8-39c-1-25-5-41-9-35c-3,6-11-2-17-18c-12-31-25-85-16-65c11,23,21,12,37-40c18-56,19-98,4-98c-5,0-4-7,3-15s10-23,6-32
		c-5-17-5-17,6-1c11,15,14,12,25-20c7-20,13-51,13-67c0-17,9-46,19-66c11-21,17-46,14-62c-6-33-21-44-29-23c-3,9-10,16-15,16
		c-4,0-5-8-2-17c5-13-3-11-30,10c-20,15-37,24-37,18c0-15,68-64,78-57c5,3,21-4,36-15c26-20,26-20,26,0c0,11-4,23-10,26
		c-5,3-10,12-10,18c0,7,4,6,10-3s10-10,10-3c0,6-4,15-10,18c-12,8-13,25-1,25c5,0,14-13,21-30c7-16,16-30,21-30c10,0-47,96-62,105
		c-14,9-11,22,6,22c8,0,15-4,15-8s6-9,14-12c9-4,0,18-20,51c-57,95-75,180-76,357c-1,131,13,170,31,85c15-71,25-87,74-112
		c32-17,59-22,114-23c93,0,114,14,179,121c16,26,46,8,58-34c4-17,24-45,42-63c29-28,43-33,94-37c79-6,144,18,171,62
		c14,22,19,26,19,13c0-10-7-25-15-33c-8-9-16-36-17-62c-3-81-4-86-20-122c-9-19-19-48-23-65c-6-29-6-29,9-10c8,11,16,28,16,38
		c0,11,4,15,12,11c6-4,8-3,4,4c-3,6-1,14,5,17c5,4,8,13,5,21c-3,7-1,16,5,20c5,3,7,15,3,26c-4,14-3,18,5,13c9-5,11,9,7,52
		c-4,40-3,53,4,43c5-8,10-28,10-45c1-25,2-27,11-12c7,12,6,35-6,79c-15,58-14,63,5,103c23,48,25,65,7,65s-47,135-40,190
		c3,32,0,58-12,85c-10,22-17,43-17,48C1341,1373,1336,1372,1323,1359z M911,1033c59-31,74-60,44-93c-9-10-14-23-11-29
		c3-5-8-20-25-32c-58-41-193-35-239,11c-23,23-44,95-36,125c4,17,11,22,26,18c14-4,20,0,20,11c0,13,13,16,83,16
		C844,1060,864,1056,911,1033z M1328,1031c9-5,25-12,35-15c15-5,17-12,11-43c-11-66-35-104-73-121c-44-18-137-20-169-3
		c-51,27-81,123-47,151C1127,1034,1283,1054,1328,1031z M578,833c1-22,0-24-8-13c-12,18-13,40-2,40C572,860,577,848,578,833z
		 M658,515c-3-3-9,2-12,12c-6,14-5,15,5,6C658,526,661,518,658,515z"/>
	<path d="M754,1036c-34-15-53-46-29-46c8,0,15,5,15,10c0,6,5,10,10,10c6,0,10-7,10-16c0-8,4-13,9-10s7,15,4,26s0,20,6,20
		c10,0,14-16,12-50c0-10,1-11,5-2c8,17,51,15,57-2c4-10-6-17-31-24c-36-10-35-11,18-8c31,2,56,8,58,15s-3,11-13,9s-20,3-22,10
		c-6,15,29,16,44,1c8-8,13-7,18,1c4,6,2,17-4,23c-9,9-11,7-6-8c5-14-3-10-23,13C857,1047,803,1058,754,1036z M820,1018
		c0-16-3-19-11-11c-6,6-8,16-5,22C815,1046,820,1042,820,1018z M837,1008c-3-8-6-5-6,6c-1,11,2,17,5,13C839,1024,840,1015,837,1008z
		 M862,998c-9-9-12-7-12,12s3,21,12,12S871,1007,862,998z"/>
	<path d="M662,960c0-14,2-19,5-12c2,6,2,18,0,25C664,979,662,974,662,960z"/>
	<path d="M750,935c7-8,17-15,22-15c6,0,5,7-2,15s-17,15-22,15C742,950,743,943,750,935z"/>
	<path d="M1148,1013c-10-2-18-10-18-18c0-16-27-28-34-14c-2,5-3,4-2-3s14-14,29-15c19-1,24,2,20,13c-3,8-1,14,5,14c5,0,12-6,15-14
		c6-15,49-43,45-29c-3,13,13,53,21,53c5,0,15-8,22-17c8-9,9-14,3-10c-7,4-17,0-24-8s-9-15-4-15c15,0,74,24,74,30c0,4-16,14-35,23
		C1231,1019,1186,1023,1148,1013z M1194,1004c9-3,16-11,16-16c0-6-7-7-16-4c-8,3-12,2-9-4s1-10-4-10c-6,0-11,9-11,20
		C1170,1012,1171,1013,1194,1004z"/>
	<path d="M1336,980c-4-14-9-41-11-60c-4-29-2-27,11,13c8,27,13,54,11,60S1340,993,1336,980z"/>
	<path d="M1132,924c10-10,20-15,24-12c3,4-5,12-18,18C1116,942,1116,942,1132,924z"/>
	<path d="M1195,900c-19-8-19-9,3-9c12-1,22,4,22,9c0,6-1,10-2,9C1216,909,1206,905,1195,900z"/>
	<path d="M1281,867c-13-21-12-21,5-5c10,10,16,20,13,22C1296,887,1288,879,1281,867z"/>
	<path d="M872,1340c0-14,2-19,5-12c2,6,2,18,0,25C874,1359,872,1354,872,1340z"/>
	<path d="M550,1300c0-16-4-30-9-30c-8,0-17-30-25-87c-2-16-1-19,1-8c3,11,9,24,14,30c5,5,9,20,9,33s4,21,9,18s11,12,13,34s0,40-4,40
		C553,1330,550,1317,550,1300z"/>
	<path d="M770,1287c0-20,4-37,10-37c5,0,7,14,3,33C775,1328,770,1330,770,1287z"/>
	<path d="M1412,1273c-10-45-9-63,3-51c8,7,18,98,12,98C1424,1320,1417,1299,1412,1273z"/>
	<path d="M621,1298c0-9-4-25-7-35c-5-17-5-17,6,0c6,10,9,25,7,35C623,1313,622,1313,621,1298z"/>
	<path d="M657,1303c-4-3-7-11-7-17s5-5,12,2c6,6,9,14,7,17C666,1308,660,1307,657,1303z"/>
	<path d="M419,1263c-13-16-12-17,4-4s21,21,13,21C434,1280,426,1272,419,1263z"/>
	<path d="M1450,1275c-1-5-3-25-4-43c-2-30,0-31,11-16c7,10,13,13,13,7s7-14,16-17c15-6,15-4,3,11c-8,10-17,20-20,23c-4,3-9,14-12,25
		C1455,1276,1451,1281,1450,1275z"/>
	<path d="M650,1242c0-10-7-29-16-42l-16-25l21,24c19,21,29,61,16,61C652,1260,650,1252,650,1242z"/>
	<path d="M770,1218c0-13-9-38-20-55c-11-18-16-33-12-33c11,0,38,49,46,83c4,16,2,27-4,27C775,1240,770,1230,770,1218z"/>
	<path d="M600,1199c-7-11-10-23-7-25c2-2,9,7,15,21C622,1225,615,1228,600,1199z"/>
	<path d="M720,1203c0-6-12-27-26-48c-17-25-22-41-15-46c6-5,9-6,6-2c-3,3,5,17,17,30s18,23,14,23s-2,9,4,21c7,11,9,23,6,27
		C723,1211,720,1209,720,1203z"/>
	<path d="M1391,1188c-1-15,4-30,10-33c17-11,18-2,4,30l-13,30L1391,1188z"/>
	<path d="M485,1160c-1-16,3-30,7-30s8,14,8,30c0,17-3,30-8,30C488,1190,485,1177,485,1160z"/>
	<path d="M1442,1158c2-6,15-18,29-27l24-15l-24,27C1445,1172,1436,1177,1442,1158z"/>
	<path d="M1500,1165c0-5,5-17,10-25s10-10,10-5c0,6-5,17-10,25S1500,1171,1500,1165z"/>
	<path d="M529,1143c-13-16-12-17,4-4c9,7,17,15,17,17C550,1164,542,1159,529,1143z"/>
	<path d="M561,1139c-13-10-19-19-15-19c13,1,48,29,43,34C587,1156,574,1150,561,1139z"/>
	<path d="M770,1130c-12-16-19-30-16-30c2,0,14,14,26,30c12,17,19,30,16,30C794,1160,782,1147,770,1130z"/>
	<path d="M1390,1131c0-16,31-83,36-78c3,3-2,19-11,36c-9,18-13,36-10,41c3,6,1,10-4,10C1395,1140,1390,1136,1390,1131z"/>
	<path d="M1055,1110c2-27,15-38,15-12c0,11-4,23-8,26C1057,1127,1054,1120,1055,1110z"/>
	<path d="M1426,1121c-5-8,6-52,25-96c7-15,8-13,5,11c-2,17-9,41-15,53c-7,12-9,26-6,31c3,6,4,10,1,10S1429,1126,1426,1121z"/>
	<path d="M967,1099c4-13,8-18,11-10c2,7-1,18-6,23C964,1120,963,1116,967,1099z"/>
	<path d="M1146,1111c-16-3-35-16-44-28c-14-22-13-23,9-23c18,0,20,3,10,9c-21,14,125,19,175,7c30-8,25,8-8,25c-16,9-19,8-12-3
		c6-11,5-11-8,0C1249,1113,1189,1119,1146,1111z"/>
	<path d="M1471,1070c12-22,25-38,27-35c5,4-37,75-44,75C1451,1110,1459,1092,1471,1070z"/>
	<path d="M480,1075c0-9,7-18,15-22c23-8,24,0,3,20C483,1087,480,1088,480,1075z"/>
	<path d="M595,1069c-36-13-43-18-25-18c14,0,43,8,65,18C686,1093,661,1093,595,1069z"/>
	<path d="M378,1043c6-2,18-2,25,0c6,3,1,5-13,5S371,1046,378,1043z"/>
	<path d="M339,1023c-1-5-1-11,0-15c0-5-4-8-9-8c-16,0-2-81,17-102c9-10,22-18,29-18c8,0,3,10-11,25c-14,13-25,32-25,41
		c0,16,2,16,15-2c15-18,15-18,10,6c-5,22,0,28,37,47c30,15,36,21,21,20c-13-1-23-5-23-9s-7-8-16-8s-23-8-30-17c-7-10-16-14-21-10
		c-4,5,6,20,22,33c28,23,29,24,8,24C350,1030,339,1027,339,1023z"/>
	<path d="M1500,999c0-5,5-7,10-4c6,3,10,8,10,11c0,2-4,4-10,4C1505,1010,1500,1005,1500,999z"/>
	<path d="M1425,983c3-10,11-37,18-60c13-50,32-58,22-10c-9,48-26,87-37,87C1422,1000,1421,992,1425,983z"/>
	<path d="M520,965c-7-9-11-18-8-20c3-3,11,1,18,10s11,18,8,20C535,978,527,974,520,965z"/>
	<path d="M1401,934c0-11,3-14,6-6c3,7,2,16-1,19C1403,951,1400,945,1401,934z"/>
	<path d="M455,914c-9-14-22-23-29-21c-7,3-13-4-13-15c-2-19-1-19,23,3c25,23,49,59,41,59C474,940,465,928,455,914z"/>
	<path d="M481,912c-13-25,2-38,19-16c9,10,10,18,3,25C495,929,489,926,481,912z"/>
	<path d="M531,903c-10-26-10-27,4-9c8,11,15,23,15,28C550,937,543,930,531,903z"/>
	<path d="M1510,900c0-5,5-10,10-10c6,0,10,5,10,10c0,6-4,10-10,10C1515,910,1510,906,1510,900z"/>
	<path d="M963,848c-13-17-23-59-13-53c8,5,32,65,26,65C974,860,968,854,963,848z"/>
	<path d="M1440,826c0-19,3-37,8-40c4-2,6,13,4,35C1447,869,1440,872,1440,826z"/>
	<path d="M393,825c-3-9,2-22,13-30c25-17,31-11,10,10c-9,9-14,21-11,26c4,5,4,9,0,9C402,840,397,833,393,825z"/>
	<path d="M434,829c-3-6,3-21,15-33c18-17,21-17,15-3c-3,9-11,17-16,17c-6,0-8,7-4,15C450,842,444,845,434,829z"/>
	<path d="M1069,803c4-34,5-35,11-13c7,26,3,50-9,50C1067,840,1066,823,1069,803z"/>
	<path d="M491,814c0-11,3-14,6-6c3,7,2,16-1,19C493,831,490,825,491,814z"/>
	<path d="M854,768c-21-29-48-63-60-76c-26-27-36-59-22-69c7-3,8-1,4,5c-3,6,13,33,38,60c24,28,46,56,48,64c4,10,10,8,27-7l23-20
		l-12,26c-9,20-9,32-1,48C922,840,891,819,854,768z"/>
	<path d="M1493,808c-15-19-36-88-29-95c3-4,6,0,6,8s6,25,13,39C1510,811,1514,835,1493,808z"/>
	<path d="M1113,797c4-10,7-26,7-34c0-9,3-13,7-9c13,13,11,35-5,48C1109,813,1107,812,1113,797z"/>
	<path d="M532,760c7-11,17-20,22-20s1,9-9,20s-20,20-22,20S525,771,532,760z"/>
	<path d="M500,756c0-8,6-21,13-28c8-7,16-20,20-28c4-10,6-11,6-2c1,14-27,72-34,72C502,770,500,764,500,756z"/>
	<path d="M1437,751c-4-17-3-21,5-13c5,5,8,16,6,23C1445,769,1441,764,1437,751z"/>
	<path d="M1506,754c-23-23-20-30,4-9c11,10,20,20,20,22C1530,774,1521,769,1506,754z"/>
	<path d="M1405,750c-3-5-1-10,4-10c6,0,11,5,11,10c0,6-2,10-4,10C1413,760,1408,756,1405,750z"/>
	<path d="M929,733c-12-15-12-16,4-10c10,4,23,7,28,7c6,0,7,5,4,10C956,755,944,752,929,733z"/>
	<path d="M1051,729c-17-14-26-16-31-8c-6,8-9,8-15-1c-14-22,12-33,36-16c13,9,33,16,46,16c12,0,25,5,29,12c5,7,2,9-8,5
		c-9-3-19-2-24,3S1064,740,1051,729z"/>
	<path d="M1530,738c0-9,5-20,10-23c13-8,13,5,0,25C1532,753,1530,753,1530,738z"/>
	<path d="M690,729c0-5,5-7,10-4c6,3,10,8,10,11c0,2-4,4-10,4C695,740,690,735,690,729z"/>
	<path d="M1240,729c0-5,5-7,10-4c6,3,10,8,10,11c0,2-4,4-10,4C1245,740,1240,735,1240,729z"/>
	<path d="M1150,725c0-2,10-10,23-16c20-11,21-11,8,4C1168,729,1150,736,1150,725z"/>
	<path d="M442,695c0-16,2-22,5-12c2,9,2,23,0,30C444,719,442,712,442,695z"/>
	<path d="M1379,693c-13-16-12-17,4-4s21,21,13,21C1394,710,1386,702,1379,693z"/>
	<path d="M1428,690c-10-9-15-20-11-23c3-4,13,2,21,14C1456,707,1450,713,1428,690z"/>
	<path d="M410,698c-2-5-3-12-4-17c0-5-4-13-8-17c-5-4-8-12-8-18s7,0,16,12c8,12,13,28,11,35C414,699,411,702,410,698z"/>
	<path d="M500,690c0-8,5-22,10-30c9-13,10-13,10,0c0,8-5,22-10,30C501,703,500,703,500,690z"/>
	<path d="M1280,680c-9-6-10-10-3-10c6,0,15,5,18,10C1303,692,1299,692,1280,680z"/>
	<path d="M542,660c0-14,2-19,5-12c2,6,2,18,0,25C544,679,542,674,542,660z"/>
	<path d="M728,673c7-3,16-2,19,1c4,3-2,6-13,5C723,679,720,676,728,673z"/>
	<path d="M1190,668c0-9,5-20,10-23c13-8,13,5,0,25C1192,683,1190,683,1190,668z"/>
	<path d="M1537,667c-11-29-9-53,4-40c6,6,9,21,7,34C1545,682,1544,683,1537,667z"/>
	<path d="M980,651c0-10,19-25,25-20c1,2-3,10-11,17S980,656,980,651z"/>
	<path d="M1451,644c0-11,3-14,6-6c3,7,2,16-1,19C1453,661,1450,655,1451,644z"/>
	<path d="M424,631c0-11,4-17,8-15c4,3,8,12,8,20s-4,14-8,14S424,641,424,631z"/>
	<path d="M1361,636c-20-24-40-138-28-161c9-18,9-19-7-6c-23,19-29,9-9-18c12-18,17-20,24-10c5,8,6,22,3,31c-4,13,0,16,21,12
		c29-5,29-5,10,32l-15,29v-29c0-22-3-27-11-19c-12,12,5,118,23,141c6,6,8,12,5,12C1375,650,1367,644,1361,636z"/>
	<path d="M1382,630c-8-13-8-20-2-20s13,7,17,15C1406,649,1396,652,1382,630z"/>
	<path d="M1417,638c-8-23,6-83,22-95c23-16,25-9,7,26c-19,35-20,45-5,35c7-4,7,2-1,17C1423,653,1423,653,1417,638z"/>
	<path d="M1480,634c0-17,28-70,45-84c8-7,15-9,15-6c0,10-21,50-30,56c-4,3-12,14-18,25S1480,640,1480,634z"/>
	<path d="M801,611c-17-31-13-37,9-13c19,21,23,21,48,7c15-8,39-25,54-36c31-26,111-36,148-20c14,7,40,23,59,36c23,17,37,22,41,14
		c5-7,9-5,13,5c6,14-1,15-51,11c-31-3-70-8-85-10c-15-3-49-1-75,5c-26,5-70,11-99,15C818,630,810,628,801,611z M1045,579
		c61,15,65,14,30-10c-33-22-97-21-148,2c-43,19-21,29,29,12C992,571,1009,570,1045,579z"/>
	<path d="M1191,607c-13-21-12-21,5-5c10,10,16,20,13,22C1206,627,1198,619,1191,607z"/>
	<path d="M517,613c-10-10-8-45,2-39c11,7,21,46,12,46C527,620,520,617,517,613z"/>
	<path d="M435,599c-4-6-5-12-2-15c2-3,7,2,10,11C450,612,444,615,435,599z"/>
	<path d="M581,584c0-11,3-14,6-6c3,7,2,16-1,19C583,601,580,595,581,584z"/>
	<path d="M1470,586c0-8,4-17,9-20c5-4,7,3,4,14C1477,603,1470,606,1470,586z"/>
	<path d="M540,565c0-8,2-15,4-15s6,7,10,15c3,8,1,15-4,15C544,580,540,573,540,565z"/>
	<path d="M422,535c-2-18,2-36,8-40s10,7,10,29C440,569,425,579,422,535z"/>
	<path d="M365,540c3-5,8-10,11-10c2,0,4,5,4,10c0,6-5,10-11,10C364,550,362,546,365,540z"/>
	<path d="M611,534c0-11,3-14,6-6c3,7,2,16-1,19C613,551,610,545,611,534z"/>
	<path d="M1420,531c0-19,23-71,31-71c12,0,11,5-5,45C1432,538,1420,550,1420,531z"/>
	<path d="M578,510c-11-38-10-56,3-43c6,6,9,23,7,39l-3,29L578,510z"/>
	<path d="M1055,520c-4-6-10-8-15-5c-13,8-41-6-33-17c6-11-26-7-61,7c-13,6-17,5-12-3c12-21,71-25,105-8c17,9,31,21,31,26
		C1070,533,1063,533,1055,520z"/>
	<path d="M1208,467c-32-33-56-63-54-64c2-2,9,3,16,12c7,8,18,15,25,15c8,0,16,6,18,13c3,6,6,2,6-10c1-21-20-50-91-128
		c-47-51-60-90-64-201c-4-83-2-103,8-99s13,24,11,68c-2,78,4,100,25,93c10-3,7,1-5,10c-13,9-23,21-23,26c0,6,7,5,15-2
		c9-7,18-10,22-7c3,4,12,2,20-5c7-6,16-8,20-4c10,10-2,17-33,19c-15,1-29,8-32,16s0,11,6,7c6-3,14-1,18,5c4,8,3,9-4,5
		c-16-10-14,5,3,28c16,21,42,29,50,17c2-5,0-22-5-40c-11-38-3-41,11-4c6,16,13,23,16,16c2-7-1-21-6-32c-7-13-8-22-1-26
		c5-3,10-11,10-16c0-6-5-7-12-3s-8,3-4-5c4-6,12-9,17-6c5,4,9,2,9-4c0-5,10-13,22-17c27-8,67-44,49-44c-10,0-10-5,2-23
		c12-19,12-25,0-43c-12-19-12-22,5-26c17-5,21,1,25,36c4,24,1,45-5,51c-8,7-9,6-3-5c5-8,5-12,1-8c-4,3-7,9-6,13c1,3-19,28-44,55
		c-42,45-46,53-43,92c2,24,9,56,15,71c7,16,12,37,12,48c0,13,4,18,12,13s9-2,3,12c-17,41-16,63,4,103c12,22,20,41,19,40
		C1266,529,1239,501,1208,467z M1206,325c-9-20-13-42-10-47c4-6,1-9-6-6c-22,7-34,34-25,54c7,17,8,17,15-6c6-24,7-24,14-4
		c3,12,6,26,5,30c-4,24,1,38,12,27C1218,366,1217,352,1206,325z M1221,163c13-16,12-17-3-4c-10,7-18,15-18,17
		C1200,184,1208,179,1221,163z"/>
	<path d="M1520,521c0-6,5-13,10-16c6-3,10,1,10,9c0,9-4,16-10,16C1525,530,1520,526,1520,521z"/>
	<path d="M1570,525c0-5,5-17,10-25s10-10,10-5c0,6-5,17-10,25S1570,531,1570,525z"/>
	<path d="M466,503c-6-14-5-15,5-6c7,7,10,15,7,18S469,513,466,503z"/>
	<path d="M1199,503c-13-16-12-17,4-4s21,21,13,21C1214,520,1206,512,1199,503z"/>
	<path d="M611,494c0-11,3-14,6-6c3,7,2,16-1,19C613,511,610,505,611,494z"/>
	<path d="M1622,486c6-14,15-26,20-26c10,0-7,36-22,45C1614,509,1615,500,1622,486z"/>
	<path d="M1546,481c4-8,11-28,15-45c6-29,7-29,8-5c1,14-6,34-15,45C1546,486,1542,489,1546,481z"/>
	<path d="M330,471c0-6,5-13,10-16c6-3,10,1,10,9c0,9-4,16-10,16C335,480,330,476,330,471z"/>
	<path d="M1422,438c26-54,39-59,62-23c20,30,20,31,0,39c-12,4-15,2-11-9c12-29-12-25-43,7l-32,33L1422,438z"/>
	<path d="M426,454c-4-9-4-19-1-22c2-3,7,3,11,12s4,19,1,22C435,469,430,463,426,454z"/>
	<path d="M780,459c0-6-9-8-22-3c-14,4-6-7,22-28c48-38,72-41,29-4c-14,12-24,27-21,34c2,7,1,12-2,12S780,465,780,459z"/>
	<path d="M370,450c-12-7-12-12-3-21c15-15,26-7,21,15C386,455,381,457,370,450z"/>
	<path d="M582,452c-17-5-15-29,2-35c10-4,13-1,9,9c-3,8,1,14,11,14c9,0,16-4,16-10c0-5,5-10,10-10c6,0,10,6,10,14
		C640,448,604,460,582,452z"/>
	<path d="M1290,451c0-5,5-13,10-16c6-3,10-2,10,4c0,5-4,13-10,16C1295,458,1290,457,1290,451z"/>
	<path d="M1370,454c0-5,12-26,26-45c23-29,25-31,19-9C1407,426,1370,472,1370,454z"/>
	<path d="M313,435c0-8,4-15,9-15c4,0,8,4,8,9c0,6-4,12-8,15C317,447,313,443,313,435z"/>
	<path d="M480,438c0-8,18-32,40-53s40-36,40-33c0,4-18,28-40,53S480,445,480,438z"/>
	<path d="M1251,437c2-1,15-11,29-22l25-20l-19,23c-11,12-24,22-29,22C1251,440,1249,439,1251,437z"/>
	<path d="M1353,426c0-8,6-17,14-20c18-7,16-36-3-57c-20-22-9-46,12-28c12,10,12,14,2,20c-9,6-8,10,5,15c23,8,21,23-7,57
		C1361,431,1353,436,1353,426z"/>
	<path d="M446,421c-3-5,1-14,8-20c12-10,13-8,9,8C457,432,454,434,446,421z"/>
	<path d="M756,418c49-82,261-105,362-40c39,25,18,24-40-3c-46-21-66-24-122-21c-38,2-77,11-92,21c-13,8-28,13-33,11c-5-3-25,6-46,19
		C765,419,752,425,756,418z"/>
	<path d="M1335,390c10-19,20-30,22-23c3,7-5,23-17,35l-22,23L1335,390z"/>
	<path d="M330,395c-16-19-1-19,24,0c16,12,17,15,4,15C350,410,337,403,330,395z"/>
	<path d="M243,393c-21-3-37-12-44-26c-12-21-11-21,8-4c21,18,73,24,73,7c0-5-4-10-10-10c-11,0-14-40-2-40c4,0,17-3,30-6
		c13-4,22-2,22,5s-4,9-10,6c-5-3-10-1-10,4c0,6-8,11-17,11c-17,1-17,1,0,14c20,15,23,47,5,44C281,398,260,395,243,393z"/>
	<path d="M388,363c-3-22,1-50,9-67c12-23,12-27,1-24c-7,3-18,20-25,39l-12,34l2-41c1-23,6-40,11-36c9,5,4-30-9-62c-16-37,11-8,34,38
		c15,29,21,51,16,63c-4,10-10,34-12,53C397,407,393,408,388,363z"/>
	<path d="M411,384c0-11,3-14,6-6c3,7,2,16-1,19C413,401,410,395,411,384z"/>
	<path d="M1518,376c-4-17-1-23,9-19c15,6,18,29,4,37C1526,397,1520,389,1518,376z"/>
	<path d="M1564,358c1-26-1-45-5-42c-4,2-15-16-25-41c-9-25-34-61-55-80c-38-34-47-38-79-36c-9,0-10-2-3-5c9-4,9-11,1-29
		c-6-14-15-22-20-18c-6,3-4-5,2-18c13-23,13-22,32,19c11,23,24,42,30,42c5,0,23,13,41,30c17,16,44,35,59,41c21,8,28,18,28,38
		c0,14,7,39,15,55c17,32,20,60,5,51c-6-3-14,4-19,17C1564,400,1562,395,1564,358z"/>
	<path d="M428,362c-2-18,0-40,7-48c9-13,10-8,7,22C437,393,434,399,428,362z"/>
	<path d="M486,365c4-8,11-15,16-15c6,0,5,6-2,15c-7,8-14,15-16,15S483,373,486,365z"/>
	<path d="M1269,352c-3-20-2-29,4-23c5,5,7,19,5,32C1275,381,1273,380,1269,352z"/>
	<path d="M1320,364c0-33-23-70-71-114c-24-23-39-39-33-36s28-19,49-50c21-30,41-57,45-59c8-5,66,73,59,78c-32,23-63,37-81,37
		c-16,0-19-3-10-8c8-5,10-16,6-28c-7-18-7-18,13-2c24,22,34,23,27,3c-4-8-1-15,5-15s11-5,11-11c0-8-4-8-14,0c-7,6-20,9-29,5
		c-18-7-41,30-33,53c4,10,2,13-8,10c-10-4-13-1-9,9c6,15,23,19,23,5c0-5,11-8,25-7c20,1,22,3,11,14c-11,12-10,21,11,58
		c19,33,22,48,14,61C1321,383,1321,383,1320,364z M1290,250c0-5-2-10-4-10c-3,0-8,5-11,10c-3,6-1,10,4,10
		C1285,260,1290,256,1290,250z"/>
	<path d="M1454,365c-18-13-18-14,4-8c12,3,25,9,28,14C1494,385,1476,382,1454,365z"/>
	<path d="M1647,373c-4-3-7-11-7-17s5-5,12,2c6,6,9,14,7,17C1656,378,1650,377,1647,373z"/>
	<path d="M1705,361c-4-7-1-10,7-9c7,2,12-5,11-16c-1-13,2-15,10-7s7,15-5,27C1717,367,1710,369,1705,361z"/>
	<path d="M223,353c-7-3-13-12-13-21c0-15,2-15,17,1C245,351,243,360,223,353z"/>
	<path d="M335,349c-4-6-5-12-2-15c2-3,7,2,10,11C350,362,344,365,335,349z"/>
	<path d="M708,336c-5-25,27-83,36-67c4,6,4,17,0,24c-4,6,6-1,23-18c41-39,55-77,43-111c-14-35-12-74,5-104c10-19,11-29,2-40
		c-6-8-7-12-3-8c5,4,15,3,23-4c24-20,24-3-1,47c-19,37-22,53-15,72c5,13,9,42,9,64c0,34-8,48-59,103C719,349,711,355,708,336z"/>
	<path d="M730,357c0-2,15-16,33-33l32-29l-29,33C738,358,730,365,730,357z"/>
	<path d="M760,356c0-2,7-7,16-10c8-3,12-2,9,4C779,360,760,364,760,356z"/>
	<path d="M165,341c-3-5,1-12,7-14c7-3,2-6-12-6c-14-1-32-6-40-12c-11-7-6-8,20-3c51,9,61,16,44,31C177,344,169,346,165,341z"/>
	<path d="M1426,326c-45-26-57-50-45-84c10-28,31-19,28,11c-2,36,0,48,10,43c5-3,12,2,15,11c5,12,10,13,17,6c8-8,5-17-10-32
		c-12-12-21-27-21-33c0-7,14,2,31,20c26,29,28,36,17,50c-10,12-10,14,0,8c7-4,12-1,12,8C1480,355,1473,353,1426,326z"/>
	<path d="M490,336c0-7,52-60,75-76c20-15,20-15,0,9C513,332,490,352,490,336z"/>
	<path d="M605,330c3-5,8-10,11-10c2,0,4,5,4,10c0,6-5,10-11,10C604,340,602,336,605,330z"/>
	<path d="M1611,313c-7-15-15-50-18-78c-3-27-17-71-30-97c-13-27-19-48-13-48s15,11,22,25c6,13,14,23,17,20c4-2,7,4,8,13
		c1,22,9,50,21,83c6,15,8,37,5,50c-6,21-4,22,9,11c10-8,26-10,44-6c21,5,25,4,19-6c-5-8-4-11,2-7c17,11,68-20,112-68
		c23-24,41-43,41-40c0,2,11-7,25-21s25-31,24-37c-4-35,5-46,10-12c6,39,5,41-68,110c-82,78-123,104-164,105c-15,0-30,7-33,15
		C1635,347,1625,343,1611,313z"/>
	<path d="M450,322c0-16,25-41,63-61c20-11,37-17,37-13c0,5-16,16-36,25c-20,10-38,27-41,37C468,329,450,338,450,322z"/>
	<path d="M640,325c0-11,24-55,30-55c13,0,18,38,7,49S640,334,640,325z"/>
	<path d="M838,323c7-3,16-2,19,1c4,3-2,6-13,5C833,329,830,326,838,323z"/>
	<path d="M878,323c7-3,16-2,19,1c4,3-2,6-13,5C873,329,870,326,878,323z"/>
	<path d="M1236,311c-4-6-9-23-11-37c-2-20,0-22,12-12c18,14,39,53,25,44c-6-3-12-1-14,6C1245,321,1242,321,1236,311z"/>
	<path d="M163,298c-24-5-43-13-43-19c0-5-6-9-13-9c-8,0-20-12-28-27c-7-16-29-47-48-70c-38-48-37-50,16-26c21,10,39,18,39,18
		c1,0,5,11,9,24c5,17,4,22-5,16c-8-5-11-3-8,6c3,8,11,13,17,11c6-1,10,3,9,9c-3,10,56,48,94,62C230,303,202,306,163,298z M80,191
		c0-5-7-12-16-15c-14-5-15-4-4,9C74,202,80,204,80,191z"/>
	<path d="M42,270c-23-17-42-33-42-36s6-1,13,3c6,5,29,19,50,32c20,12,37,25,37,27C100,307,79,297,42,270z"/>
	<path d="M258,293c10-4,7-9-10-17c-12-6-24-17-24-24c-1-7-2-20-3-30c-1-13-14-23-40-30c-47-15-51-15-51-1c0,5,4,8,9,4c5-3,12-1,16,4
		c3,6,11,9,18,7c7-1,9-1,4,1c-4,3-4,10,0,16c4,7,0,8-13,4c-18-6-18-6,0,6c10,7,28,20,40,30c20,17,20,17-18,2c-21-8-40-15-42-15
		c-7,0-34-59-34-73c0-11,10-12,43-7c66,10,128,54,112,80c-6,9-10,9-16-1c-5-8-9-9-9-3c0,18,12,24,26,13c11-9,15-7,20,6
		c7,17-10,35-31,34C250,299,251,296,258,293z"/>
	<path d="M609,282c6-12,16-24,22-28c8-4,8-1,0,14c-6,12-16,24-22,28C601,300,601,297,609,282z"/>
	<path d="M300,275c0-8,5-15,11-15c7,0,9-10,5-27c-6-27-6-27,9-9c17,23,19,36,5,36c-5,0-10,7-10,15s-4,15-10,15
		C305,290,300,283,300,275z"/>
	<path d="M708,265c6-33-5-75-20-75c-9,0-9,3,0,12c16,16,16,71,0,66c-14-5-21-98-8-98c28,0,55,99,31,114C707,287,705,278,708,265z"/>
	<path d="M445,260c-4-12-2-27,4-33s11-7,11-2c0,6,5,3,10-5c7-11,9-8,8,13C475,271,454,288,445,260z"/>
	<path d="M1321,271c-11-7-10-11,7-20s19-8,15,9c-3,11-6,20-7,20C1336,280,1329,276,1321,271z"/>
	<path d="M750,263c0-5,9-18,20-28c21-19,24-63,5-78c-6-5-4-7,5-4c9,2,16,18,18,38c2,27-3,40-23,59C761,263,750,269,750,263z"/>
	<path d="M40,238c-14-11-24-25-23-29c2-5-1-9-6-9c-6,0-9-9-8-20c1-18,5-16,27,12c14,18,25,35,25,38s4,11,8,18C74,265,69,263,40,238z
		 M45,220c-3-5-12-10-18-10c-7,0-6,4,3,10C49,232,53,232,45,220z"/>
	<path d="M612,232c13-16,24-25,26-21c3,8-33,49-44,49C591,260,599,247,612,232z"/>
	<path d="M495,240c3-5,14-10,23-10c15,0,15,2,2,10C500,253,487,253,495,240z"/>
	<path d="M730,227c0-14-11-38-24-54c-17-20-22-34-16-44c5-8,14-38,20-66c6-29,16-53,21-53c6,0,7,5,4,10c-7,12-17,66-17,93
		c1,11-4,15-11,10c-8-4-7-1,1,9s21,14,30,11c15-5,15-4,1,8c-13,12-14,19-3,49c9,29,13,31,17,15c3-14,5-15,6-4c0,9-6,22-14,29
		C732,251,730,248,730,227z"/>
	<path d="M1463,229c-18-12-33-23-33-24c0-10,59,18,64,31C1501,254,1501,254,1463,229z"/>
	<path d="M187,223c3-7,9-10,14-7c14,8,11,21-5,21C188,237,184,231,187,223z"/>
	<path d="M268,210c-20-36-79-64-124-61c-29,2-113-43-130-70C1,57,20,25,53,14c30-9,36-8,46,8c7,11,19,17,29,14c62-19,67-18,69,10
		c2,36,32,76,71,93c29,13,32,19,32,58C300,248,291,251,268,210z M282,168c-6-6-15-8-19-4s-1,11,7,16C289,192,297,183,282,168z
		 M245,150c-3-5-12-10-18-10c-7,0-6,4,3,10C249,162,253,162,245,150z M165,119c-3-5,0-6,8-3s17-2,20-10c5-11-3-18-26-25l-32-9l28-1
		c26-1,27-2,13-17c-10-9-24-13-37-9s-27,1-38-9c-15-13-22-14-44-3C31,45,20,70,41,70c5,0,7,6,3,13c-4,6-3,9,1,4c5-4,21,5,37,20
		c15,15,28,24,28,20c0-3,10-3,23,2C157,139,173,134,165,119z M209,131c8-5,9-11,3-15c-5-3-15,1-22,9C176,141,187,145,209,131z"/>
	<path d="M101,109c-1-9-8-19-16-23c-16-6-21-46-5-46c5,0,6,7,3,17c-4,11-3,14,5,9c8-4,12-1,12,10c0,10,3,14,7,11c8-9,33,12,33,27
		c0,6-6,2-12-9c-11-19-11-19-19,0C103,121,101,121,101,109z"/>
	<path d="M402,208c-13-15-21-32-17-38c11-19,23-10,18,13c-3,12-3,20,0,17c14-13,30-153,16-145c-8,6-10,1-13-37c-1-12,10-14,43-9
		c16,2,24,88,12,123c-7,19-8,34-2,36c11,4,2,42-11,42c-5,0-7-19-4-42c3-22,2-46-2-52s-9,19-12,55l-5,65L402,208z M454,65
		c-4-8-8-15-10-15s-4,7-4,15s4,15,10,15C455,80,457,73,454,65z M440,24c0-8-4-12-10-9c-5,3-10,10-10,16c0,5,5,9,10,9
		C436,40,440,33,440,24z"/>
	<path d="M345,219c-4-6-5-12-2-15c2-3,7,2,10,11C360,232,354,235,345,219z"/>
	<path d="M537,195c-6-37,11-72,58-121c11-11,25-29,31-39c8-15,12-16,19-5c5,8,4,11-2,7c-17-10-33,40-27,83c4,28,2,40-6,40
		c-7,0-10-8-8-18c3-10,0-22-7-28c-15-15-38,36-32,73c3,23,4,21,6-10c1-44,21-41,21,3c0,19-7,33-19,40C544,234,543,234,537,195z"/>
	<path d="M490,206c0-8,5-18,10-21c6-3,10,3,10,14c0,12-4,21-10,21C495,220,490,214,490,206z"/>
	<path d="M1528,196c-34-19-68-72-68-106c0-20,83,47,101,82C1590,229,1587,231,1528,196z M1538,170c-7-10-14-17-17-15
		c-4,4,18,35,25,35C1548,190,1545,181,1538,170z"/>
	<path d="M347,174c-3-4,0-13,8-21c23-23,29-80,11-107c-14-22-14-25,1-38c12-9,15-9,9,0c-4,7-4,22-1,33c6,17,9,19,16,8c6-10,9-6,9,13
		c0,14,2,33,5,40C411,117,357,184,347,174z"/>
	<path d="M745,170c3-5,8-10,11-10c2,0,4,5,4,10c0,6-5,10-11,10C744,180,742,176,745,170z"/>
	<path d="M1170,140c13-11,26-20,30-20s19-12,34-26c26-27,36-21,14,8c-12,16-82,58-95,58C1150,160,1157,151,1170,140z"/>
	<path d="M332,93c0-29,4-53,9-53c11,0,11,57,0,85C335,139,333,129,332,93z"/>
	<path d="M656,114c-5-20-1-35,15-57c12-16,17-27,11-23c-11,7-26-23-16-33c4-3,9,0,11,7c3,6,9,10,14,6c5-3,9,6,9,20s-3,26-7,26
		c-5,0-8,14-9,31C682,134,664,149,656,114z"/>
	<path d="M14,116C4,108-2,99,1,96s14,3,24,14C46,133,42,136,14,116z"/>
	<path d="M297,123c-16-16-6-71,18-97c33-35,41-33,13,4c-15,20-21,42-20,65C311,130,309,135,297,123z"/>
	<path d="M530,114c0-11,7-29,16-40c14-18,15-18,8,6c-3,14-10,32-15,40C532,132,531,131,530,114z"/>
	<path d="M990,120c-9-6-10-10-3-10c6,0,15,5,18,10C1013,132,1009,132,990,120z"/>
	<path d="M1340,111c-5-11-10-25-10-31c0-17,30-84,35-78c3,3-2,22-11,43c-12,29-13,44-5,62C1362,135,1355,138,1340,111z"/>
	<path d="M242,108c-15-15-16-31,0-22c7,4,8,3,4-5c-4-6-11-9-16-6c-4,3-11-2-14-11c-9-24-7-52,5-60c8-4,9,1,4,16c-5,14-3,20,3,16
		c6-3,13,0,16,6c4,7,4,3,2-9c-2-13,0-23,4-23c5,0,16-3,25-7c16-6,16-4,2,18c-9,13-15,39-15,57C263,116,258,124,242,108z"/>
	<path d="M486,85c-9-26-7-32,5-12c6,10,9,21,6,23C495,99,490,94,486,85z"/>
	<path d="M1432,83c-1-12-7-23-13-25s-10-11-8-21c7-32,31-2,26,34C1435,90,1432,95,1432,83z"/>
	<path d="M1482,65c-16-34-15-68,1-63c6,3,12,10,12,16s10,20,23,32c12,12,20,25,17,31C1523,99,1493,90,1482,65z"/>
	<path d="M516,30c-10-17-13-30-6-30c10,0,34,49,27,56C535,58,526,46,516,30z"/>
	<path d="M576,33c9-38,14-42,14-10c0,14-5,29-10,32C573,59,572,52,576,33z"/>
	<path d="M552,25c0-17,2-22,5-12c2,9,2,23,0,30C554,49,552,42,552,25z"/>
	<path d="M1310,42c0-5,7-17,16-28c14-17,15-17,10-1c-3,10-6,23-6,28s-4,9-10,9C1315,50,1310,46,1310,42z"/>
	<path d="M1520,20c-12-8-10-10,8-10c13,0,20,4,17,10C1538,32,1539,32,1520,20z"/>
	<path d="M1560,20c0-5,5-10,11-10c5,0,7,5,4,10c-3,6-8,10-11,10C1562,30,1560,26,1560,20z"/>
</g>
</svg>
