<svg id="Layer_1" data-name="Layer 1" xmlns="http://www.w3.org/2000/svg" viewBox="0 0 191 192"><path d="M65.4,1.7c-2.9,2.9-6.6,12.1-5.9,14.4a29.05,29.05,0,0,1,.9,3.3,8.49,8.49,0,0,0,2.1,3.2,28,28,0,0,1,3.2,4c1.1,1.8,1.1,1.8.6-.3A11.28,11.28,0,0,0,64,22.2a7.27,7.27,0,0,1-1.6-5.1c.1-1.7-.1-3.1-.5-3.1-1.3,0,.9-6.1,3.6-10.2S68.2-1,65.4,1.7Z"/><path d="M68,4.2C66.4,6.4,65,9,64.9,9.9s-.3,3.3-.5,5.5c-.3,2.5,0,4.4.9,5.5a11,11,0,0,1,2.1,3.6A14.38,14.38,0,0,0,74,31.9c2.2,1.1,2.3,1.1.8-.2A4.54,4.54,0,0,1,73,29.2c0-.6-1.2-2-2.7-3.1L67.5,24l3,1.2a21.46,21.46,0,0,1,4.3,2.1c.8.6,1.2.6,1.2-.1,0-1.1-3.9-3.7-5-3.4-.3.1-.5-.6-.6-1.6-.3-5.7-.4-5.8-1.5-4A3.12,3.12,0,0,1,66.7,20c-.7,0-.6-.4.3-1s1.1-1,.3-1c-1.8,0-1.6-5.2.3-10,1-2.4,2.1-3.7,2.8-3.3s.8.2.3-.2,0-1.7,1-2.7S72.8,0,72.2,0,69.7,1.9,68,4.2Z"/><path d="M76.4,1.6c-1.2.7-2.5,1-2.8.8s-.4-.1-.1.3,0,1.2-.6,2c-1.7,1.9.2,1.6,3-.6,1.8-1.4,3.1-1.7,4.8-1,1.4.5,2.5.4,2.8-.2a3,3,0,0,1,2.8-.4c1.7.5,1.8.4.8-.4S86.6,1,89.6.7L93.5.3,89.6.2c-2.5-.1-4.7.4-5.9,1.5C82,3.2,81.8,3.2,82.2,2,82.9.1,79.8-.1,76.4,1.6Z"/><path d="M97.8.7a5.28,5.28,0,0,0,2.5,0c.6-.3.1-.5-1.3-.5S97.1.4,97.8.7Z"/><path d="M103,1.1c-.8.5-1.3.9-1,1a22.3,22.3,0,0,1,2.3.4c.9.2,1.7-.1,1.7-.5C106,.5,104.5.1,103,1.1Z"/><path d="M110.5.9a1.48,1.48,0,0,1-2,.4c-.8-.3-1.5-.1-1.5.4,0,2,1.4,2.3,3.7.8s2.9-1,1.4,1.4c-.6.9-1.9,1.2-4,.8a11.33,11.33,0,0,0-5.8.4c-1.9.7-2.9.7-3.1,0a2.15,2.15,0,0,0-2-1.1c-1.4,0-1.4.3.3,1.9,1.4,1.4,2.9,1.8,5.2,1.4,1.8-.3,3-.9,2.7-1.4s0-.9.6-.9,1.4.9,1.7,2,1.1,2,1.8,2a10.3,10.3,0,0,1,3.2.7c1.7.6,1.7.6.1-1a5.82,5.82,0,0,0-3-1.7c-.7,0-.2-.6,1.2-1.3s2.8-.9,3.1-.4.9.4,1.3-.2.2-1.1-.3-1.1-1.1-.4-1.1-.8.8-.8,1.9-.8,1.7.5,1.4,1.3.2,1.3,1.1,1.3,1.6-.5,1.6-1.1.4-.8.9-.4a1.39,1.39,0,0,0,1.7-.6c.5-.8.3-.9-.6-.4s-1.2.4-.7-.8c.3-1,.2-1.7-.2-1.7a1.86,1.86,0,0,0-1.4,1.2c-.4,1-.6.9-.6-.1s-.4-1.1-1.7,0c-.9.7-1.8.9-2.2.3C114.2.1,111.3-.2,110.5.9Z"/><path d="M125.1,1.4a3.25,3.25,0,0,0-.8,2.8c.4.8.6.7.6-.5.1-1.9,2.6-2.3,3.7-.5.4.6.3.8-.2.5s-1.1.3-1.1,1.4c-.2,2.2-4,5.8-6.3,5.9-.9,0-.3-1,1.5-2.5,1.7-1.3,2.5-2.4,1.8-2.5a2.71,2.71,0,0,0-1.9,1.1c-.5.8-.9.8-1.4-.1s-.9-.9-1.4-.1c-.4.6-.1,1.1.6,1.2s.2.4-1.1.8a4.51,4.51,0,0,0-2.9,2.1c-.2,1-.1,1.1.5.3s1.4-.8,3.2.2c2.4,1.2,2.4,1.3.4,1.9-2.2.7-5.3-.1-5.3-1.4,0-1-12.6,1.5-17.3,3.5-2.8,1.2-3.7,2-3.3,3.3.3.9-.1,2.9-.8,4.4-1.1,2-1.1,2.8-.3,3.2s.7.8-.3,1.5c-3.1,2.2.1,1,4.9-1.8,2.7-1.6,5.1-2.8,5.3-2.6s3.3-1.1,6.8-3c8.3-4.4,11.2-5.7,11.7-5.1.3.2-.9,1.2-2.6,2.1s-3.1,1.9-3.1,2.4c0,1.3,3,3.5,3.7,2.7.3-.3.1-.6-.5-.6a1.13,1.13,0,0,1-1.2-1.1c0-.6,1.6-1,3.8-.9,6.1.3,7.2.1,7.2-1.5,0-.9-1.1-2-2.5-2.5-3.9-1.5-3.9-3.3,0-7.4,2.3-2.4,3.5-4.6,3.3-6C129.4.1,126.8-.6,125.1,1.4ZM115.6,14c1.1,0,1,.4-.3,1.8-1,1.1-2.1,1.7-2.4,1.6s-2.6.9-4.9,2.5c-2.5,1.7-5.1,2.6-6.2,2.3a5,5,0,0,0-3.7,1.2c-1.4,1.3-2.1,1.4-2.7.5-.4-.8-.3-1,.4-.5s1.2.2,1.2-.3A1.11,1.11,0,0,0,95.9,22c-.8,0-.8-.5.1-1.5.7-.8.9-1.5.4-1.5-1.3,0,1.4-2.4,3-2.6a25.9,25.9,0,0,0,3.5-.9c3.6-1.1,2.3,1.2-1.6,2.8-3.4,1.4-3.5,1.6-1.2,1.6a6.31,6.31,0,0,0,4.4-1.9c1.3-1.4,2.1-1.7,2.6-.9s.9.4,1.4-1,1.2-2,2.1-1.7,1.2.2.8-.6-.2-.9,1-.5A10.3,10.3,0,0,0,115.6,14ZM126,18.3c0,.2-1.1.4-2.5.4-2.7,0-3.1-.7-1.4-2.4.9-.9,1.5-.8,2.5.2A5,5,0,0,1,126,18.3Z"/><path d="M103.5,21c-.3.6.1.7.9.4,1.8-.7,2.1-1.4.7-1.4A1.9,1.9,0,0,0,103.5,21Z"/><path d="M59.3,3.6c-1.5,1.6-3.1,2.9-3.5,2.9-.9,0-1.2,1.2-.5,2.3.2.4.2.1,0-.6s.2-1,.8-.7.7,1.9.4,3.5-.2,3.1.4,3.4,1-.6,1-2.1c0-4.8.7-6.5,3.2-8.3,1.3-1,2.1-2.2,1.7-2.5S60.9,2.1,59.3,3.6Z"/><path d="M93.8,2.7a5.28,5.28,0,0,0,2.5,0c.6-.3.1-.5-1.3-.5S93.1,2.4,93.8,2.7Z"/><path d="M91.6,4.7c-.3.3-3.1.5-6.3.4-8.6-.2-14,1.6-15.8,5.5-2,4.3-2,6.1,0,4.4,1.3-1,1.5-.9,1.5,1.1,0,1.7.3,2,1.1,1.2s.8-1.7,0-3c-.8-1.7-.5-2.5,2-4.9s3.8-2.8,7.2-2.7c6.6.3,8.7.7,8.7,1.7,0,.5.7.1,1.6-1,1.5-1.8,1.5-1.8,1,0-.6,1.6-.4,1.7.9.6,1-.8,1.5-.9,1.5-.1,0,.6.7,1.1,1.5,1.1,1.2,0,1.3-.4.6-1.9C96.1,5.3,92.6,3.7,91.6,4.7Z"/><path d="M130.3,5.5c-1.9,2.1-1.6,2.5,1.9,2.5a8.13,8.13,0,0,1,5,1.7c1,.9,1.8,1.1,1.8.6A4.12,4.12,0,0,0,137.5,8c-.8-.7-1.3-1.6-1-2s-.5-1-1.8-1.4C131.8,3.8,131.7,3.8,130.3,5.5Zm4.4,1.1a2,2,0,0,1-1.9.1c-.8-.3-.5-.6.6-.6S135.1,6.3,134.7,6.6Z"/><path d="M115.9,7.7c-1.3,1.6-1.2,1.7.4.4A6.23,6.23,0,0,0,118,6.4C118,5.6,117.2,6.1,115.9,7.7Z"/><path d="M138,6.4a5.73,5.73,0,0,0,1.8,1.7c1.5,1.3,1.6,1.2.3-.4S138,5.6,138,6.4Z"/><path d="M79.7,9.8C76.2,12.5,72.2,19,74,19c.5,0,1.2-1.1,1.6-2.5a7.39,7.39,0,0,1,2-3.6c1.2-1,1.3-.8.5,1.4-.8,2-.6,2.8,1.1,4.3,1.9,1.8,2,1.8,3.3.1,1.6-2.2,2.9-2.2,2.1,0-.6,1.5-.4,1.5,1.4-.2,2.3-2.1,2.8-4.4.5-2.5-.9.7-1.5.8-1.5.2,0-.9,4.3-4.2,5.6-4.2.3,0,.1.7-.6,1.5-.9,1-.9,1.5-.1,1.5A1.1,1.1,0,0,0,91,14c0-.6.6-1,1.4-1,2.7,0,2.4-1.5-.2-1.7-1.5,0-2.8-.6-3-1.2-.4-1.2-2.3-1.5-2-.4.3,1.5-1.4,4.3-2.3,3.7-.5-.3-.8,0-.7.7a1.4,1.4,0,0,1-1,1.6c-.7.3-1-.1-.7-1A2.73,2.73,0,0,0,81.4,12c-1.4-1.3-1.3-1.5,1.7-2.5,2.4-.8,2.9-1.3,1.7-1.8C83.8,7.4,81.8,8.2,79.7,9.8ZM81,14.5c-1,1.2-1,1.8,0,3,1.4,1.7,0,2.1-1.7.4-1.2-1.2.3-4.9,2.1-4.9C81.8,13,81.7,13.7,81,14.5Z"/><path d="M50.7,10.7c-3.6,1.9-4.3,3.7-2.8,7.1,1.1,2.2,1,2.8-.6,4-1,.7-1.7,1.5-1.5,1.7.7,1.4,0,1.8-.9.5s-1-1.3-.6,0a2.21,2.21,0,0,0,2.1,1.4c1.5-.2,2,1.1,1.9,4.4-.1.7.4,1.1,1.1.9s1-1.7.8-3.3c-.2-2.8-.2-2.8,1.3-1,.8,1.1,1.5,1.6,1.5,1.1s.9,0,2,1,2,1.5,2,1.1,1-.2,2.1.5c1.5.8,1.9.8,1.5,0-.4-.6-.3-1.1.1-1.1s1.3,1,1.8,2.2c1.5,3.2,3.8,3.7,2.6.5-.5-1.4-.7-2.8-.3-3.3s.1-.3-.7.1c-1.1.6-1.3.4-.8-.8.3-1,.2-1.7-.2-1.7s-1.8-1.4-2.9-3.1c-1.2-1.9-2.2-2.7-2.6-2S57.4,22,58,22s.9.4.6.9a3.31,3.31,0,0,0,0,2.6c.5,1.3.8,1.4,1.5.3.5-.7.9-.9.9-.3,0,3-1.7,3.7-5.1,2-4.3-2.2-3.8-1.7-4.9-5.4-.5-1.9-.5-2.9.1-2.6s1.7.1,2.6-.5c1.7-1.1,1.7-1.1.1-.6-2.6.8-2.2-1.3.5-2.4,2-.8,1.9-.9-1-.7-1.7,0-3.1.4-3,.7s-.2.6-.8.7-1-.5-1-1.5c0-1.2.8-1.7,2.9-1.7,1.6,0,3.1-.6,3.4-1.4s0-1.1-.8-.6c-1,.6-1.2.4-.7-.8.3-1,.5-1.7.4-1.6S52.2,9.9,50.7,10.7Z"/><path d="M74.1,10.9c-1.2,1.1-1.8,2.1-1.4,2.4s1.8-.6,3-1.9C78.3,8.5,77.2,8.2,74.1,10.9Z"/><path d="M101.5,10c.3.5.3,1-.2,1.1-3.1.3-4.8,1.1-8.1,4-4.6,4.1-7.6,7.8-6.8,8.6.3.3.8-.2,1.2-1.1.5-1.4.9-1.4,2.2-.4s1.4,1,.8-1c-.5-1.6-.4-2.2.5-2a1.11,1.11,0,0,0,1.4-.9c0-.7.9-1.9,2.1-2.7,2.9-2.1,10.5-4.6,11.8-4,.6.3.2-.2-.8-1C103.4,8.8,100.5,8.4,101.5,10Z"/><path d="M127,10.4c0,2.2,1.7,2.8,4.1,1.5,1.2-.6,1.9-.7,1.5-.1a1.1,1.1,0,0,0,.6,1.5c.7.2.9.8.5,1.3s-1.2.2-1.6-.5-1.1-.9-1.5-.3c-.8,1.3,1.7,2.2,6.4,2.2,2.1,0,4.1.4,4.5.9s-1.8,1-5,1c-3,0-5.5-.5-5.5-1a.92.92,0,0,0-1-.9c-.5,0-.7.7-.4,1.5.5,1.1,2.2,1.5,6.3,1.6,6.4.1,10.2,1.1,8.2,2.3a2.57,2.57,0,0,1-2.6-.4c-1.5-1.3-9.4-.7-15.1,1-2.9.8-2.8.8.8.9,2,.1,4,.5,4.3,1.1a2.53,2.53,0,0,0,1.8,1c.8,0,.8-.3-.1-.9-1.1-.7-1.1-.9.1-1.4a2.75,2.75,0,0,1,2.6.6c.9.9,1.6.8,3.1-.1,3.4-2.1,3.6-1.3.5,1.5l-3,2.6,5-2.8c3.2-1.8,4.5-2.2,3.6-1.2-.7.9-1,1.7-.5,1.7s.3.5-.3,1.1.1,2.2,2.8,4.9l3.8,3.8-5.4.4c-4.1.2-6-.1-7.6-1.5-4.5-3.6-2.8-.7,2.5,4.5,3.1,3,5.6,5.2,5.6,5s.6.1,1.4.8a2.64,2.64,0,0,1,.9,2.7c-.4,1.1-.3,1.4.6.9,1.8-1.1,4,1.2,3.3,3.6-.3,1.5-.1,1.9.9,1.6,1.5-.5,1.5-.7.3-10.3-.4-3.3-.7-6.4-.5-6.9s-1-2.3-2.4-4.1c-2.8-3.8-3.3-5.4-1-3.5.9.7,1.5.8,1.5.2s-.7-1.3-1.6-1.6a1.58,1.58,0,0,1-1.1-2,2.16,2.16,0,0,0-.1-2.1,2.33,2.33,0,0,1-.7-1.4c0-.9-5.7-7.5-6.8-7.8-.4-.2-2.2-1-3.9-1.9C132.1,9,127,8.4,127,10.4ZM143.5,37a2.34,2.34,0,0,0,1.6,1c.6,0,.7-.5.4-1s.3-1,1.4-1,2.1.2,2.1.5c0,.9-3.9,4.9-4.3,4.4-.1-.2-1.1-1.4-2.1-2.7s-1.4-2.2-.8-2.2A2.06,2.06,0,0,1,143.5,37Zm7.6,4.2c.9,1.8.9,2.1-.1,1.1a2.86,2.86,0,0,0-2.6-.6c-1.4.5-1.9-.8-.7-2S149.9,39,151.1,41.2Zm.4,3.6c-.3.3-1.1,0-1.8-.7-.9-1-.8-1.1.6-.5C151.3,43.9,151.8,44.5,151.5,44.8Z"/><path d="M83,11.2a.88.88,0,0,0,.9.8,2,2,0,0,0,1.5-.8c.3-.5-.1-.9-.9-.9S83,10.7,83,11.2Z"/><path d="M76.1,19.6c0,1.1.3,1.4.6.6a2,2,0,0,0-.1-1.9C76.3,17.9,76,18.5,76.1,19.6Z"/><path d="M54.1,20.9l-2.2,1.9L55.1,25c3,2.2,3,2.2,1.8.2-.7-1.1-1.7-1.8-2.1-1.6-1.4.9-.9-.9.9-2.8C57.8,18.4,56.9,18.5,54.1,20.9Z"/><path d="M78,23.1c0,.5-.4.7-1,.4s-1-.2-1,.3c0,.8,2.2,2.2,3.4,2.2a5.44,5.44,0,0,0,.2-2c0-1.1-.4-2-.8-2S78,22.5,78,23.1Z"/><path d="M111.3,23.3a17.29,17.29,0,0,0-4,2.1c-.5.5,0,.6,1.2.1a36.15,36.15,0,0,1,4.8-1.3c1.5-.2,2.7-.8,2.7-1.3C116,21.8,115.3,21.8,111.3,23.3Z"/><path d="M83.1,24.4c-2.1,2.5-2.3,6.3-.4,7.1,1.4.5,1.5.4.6-.6s-.9-1.9.2-4.6C85,22.7,84.9,22.2,83.1,24.4Z"/><path d="M86.3,26.5c-1.2,1.4-1.8,2.7-1.3,3s1-.1,1.3-.7c.3-1,.7-1,2,.1.9.7,1.4,1.7,1.1,2.2a.55.55,0,0,0,.5.9c1.4,0,1.4-2.7.1-3.5-.8-.5-.8-1.1-.1-1.9,1-1.2.5-2.6-.8-2.6A9.58,9.58,0,0,0,86.3,26.5Z"/><path d="M112.5,26.1c-7.3,2.2-13,6.7-10.9,8.6.8.8,1.5.9,1.9.3s.1-1-.5-1-.8-.5-.5-1,1-.8,1.4-.5,1.9-.7,3.2-2.1,2.9-2.2,3.7-1.9a3.07,3.07,0,0,0,2.5-.2,24.35,24.35,0,0,1,6.1-.8,28.28,28.28,0,0,0,6.9-1c1.2-.5,1.7-.3,1.5.5s1.9,2,5.5,3c5.8,1.8,7,1.4,4.1-1.4-1.9-1.9-3.5-2-5.3-.4-1.1,1.1-1.2,1-.6-.1s.4-1.3-.8-.8-1.4.2-1-1,0-1.5-3-1.1c-1.9.2-3.4.1-3.2-.3C124.3,23.7,118.4,24.3,112.5,26.1ZM121,26c0,.5-1.2,1-2.7.9-2.5,0-2.6-.1-.8-.9C120.2,24.8,121,24.8,121,26Z"/><path d="M102.5,26c-1.3.6-1.5.9-.5.9a6.91,6.91,0,0,0,3-.9C106.8,24.8,105.2,24.8,102.5,26Z"/><path d="M141.6,26.6c-2.3,2.3-2,4.3,1,5.4,3.3,1.3,5.3.2,2.9-1.6-1.4-1-2.2-1.1-3.2-.3-1.8,1.5-1.6-.2.3-2.9S143.8,24.3,141.6,26.6Z"/><path d="M77.6,28.5c.6,1.4.3,1.6-1.7,1.1-2.2-.7-2.2-.6.4,1.1,4.6,3,2.8,4.4-2.9,2.3-2.3-.9-2.5-.8-1.5.4,1.2,1.4,8.4,2.8,7.5,1.5a1.17,1.17,0,0,1,.6-1.4c.5-.3,1,.1,1,.9,0,1.8.8,2,2.9.7,1-.6.5-1.2-1.7-2.2-1.6-.7-2.8-1.8-2.5-2.4A2.73,2.73,0,0,0,78.5,28C77.2,26.9,77.1,27,77.6,28.5Z"/><path d="M97.2,30.6c-2.4,1.4-4.1,2.8-3.8,3.1.6.6,8.6-4.3,8.6-5.2S101.8,27.8,97.2,30.6Z"/><path d="M49.2,35.2c-2.2,4.3-2.8,6.6-2.1,7.3s1.6.3,2.9-1.3A6.24,6.24,0,0,1,54,39c1.2,0,1.9-.4,1.5-.9a1.22,1.22,0,0,1,.5-1.6c.5-.3,1,0,1,.7s.6.6,1.5-.6,1.5-1.5,1.5-1c0,2.2-6.4,7.4-9,7.4-1.3,0-7,4.1-7,5,0,.4.7.7,1.5.7s1.2-.4.9-.9.2-.5,1.1-.2c1.7.7,2,.1-3.1,8-1.3,1.9-1.4,2.8-.6,3.6s1.3,1,1.4.7,1.3-2.2,2.5-4.4A17.45,17.45,0,0,1,52.2,50c2.1-1.4,2.2-1.4.9.2a4.07,4.07,0,0,0-.8,3.2c.3.8-.1,1.3-1.1,1.2a3.71,3.71,0,0,0-2.7,2,20.31,20.31,0,0,1-2.3,3.6c-.6.8-1,1.7-.7,1.9s1.5,4.6,2.9,9.6l2.4,9.1-2.1,2a10.72,10.72,0,0,1-4.2,2.4c-2.6.4-3.4,5.5-1,6,1,.2,2.5,2.6,3.6,5.7,4.2,11.9,9,16,19.1,16.2,9.6.2,13.4-2.6,15.9-11.7,1.4-5,1.6-7.1.8-8.1-1.7-2,.7-4.3,4.5-4.3,3.4,0,7.6,2.3,6.4,3.6-.4.4-1.4.1-2.2-.5-1.8-1.5-6.8-1.1-7.3.6-.3.8.6,1,2.9.7,4.1-.7,4.8,0,8,8.1,2,5,3.1,6.4,6.9,8.5,3.6,2,5.7,2.5,11.4,2.4,12.5-.2,16.2-3.4,18.9-16.6.9-4.7,1.8-6.4,3.4-7.1a3.72,3.72,0,0,0,2.2-3.3c0-2.8,6.7-7.4,8-5.4.5.8,1.5.9,3.1.4a9.92,9.92,0,0,1,3.2-.6c.6.2,1.2-4.4.9-6.9-.1-.4-.2-4.4-.3-9-.1-4.8-.7-9.5-1.5-11.1-1.1-2.1-1.1-2.8-.1-3.2.6-.3.3-.4-.9-.1-2.3.6-5-1.8-3.9-3.5.4-.6.3-.9-.2-.8s-1.9-.7-3.3-2a9.81,9.81,0,0,0-3.2-2.2c-.5,0-.7-.4-.3-.9a1.39,1.39,0,0,0-.6-1.7c-.8-.4-.9-.3-.5.4.5.9-.3,1-2.9.6-2.9-.4-3.5-.3-2.9.8a10.72,10.72,0,0,1,1.2,3.7,16.73,16.73,0,0,0,1.3,4.3,3.43,3.43,0,0,1,.3,2.9c-.4.8-.1.8,1.3.1,2.5-1.4,12.3,4,12.3,6.8a3.42,3.42,0,0,0,1,2.5,2.23,2.23,0,0,1,1,1.8c0,.7-.4.6-1-.3-1.7-2.7-2-.3-.4,3.6,1.4,3.3,1.4,3.6.1,2.5s-1.5-.9-1,.9c.3,1.1.2,2-.3,1.8a.67.67,0,0,0-.9.7c0,.6.4.9.8.7s.7,1,.5,2.5-.7,2.6-1.3,2.3a2.27,2.27,0,0,1-.9-1.8c.2-.9-.4-.8-1.7.4-1.7,1.5-1.9,1.5-1.9.1a28.5,28.5,0,0,0-.3-2.9c-.2-.7-.2-1,0-.5a1.05,1.05,0,0,0,1.4.1c1.5-.9-1-3.4-2.6-2.8a1.51,1.51,0,0,0-.8,2c.3.8-.1,1.4-.7,1.4-1,0-.9.5.2,1.7a3.79,3.79,0,0,1,1,3.3c-1.2,3.5-3.4,3.9-18.5,3.4-10.6-.4-15.3-.2-16.3.7-.8.6-1.4.9-1.4.5s-1.7.1-3.7,1c-7.2,3-8.4,3.4-7.8,2.5a1.39,1.39,0,0,0-.6-1.7q-1.05-.6-.6.3c.4.6-1.4.8-4.7.5s-5.6,0-6,.6c-.7,1.1-5.1.1-8.8-1.9-2-1-18.8-1.1-18.8-.1,0,.4-1.5.7-3.3.8H47.5l2.8-1c2.6-1,2.7-1.2,2.8-9,.1-4.5,0-8.6-.1-9.1-.4-1.6-.3-2.8.5-6l.8-3-2.2,1.9c-2.2,2-2.9,4.2-.9,3,.7-.4.8-.3.4.5a1.44,1.44,0,0,1-1.8.5c-.6-.4-.8-.2-.4.4a1.25,1.25,0,0,1-.4,1.7c-.7.4-1-.5-.8-2.5.2-2.3,1.1-3.6,3.4-5.1a7.8,7.8,0,0,0,3.8-5,59.16,59.16,0,0,1,4-10c2-4,2.9-6.9,2.3-7s-2.5-.3-4-.5c-2.2-.4-3,0-3.4,1.5a2.23,2.23,0,0,1-3.9.9c-.3-.4.3-2,1.5-3.6C54.2,30,54.5,29,53.2,29,52.7,29,50.9,31.8,49.2,35.2ZM139,42a1.23,1.23,0,0,0,1.3,1,5.77,5.77,0,0,1,3.2,2c1.8,2,1.8,2-.5,1.7-1.3-.2-2.6-.9-2.8-1.5-.5-1.7-1.9-1.5-1.9.2,0,.7,1.3,2.1,2.9,3,1.9,1.2,2.8,1.3,2.8.5s.4-.8,1.5.1c.8.7,1.2,1.6.9,2.1s.1.6.8.4,1.8.6,2.4,2.3c1.1,2.8,1.1,2.8-5.3-1.5-3.5-2.3-7.1-4.7-8.1-5.3-1.6-.9-1.6-1.1,0-2.3,1.3-1.1,1.5-1.6.6-2.5s-.8-1.2.5-1.2C138.2,41,139,41.4,139,42ZM56.5,43.9a1.23,1.23,0,0,1-1.6.6c-.5-.4-.9.1-.9.9s-1,2-2.1,2.7c-1.5.8-1.9.8-1.5,0,.4-.6.2-1.1-.4-1.1-1.9,0,.1-2.1,3.4-3.5S57.6,42.2,56.5,43.9ZM51.4,68.4c-.3,2.1-.9,3.5-1.1,3.2s-.2-2.1.1-4.2,1-3.4,1.2-3.1S51.8,66.4,51.4,68.4Zm59.9,14.3a7.56,7.56,0,0,1-3,0c-1-.3-.4-.5,1.2-.5S111.9,82.4,111.3,82.7Zm15.9,2c-.9.4-.7,1.2.8,3,3.3,4.2,2.1,13.8-2.3,18.8-2.9,3.3-12.9,5.7-17.2,4.1-5.4-2-7.2-3.5-9.2-7.5-1.1-2.2-2.2-3.9-2.4-3.7s-.5-1.6-.7-4c-.3-5.4,1.9-9.1,6.2-10.3C105.3,84.2,129.9,83.9,127.2,84.7Zm7.8,1.5c0,1.9-.2,2-1,.8-1.3-1.9-1.3-3,0-3C134.6,84,135,85,135,86.2Zm-61.8-.1c5.3,2.7,6.8,5,6.8,10.3a28,28,0,0,1-1.9,9.3c-1.6,3.5-2.6,4.4-6,5.3a21,21,0,0,1-14.3-1.7c-3.6-1.7-6.8-8.2-7.5-14.8-.5-4.7-.3-5.3,2-7.2,2.1-1.6,4.3-2.1,10.7-2.2C67.5,85,72,85.4,73.2,86.1ZM131,86c0,.5-.2,1-.4,1s-.8-.5-1.1-1-.1-1,.4-1A1,1,0,0,1,131,86Zm-80,.4c0,.3-.4.8-1,1.1s-1,.1-1-.4A1.1,1.1,0,0,1,50,86C50.6,86,51,86.2,51,86.4Zm36,.5c0,.7-3,2.2-5.2,2.5-1.9.3-.7-2,1.4-2.6C86.6,85.9,87,85.9,87,86.9ZM45,88a1.1,1.1,0,0,1-1.1,1c-.5,0-.7-.5-.4-1s.8-1,1.1-1S45,87.4,45,88Zm3,1.1c0,.6-.4.7-1,.4a2.34,2.34,0,0,1-1-1.6c0-.6.5-.7,1-.4A2,2,0,0,1,48,89.1ZM93,88c1.8,1.2.2,1.2-2.5,0-1.3-.6-1.5-.9-.5-.9A6.91,6.91,0,0,1,93,88ZM48.9,94.7c0,2.5-.1,2.6-.9.8-1.2-2.7-1.2-3.5,0-3.5C48.6,92,49,93.2,48.9,94.7Z"/><path d="M101.9,87.2A19,19,0,0,0,99,90.5c-1,1.3-.4,1.1,1.8-.8,3.7-3,5.4-3.5,4.6-1.2a2.68,2.68,0,0,1-2,1.5c-2.6,0,.7,2.6,3.5,2.8,2.2.1,2.3,0,.9-.9-2.2-1.2-2.3-2.3-.2-4.3,1.4-1.5,1.3-1.6-1.3-1.6A8.85,8.85,0,0,0,101.9,87.2Z"/><path d="M110,88.1c0,5.3,4.7,6.8,7.6,2.4.9-1.4,2-2.2,2.6-1.9s.4,1.2-.3,2c-1,1.2-.9,1.3.5.8a1.64,1.64,0,0,1,2.1.7,3.22,3.22,0,0,0,2.9,1.5c1.5.1,2.3-.3,2-1-.9-2.3-7.1-5.3-12.2-5.8C110.7,86.4,110,86.5,110,88.1Zm5.9.8c.8.5.9,1.1.3,1.5a1.28,1.28,0,0,1-1.7-.4,2.34,2.34,0,0,0-1.6-1c-.6,0-.7.4-.4,1s.1,1-.4,1-1.1-.7-1.1-1.5C111,87.9,113.7,87.5,115.9,88.9Z"/><path d="M100.1,93.4c-.9,1.1-.9,1.6,0,2.2.7.4.9.3.5-.4s.2-1.2,1.1-1.4c1.2-.2,1.4-.6.7-1.1A2,2,0,0,0,100.1,93.4Z"/><path d="M102.6,95.9c-.3.4.6.8,2,.9s2.4,0,2.4-.2C107,95.9,103,95.2,102.6,95.9Z"/><path d="M121.7,97.1c.7.7,1.5,1,1.8.7s-.2-.9-1.2-1.2C120.9,96,120.8,96.1,121.7,97.1Z"/><path d="M99,98c0,.5.7,1,1.5,1a3.33,3.33,0,0,1,2.4,1.7c1.2,2.3,7.1,5.8,7.1,4.3,0-.6.5-.8,1.3-.4.9.6.8.3-.1-.8-.8-.9-1.9-1.5-2.5-1.2s-2.8-.9-4.7-2.6C100.3,96.9,99,96.3,99,98Z"/><path d="M123.6,101.5c-.3.9-1.8,1.5-3.6,1.5s-2.9.4-2.5,1c.9,1.5,4.1,1.2,5.9-.5a4.86,4.86,0,0,1,2.5-1.5,1.1,1.1,0,0,0,1.1-1C127,99.4,124.3,99.8,123.6,101.5Z"/><path d="M111.5,108c.3.5.8,1,1.1,1s.4-.5.4-1a1,1,0,0,0-1.1-1C111.4,107,111.2,107.4,111.5,108Z"/><path d="M65.3,87.6c-.9,2.4,1,4.9,4.1,5.2,2,.3,2.8-.2,3.5-2,.9-2.4.6-3.8-.9-3.8-.5,0-.7.6-.4,1.4a1.78,1.78,0,0,1-.5,2.1c-.7.3-1.1-.2-1.1-1.3a2.84,2.84,0,0,0-1.6-2.6C66.2,85.7,66,85.8,65.3,87.6Zm3,2.4c.3,1.1.1,2-.4,2s-.9-.9-.9-2,.2-2,.4-2S68,88.9,68.3,90Z"/><path d="M58.9,89.1C57.7,90.3,57,92,57.3,93c.3,1.3-.2,2-1.9,2.4-2.8.7-3.1,2.1-.6,3.5,1,.6,1.2,1.1.4,1.1s-1,.5-.7,1a1.1,1.1,0,0,0,1.5.5c.4-.3,1,.1,1.3.7s.7,1,1.1.7c1.3-1.2-1.6-5.8-3.3-5.3-.9.3-.2-.2,1.4-1.2,4-2.2,4.1-2.4,2.7-3.3-1-.6-.5-1.5,1.8-3.5,2.1-1.7,2.6-2.6,1.6-2.6A6.76,6.76,0,0,0,58.9,89.1Z"/><path d="M52.4,92.6c-.1,1.3.2,2.4.8,2.4s.6-.5.3-1-.1-1,.4-1c1.5,0,1.4-1.7-.1-2.3C53,90.4,52.4,91.2,52.4,92.6Z"/><path d="M60.5,90.9c-.3.6.4,1.5,1.5,2.1,3.1,1.7,4.2.8,1.5-1.3C62.1,90.8,60.9,90.4,60.5,90.9Z"/><path d="M75.1,91.4c-.9,1.1-.6,1.5,1.4,1.8,2.8.6,3.2-.3,1.1-2.1C76.6,90.3,76,90.3,75.1,91.4Z"/><path d="M66,96.2c0,1,1.8.9,4.5-.2,1.6-.6,1.4-.8-1.2-.7C67.5,95.3,66,95.7,66,96.2Z"/><path d="M72.9,97l-2.4,2.1,3.3-1.6C76.9,96,77.9,95,76.1,95A8.85,8.85,0,0,0,72.9,97Z"/><path d="M61.7,97.1c.7.7,1.5,1,1.8.7s-.2-.9-1.2-1.2C60.9,96,60.8,96.1,61.7,97.1Z"/><path d="M61.9,100.9a4.9,4.9,0,0,0,4.5,1.4c3.9-.8,4.2-2.3.2-1.6-1.9.3-3.6.1-4-.6A2.34,2.34,0,0,0,60.9,99C60.4,99,60.8,99.8,61.9,100.9Z"/><path d="M74.2,101.7c-1.2.2-2,.9-1.7,1.4s-.1.9-1,.9-1.3-.5-1-1,.4-1,.1-1-1,.8-1.5,1.8c-.9,1.6-.6,1.8,1.9,1.4a8.75,8.75,0,0,0,4.6-2.3c.9-1,1.5-1.8,1.3-1.8A16.52,16.52,0,0,1,74.2,101.7Z"/><path d="M56.5,104.6c1.1.8,1.9,1.8,1.7,2.2s.1.8.7,1,1.1-.2,1.1-.9c0-1.3-2.9-3.8-4.5-3.8C55,103.1,55.4,103.7,56.5,104.6Z"/><path d="M62.8,107.7a2,2,0,0,0,1.9-.1c.4-.3-.2-.6-1.3-.5S62,107.4,62.8,107.7Z"/><path d="M68,31.4c.6,1.7.5,2.6-.3,3s-.9.7,0,1.2c.6.3,3,3,5.3,5.9,3.5,4.6,8.6,8.5,10.9,8.5.3,0-1.7-2-4.5-4.4a44.73,44.73,0,0,1-8.3-10.5C67.8,28.8,66.3,27.2,68,31.4Z"/><path d="M115.7,30.1c-1,.6-2.1.8-2.4.5s-1.5-.1-2.6.5c-1.5.8-1.8.8-1.2-.1s.3-1.1-.6-.8-2.2,1.9-3.3,3.7c-1.4,2.5-1.6,3.5-.7,4.4s1.1.8.5-.6c-.4-1.3-.2-1.6.9-1.1s1.5,0,1.4-1.3c-.2-1.7.2-1.9,4.6-2.2A10.7,10.7,0,0,0,117,31C119.6,28.9,118.8,28.3,115.7,30.1Z"/><path d="M119.9,30.8a14.75,14.75,0,0,0-3,2.5,4.52,4.52,0,0,1-3.1,1c-1.4.1-2.5.7-2.5,1.4s.8.9,2.1.4a6.16,6.16,0,0,1,3.4-.4c.6.3,1.2-.2,1.2-1a4.37,4.37,0,0,1,1.5-2.7c1.2-1,1.5-1,1.5.1,0,.9.3,1,.8.4,1.1-1.6,4.1-1.5,3.5.1-.5,1.3-3.3,1.9-5.8,1.4-.5-.1-.6.2-.2.6,1.7,1.7,5.7,1,7.9-1.4,1.3-1.4,1.7-2.2,1-1.8a1.15,1.15,0,0,1-1.7-.6C125.7,28.9,122.7,28.9,119.9,30.8Z"/><path d="M56.7,32.1c.7.7,1.5,1,1.8.7s-.2-.9-1.2-1.2C55.9,31,55.8,31.1,56.7,32.1Z"/><path d="M53,33.1c0,.5.5.7,1,.4s1-.8,1-1.1-.4-.4-1-.4A1.1,1.1,0,0,0,53,33.1Z"/><path d="M87.4,34.1c-.2.4,0,.9.6,1.1s.7,1.4.3,2.7l-.6,2.3L86.5,38c-.8-1.5-1.5-1.9-1.9-1.1-.4.6-.2,1.1.4,1.1s.9.4.6.9c-.9,1.4,2,2.1,3.3.8A4.36,4.36,0,0,0,90,37a4,4,0,0,1,1-2.6c.6-.6.3-1-1.1-1A3.72,3.72,0,0,0,87.4,34.1Z"/><path d="M130.8,34.2c2.5,1.2,3.1,3.4.6,2.4-.8-.3-1.2-.2-.9.4.7,1.1,5.5,1.4,5.5.4s-4.5-4.3-6-4.3C129.1,33.1,129.4,33.6,130.8,34.2Z"/><path d="M94.3,34.7c-1.4.5-1.8,2.4-.5,2.1a11.58,11.58,0,0,1,3.9,1.5c2.2,1.2,3.1,1.3,2.9.5-1.5-5.1-1.6-5.1-3.3-3.7-1.2,1-1.4,1-.9.1C97.1,34,96.4,33.8,94.3,34.7Z"/><path d="M44.5,36a1.58,1.58,0,0,0,2,.3c2.1-.7,1.9-1.3-.6-1.3C44.8,35,44.1,35.4,44.5,36Z"/><path d="M76,36.9a1.13,1.13,0,0,0,.8,1.2c4,.5,6.2.5,6.2-.2,0-.4-.8-.7-1.7-.7a10.39,10.39,0,0,1-3.5-.7C76.7,36.1,76,36.2,76,36.9Z"/><path d="M91.8,38.7a2,2,0,0,0,1.9-.1c.4-.3-.2-.6-1.3-.5S91,38.4,91.8,38.7Z"/><path d="M118,38.9a2.34,2.34,0,0,0,1,1.6c.6.3,1,.2,1-.4a2,2,0,0,0-1-1.6C118.5,38.2,118,38.3,118,38.9Z"/><path d="M124.5,39a1.22,1.22,0,0,0,1.6.5c1.4-.9,1.1-1.5-.7-1.5C124.6,38,124.2,38.5,124.5,39Z"/><path d="M110.1,41.2a6.15,6.15,0,0,0,1.2,1.8c.2,0,.3-.8.4-1.8s-.5-1.9-1.2-1.9C109.5,39.3,109.4,39.8,110.1,41.2Z"/><path d="M122.1,40c-.1,1.8,1.8,4,3.4,4,.5,0,.3-.6-.6-1.3a9,9,0,0,1-2.2-2.7C122.2,38.7,122.1,38.7,122.1,40Z"/><path d="M81.8,42.8c-1,.2-1.8.7-1.8,1.2s.9.6,2,.3c1.4-.4,2.1.1,2.6,2.1.3,1.4,1,2.6,1.5,2.6,1.3,0,1.1-.6-.8-3.8C84.2,43.5,82.8,42.6,81.8,42.8Z"/><path d="M116,43a7.11,7.11,0,0,0,3,1c1.3,0,1.3-.1,0-1a7.11,7.11,0,0,0-3-1C114.7,42,114.7,42.1,116,43Z"/><path d="M66.5,44.1c-.4.6-.5,1.2-.2,1.5s.7-.2,1-1.1C68,42.8,67.4,42.5,66.5,44.1Z"/><path d="M103.1,43.3c.2.1,1.3.9,2.4,1.7,1.9,1.4,1.9,1.4.6-.3a4.29,4.29,0,0,0-2.4-1.7Q102.8,43,103.1,43.3Z"/><path d="M127.1,45.7a1.77,1.77,0,0,1-1.8,1.3c-1.5,0-1.6.2-.3,1,1.8,1.1,3.5-.2,2.7-2.2C127.3,44.9,127.1,44.8,127.1,45.7Z"/><path d="M60.5,47c-.3.5-.1,1,.4,1A1.1,1.1,0,0,0,62,47c0-.6-.2-1-.4-1S60.8,46.4,60.5,47Z"/><path d="M70.2,47.6c-1.4,1.6-.5,1.8,1.7.5.7-.5.9-1.1.5-1.4S70.9,46.8,70.2,47.6Z"/><path d="M108,46.4a5.73,5.73,0,0,0,1.8,1.7c1.5,1.3,1.6,1.2.3-.4S108,45.6,108,46.4Z"/><path d="M63.8,51.4c-1.9,1.4-2.3,2.6-1,2.6.4,0,1.3-.9,2-2C66.2,49.7,66.1,49.6,63.8,51.4Z"/><path d="M88,50.8A4.29,4.29,0,0,0,89.5,53c.8.7,1.5.8,1.5.2A4.29,4.29,0,0,0,89.5,51C88.7,50.3,88,50.2,88,50.8Z"/><path d="M85,51.6c.1,2.5,3,4.4,6.6,4.4,2.9,0,3.5-.3,2.4-1a4.65,4.65,0,0,0-3.3-.4c-1.1.4-2.5-.3-3.8-1.7C85.9,51.7,85,51.1,85,51.6Z"/><path d="M117,52a1.1,1.1,0,0,0,1.1,1c.5,0,.7-.5.4-1s-.8-1-1.1-1S117,51.4,117,52Z"/><path d="M127,53.5c1.4,1.7,1.3,1.8-.3,1.2-2.3-.9-1.3.9,1.3,2.3,1.6.9,1.7.7,1.1-1.7-.4-1.5-1.4-2.9-2.2-3.1C125.7,51.7,125.7,52,127,53.5Z"/><path d="M139,54c0,1.1-.5,2-1.2,2-.9,0-.9.3,0,1.2s1.6.8,3-.6c.9-1.1,1.1-1.6.5-1.2s-1.3.3-1.3-.3a1.57,1.57,0,0,1,1.2-1.3c.7-.3.6-.7-.5-1.1S139,52.6,139,54Z"/><path d="M65,54.1c0,.5.5.7,1,.4s1-.8,1-1.1-.4-.4-1-.4A1.1,1.1,0,0,0,65,54.1Z"/><path d="M66.8,55.9c-2.5,1.2-3.9,1.5-4.2.7-.2-.6-.5-.5-.5.3a8.68,8.68,0,0,1-1.8,3.4c-1.8,2-1.8,2,.9.3,1.5-1,3.3-1.4,3.9-1s.9.3.6-.3c-1-1.6,1.6-3.3,6.4-4.2,3.7-.7,3.9-.9,1.4-1A15,15,0,0,0,66.8,55.9Z"/><path d="M110.1,55.9a50.82,50.82,0,0,1,6.7,2.5c.7.4,1.2.4,1.2.1,0-1.1-8.4-4.5-11-4.4C105.4,54.1,106.6,54.8,110.1,55.9Z"/><path d="M143,55.6c0,.5,1.2,1.8,2.7,2.8,1.6,1.2,2.4,1.4,2.1.6C147.3,57.4,143,54.4,143,55.6Z"/><path d="M100,57.4c0,.9,3,1.4,3.5.6.4-.6-.3-1-1.4-1S100,57.2,100,57.4Z"/><path d="M136,59c.6,1.1,1.3,2,1.6,2s0-.9-.6-2-1.3-2-1.6-2S135.4,57.9,136,59Z"/><path d="M76.5,59c-.3.5-.1,1,.4,1A1.1,1.1,0,0,0,78,59c0-.6-.2-1-.4-1S76.8,58.4,76.5,59Z"/><path d="M139.5,64.2c.6,5,1.5,6.3,1.5,2.2,0-2.2.3-2.6,1-1.4.6.9,1,1,1,.3a5.08,5.08,0,0,0-1.5-2.6c-.8-.8-1.1-1.7-.8-2.1s.1-.6-.5-.6C139.4,60,139.1,61.3,139.5,64.2Z"/><path d="M99.4,61.8c.4.7.3,1.2-.1,1.2a9.07,9.07,0,0,0-2.9,1.4c-1.7,1.3-1.4,1.3,2.1.1,8.6-3,17.8-1.4,22.9,4.1,1.4,1.6,2.6,2.4,2.6,1.8,0-1.8-5.5-6.4-9.1-7.5a35.58,35.58,0,0,0-8.5-.8c-2.7.2-5.6-.1-6.4-.6S98.9,61.1,99.4,61.8Z"/><path d="M60.4,63.1c-.8,1.4,1.4,1.9,4.2.9,1.5-.6,5.9-.9,9.8-.6,6,.4,6.4.4,2.6-.4C71.6,61.9,61.1,62,60.4,63.1Z"/><path d="M86,63.6c0,.8.5,1.2,1,.9a1.22,1.22,0,0,0,.5-1.6C86.6,61.5,86,61.8,86,63.6Z"/><path d="M92.2,63.4c.7.8,1.5,1.2,1.7,1.1.5-.6-1-2.5-2-2.5C91.4,62,91.5,62.6,92.2,63.4Z"/><path d="M73.4,66.8c1.1,1.2,1.9,1.3,2.7.5s.3-1.2-1.6-1.5C72,65.3,72,65.4,73.4,66.8Z"/><path d="M112,66.1c0,.5.5.7,1,.4s1-.8,1-1.1-.4-.4-1-.4A1.1,1.1,0,0,0,112,66.1Z"/><path d="M62.3,66.7c-2.4.5-3.9,3-1.7,3,.7,0,1.1-.4.8-.9s.6-.8,2-.8,2.6-.5,2.6-1-.3-.9-.7-.9S63.5,66.5,62.3,66.7Z"/><path d="M79,66.9a1.9,1.9,0,0,0,1,1.6c.6.3.7-.1.4-.9C79.7,65.8,79,65.5,79,66.9Z"/><path d="M97,67.1c0,.5.5.7,1,.4s1-.8,1-1.1-.4-.4-1-.4A1.1,1.1,0,0,0,97,67.1Z"/><path d="M134.8,67.5c.5,1.1,1.2,2.7,1.5,3.5.5,1.3.6,1.3.6-.1a6.08,6.08,0,0,0-1.5-3.5C133.9,65.5,133.9,65.5,134.8,67.5Z"/><path d="M83.2,68.6c-.9,1-.9,1.4-.1,1.4s1,1.3.6,4.2c-.5,3.5-.4,3.8.4,1.8a14.38,14.38,0,0,0,.7-5.6C84.5,67.7,84.3,67.4,83.2,68.6Z"/><path d="M95,69a1.1,1.1,0,0,0,1.1,1c.5,0,.7-.5.4-1s-.8-1-1.1-1S95,68.4,95,69Z"/><path d="M71.5,71c-.3.5-.1,1,.4,1A1.1,1.1,0,0,0,73,71c0-.6-.2-1-.4-1S71.8,70.4,71.5,71Z"/><path d="M108.5,71a2.14,2.14,0,0,0,1.6,1,1,1,0,0,0,.9-1c0-.6-.7-1-1.6-1S108.2,70.4,108.5,71Z"/><path d="M126,70.8c0,.5,1.9,2.4,4.3,4.2,4,3.3,3.6,2-1-2.7C127,69.9,126,69.5,126,70.8Z"/><path d="M114.5,72.5a18.45,18.45,0,0,0,5.4,1.5c3,0,2-1.2-1.3-1.5-1.3-.2-3.5-.6-4.8-.9C112.2,71.2,112.4,71.4,114.5,72.5Z"/><path d="M59.7,73.1c.8.8,1.6.8,3,0,1.6-.9,1.4-1-1.1-1.1C59.4,72,58.9,72.3,59.7,73.1Z"/><path d="M105.6,73.6a7.72,7.72,0,0,1-3.9,1.4c-1.1,0-1.8.6-1.6,1.7.3,3.2-.1,3.6-1.7,2.2-1.5-1.2-1.6-1.1-.9,1.1s.6,2.3-.9,1.1c-.9-.8-1.6-.9-1.6-.3,0,2.1,2.6,1.8,5.8-.6,1.7-1.3,3.2-1.9,3.2-1.3,0,1.9,1.5,1.2,2.5-1.2.6-1.2,1.6-2.2,2.4-2.2a2.26,2.26,0,0,0,1.9-1.5c.3-.8.1-1.2-.3-.8a1.51,1.51,0,0,1-1.9-.1C107.9,72.5,106.8,72.7,105.6,73.6ZM103,76.4c0,.3-.4.8-1,1.1s-1,.1-1-.4a1.1,1.1,0,0,1,1-1.1C102.6,76,103,76.2,103,76.4Z"/><path d="M56,74.5c0,.8.2,1.5.4,1.5s.6-.7,1-1.5S57.5,73,57,73,56,73.7,56,74.5Z"/><path d="M65,73.8a4.57,4.57,0,0,0,1.3,2.1c1,1,.8,1.1-.7.5-1.3-.5-1.7-.4-1.2.4A2.57,2.57,0,0,0,66.5,78a2.14,2.14,0,0,1,1.8,1.4,4.46,4.46,0,0,0,2.6,1.9c1.2.3,1.9.1,1.5-.4-.9-1.5,1.3-1,2.6.6s3.5,2.1,2.6.6c-.4-.5,0-1.2.6-1.4.8-.4.4-.8-.9-1.2S75,78.4,75,78s-.8-.6-1.8-.3-2.9-.7-4.5-2.1C65.7,72.9,65,72.5,65,73.8Z"/><path d="M97.5,74c.3.5.8,1,1.1,1s.4-.5.4-1a1,1,0,0,0-1.1-1C97.4,73,97.2,73.4,97.5,74Z"/><path d="M62,75c-.8.5-1.2,1.2-.9,1.5s1.2-.1,1.9-1C64.4,73.8,64.1,73.6,62,75Z"/><path d="M93,75a1.1,1.1,0,0,0,1.1,1c.5,0,.7-.5.4-1s-.8-1-1.1-1S93,74.4,93,75Z"/><path d="M114.7,75.7a8.3,8.3,0,0,1-3.3.9c-4.9.5-4.9,2.2,0,2.2,3.2-.1,4.6-.5,4.6-1.5,0-.8.5-1.1,1-.8a1.1,1.1,0,0,1,.5,1.5c-.3.4.5.6,1.6.3,2.1-.6,2.1-.7.4-2C117.4,74.9,115.7,74.6,114.7,75.7Z"/><path d="M56.6,77.9c-.4.6-.1,1.1.6,1.1.9,0,1,.2.1.8-.6.4,1.3.7,4.3.8,5.7,0,7.2-1,2.7-1.9a39.12,39.12,0,0,1-4.9-1.2C58.2,77.1,56.9,77.3,56.6,77.9Z"/><path d="M122,78.1c0,.5.5.7,1,.4s1-.8,1-1.1-.4-.4-1-.4A1.1,1.1,0,0,0,122,78.1Z"/><path d="M154.9,79.4c.9,1,.8,1.6-.4,2.6-1,.8-1.2,1.7-.6,2.4,1.4,1.7.9,17.2-.7,18.8a5.06,5.06,0,0,0-1.2,3c0,1-.5,1.8-1.1,1.8s-.8.4-.4.9-.5,2.1-1.7,3.6c-2,2.3-2.7,2.5-5,1.6-1.9-.7-2.6-1.5-2.2-2.6.8-1.9,1.3-1.9,3.3-.1,1.1,1,2.1,1.2,3.1.6,1.3-.9,1.3-1,0-1a7.54,7.54,0,0,1-3.4-1.5c-1.8-1.3-1.8-1.6-.1-8.5,1.4-5.8,2-6.9,3.1-5.9s1.4.6,1.4-1.5c0-3.1-.4-3.2-3-.9-1.5,1.5-3.5,8.3-4.4,15.3a6.72,6.72,0,0,1-1,2.8,2.44,2.44,0,0,0-.1,2.2c.3.5.2,1-.4,1s-.7.7-.4,1.7c.5,1.2.3,1.4-.7.8-.8-.5-1.1-.4-.6.3a1.28,1.28,0,0,1-.4,1.7,2.35,2.35,0,0,0-1,1.8c0,.6.7.2,1.5-.9,1.3-1.8,1.4-1.6,1.5,2.7,0,2.5-.6,5.1-1.2,5.8-1,1.1-1,1.3,0,.7.7-.4,1.2-.1,1.2.8a1.87,1.87,0,0,0,1,1.8c.5.1,1,3.9,1.2,8.3.3,7.5,0,8.5-3.9,17a138.3,138.3,0,0,0-5.3,13c-1.6,4.9-7.4,17.3-9.4,20-1.5,2-1.4,2,22.7,1.7,13.3-.2,24.6-.7,25.1-1.2s.5-1.4-.2-2.2a14.21,14.21,0,0,1-1.3-2.3c-.9-3.7-1.2-4.5-2-4.5-1.2,0-1.2.1.6,4.3a32.94,32.94,0,0,1,1.5,4.2c0,.3-9.8.5-21.9.5H126.3l2.7-5.8a124.07,124.07,0,0,0,5-12.2,160.55,160.55,0,0,1,6.2-14.9,67.4,67.4,0,0,0,4.8-13c.5-2.9.8-3.7,1-2.1l.2,2.5.8-2.5.7-2.5.7,3a78.79,78.79,0,0,0,3.7,9.3,60,60,0,0,1,2.9,6.9,27.26,27.26,0,0,0,3.1,4.5c2,2.4,3.5,3.6,4.1,3s.1-1.9-1.4-3.5c-3.7-4.1-4.4-5.1-5.6-8.6-1.5-4.2-1-4.9,1.7-2.2a12.69,12.69,0,0,0,4.6,2.7c2.7.7,3.4,2.4,1,2.4a1.56,1.56,0,0,0-1.5,1.6c0,1.2.5,1.4,1.8.8a10.65,10.65,0,0,1,4.2-.6c2.9.2,17.3,7.1,15,7.2-1.7,0-3.2,1.6-6.9,7a33.87,33.87,0,0,1-3.9,4.8c-1.4,1-1.4,1.2-.1,1.2a5.77,5.77,0,0,0,3.2-2,5.54,5.54,0,0,1,3.5-2c2.3,0,7.2-2.2,7.2-3.3,0-.5-.6-.5-1.2-.1-.8.4-.9.3-.5-.2a3.7,3.7,0,0,1,2.4-.9c1.8,0,6-5.1,5-6.1-.3-.3-1.9-.2-3.5.4-2.1.7-3.3.7-4.1-.1-1.4-1.4-8.4-5.4-19.3-11.1-4.8-2.5-9.4-5.6-10.3-6.8-7.2-10.3-11-17.6-10.9-20.8.4-11.5.3-11.3,1.8-10.1,3.2,2.7,7.9-3,10.5-12.4,2.8-10.4,3.9-17.3,3.4-20-.6-3.3-2-5.5-3.5-5.5C154.2,78,154.2,78.5,154.9,79.4ZM181.5,171a5.87,5.87,0,0,1-3.4,2c-1.2-.1-1-.5.8-2C181.9,168.4,183.8,168.4,181.5,171Z"/><path d="M83,81c0,1.1.4,2,.9,2s.7-.9.4-2-.7-2-.9-2S83,79.9,83,81Z"/><path d="M86,82a1.1,1.1,0,0,0,1.1,1c.5,0,.7-.5.4-1s-.8-1-1.1-1S86,81.4,86,82Z"/><path d="M90.5,82c.3.5.8,1,1.1,1s.4-.5.4-1a1,1,0,0,0-1.1-1C90.4,81,90.2,81.4,90.5,82Z"/><path d="M146.1,82.7c0,.7-1.3,1.9-2.8,2.7s-2.3,1.5-1.6,1.6,1.9,1.2,2.7,2.7l1.4,2.8.7-2.6a14.56,14.56,0,0,0,.2-5.5C146.5,82.8,146.2,82,146.1,82.7Z"/><path d="M149.6,86.6a2.43,2.43,0,0,0-.1,2.2c.2.3.7-.3,1.1-1.2a2.43,2.43,0,0,0,.1-2.2C150.5,85.1,150,85.7,149.6,86.6Z"/><path d="M138.5,94c-.3.5-.1,1,.4,1a1.1,1.1,0,0,0,1.1-1c0-.6-.2-1-.4-1S138.8,93.4,138.5,94Z"/><path d="M151.2,95.8a15,15,0,0,0-1.2,4.6c-.1,2.1-.1,2.1-1.6.1s-1.6-2-1,.2c.4,1.2.2,2.4-.4,2.8-1.7,1-1.2,4.5.5,3.9.8-.4,1.5-1.1,1.5-1.7a5.86,5.86,0,0,1,1.6-2.8c1.7-1.9,3.6-8.7,2.5-9.3C152.8,93.4,151.9,94.3,151.2,95.8Z"/><path d="M134.5,100c.3.5.8,1,1.1,1s.4-.5.4-1a1,1,0,0,0-1.1-1C134.4,99,134.2,99.4,134.5,100Z"/><path d="M139,100.1c0,.5.5.7,1,.4s1-.8,1-1.1-.4-.4-1-.4A1.1,1.1,0,0,0,139,100.1Z"/><path d="M89.4,104c-.1,1.5.4,2.7,1,2.7s1.1-1.2,1.1-2.7C91.5,100.5,89.5,100.5,89.4,104Z"/><path d="M92.6,104.5c.4.8.8,1.5,1,1.5s.4-.7.4-1.5-.4-1.5-1-1.5S92.3,103.7,92.6,104.5Z"/><path d="M85.1,108.4c-.9,1.1-.9,1.6,0,2.2.7.4.9.3.5-.4s.2-1.2,1.1-1.4c1.2-.2,1.4-.6.7-1.1A2,2,0,0,0,85.1,108.4Z"/><path d="M134,111.5c-.7.9-.8,1.5-.2,1.5s1.2-.7,1.6-1.5.4-1.5.2-1.5A6,6,0,0,0,134,111.5Z"/><path d="M97.9,115.2a22.82,22.82,0,0,1-2.8,6.2c-1.6,1.9-1.5,1.9,1.2.1a5,5,0,0,0,2.7-4.6c0-4,1.3-3.6,3.4.8l1.8,3.7-4.4,3.9c-3.5,3.2-3.9,3.8-1.8,3.2,2.5-.8,2.5-.8.6,1.4-1.4,1.5-1.5,2.1-.6,2.1s1.1.3.3,1.1a2.88,2.88,0,0,0-.6,2.7c.4,1,.2,1.3-.5.8-1.8-1.1-1.4.3.5,2.2,1.6,1.6,1.6,1.6,1-.1-.3-.9-.2-1.7.4-1.7s.8-.9.3-2.3c-.3-1.2-.3-1.9.1-1.5,1.1,1,3.4-2.3,3.4-4.7,0-1.5-.3-1.4-1.1.7-.5,1.6-1.4,2.8-1.9,2.8s-.6-.7,0-1.9c.6-1,.8-2.1.4-2.5s.6-1.5,2-2.7S105,122,105,121a2.57,2.57,0,0,1,1-2.2c1-.3-5.1-7.8-6.3-7.8C99.3,111,98.5,112.9,97.9,115.2Z"/><path d="M55,112.9c0,2.4,12.2,34.9,14,37.4,1.2,1.5,1.8,3.2,1.4,3.8-.9,1.4-11.4,6.2-20.4,9.2-10.2,3.4-16.2,7-20.9,12.3-4.5,5.1-9,16.4-6.6,16.4,1.7,0,3.8-3.6,3-5a2.4,2.4,0,0,1,.2-2.3c.8-1.2.9-1.7,1.2-4,.1-.8.4-.7,1.1.3s1,1.2,1,.2c0-.8,1.2-3.1,2.8-5.3,2.5-3.7,7.5-6.2,10.5-5.5.7.1.9.1.5-.1-1.3-.7-.9-2,.8-2.7.8-.3,1.2-.2.9.4s-.1,1,.4,1a1.1,1.1,0,0,0,1.1-1,.92.92,0,0,1,.9-1c1.3,0,3.8,11.6,5,22.7a1.23,1.23,0,0,0,1,1.3c.5,0,.7-1.9.4-4.3l-.5-4.2,2.2,3.4c1.5,2.4,1.8,3.6,1,4.1s.1.9,1.9,1.2,3.4.1,3.7-.4-.2-.8-1.1-.8-1.4-.4-1-.9-.4-1.3-1.5-1.6-1.9-1.2-1.7-1.8a3.3,3.3,0,0,0-.8-2.7c-1-1.3-4-10.1-3.6-10.8a12.89,12.89,0,0,0-1.3-3.1c-1.1-2.1-1.2-3.1-.3-4,1.5-1.5,3-1.4,2.4.3-.4,1,.5.8,3.5-.6,3.3-1.6,4.2-1.7,5.6-.6,1.2,1,1.4,1,.8,0-.4-.6-.2-1.2.3-1.2a1.23,1.23,0,0,0,1.1-1.3,5.77,5.77,0,0,1,2-3.2c1.1-1,2-1.6,2-1.4,0,.8-4.7,12-5.4,12.6-1,1-.7,5.3.4,5.3.6,0,1-.7,1-1.5,0-2.4,5.8-14.5,6.9-14.5.6,0,2.8,2.7,5,6,4,6.1,4.6,8.8,3.9,18.5a12.56,12.56,0,0,0,.6,4.2c.7,2.2.5,2.3-6.3,2.3h-7l1-3.2c1.1-4,1.1-6.1-.1-3.3-.7,1.8-.8,1.8-1.5-.8s-6.3-8.3-7.2-7.3c-.3.3,1.3,2.6,3.5,5.1,3.6,4.1,4,4.9,3,7.1-.6,1.3-.9,2.6-.7,2.8s4.7.6,10.1.8c8.3.3,9.5.1,8.8-1.2-.4-.8-.8-5.4-.9-10.3L83,171l-5.5-8.4c-5.5-8.3-7.1-12.2-4-9.6,1.3,1.1,1.4,1,.9-.4a2.47,2.47,0,0,0-2.1-1.6c-1.4,0-6-8.6-5.5-10.4.2-.4-.2-1.3-.7-2a9.23,9.23,0,0,1-1.4-3.7,30.28,30.28,0,0,0-2.5-6.5,48.44,48.44,0,0,1-2.7-6.9C57.6,114.5,55,109.5,55,112.9Zm27,71.6c0,1.9-.6,1.9-1.4,0-.3-.8-.1-1.5.4-1.5S82,183.7,82,184.5Z"/><path d="M89.5,115c-.3.5-.1,1,.4,1a1.1,1.1,0,0,0,1.1-1c0-.6-.2-1-.4-1S89.8,114.4,89.5,115Z"/><path d="M109.5,115c.3.5.8,1,1.1,1s.4-.5.4-1a1,1,0,0,0-1.1-1C109.4,114,109.2,114.4,109.5,115Z"/><path d="M114,115c0,.5.7.7,1.5.4s1.5-.8,1.5-1-.7-.4-1.5-.4S114,114.4,114,115Z"/><path d="M75.7,116.8c-1,1-1.4,2.1-1.1,2.4s-.7,3.2-2.2,6.3c-3,6.5-4.6,12.5-3.3,12.5,1,0,3-3.5,2.4-4.2-.4-.4,3-9.4,4-10.6.7-.8,5.5,2,5.5,3.3a1.54,1.54,0,0,0,1.5,1.5c.8,0,1.5.4,1.5.9s.7,1.2,1.6,1.5c2,.8.7-1.3-2.3-3.8a15,15,0,0,1-3.8-5c-.8-1.7-1.2-2.1-.9-.9s.1,2.3-.4,2.3c-1.6,0-2.2-2.8-1.2-5.5C78.1,114.5,77.9,114.4,75.7,116.8Z"/><path d="M67.2,119c0,1.4.2,1.9.5,1.2a5.28,5.28,0,0,0,0-2.5C67.4,117.1,67.2,117.6,67.2,119Z"/><path d="M134,118.5c-.7.9-.8,1.5-.2,1.5s1.2-.7,1.6-1.5.4-1.5.2-1.5A6,6,0,0,0,134,118.5Z"/><path d="M123.6,119.6a2.43,2.43,0,0,0-.1,2.2c.2.3.7-.3,1.1-1.2a2.43,2.43,0,0,0,.1-2.2C124.5,118.1,124,118.7,123.6,119.6Z"/><path d="M108,121.1c0,.4,1.8,3.4,4,6.7,2.5,3.7,3.8,6.6,3.4,7.6s-.2,1.6.7,1.4,1.3.3,1.2.9.2,1.3.7,1.3c1.4,0,1.3-.5-1.6-6.3C114.1,127.9,108.1,119.7,108,121.1Z"/><path d="M133,122.9a2.14,2.14,0,0,0,1,1.6c.6.3,1-.1,1-.9s-.4-1.6-1-1.6A1,1,0,0,0,133,122.9Z"/><path d="M93.5,125.4c-2.3,1.9-2.7,2.7-1.8,3.6,1.4,1.5,3.4.4,2.7-1.5-.3-.8.6-2,2.3-2.9,1.5-.8,2.1-1.5,1.3-1.6S95.2,124.1,93.5,125.4Z"/><path d="M105.2,126.8c.5,1.2,8.8,8.5,8.8,7.8,0-.9-7.6-8.6-8.5-8.6C105.1,126,105,126.4,105.2,126.8Z"/><path d="M129.5,127.8a4.58,4.58,0,0,0-1.3,2.7,6.52,6.52,0,0,1-1.3,2.9c-1.2,1.3-1.2,2.6.1,2.6.6,0,1-.7,1-1.6,0-1.4.2-1.5,1.8-.3s1.6,1.2.3-.4c-1.1-1.4-1.1-2.3-.3-4.2C131,126.8,131,126.6,129.5,127.8Z"/><path d="M80,130.5c.7.9,1.5,1.3,1.7,1.1.7-.7-.7-2.6-1.9-2.6C79.2,129,79.2,129.6,80,130.5Z"/><path d="M87.8,131.7c-.5,2.1,0,4.3,1.1,4.3.8,0,.8-4.6,0-5.5C88.5,130.2,88,130.7,87.8,131.7Z"/><path d="M78.2,135.6c-.7.8-.8,1.4-.3,1.4,1,0,2.5-1.9,2-2.5C79.7,134.4,78.9,134.8,78.2,135.6Z"/><path d="M107.7,135.1c.7.7,1.5,1,1.8.7s-.2-.9-1.2-1.2C106.9,134,106.8,134.1,107.7,135.1Z"/><path d="M122,135.1c0,.5.5.7,1,.4s1-.8,1-1.1-.4-.4-1-.4A1.1,1.1,0,0,0,122,135.1Z"/><path d="M84,136.7c0,1.3.6,2.3,1.4,2.3a2.18,2.18,0,0,1,1.9,1.2q.6,1.5.6,0c.2-2,.1-2.2-.4-2-.2.2-1.1-.6-1.9-1.7C84.1,134.5,84.1,134.5,84,136.7Z"/><path d="M91.1,136.9q-1.2.9-.3,1.5a1.28,1.28,0,0,0,1.7-.5C93.4,136.5,92.7,135.9,91.1,136.9Z"/><path d="M105.3,138.2q-.6,1.05,1.5.6a2,2,0,0,1,2.6.8c.6,1.5-5.3,3-7.8,2.1a1.53,1.53,0,0,0-2,1c-.9,2.3-14.8,1.4-20.3-1.3-4-2-4.1-2-5.5-.2a7.57,7.57,0,0,0-1.3,2.6,3.43,3.43,0,0,1-.7,1.7,2.56,2.56,0,0,0,.1,2.4c.6.9,1.5.4,3.3-1.9s3-3,3.9-2.4a9.77,9.77,0,0,0,3.4,1c1.1.2,4.1.7,6.7,1.2s4.9.6,5,.2,2.2-1,4.6-1.4c2.9-.4,4.1-.3,3.7.4a2.82,2.82,0,0,1-2.1,1c-.8,0-1.4.4-1.4,1,0,1.2,2.6.2,7-2.7,4-2.7,6.5-2.9,7.4-.8.5,1.4-.6,2-2.9,1.5-.5-.1-.5.4.2,1.1,1,1,1.5.9,2.8-.1,2.3-1.9,1.8-3.6-1.7-6.2C108.1,137.2,106.3,136.7,105.3,138.2Z"/><path d="M123.3,138.5c-.8,2.2.5,3.1,2,1.5,1-1,.9-1.1-.2-.5s-1.3.4-.8-.8c.3-1,.4-1.7.1-1.7S123.7,137.7,123.3,138.5Z"/><path d="M132.5,139c.3.5.8,1,1.1,1s.4-.5.4-1a1,1,0,0,0-1.1-1C132.4,138,132.2,138.4,132.5,139Z"/><path d="M138.5,140.7c-.4,1.3-1,2.3-1.4,2.3s-1.5,1.6-2.4,3.5-2.2,3.5-2.9,3.5-.9.3-.5.6c.7.8-6.1,8.2-8.8,9.6-1.6.9-1.8.8-.7-.3,1.7-1.8,1.5-3.4-.3-1.9a4.42,4.42,0,0,0-1.5,2.6c0,.8-.7,1.1-1.7.8-1.3-.4-1.4-.3-.5.3s.7,1.5-1.2,3.6c-2.3,2.5-2.3,2.6-.6,4.2,1.4,1.2,2,1.3,2.6.4.4-.7.3-1-.4-.5a1.28,1.28,0,0,1-1.7-.4c-.7-1.1,2.3-4.3,9.7-10.2,5.1-4.1,14.3-17.1,13.4-19.1C139.3,139,138.9,139.4,138.5,140.7Z"/><path d="M96,142c-.8.5-1,1-.5,1a6.21,6.21,0,0,0,2.5-1c.8-.5,1.1-1,.5-1A6.8,6.8,0,0,0,96,142Z"/><path d="M122,142.4a6,6,0,0,0,1.5,1.6c.9.7,1.5.8,1.5.2s-.7-1.2-1.5-1.6S122,142.2,122,142.4Z"/><path d="M81,147a1.1,1.1,0,0,0,1.1,1c.5,0,.7-.5.4-1s-.8-1-1.1-1S81,146.4,81,147Z"/><path d="M115,147c0,.5.7,1,1.6,1s1.2-.5.9-1a1.9,1.9,0,0,0-1.6-1A.92.92,0,0,0,115,147Z"/><path d="M102.3,150.2C99,151.3,97,154,99.5,154c.8,0,1.5-.5,1.5-1.1a.55.55,0,0,1,.9-.5c1.3.8,3.8-.3,4.5-2S106.8,148.8,102.3,150.2Z"/><path d="M124.7,149.7a3.87,3.87,0,0,0,.3,2.7c.6,1.7.7,1.8,1.3.3.3-.9.2-1.7-.4-1.7s-.7-.5-.4-1,.4-1,.1-1A1.21,1.21,0,0,0,124.7,149.7Z"/><path d="M117,151c0,.5.6.7,1.3.5,1.5-.6,4.1,1.4,5,3.9s1.8,1.7,1.1-.9C123.7,151.7,117,148.6,117,151Z"/><path d="M78.5,151.9a1.1,1.1,0,0,0,.3,1.5c.5.3.9-.1.9-.9C79.7,150.8,79.4,150.6,78.5,151.9Z"/><path d="M82.4,152.4c2.1,1.7,13.2,2.3,12.2.8-.3-.5-2.5-.9-5-.9a36.23,36.23,0,0,1-6.8-.8C80.6,150.9,80.6,150.9,82.4,152.4Z"/><path d="M109.3,152.5c-1.5,1.7-1.7,3.9-.3,3s3.2-4.5,2.3-4.5A4.68,4.68,0,0,0,109.3,152.5Z"/><path d="M96.1,154.8c-.1.8-1.2,1.1-3.3.8a12.43,12.43,0,0,0-5.3.5c-2.4.9-.9,1.2,5,.9,4.6-.2,4.9-.4,4.2-2.2Q96.1,153.3,96.1,154.8Z"/><path d="M77,156.5c-.8.9-.8,1.5-.2,1.5,1.2,0,2.6-1.9,1.9-2.6C78.5,155.2,77.7,155.6,77,156.5Z"/><path d="M.1,157.6c0,1.1.3,1.4.6.6a2,2,0,0,0-.1-1.9C.3,155.9,0,156.5.1,157.6Z"/><path d="M99.3,156.7c3.7,1,1.2,5-2.8,4.4-2-.3-2-.3,0,1.2,1.7,1.3,2.1,1.3,2.8.1a2.71,2.71,0,0,1,2.2-1.4,2.57,2.57,0,0,0,2.1-1.2c.8-1.3-2.3-3.9-4.5-3.7C97.8,156.2,97.9,156.3,99.3,156.7Z"/><path d="M118.1,157.4c-.9,1.1-.9,1.6.1,2.2.7.4,1,.4.6-.1s-.3-1.4.3-2.2.9-1.3.6-1.3A4.14,4.14,0,0,0,118.1,157.4Z"/><path d="M110,158a1.1,1.1,0,0,0,1.1,1c.5,0,.7-.5.4-1s-.8-1-1.1-1S110,157.4,110,158Z"/><path d="M90,159a1.1,1.1,0,0,0,1.1,1c.5,0,.7-.5.4-1s-.8-1-1.1-1S90,158.4,90,159Z"/><path d="M109.7,161.1c.7.7,1.5,1,1.8.7s-.2-.9-1.2-1.2C108.9,160,108.8,160.1,109.7,161.1Z"/><path d="M81.6,162.7c-.6,1.4-.5,1.5.5.6.7-.7,1-1.5.7-1.8S81.9,161.7,81.6,162.7Z"/><path d="M86.6,162.3c.3,1,.9,1.5,1.2,1.2s0-1.1-.7-1.8C86.1,160.8,86,160.9,86.6,162.3Z"/><path d="M91,163.5c-.7.9-1.1,1.7-.9,2s1-.5,1.7-1.5C93.2,161.6,92.8,161.4,91,163.5Z"/><path d="M166.2,164.9c-2.4,2.1-2.8,3.1-2.2,5.1l.7,2.5.7-2.6c.8-2.7,5.9-6.4,7.6-5.4.6.3,1,.2,1-.3C174,161.9,169,162.4,166.2,164.9Z"/><path d="M82.6,165.5c-.3.8-.1,1.5.4,1.5s1-.7,1-1.5-.2-1.5-.4-1.5S83,164.7,82.6,165.5Z"/><path d="M93,165c0,.5.7.7,1.5.4s1.5-.8,1.5-1-.7-.4-1.5-.4S93,164.4,93,165Z"/><path d="M174.7,165.3c-.4,1,.2,1.3,2,.9s2.1-.7,1.1-1.3C176,163.7,175.3,163.8,174.7,165.3Z"/><path d="M85.6,166.6c-.5,1.4-.4,1.5.9.4s1.5-1,1.5.4c0,1,.5,1.4,1,1.1.8-.5.7-1.1-.1-2.1C87.4,164.6,86.4,164.6,85.6,166.6Z"/><path d="M107.4,166.7a8.56,8.56,0,0,0-.6,2.5c.1.5-.5.8-1.3.8-1.8,0-1.9.9-.4,3,.9,1.3,1,1.2.5-.3s-.1-1.8,1.7-1.5a5.4,5.4,0,0,1,2.7,1c.3.4,1.1-.6,1.7-2.3,1.2-3,1.2-3.1-.7-1.4s-4.6,1.2-3.4-.6a1.13,1.13,0,0,1,1.5-.4c.5.4.9-.1.9-.9C110,164.5,108.4,164.6,107.4,166.7Z"/><path d="M119,167a1.1,1.1,0,0,0,1.1,1c.5,0,.7-.5.4-1s-.8-1-1.1-1S119,166.4,119,167Z"/><path d="M102,168a1.08,1.08,0,0,0,1,1,1,1,0,0,0,1-1,.94.94,0,0,0-1-1A1,1,0,0,0,102,168Z"/><path d="M84.7,169.7c-.4.6,0,1.6.8,2.3s1.5.9,1.5.4.4-.3.9.5,2.9,1.4,6.4,1.5c3,0,5.9.4,6.3.8,1.2,1.3,2.4.9,2.4-.7,0-.9-.6-1.2-1.5-.9s-1.5,0-1.5-1-.4-1.6-1-1.6a1.1,1.1,0,0,0-1,1.1c0,.7-1.4.9-3.7.5-2.1-.3-4.7-.7-5.8-.9a3.23,3.23,0,0,1-2.6-1.6C85.5,169.1,85.1,169,84.7,169.7Z"/><path d="M113,170a1.1,1.1,0,0,0,1.1,1c.5,0,.7-.5.4-1s-.8-1-1.1-1S113,169.4,113,170Z"/><path d="M171.1,170.9c-.8,1-1.2,2.2-1,2.6s-.5,1.2-1.6,1.8c-2.3,1.4-3,4.8-.9,4a2.15,2.15,0,0,0,1.4-1.9c0-.8.4-1.4.9-1.4s1.6-1.2,2.6-2.6C174.5,170.4,173.1,168,171.1,170.9Z"/><path d="M44.5,172c-.3.5.1,1,1,1s1.3-.5,1-1-.8-1-1-1S44.8,171.4,44.5,172Z"/><path d="M35.5,173c-.3.5.1,1,1,1s1.3-.5,1-1-.8-1-1-1S35.8,172.4,35.5,173Z"/><path d="M112,173.1c0,.5.5.7,1,.4s1-.8,1-1.1-.4-.4-1-.4A1.1,1.1,0,0,0,112,173.1Z"/><path d="M165.7,172.7a2.41,2.41,0,0,0-.7,1.7c0,.6.5.5,1.2-.2s.9-1.4.7-1.7A.84.84,0,0,0,165.7,172.7Z"/><path d="M108.4,173.9c.5.8,0,1.4-1.3,1.8a4.14,4.14,0,0,0-2.6,2.4c-.4,1-1.1,1.9-1.6,1.9a1,1,0,0,0-.9,1c0,1.7,3.6-.7,5.9-3.9,1.5-2.1,1.8-3.2,1-3.7S108,173.1,108.4,173.9Z"/><path d="M186.5,174c-.8,1.3.5,1.3,2.5,0,1.3-.8,1.3-1-.2-1A2.78,2.78,0,0,0,186.5,174Z"/><path d="M42.8,176.5c-.5,2.5-.4,2.5,1,1.1,1.2-1.1,1.3-1.9.5-2.7S43.1,174.6,42.8,176.5Z"/><path d="M113.3,175.4c-1.3.6-2.3,1.4-2.3,1.9s1.4.1,3-.8a10.42,10.42,0,0,0,3-2C117,173.8,115.8,174.1,113.3,175.4Z"/><path d="M189.1,176.6c0,1.1.3,1.4.6.6a2,2,0,0,0-.1-1.9C189.3,174.9,189,175.5,189.1,176.6Z"/><path d="M35.3,176.6c.3.4.1,1.6-.5,2.8-1.1,2.1-1.1,2.1,1,.2s2.1-3.6,0-3.6C35.2,176,35,176.3,35.3,176.6Z"/><path d="M96.8,177.2a2.72,2.72,0,0,0,2.3.6c.8-.3.3-.7-1-1.1C96.4,176.3,96,176.4,96.8,177.2Z"/><path d="M175.7,178c-1.4,1.6-1.4,2-.2,2a3.61,3.61,0,0,0,2.5-2c.6-1.1.7-2,.3-2S176.7,176.9,175.7,178Z"/><path d="M183,176.4c0,1,2.8,1.3,4.1.5,1-.6.7-.9-1.3-.9C184.2,176,183,176.2,183,176.4Z"/><path d="M125,179c-1.3.8-1.3,1,.2,1a3.11,3.11,0,0,0,2.3-1C128.3,177.7,127,177.7,125,179Z"/><path d="M43.3,180.6c-1.5,1.6-1.7,3.4-.4,3.4,1,0,2.6-3.9,1.9-4.5C44.7,179.3,43.9,179.8,43.3,180.6Z"/><path d="M187,179.6a5.77,5.77,0,0,0,1.5,2c1.3,1.4,1.5,1.3,1.5-.5,0-1.2-.6-2.1-1.5-2.1S187,179.3,187,179.6Z"/><path d="M89,180.5a6.8,6.8,0,0,0,1,2.5c.5.8,1,1,1,.5a6.21,6.21,0,0,0-1-2.5C89.5,180.2,89,179.9,89,180.5Z"/><path d="M177.5,181c-.3.5-.1,1,.4,1a1.1,1.1,0,0,0,1.1-1c0-.6-.2-1-.4-1S177.8,180.4,177.5,181Z"/><path d="M183.2,183.6l-2.1,2.7,2.2,1.9c1.7,1.5,1.8,1.8.5,1.4-1-.3-1.8-.1-1.8.4,0,1.2,2.7,1.3,3.4.1.3-.4-.1-1.7-.8-2.7-1.7-2.3-.3-4.6,2.2-3.7,1.5.6,1.5.5.3-1C185.4,180.6,185.8,180.5,183.2,183.6Z"/><path d="M110.1,185.6c-1.2,1.4-1.1,1.6.4,1.2a3.09,3.09,0,0,0,2.3-1.6C113.3,183.5,111.8,183.7,110.1,185.6Z"/><path d="M85.1,186.6c0,1.1.3,1.4.6.6a2,2,0,0,0-.1-1.9C85.3,184.9,85,185.5,85.1,186.6Z"/><path d="M91,186.2a4.07,4.07,0,0,0,1.7,2.9c1.5,1.3,1.5,1.2.3-1.1C91.3,184.6,91,184.4,91,186.2Z"/><path d="M34.5,188c-.3,1.1-1.1,2-1.6,2s-.8.4-.5.9c.8,1.3,4.3.2,5-1.4.3-1,0-1.2-1.2-.8-1.5.6-1.5.5-.3-1,.8-1,.9-1.7.3-1.7S34.8,186.9,34.5,188Z"/><path d="M27,189c-.8,1.5-.8,2,.3,2,.7,0,1.3-.9,1.3-2s-.1-2-.3-2A9.08,9.08,0,0,0,27,189Z"/><path d="M188,188.1c0,.5.5.7,1,.4s1-.8,1-1.1-.4-.4-1-.4A1.1,1.1,0,0,0,188,188.1Z"/><path d="M98.7,188.7a2.41,2.41,0,0,0-.7,1.7c0,.6.5.5,1.2-.2s.9-1.4.7-1.7A.84.84,0,0,0,98.7,188.7Z"/><path d="M178.7,189.1c.7.7,1.5,1,1.8.7s-.2-.9-1.2-1.2C177.9,188,177.8,188.1,178.7,189.1Z"/><path d="M174,190.6c0,.8.5,1.2,1,.9a1.9,1.9,0,0,0,1-1.6.92.92,0,0,0-1-.9C174.5,189,174,189.7,174,190.6Z"/></svg>