<svg xmlns="http://www.w3.org/2000/svg" viewBox="0 0 117 118"><defs><style>.cls-1{fill:#0000f7;}.cls-2{fill:#fff;}</style></defs><g id="ikoner"><circle class="cls-1" cx="58" cy="59" r="55"/><path class="cls-1" d="M23.91,52.4A26.7,26.7,0,0,1,50.08,33c1.93.07,1.93-2.93,0-3A29.71,29.71,0,0,0,21,51.6a1.5,1.5,0,0,0,2.89.8Z"/><path id="liv_hvid" data-name="liv hvid" class="cls-2" d="M16,43s9-28.65,44-27.82c0,0,5,1.46,4.52,4.64S63,24.46,60,24.73s-11-1.57-20.49,4.35A36.41,36.41,0,0,0,26.17,44S24,50,20,49,15,45,16,43Z"/></g></svg>