<svg xmlns="http://www.w3.org/2000/svg" viewBox="0 0 760 199"><defs><style>.cls-1{fill:#0707d1;}.cls-2{fill:blue;}.cls-3{fill:#fff;}</style></defs><g id="spil_igen_knap" data-name="spil igen knap"><rect id="spilknap" class="cls-1" x="9" y="28" width="635.69" height="152" rx="70.36"/><rect id="spilknap-2" data-name="spilknap" class="cls-2" x="22.31" y="19" width="635.69" height="152" rx="70.36"/><path class="cls-3" d="M118.36,70.28a4.5,4.5,0,0,1,1.6-1.93,5.57,5.57,0,0,1,2.74-.53c1.82,0,3,.31,3.5.94s.81,1.89.88,3.76l.18,8.44v.48a4.88,4.88,0,0,1-1.1,3.63,5.44,5.44,0,0,1-3.75,1,5.3,5.3,0,0,1-5-3.34c-.16-.32-.28-.59-.38-.79a9.87,9.87,0,0,0-4-4.11,12,12,0,0,0-5.89-1.38,11.68,11.68,0,0,0-6.85,1.82A5.5,5.5,0,0,0,97.73,83q0,4,12,6.37c1.34.27,2.41.47,3.2.62q9,1.84,13.09,5.62t4,10.33q0,8.08-5.88,12.46t-16.87,4.37a48.76,48.76,0,0,1-7.65-.53,37.23,37.23,0,0,1-6.52-1.62,4.78,4.78,0,0,1-1.75,1.65,6.19,6.19,0,0,1-2.73.5q-3,0-4.14-1c-.79-.71-1.2-2-1.23-3.74l-.19-10.33v-.48c0-1.93.39-3.28,1.16-4s2.11-1.15,4-1.15,3.76,1.38,5.14,4.14q.46,1,.75,1.53a11.93,11.93,0,0,0,5.11,5.06,17.57,17.57,0,0,0,8,1.67,11.72,11.72,0,0,0,6.74-1.67,5.4,5.4,0,0,0,2.4-4.7q0-4.71-10.88-7.12-3.26-.7-5.13-1.19-9.15-2.24-12.67-5.6t-3.54-9.21a14.93,14.93,0,0,1,6.06-12.28q6-4.77,15.66-4.77a32,32,0,0,1,6.28.61A34.58,34.58,0,0,1,118.36,70.28Z"/><path class="cls-3" d="M158.12,102.76v9H163a6.8,6.8,0,0,1,4.36,1.1,4.57,4.57,0,0,1,1.29,3.65,4.72,4.72,0,0,1-1.32,3.74,6.59,6.59,0,0,1-4.33,1.14h-16.3c-2.07,0-3.56-.38-4.45-1.14a5.73,5.73,0,0,1-.07-7.28,5.24,5.24,0,0,1,3.72-1.21h.8V79h-.8a5.14,5.14,0,0,1-3.7-1.25,4.77,4.77,0,0,1-1.29-3.58,4.64,4.64,0,0,1,1.36-3.72,6.83,6.83,0,0,1,4.43-1.16h19.45q11.55,0,17.46,4.13t5.91,12.17q0,8.49-5.89,12.84t-17.48,4.35Zm0-23.78V92.87h6.68q5.56,0,8.37-1.76a5.83,5.83,0,0,0,2.8-5.27,5.65,5.65,0,0,0-2.9-5.08Q170.18,79,164.8,79Z"/><path class="cls-3" d="M228.44,79v32.78h7.91c2.14,0,3.67.38,4.59,1.12a4.39,4.39,0,0,1,1.39,3.63,4.53,4.53,0,0,1-1.41,3.71,7.14,7.14,0,0,1-4.57,1.17h-28q-3.19,0-4.59-1.14a4.58,4.58,0,0,1-1.39-3.74,4.44,4.44,0,0,1,1.37-3.65c.91-.73,2.45-1.1,4.61-1.1h7.92V79h-7.92q-3.19,0-4.59-1.14a4.5,4.5,0,0,1-1.39-3.69,4.47,4.47,0,0,1,1.37-3.69c.91-.74,2.45-1.1,4.61-1.1h28c2.23,0,3.79.36,4.67,1.1a4.58,4.58,0,0,1,1.31,3.69A4.55,4.55,0,0,1,241,77.84Q239.61,79,236.35,79Z"/><path class="cls-3" d="M275.17,79v32.78H296.6v-7.82c0-2,.38-3.45,1.15-4.3a5,5,0,0,1,3.84-1.28,5.15,5.15,0,0,1,3.91,1.3,6.15,6.15,0,0,1,1.22,4.28v13.49c0,1.59-.33,2.64-1,3.17s-2,.79-4,.79H259.06q-3.08,0-4.38-1.14a4.72,4.72,0,0,1-1.32-3.74,4.57,4.57,0,0,1,1.29-3.65c.86-.73,2.33-1.1,4.41-1.1h4.14V79h-4.14q-3.08,0-4.38-1.14a4.63,4.63,0,0,1-1.32-3.69,4.59,4.59,0,0,1,1.39-3.72,6.81,6.81,0,0,1,4.4-1.16h20.07a6.85,6.85,0,0,1,4.4,1.16A4.62,4.62,0,0,1,285,74.15a4.55,4.55,0,0,1-1.37,3.69A6.87,6.87,0,0,1,279.22,79Z"/><path class="cls-3" d="M402.1,79v32.78H410a7.43,7.43,0,0,1,4.59,1.12,4.39,4.39,0,0,1,1.39,3.63,4.53,4.53,0,0,1-1.41,3.71,7.18,7.18,0,0,1-4.57,1.17H382q-3.21,0-4.59-1.14a4.58,4.58,0,0,1-1.39-3.74,4.43,4.43,0,0,1,1.36-3.65c.91-.73,2.45-1.1,4.62-1.1H390V79H382q-3.21,0-4.59-1.14a4.5,4.5,0,0,1-1.39-3.69,4.47,4.47,0,0,1,1.36-3.69c.91-.74,2.45-1.1,4.62-1.1h28c2.23,0,3.78.36,4.66,1.1A4.55,4.55,0,0,1,416,74.15a4.55,4.55,0,0,1-1.37,3.69c-.91.76-2.45,1.14-4.61,1.14Z"/><path class="cls-3" d="M468.24,70.72a6.33,6.33,0,0,1,1.9-2.24,4.55,4.55,0,0,1,2.52-.66A4.11,4.11,0,0,1,475.94,69a6.15,6.15,0,0,1,1,3.91L477,84.3c0,2-.36,3.38-1.06,4.09s-2,1-3.89,1a4.73,4.73,0,0,1-3.08-.9,6.62,6.62,0,0,1-1.82-3.25,10.76,10.76,0,0,0-3.91-6,13,13,0,0,0-7.39-1.81q-7.26,0-11.1,4.58t-3.83,13.24q0,8.67,4,13.4t11.43,4.73a22.9,22.9,0,0,0,3.86-.37q2.16-.37,5.09-1.17v-6.94H460c-2.13,0-3.65-.37-4.54-1.1a4.44,4.44,0,0,1-1.34-3.65,4.61,4.61,0,0,1,1.34-3.75c.89-.75,2.41-1.12,4.54-1.12h17c2.19,0,3.74.36,4.64,1.09a4.56,4.56,0,0,1,1.34,3.7,4.68,4.68,0,0,1-1.34,3.58,5.53,5.53,0,0,1-3.89,1.25H477v11a4.08,4.08,0,0,1-.33,1.95,3.58,3.58,0,0,1-1.32,1.12,30.49,30.49,0,0,1-8.53,2.64A61.5,61.5,0,0,1,455,122.75q-12.35,0-20-7.6T427.4,95.29q0-11.83,7.72-19.65t19.6-7.82a31.08,31.08,0,0,1,6.57.7A41.8,41.8,0,0,1,468.24,70.72Z"/><path class="cls-3" d="M525.32,78.54h-21.9V89.79h8.29v-.53a5.19,5.19,0,0,1,1.18-3.73,4.74,4.74,0,0,1,3.58-1.23,5.21,5.21,0,0,1,3.46,1.12,3.55,3.55,0,0,1,1.34,2.83c0,.06,0,.25.05.58s0,.64,0,1v9.1a6.34,6.34,0,0,1-1.13,4.22,4.7,4.7,0,0,1-3.68,1.27,5,5,0,0,1-3.63-1.18,4.73,4.73,0,0,1-1.22-3.52v-.79h-8.29V112h21.9V106.8a6.06,6.06,0,0,1,1.2-4.22,5.21,5.21,0,0,1,3.94-1.27,5,5,0,0,1,3.84,1.25c.76.83,1.15,2.25,1.15,4.24v10.63c0,1.59-.33,2.64-1,3.17s-2,.79-3.91.79H492c-2.07,0-3.55-.38-4.45-1.14a5.73,5.73,0,0,1-.07-7.28,5.24,5.24,0,0,1,3.72-1.21h.8V79h-.8a5.1,5.1,0,0,1-3.69-1.25,4.74,4.74,0,0,1-1.3-3.58,4.65,4.65,0,0,1,1.37-3.72A6.8,6.8,0,0,1,492,69.27h38.58c1.92,0,3.21.27,3.89.81s1,1.62,1,3.23v9.85c0,2-.39,3.42-1.18,4.28a4.9,4.9,0,0,1-3.81,1.3,5.1,5.1,0,0,1-3.94-1.32,6.23,6.23,0,0,1-1.2-4.26Z"/><path class="cls-3" d="M580.62,103.2V79H578c-2.07,0-3.56-.38-4.45-1.14a4.57,4.57,0,0,1-1.34-3.69,4.67,4.67,0,0,1,1.34-3.72c.89-.77,2.38-1.16,4.45-1.16h13.38a6.8,6.8,0,0,1,4.42,1.16,4.61,4.61,0,0,1,1.37,3.72,4.77,4.77,0,0,1-1.29,3.58,5.14,5.14,0,0,1-3.7,1.25h-.8v39.9a4.54,4.54,0,0,1-.47,2.6,3,3,0,0,1-2.12.52h-4.71a7.93,7.93,0,0,1-3.18-.44,3.72,3.72,0,0,1-1.58-1.53L559.75,87.9v23.86h2.74a6.89,6.89,0,0,1,4.38,1.1,4.51,4.51,0,0,1,1.32,3.65,4.66,4.66,0,0,1-1.35,3.74,6.67,6.67,0,0,1-4.35,1.14H549a6.9,6.9,0,0,1-4.43-1.14,5.66,5.66,0,0,1-.09-7.28,5.28,5.28,0,0,1,3.76-1.21H549V79h-.76a5.21,5.21,0,0,1-3.72-1.25,4.71,4.71,0,0,1-1.32-3.58,4.62,4.62,0,0,1,1.39-3.72A6.87,6.87,0,0,1,549,69.27h7.72a7.27,7.27,0,0,1,3.77.68,8.85,8.85,0,0,1,2.21,2.75Z"/></g></svg>