<svg xmlns="http://www.w3.org/2000/svg" viewBox="0 0 439 442"><defs><style>.cls-1{fill:blue;}.cls-2{fill:#fff;}</style></defs><g id="winner_winner_chicken_dinner" data-name="winner winner chicken dinner"><g id="Layer_22" data-name="Layer 22"><circle class="cls-1" cx="218.08" cy="219.66" r="198.17"/><path class="cls-2" d="M143.74,142.69a4.47,4.47,0,0,1,1.6-1.94,5.57,5.57,0,0,1,2.73-.52c1.82,0,3,.31,3.51.94s.81,1.88.87,3.76l.19,8.44v.48a4.83,4.83,0,0,1-1.1,3.62,5.44,5.44,0,0,1-3.75,1,5.32,5.32,0,0,1-5-3.34l-.38-.79a9.83,9.83,0,0,0-4-4.11,13.47,13.47,0,0,0-12.74.44,5.49,5.49,0,0,0-2.61,4.68q0,4,12,6.37c1.35.26,2.42.47,3.21.61q9,1.84,13.09,5.63t4,10.33q0,8.08-5.89,12.46t-16.86,4.37a49.91,49.91,0,0,1-7.65-.53,36.7,36.7,0,0,1-6.53-1.63,4.61,4.61,0,0,1-1.74,1.65,6,6,0,0,1-2.73.51c-2,0-3.36-.35-4.15-1.06s-1.19-1.95-1.22-3.73L108.46,180v-.48c0-1.94.38-3.28,1.15-4.05s2.12-1.14,4-1.14,3.75,1.38,5.14,4.13c.31.68.56,1.19.75,1.54a11.8,11.8,0,0,0,5.11,5.05,17.44,17.44,0,0,0,8,1.67,11.66,11.66,0,0,0,6.74-1.67,5.39,5.39,0,0,0,2.4-4.7q0-4.69-10.88-7.12-3.26-.71-5.14-1.18-9.14-2.25-12.67-5.61t-3.53-9.2a15,15,0,0,1,6-12.29q6.06-4.76,15.66-4.76a32,32,0,0,1,6.29.61A34.58,34.58,0,0,1,143.74,142.69Z"/><path class="cls-2" d="M183.49,175.16v9h4.86c2,0,3.49.37,4.35,1.1a4.53,4.53,0,0,1,1.3,3.65,4.68,4.68,0,0,1-1.32,3.73,6.59,6.59,0,0,1-4.33,1.14h-16.3c-2.07,0-3.56-.38-4.45-1.14a5.68,5.68,0,0,1-.07-7.27,5.19,5.19,0,0,1,3.72-1.21h.8V151.39h-.8a5.09,5.09,0,0,1-3.7-1.26,4.75,4.75,0,0,1-1.3-3.58,4.62,4.62,0,0,1,1.37-3.71,6.78,6.78,0,0,1,4.43-1.16H191.5q11.53,0,17.45,4.13T214.86,158q0,8.47-5.88,12.83t-17.48,4.35Zm0-23.77v13.88h6.69c3.71,0,6.49-.58,8.36-1.75a5.83,5.83,0,0,0,2.81-5.28,5.63,5.63,0,0,0-2.9-5.07q-2.89-1.78-8.27-1.78Z"/><path class="cls-2" d="M253.82,151.39v32.78h7.91c2.14,0,3.67.37,4.59,1.12a4.39,4.39,0,0,1,1.39,3.63,4.54,4.54,0,0,1-1.41,3.71,7.16,7.16,0,0,1-4.57,1.16h-28c-2.13,0-3.67-.38-4.59-1.14a4.54,4.54,0,0,1-1.39-3.73,4.39,4.39,0,0,1,1.37-3.65c.91-.73,2.44-1.1,4.61-1.1h7.92V151.39h-7.92c-2.13,0-3.67-.38-4.59-1.14a4.53,4.53,0,0,1-1.39-3.7,4.45,4.45,0,0,1,1.37-3.69c.91-.73,2.44-1.1,4.61-1.1h28c2.23,0,3.78.37,4.66,1.1a5.76,5.76,0,0,1,0,7.39c-.92.76-2.45,1.14-4.62,1.14Z"/><path class="cls-2" d="M300.54,151.39v32.78H322v-7.82c0-2,.39-3.46,1.16-4.31a5,5,0,0,1,3.84-1.27,5.19,5.19,0,0,1,3.91,1.29,6.19,6.19,0,0,1,1.22,4.29v13.49c0,1.58-.33,2.64-1,3.16s-2,.79-3.95.79H284.43q-3.06,0-4.38-1.14a4.68,4.68,0,0,1-1.32-3.73,4.56,4.56,0,0,1,1.3-3.65c.86-.73,2.33-1.1,4.4-1.1h4.15V151.39h-4.15q-3.06,0-4.38-1.14a4.67,4.67,0,0,1-1.32-3.7,4.6,4.6,0,0,1,1.39-3.71,6.81,6.81,0,0,1,4.41-1.16h20.06a6.81,6.81,0,0,1,4.41,1.16,5.66,5.66,0,0,1,0,7.41,6.9,6.9,0,0,1-4.43,1.14Z"/><path class="cls-2" d="M138,259.39v32.78H146c2.14,0,3.67.37,4.6,1.12a4.42,4.42,0,0,1,1.39,3.63,4.55,4.55,0,0,1-1.42,3.71c-.94.78-2.46,1.16-4.57,1.16H118c-2.14,0-3.67-.38-4.6-1.14a4.57,4.57,0,0,1-1.39-3.73,4.42,4.42,0,0,1,1.37-3.65c.91-.73,2.45-1.1,4.62-1.1h7.91V259.39H118c-2.14,0-3.67-.38-4.6-1.14a4.56,4.56,0,0,1-1.39-3.7,4.48,4.48,0,0,1,1.37-3.69c.91-.73,2.45-1.1,4.62-1.1h28c2.23,0,3.79.37,4.67,1.1a5.75,5.75,0,0,1-.05,7.39q-1.37,1.14-4.62,1.14Z"/><path class="cls-2" d="M204.17,251.13a6.3,6.3,0,0,1,1.91-2.25,4.58,4.58,0,0,1,2.52-.65,4.07,4.07,0,0,1,3.27,1.14,6.06,6.06,0,0,1,1,3.91l.09,11.43c0,2-.35,3.38-1.06,4.08s-2,1.06-3.88,1.06a4.78,4.78,0,0,1-3.09-.91,6.53,6.53,0,0,1-1.81-3.24,10.72,10.72,0,0,0-3.91-6c-1.76-1.21-4.22-1.81-7.4-1.81q-7.25,0-11.09,4.58t-3.84,13.24q0,8.67,4,13.4t11.42,4.73a23.11,23.11,0,0,0,3.87-.38c1.44-.25,3.13-.63,5.08-1.16v-6.94h-5.32c-2.14,0-3.65-.37-4.55-1.1a4.49,4.49,0,0,1-1.34-3.65,4.67,4.67,0,0,1,1.34-3.76c.9-.75,2.41-1.12,4.55-1.12h17c2.2,0,3.75.37,4.64,1.1a4.5,4.5,0,0,1,1.35,3.69,4.64,4.64,0,0,1-1.35,3.58,5.46,5.46,0,0,1-3.88,1.26h-.76v11a4.12,4.12,0,0,1-.33,2,3.68,3.68,0,0,1-1.32,1.12,30.79,30.79,0,0,1-8.52,2.63,60.8,60.8,0,0,1-11.82,1.15q-12.34,0-20-7.61t-7.63-19.86q0-11.82,7.73-19.64t19.59-7.82a31.08,31.08,0,0,1,6.57.7A41.51,41.51,0,0,1,204.17,251.13Z"/><path class="cls-2" d="M261.26,259h-21.9V270.2h8.29v-.53a5.23,5.23,0,0,1,1.17-3.73,4.75,4.75,0,0,1,3.58-1.23,5.22,5.22,0,0,1,3.47,1.12,3.53,3.53,0,0,1,1.34,2.83,5.62,5.62,0,0,0,.05.57c0,.32,0,.65,0,1v9.09c0,2-.37,3.37-1.13,4.22a4.68,4.68,0,0,1-3.67,1.28,5,5,0,0,1-3.63-1.19,4.65,4.65,0,0,1-1.22-3.51v-.8h-8.29v13.14h21.9v-5.22c0-2,.4-3.37,1.2-4.22a5.2,5.2,0,0,1,3.93-1.28,5,5,0,0,1,3.84,1.25c.77.84,1.16,2.25,1.16,4.25v10.63c0,1.58-.33,2.64-1,3.16s-2,.79-3.91.79H227.91c-2.07,0-3.56-.38-4.45-1.14a5.72,5.72,0,0,1-.07-7.27,5.19,5.19,0,0,1,3.72-1.21h.8V259.39h-.8a5.11,5.11,0,0,1-3.7-1.26,4.74,4.74,0,0,1-1.29-3.58,4.62,4.62,0,0,1,1.36-3.71,6.78,6.78,0,0,1,4.43-1.16h38.58c1.91,0,3.21.27,3.88.81s1,1.62,1,3.23v9.84a6.36,6.36,0,0,1-1.18,4.29,5,5,0,0,1-3.82,1.29,5.13,5.13,0,0,1-3.93-1.31,6.24,6.24,0,0,1-1.2-4.27Z"/><path class="cls-2" d="M316.56,283.6V259.39H314c-2.08,0-3.56-.38-4.45-1.14a5.76,5.76,0,0,1,0-7.41c.89-.78,2.37-1.16,4.45-1.16h13.37a6.78,6.78,0,0,1,4.43,1.16,4.62,4.62,0,0,1,1.37,3.71,4.71,4.71,0,0,1-1.3,3.58,5.07,5.07,0,0,1-3.7,1.26h-.8v39.9a4.4,4.4,0,0,1-.47,2.59,2.94,2.94,0,0,1-2.12.53H320a8.19,8.19,0,0,1-3.18-.44,3.67,3.67,0,0,1-1.57-1.54l-19.6-32.12v23.86h2.73a6.89,6.89,0,0,1,4.38,1.1,4.5,4.5,0,0,1,1.32,3.65,4.66,4.66,0,0,1-1.34,3.73,6.72,6.72,0,0,1-4.36,1.14H284.9a6.87,6.87,0,0,1-4.42-1.14,4.6,4.6,0,0,1-1.37-3.73,4.68,4.68,0,0,1,1.27-3.54,5.27,5.27,0,0,1,3.77-1.21h.75V259.39h-.75a5.17,5.17,0,0,1-3.72-1.26,4.68,4.68,0,0,1-1.32-3.58,4.57,4.57,0,0,1,1.39-3.71,6.77,6.77,0,0,1,4.4-1.16h7.73a7.17,7.17,0,0,1,3.77.68,8.93,8.93,0,0,1,2.21,2.74Z"/></g></g></svg>