<svg id="background_artboard" data-name="background artboard" xmlns="http://www.w3.org/2000/svg" xmlns:xlink="http://www.w3.org/1999/xlink" viewBox="0 0 1920 1080"><defs><style>.cls-1{fill:url(#linear-gradient);}.cls-2{fill:#707070;}.cls-3{fill:#848484;}.cls-4{fill:#919191;}.cls-5{fill:#7c7c7c;}.cls-6{fill:#a3a0a0;}.cls-7{fill:#fff;}.cls-8{fill:#db8c00;}.cls-9{fill:#8f5b00;}.cls-10{fill:#050300;}</style><linearGradient id="linear-gradient" x1="959.86" y1="-0.53" x2="959.86" y2="1081" gradientUnits="userSpaceOnUse"><stop offset="0" stop-color="#3995ff"/><stop offset="1" stop-color="#00438e"/></linearGradient></defs><rect class="cls-1" x="-1.17" y="-0.53" width="1922.06" height="1081.53"/><path class="cls-2" d="M968.15,925.17a129.26,129.26,0,0,0,6.34-24.88c2.54-16.1,27.92-17.56,27.92-17.56s21.57-2.93,36.79-2.93,88.82,2.93,88.82,2.93l30.45,1.46s10.15,1.46,19,11.71S1188.92,912,1188.92,912v10.93l2.54,6.64-1.27,7.31,1.27,15.11,1.27,1,1.27,10.24v123.24l-3.81,20.18-3.8,7.32-8.88,17.56-5.08,11.71-21.57,14.63-30.45,1.47h-55.13l-36.23-1.47-17.76-4.39-16.5-8.78-12.69-10.24L969.42,1111l-2.82-11.47-1-44.14L968.15,991V925.17"/><g id="computer"><path class="cls-3" d="M430.7,41.66l129-7.15L1005,20.21h321.7s199,0,274.44,35.75,99.76,85.8,111.93,102.49,34.06,90.56,36.5,138.23-12.17,407.55-12.17,407.55l-4.87,250.24-56,62-12.17,9.53-442.85,9.54H617.64s-177.2,2.38-206.4-50-46.23-45.29-56-228.8S362.57,361,362.57,361l9.74-262.17Z"/><path class="cls-4" d="M452.6,160.83h804.86s156.27-14.3,226.83,35.75,99.77,85.8,102.2,185.9,0,522.2,0,522.2l1.08,24.56L659.43,947.32S523.17,930.64,503.7,899.66c0,0-60.83-38.14-65.7-126.32Z"/><path class="cls-2" d="M430.7,41.66l513.15-19s397.79-1.94,460.22,0S1554.24,18,1661.23,91.4s88.56,248.26,88.56,248.26L1736.87,850l-4.39,104.43-56,62,5.65-306.58s11.68-291.66,11.15-370.54-52.6-173.15-80.22-194.54S1516.43,82,1438.87,77.7s-623.66-2.12-623.66-2.12L372.31,98.86Z"/><path class="cls-5" d="M452.14,157.06l702.06-8.9s286.53-20.54,368.56,59,65.7,176.37,65.7,176.37V772s-102-303.62-166.47-368.58c-64.69-65.18-211.36-115.21-327.48-98.55S644.36,202.35,644.36,202.35Z"/><circle class="cls-6" cx="662.5" cy="304.5" r="61.5"/><circle class="cls-6" cx="999.5" cy="304.5" r="61.5"/><circle class="cls-6" cx="1332.5" cy="304.5" r="61.5"/><circle class="cls-6" cx="662.5" cy="538.5" r="61.5"/><circle class="cls-6" cx="999.5" cy="538.5" r="61.5"/><circle class="cls-6" cx="1332.5" cy="538.5" r="61.5"/><circle class="cls-6" cx="662.5" cy="771.5" r="61.5"/><circle class="cls-6" cx="999.5" cy="771.5" r="61.5"/><circle class="cls-6" cx="1332.5" cy="771.5" r="61.5"/><rect class="cls-5" x="455" y="162" width="928" height="68"/><path class="cls-7" d="M870.5,203.32a3.61,3.61,0,0,1-1.34.7,6.06,6.06,0,0,1-1.9.26,6.74,6.74,0,0,1-2.38-.36,1.93,1.93,0,0,1-1.22-1.24c-.74-2.35-1.36-4.25-1.84-5.7s-.85-2.73-1.12-3.82h-.2c-.08,1.58-.14,3-.18,4.3s-.06,2.55-.08,3.78,0,2.47-.08,3.72-.1,2.64-.18,4.16a7,7,0,0,1-1.36.34,10.58,10.58,0,0,1-1.68.14,5.63,5.63,0,0,1-2.74-.56,2.14,2.14,0,0,1-1-2l1.16-20.4a3.85,3.85,0,0,1,1.4-1.12,6.35,6.35,0,0,1,3-.6,6.93,6.93,0,0,1,3.32.66,3.91,3.91,0,0,1,1.76,2.14c.24.64.5,1.37.78,2.2s.56,1.68.84,2.56.56,1.76.82,2.62l.72,2.34h.2c.64-2.24,1.28-4.4,1.92-6.5s1.23-3.85,1.76-5.26a6.83,6.83,0,0,1,1.54-.54,9.67,9.67,0,0,1,2.1-.22,7.66,7.66,0,0,1,3.2.58,2.29,2.29,0,0,1,1.44,1.66c.11.54.22,1.35.34,2.46s.25,2.35.38,3.74.27,2.85.4,4.4.26,3,.38,4.46.22,2.74.3,3.92.14,2.1.16,2.74a5,5,0,0,1-1.42.58,8.2,8.2,0,0,1-1.9.18,5.67,5.67,0,0,1-2.56-.52,2.21,2.21,0,0,1-1.12-2q-.24-4.36-.3-7.84t-.18-5.84h-.2c-.26,1-.65,2.35-1.16,3.92S871.22,200.87,870.5,203.32Z"/><path class="cls-7" d="M884.22,197.12a14.58,14.58,0,0,1,1-5.52,11.13,11.13,0,0,1,6.68-6.48,14.46,14.46,0,0,1,5-.84,14.06,14.06,0,0,1,4.56.72l1.68-2.8a4.39,4.39,0,0,1,2.6.7,2,2,0,0,1,1,1.62,3.25,3.25,0,0,1-.34,1.38,9.81,9.81,0,0,1-.78,1.42,11.87,11.87,0,0,1,2.9,4.12,14.11,14.11,0,0,1,1.06,5.68,14.92,14.92,0,0,1-1,5.54,11,11,0,0,1-2.66,4,11.29,11.29,0,0,1-4,2.46,15.55,15.55,0,0,1-9.72.12L890.54,212a4.31,4.31,0,0,1-2.64-.72,2.1,2.1,0,0,1-1-1.72,3.47,3.47,0,0,1,.34-1.32c.23-.5.48-1,.74-1.44a11.55,11.55,0,0,1-2.8-4.1A14.76,14.76,0,0,1,884.22,197.12Zm7,0a13.39,13.39,0,0,0,.16,2.1,8.85,8.85,0,0,0,.48,1.74l6.52-10.84a6.23,6.23,0,0,0-1.48-.2,5.23,5.23,0,0,0-4.08,1.8A8,8,0,0,0,891.22,197.12Zm5.64,7.24a5.2,5.2,0,0,0,4.1-1.8c1.06-1.2,1.58-3,1.58-5.44a11.73,11.73,0,0,0-.16-2,7.78,7.78,0,0,0-.48-1.72l-6.56,10.84A6.22,6.22,0,0,0,896.86,204.36Z"/><path class="cls-7" d="M922.74,209.92c-.45,0-1,0-1.56,0s-1.19-.08-1.82-.16-1.25-.18-1.88-.3a10.08,10.08,0,0,1-1.74-.5,3,3,0,0,1-2.2-2.92V187.32A1.79,1.79,0,0,1,914,186a3.34,3.34,0,0,1,1.26-.74,17,17,0,0,1,3.64-.74c1.28-.12,2.43-.18,3.44-.18a19.93,19.93,0,0,1,5.66.76,11.66,11.66,0,0,1,4.36,2.34,10.38,10.38,0,0,1,2.82,4,14.64,14.64,0,0,1,1,5.68,14.85,14.85,0,0,1-1,5.58,10.7,10.7,0,0,1-2.74,4,11.31,11.31,0,0,1-4.26,2.42A17.86,17.86,0,0,1,922.74,209.92Zm-2.24-5.84c.3,0,.66.1,1.08.14s.83.06,1.2.06a7.41,7.41,0,0,0,2.5-.4,4.9,4.9,0,0,0,2-1.24,5.55,5.55,0,0,0,1.28-2.18,9.83,9.83,0,0,0,.46-3.22,7.75,7.75,0,0,0-1.68-5.42,5.81,5.81,0,0,0-4.48-1.82c-.37,0-.75,0-1.14,0l-1.18.12Z"/><path class="cls-7" d="M940.18,188.76A3.45,3.45,0,0,1,943.9,185h13.2a4.38,4.38,0,0,1,.5,1.16,5.08,5.08,0,0,1,.22,1.52,2.91,2.91,0,0,1-.66,2.16,2.38,2.38,0,0,1-1.74.64H947v3.72h9a5.11,5.11,0,0,1,.5,1.14,4.9,4.9,0,0,1,.22,1.5,3,3,0,0,1-.64,2.16,2.3,2.3,0,0,1-1.72.64H947v4.2h10.28a4.38,4.38,0,0,1,.5,1.16,5.08,5.08,0,0,1,.22,1.52,3,3,0,0,1-.66,2.18,2.35,2.35,0,0,1-1.74.66H943.9a3.45,3.45,0,0,1-3.72-3.72Z"/><path class="cls-7" d="M977.1,209.12a10.88,10.88,0,0,1-1.38.24,14.64,14.64,0,0,1-1.86.12,8.65,8.65,0,0,1-1.62-.14,2.87,2.87,0,0,1-1.18-.5,2.14,2.14,0,0,1-.72-1,4.83,4.83,0,0,1-.24-1.68V185l1.4-.22a13.22,13.22,0,0,1,1.84-.14,8.5,8.5,0,0,1,1.62.14,3,3,0,0,1,1.18.5,2.14,2.14,0,0,1,.72,1,4.9,4.9,0,0,1,.24,1.68Z"/><path class="cls-7" d="M1012.26,205.32a3.14,3.14,0,0,1-.44,1.84,4.47,4.47,0,0,1-1.4,1.16,8.17,8.17,0,0,1-1.4.62,15.61,15.61,0,0,1-1.84.52,19.18,19.18,0,0,1-2.1.34,20,20,0,0,1-2.18.12,18.17,18.17,0,0,1-5.4-.78,12.34,12.34,0,0,1-4.38-2.36,11.11,11.11,0,0,1-2.94-3.94,14.45,14.45,0,0,1,.1-11.2,12.08,12.08,0,0,1,3.12-4.06,13.11,13.11,0,0,1,4.44-2.42,16.88,16.88,0,0,1,5.14-.8,12.6,12.6,0,0,1,6,1.22,3.61,3.61,0,0,1,2.22,3.18,3.08,3.08,0,0,1-.52,1.8,4.28,4.28,0,0,1-1.2,1.2,16.91,16.91,0,0,0-2.5-1.18,9.43,9.43,0,0,0-3.38-.58,7.34,7.34,0,0,0-5.34,1.92,7.06,7.06,0,0,0-2,5.32,8.46,8.46,0,0,0,.54,3.18,6,6,0,0,0,1.46,2.2,5.82,5.82,0,0,0,2.12,1.28,7.68,7.68,0,0,0,2.56.42,6.62,6.62,0,0,0,1.56-.16,4.55,4.55,0,0,0,1-.36V200h-4.28a6.49,6.49,0,0,1-.46-1.16,5.08,5.08,0,0,1-.22-1.52,2.81,2.81,0,0,1,.66-2.08,2.37,2.37,0,0,1,1.7-.64h6.76a2.3,2.3,0,0,1,2.52,2.52Z"/><path class="cls-7" d="M1016.86,188.76a3.45,3.45,0,0,1,3.72-3.72h13.2a4.73,4.73,0,0,1,.5,1.16,5.08,5.08,0,0,1,.22,1.52,2.91,2.91,0,0,1-.66,2.16,2.38,2.38,0,0,1-1.74.64h-8.44v3.72h9a5.11,5.11,0,0,1,.5,1.14,4.9,4.9,0,0,1,.22,1.5,3,3,0,0,1-.64,2.16,2.32,2.32,0,0,1-1.72.64h-7.36v4.2h10.28a4.73,4.73,0,0,1,.5,1.16,5.08,5.08,0,0,1,.22,1.52,3,3,0,0,1-.66,2.18,2.35,2.35,0,0,1-1.74.66h-11.68a3.45,3.45,0,0,1-3.72-3.72Z"/><path class="cls-7" d="M1060.74,208.44a3.55,3.55,0,0,1-1.62.86,9.41,9.41,0,0,1-2.54.3,8.88,8.88,0,0,1-2.8-.44,3.87,3.87,0,0,1-2.16-2.12l-4-8.08c-.4-.83-.76-1.6-1.08-2.34s-.67-1.58-1-2.54l-.24,0c.11,1.44.17,2.91.18,4.4s0,3,0,4.4v6.2a11,11,0,0,1-1.34.24,13.42,13.42,0,0,1-1.78.12,9,9,0,0,1-1.56-.12,2.39,2.39,0,0,1-1.12-.48,2.3,2.3,0,0,1-.68-1,4.54,4.54,0,0,1-.24-1.62v-20a3.39,3.39,0,0,1,1.72-1.2,7.72,7.72,0,0,1,2.48-.4,8.51,8.51,0,0,1,2.82.46,3.84,3.84,0,0,1,2.14,2.1l4,8.08q.6,1.25,1.08,2.34c.32.73.67,1.58,1,2.54l.2,0c-.11-1.44-.17-2.88-.2-4.32s0-2.88,0-4.32V185a11,11,0,0,1,1.34-.24,13.42,13.42,0,0,1,1.78-.12,4.83,4.83,0,0,1,2.68.62,3,3,0,0,1,.92,2.58Z"/><path class="cls-7" d="M1065.94,188.76a3.45,3.45,0,0,1,3.72-3.72h13.2a4.73,4.73,0,0,1,.5,1.16,5.08,5.08,0,0,1,.22,1.52,2.91,2.91,0,0,1-.66,2.16,2.38,2.38,0,0,1-1.74.64h-8.44v3.72h9a5.11,5.11,0,0,1,.5,1.14,4.9,4.9,0,0,1,.22,1.5,3,3,0,0,1-.64,2.16,2.32,2.32,0,0,1-1.72.64h-7.36v4.2H1083a4.73,4.73,0,0,1,.5,1.16,5.08,5.08,0,0,1,.22,1.52,3,3,0,0,1-.66,2.18,2.35,2.35,0,0,1-1.74.66h-11.68a3.45,3.45,0,0,1-3.72-3.72Z"/><path class="cls-7" d="M1094.82,201.44v7.68a10.88,10.88,0,0,1-1.38.24,14.76,14.76,0,0,1-1.86.12,8.57,8.57,0,0,1-1.62-.14,2.68,2.68,0,0,1-1.16-.5,2.18,2.18,0,0,1-.7-1,4.83,4.83,0,0,1-.24-1.68V187.32a1.75,1.75,0,0,1,.46-1.3,3.19,3.19,0,0,1,1.26-.74,15.26,15.26,0,0,1,3.16-.7,31,31,0,0,1,3.84-.22q5.52,0,8.32,2.32a7.72,7.72,0,0,1,2.8,6.28,7,7,0,0,1-1.28,4.24,9.12,9.12,0,0,1-3,2.72q1.44,2,2.84,3.68a24.16,24.16,0,0,1,2.2,3.12,3.74,3.74,0,0,1-1.46,2.14,4.09,4.09,0,0,1-2.38.74,5.23,5.23,0,0,1-1.52-.2,3.57,3.57,0,0,1-1.12-.56,4.58,4.58,0,0,1-.88-.88,10.44,10.44,0,0,1-.76-1.12l-3.36-5.4Zm2.52-5.32a3.5,3.5,0,0,0,2.4-.78,2.91,2.91,0,0,0,.88-2.3,2.78,2.78,0,0,0-1-2.3,5,5,0,0,0-3.1-.78,8.28,8.28,0,0,0-1,0l-.8.12v6Z"/><path class="cls-7" d="M1112.22,188.76a3.45,3.45,0,0,1,3.72-3.72h13.2a4.73,4.73,0,0,1,.5,1.16,5.08,5.08,0,0,1,.22,1.52,2.91,2.91,0,0,1-.66,2.16,2.38,2.38,0,0,1-1.74.64H1119v3.72h9a5.11,5.11,0,0,1,.5,1.14,4.9,4.9,0,0,1,.22,1.5,3,3,0,0,1-.64,2.16,2.32,2.32,0,0,1-1.72.64H1119v4.2h10.28a4.73,4.73,0,0,1,.5,1.16,5.08,5.08,0,0,1,.22,1.52,3,3,0,0,1-.66,2.18,2.35,2.35,0,0,1-1.74.66h-11.68a3.45,3.45,0,0,1-3.72-3.72Z"/><path class="cls-7" d="M1137.86,209.4a3.45,3.45,0,0,1-3.72-3.72V185l1.4-.22a13.22,13.22,0,0,1,1.84-.14,8.65,8.65,0,0,1,1.62.14,3,3,0,0,1,1.18.5,2.2,2.2,0,0,1,.72,1,4.9,4.9,0,0,1,.24,1.68v15.8h9.16a5.56,5.56,0,0,1,.52,1.18,5,5,0,0,1,.24,1.54,3.08,3.08,0,0,1-.68,2.26,2.5,2.5,0,0,1-1.8.66Z"/></g><path class="cls-8" d="M53.55,201.64s45.05,3.74,145.15,65.84c0,.61-25-83.13-6-135.21,16-56.09,50.12-84.21,55.05-89.15,7-7,15.85-75.07,21-78.12,0,0,21.52,70,18,79.13,0,0-.13,27.11-27,65.1-17,24-6,58.09-6,79.13,4,33,11,35,26,51.08,35.51,37.9,10.62,101.95,9,105.17h0c16,24,38,65.1,38,65.1,1-6,.11-4.72,1-31,.69-20.71-1-9.11,1.69-33.74,3.7-33.74,6-71.13,6-71.13-2-43.07,81.4-105.47,127.45-193.61,16.72-32,50-70.11,76.08-85.13,22.76-13.14,101.11,11,125.13,14,19.11,2.39,73.22,32.05,121.13,32.05,30,0,210.24-.5,252.26,3,24,2,212.59,4.36,242.26,6,36,2,153.9,24.45,143.15,25-21.13,1.14,1.6-.83-154.17,5-70.25,2.64-151.23,18.91-223.23,22-183.72,8-433.45,3-471.49,14C555.6,121.6,465,224.41,447,243.44c-33.62,35.51-24,74.12-13,107.18,10.18,30.57,17,66.1,13,92.14-4.34,28.26-37.84,78.66-52.38,89a6,6,0,0,0-1.6,8.12c5.49,8.63,17.32,26.51,27,36.15,13,13,13.78,46.49,13.78,46.49S423.87,667,420.4,669.58s1.54,42.61,1.54,42.61l35,68.11s56.4,125.45,271.29,85.14c64.06-12,95.1-21,139.14-27s172.94,13.93,195.21,26c46.05,25,65.07,36,87.09,54.08,92.69,75.88,98.81,70.55,139.81,79.57,83.11,18.28,199,11,253-2,0,0,119.06-18.12,159-49.09,31-24,45-96.17,45-96.17,6-31.06-4.24-62.74-50-55.1-12,2-25,12-26,31-.89,17-6.52,104.47,0,90.16,3.94-8.62-81.7-88.1-51-147.26,26-50.09,102-50.09,102-50.09,47-4,116,79.14,116,79.14-8,2,30,5.79,30,108.2,0,35.06-12.64,96.07-93,149.26-56,37.07-385.55,17.58-518.69,18.58-71.36.54-143.15-46.07-168.18-85.13-10.15-15.85-34-101.16-73.07-119.19-1.47-.68-1.33-.93,0,0,9,6.3,24.57,15.1,45,56.09,27,54.08,28,80.12,27,106.17-.58,15.08-.63,19.65-.63,21.29a34,34,0,0,1-1,5c-3.24,12-19.55,66.87-70.44,87.17-57.06,22.75-97,9.73-107.08,5.73s-64.1-26.22-72.11-67.7,23-99.57,63.07-102.58c15.79-1.18,27.62-3.37,41,4,20,11,31.31,30.44,33,36.06,4,13-13-12.38-36-14-4.73-.34-34.37-6.46-51.06,13-24,28,12,73.11,35,75.12,25.64,2.23,55.63-10.57,59.06-13,1.82-1.3,14.22-10.39,21-24s8-31.87,8-32c1-42.07-28-59.1-28-59.1s-43-32.05-71.07-30.05S838.2,980.37,820.77,997s-132.55,140.84-153.58,147.86-39,32-103.1,38.06-123.13-2-155.17-18-49.05-25-63.06-36.06c0,0-54.06,39.06-97.1,48.08s-61.83,10-83.47,8-54.71-33-54.71-33l-34,11s-25,17-59.07,16-72.07-21-72.07-21-10,21-64.07,17c0,0-14.16,21-37.11,20s-38-7-38-7-23,12-43-4-30.47-32-30.47-32-35.6-10-42.61-39.07,0-45.15,0-45.15-17.45-33,.29-77.56,22.74-63.58,60.78-71.6c0,0,7-22-4-27s-49-49.08-49-65.1V783.31s-22-85.14-10-138.22,38-110.18,38-110.18-46-212.34,70.07-261.42c0,0-19-50.08-92.09-54.08,0,0,69.07-43.07,142.14,9C-153.67,228.42-60.57,177.87,53.55,201.64Z"/><g id="shadow"><path class="cls-9" d="M1313.4,1074.28s353.95-15.37,403.33-48.28c30.06-20,102.46-51.86,117-136s-59-148-61-153c0,0,37,22,71,64,26.55,32.79,27.27,74,27,88-.86,44.52.06,74.94-32,114-33.14,40.38-73.73,59-73.73,59s-39.9,13.13-100.93,18.29C1625.59,1083.54,1396.56,1108.33,1313.4,1074.28Z"/><path class="cls-9" d="M1730,799s-28-25.15-83.27-7c0,0-21.72,15-24.73,45,11,28,49,85,49,85s.73-13.76.73-44c0-29-3-53,13-71,4.61-5.18,16-8.12,23-9C1715.73,797,1730,799,1730,799Z"/><path class="cls-9" d="M999,987s-22-81-76.16-93-82.51,6-135.44,52.55-104,116.72-182.17,164.8-160.31,13-160.31,13-69.35-22.71-84.16-58.1c-3.12-7.47-15-32-15-32-13,8-58.11,11-58.11,11s6,52.08-14,83.13c-11.58,17.94-24.5,23.18-33.34,24.4-5.45.75-36.11-10.51-40.81-13.38l-29-23c-2.63-.7-15.6-12.23-17-14-11.52-14.32-26.07-43-40.07-42.07-9.14.61-58.11,0-72.14,0-2.55,0,8.82,20.3,10,24,1.84,5.74,37.37,47.53,33.31,51.53-10.65,10.51-20.83,18.48-30.31,16.58l-52.1-30.05S-41,1077.29-97.12,1019.2c-7.66-7.94-57.11-9-67.12-8-13.64,1.37-30.49,8.2-30.06,9l41.08,59.09,17,26h0a14.64,14.64,0,0,0-8.77,20.12l-15.26,4.94c-7,3-30.07,6-44.1-1l-52.1-33.06c-20.45-8.17-27.66-47.82-28-68.42,0-1.18-4-19.72-6-27.73l-5.74-25.44c-.5-2.19-2.27-11.62-4.28-6.61l-13,35a209.43,209.43,0,0,0-4,28.05l1,12,2,11c1,5,5,14,5,14l-2,6c-1.65,5-1,19-.5,22.77a101.72,101.72,0,0,0,2.51,16.29c.19.77,1.31,4,1.87,5.63.09.25,0,.17.13.38l2,4a62.85,62.85,0,0,0,4,6l3,4a34.4,34.4,0,0,0,6,5.06l5,4c.48.33,9.47,5.81,10,6,3.66,1.31,10.89,4,11,4l7,10,24.05,23,12,6,9,1c2.89-.23,10.59,1.21,21-4a155.05,155.05,0,0,0,25.05,6,91.19,91.19,0,0,0,24,0l10-4c.54-.31,10-6,16-15l8.87,1a9.48,9.48,0,0,0,4.06-.91c7.37-3.5,28.15,6.92,51.2-17.12,0,0,47.09,19,63.12,20,10.61.67,36.11.14,45.08-4,13-6,58.12-21,58.12-21,32.06,27,39,46.19,116.22,29,74.72-16.59,119.23-52.08,119.23-52.08s37,36.3,111.21,50.08c65.79,12.21,118.73,3.14,137.26-1,2.48-.56,34.09-12.37,50.1-23,5.57-3.71,37.07-15,69.13-50.08,16.91-18.49,38.16-33.92,55.11-56.09,5.57-7.29,39.77-41.23,47.09-47.08,3.23-2.58,29.06-30,46.09-42.07,11.23-7.92,31.45-21.73,47.09-23C922.84,937.07,974.27,957.35,999,987Z"/><path class="cls-9" d="M-248.41,919s-18-184.3,53.11-275.45S-71.11,507.72.55,477s148.81-37.74,211.93-63.78c44.26-18.26,40.74-94.13,34.68-137.85-2.45-17.63-12.56-25.06-18.65-37.43-9.25-18.8-17-52.08-16.1-72.17C212.41,165.77,220,82,248,65c21.2-12.87,21.59-99.5,21.59-99.5l15.26,52.17A61.93,61.93,0,0,1,287.36,37C286.84,52.93,284,68,268,97c-11.76,21.32-18.33,33.8-17,59,1,19,6.18,54.38,18,69,6.92,8.57,24.63,28,27.18,42.82,3.62,21.18,11.09,60.13,9.48,77.29-3,32.05,6,74.12-99.19,124.2S55.18,552.45,55.18,552.45L-50,618.55s-59.11,47.08-88.16,97.16-37.08,81.13-25.05,123.2A497.85,497.85,0,0,1-147.63,919S-192.3,900-248.41,919Z"/><path class="cls-9" d="M443.92,909s96.19,108.17,217.42,50.08c0,0,92.23-48.51,81.16-47.07-.49.06-11,50.08-128.25,109.17s-174.09-65.41-174.09-65.41L406.85,870Z"/><path class="cls-9" d="M287.29,990.63s32.39,1.52,49.43-8.49c0,0-25.73-56.12-22.72-69.14l-58.44,11S289.43,982.63,287.29,990.63Z"/><path class="cls-9" d="M59.55,980.72S85.23,890,139.34,873,205.79,856.14,260.23,850s53.44,1.9,86.51-16.13,51.09-30,63.12-42.07,35.16-41.43,22-61.1c-18-27-12-50.08-10-68.11L428.73,629c1.61-4.71.07-9.14-1-14l-4-24c-.89-4.06-5-19.48-7.86-22.53C406,557.84,395,540.6,396.73,543c2.38,3.21,27.15,12.45,36.17,31.48,7.51,15.85,15,57.74,15,64.1,0,8.31,12.07,46.42,15,55.09,9.49,27.83,26.05,67.11,20,82.14C452.68,851.57,356.07,898.88,319.34,909c-7.28,2-19.43,4.43-30.62,6.5-4.11.76-8.09,1.48-11.66,2.11-4.71.82-8.69,1.5-11.28,1.93l-3.21.54c-28.08,3.83-61,6.57-85,6-43.21-1-47.65,54.67-47.65,54.67l-1.57,20.45Z"/><path class="cls-9" d="M902.68,1087c2.16,1.73,8,5.71,5.32,5-19.53-5-59.27-18.59-56.39-49.18,3.95-42.08,44.53-60.14,47.45-61.39l.35-.12c2.32-.59,28.26-8.49,50.25,10.68,10.34,9,.3.23.43.37l9.82,8.81c10,10,11.31,14.6,11.89,15.74l2.06,4.13c3.09,8.17-1.58,4.76-3.77,3.24-12.33-8.55-36-21.16-61.28-14.1-25,7-30,24.94-30,30.05C878.76,1059.35,889.85,1076.72,902.68,1087Z"/><path id="overarm" class="cls-9" d="M471.28,218.51S529,125,535.73,109s20-39,31-41,31.08-13,66.54,0,97.46,13,97.46,13h99c16,0,60,4,89,6s88,3,120,3,142-9,142-9l60.82-5.79L1264.73,73l79-1,80.48,3.74L1277.73,81l-46,3-39,3-48,6-57,7s-75,5-84,4-78,5-92,3S847,109,827,108s-56.27,2-56.27,2-39.85,0-50-1c-9.73-1-52,1-52,1s-57,3-65,4-23,0-30,3-35,32-35,32l-39,39Z"/></g><g id="eyes"><g id="left_eye" data-name="left eye"><path class="cls-10" d="M270,669s-7.1-74.83-79.22-75.07-71.89,85-66.07,98.28,12.66,47.65,61.86,41.32S279.89,693.89,270,669Z"/><path class="cls-7" d="M268.43,658.68s-13.85-52.7-63-51.72-56.83,64.12-56.83,64.12-.22,44,21,60.33c0,0,3.42,3.18,21.41.25,0,0-17.66-23.8-21.56-40.2s1.74-48.4,20.36-60.14,39.44-17.34,53.86-9.43S268.43,658.68,268.43,658.68Z"/><ellipse class="cls-7" cx="241.01" cy="645.37" rx="10.39" ry="10.37"/><path class="cls-7" d="M239.2,715.78l19.7-14.94S229.05,680.86,239.2,715.78Z"/></g><g id="right_eye" data-name="right eye"><path class="cls-10" d="M354.7,644.89s-5.22-74.45,30-91.31S429.6,619.72,428.3,634s-.65,49.28-25.4,54.47S352.74,671.35,354.7,644.89Z"/><path class="cls-7" d="M354.25,634.45S354.9,580,379,569.61s35.18,49.28,35.18,49.28,5.21,42.79-3.26,63.54c0,0-1.3,3.89-10.42,5.19,0,0,5.86-27.23,5.86-44.09s-6.46-46.69-16.91-53.82-21.26-7.78-27.38,3.24S354.25,634.45,354.25,634.45Z"/><ellipse class="cls-7" cx="366.09" cy="615.18" rx="5.21" ry="10.37"/><path class="cls-7" d="M375.14,683.27l-11.34-10S376.05,647,375.14,683.27Z"/></g><circle id="mund" cx="366" cy="773" r="20"/></g></svg>