<svg xmlns="http://www.w3.org/2000/svg" xmlns:xlink="http://www.w3.org/1999/xlink" viewBox="0 0 1920 1080"><defs><style>.cls-1{fill:#707070;}.cls-2{fill:#8f5b00;}.cls-3{fill:#db8c00;}.cls-4{fill:url(#linear-gradient);}.cls-5{fill:#848484;}.cls-6{fill:#919191;}.cls-7{fill:#7c7c7c;}.cls-8{fill:#050300;}.cls-9{fill:#fff;}</style><linearGradient id="linear-gradient" x1="960.15" y1="-1.78" x2="960.15" y2="1082" gradientUnits="userSpaceOnUse"><stop offset="0" stop-color="#3995ff"/><stop offset="1" stop-color="#00438e"/></linearGradient></defs><g id="snooze_u_loose" data-name="snooze u loose"><path class="cls-1" d="M854.32-206.79a129.26,129.26,0,0,0,6.34-24.88c2.54-16.1,27.92-17.56,27.92-17.56s21.57-2.93,36.79-2.93,88.82,2.93,88.82,2.93l30.46,1.46s10.15,1.46,19,11.71S1075.1-220,1075.1-220V-209l2.54,6.64-1.27,7.31,1.27,15.11,1.26,1,1.27,10.24V-45.51l-3.8,20.18L1072.56-18,1063.68-.45l-5.08,11.71L1037,25.89l-30.45,1.47H951.46l-36.24-1.47L897.46,21.5,881,12.72,868.28,2.48,855.59-20.94l-2.82-11.47-1-44.14,2.54-64.39v-65.85"/><g id="digisprutte"><path id="spruttebund" class="cls-2" d="M393.29-497.37s-83.7,16-115.38,15.12c-2.85-.09-5.76-.27-8.74-.56C239-485.72,202.43-499.56,169.74-533c-35.91-36.72-55-61.06-56.69-139.06S192.86-825.6,192.86-825.6,229.5-858.87,281-857.36s75,8.8,75,8.8,48.64,8,114.65,54.89,65.81,53.45,65.81,53.45l57.69,59.83s53,2.87,66.2,21.75,19,45.48,19,45.48l12.23,33.39s16.23,32.18,33,45.88,23.18,20.5,60,28.19,75,11.44,75,11.44,54.55,16.33,104.58,15.62c60.79-.86,106.93-20,106.93-20s18.83-11.34,100,14.82,81,32.76,167.22,19.44c0,0,27.36,2.28,60.06,19l15.72,9.63-70.11,3.23s-54.32,5-74.27,9.71-66.39,11.27-102.1,12.86-84.25-10.4-84.25-10.4-65.57,28.46-78.89,32-74.34,12.35-74.34,12.35,78.42,28.72,104.74,32.14,30.13,8.81,85.38,17S1223.5-290.7,1223.5-290.7s43,19.76,70.58,25.85-73.72-8.77-73.72-8.77l-89.83,5.33s-77.7-14.2-93.54-14.67-51.59,2.45-63.43.78-93-26.5-93-26.5l-21-3.26s-23.87,3.26-33.11,3-55.88-9.43-55.88-9.43,39.15,39.32,87.68,51.32,185,88.65,185,88.65,42.79,27.68,87.28,42.2S1210.39-114,1210.39-114l-98.65-2.9s-42.78,5.36-85.49-25c0,0-68.33-12.58-89.18-22.43S806.86-184,806.86-184s-58-4.34-88.64-40.91c0,0-41,45-70.3,54.75s-111.63,37-111.63,37l-58.1,29.36s-62.52,38.13-88.54,80.14-130.18,35-130.18,35l-36.31-1s94.07-31.69,107.58-41.86,55.16-79,79.54-99.4,64.13-69.45,89.25-70,61-53.7,61-53.7,32.53-28.11,2.91-54.08S429.1-321.93,429.1-321.93s-71.67,11.11-102.42,23.42-119.33,59.92-119.33,59.92-44.18,19.84-80,25.39-87.39,6.69-87.39,6.69-15.88.85-33.38,12.23S28.18-165.9,28.18-165.9,49-156,51.28-142.77,55.71-113.57,36.61-93-13.5-50.87-34.86-43.57c0,0,59.75-55,46.16-42.24,0,0,20.65-28.46,9.28-46S-31.53-157-30.73-184.11s24-54.16,24-54.16S43.12-269.83,87-277.8s110.29-66.78,110.29-66.78l37.93-31.92,36.11-14.79s-23.73-2-43.33-9.2-34-11.57-42.4-40.88-48.5-58.23-48.5-58.23-25.19,3.23-39.44-6.44-30.79-31.29-45.27-33-30.28-3.53-41.42,16S8.24-476.95-49.95-474.7c0,0,27.48,8.74,38.93-66.23,0,0,12-47.21,58.11-44.54s80.68,42,80.68,42l36.81,6.37s19.14,23,43.87,35.63c0,0,24.65,15.26,53.62,18.75,0,0,31.6,3.57,51.55-1.13l45.12-6.6Z"/><path id="sprutteskygge" class="cls-3" d="M393.31-498s-83.7,16-115.38,15.12c-2.85-.09-5.76-.27-8.74-.56-30.19-2.91-67.4-16.77-100.09-50.2-35.91-36.72-54.36-61-56-139s79.81-153.55,79.81-153.55S229.52-859.53,281-858s75.05,8.8,75.05,8.8,48.64,8,114.65,54.89,65.81,53.45,65.81,53.45L594.86-681s52.34,2.85,65.54,21.73,19,45.48,19,45.48l12.23,33.39s16.23,32.18,33,45.88,23.18,20.5,60,28.19,75,11.44,75,11.44,54.69,20.34,104.56,16.28c71.51-5.83,106.95-20.64,106.95-20.64s18.83-11.34,100,14.82,81,32.76,167.22,19.44c0,0,27.36,2.28,60.06,19l15.72,9.63-70.11,3.23s-48.07-5.37-68-.67-58.43,10.17-94.15,11.77c-25.09,1.12-66.86-2-81-10.8a31,31,0,0,0-22-4.1c-26.78,5-88.62,16.44-99.22,18.21-60.4,10.12-219.7-76.46-219.7-76.46s248.67,147.33,275,150.75,30.13,8.81,85.38,17,103.31,36.06,103.31,36.06,43,19.76,70.58,25.85-73.72-8.77-73.72-8.77L1149.83-279s-61.73-12.38-77.57-12.84-60.64-4.42-72.48-6.09-73.34-22-73.34-22L880.55-331.8s-83.86-23.6-93.1-23.87-102.73-55.86-102.73-55.86,42.09,54.2,85.77,93.67c26.2,23.68,53.2,38.55,71.4,43.05,48.53,12,201.3,95.74,201.3,95.74s42.79,27.68,87.28,42.2,79.94,22.16,79.94,22.16l-98.65-2.9s-36.53-5-79.24-35.35c0,0-64.91-16.43-93.1-23.87-25.16-6.63-110.81-50.81-110.81-50.81S671.61-279.8,661.05-325c0,0-5.26,88.38-25.74,111.54s-110.17,62.82-110.17,62.82l-64.6,40.39s-44.85,43.93-70.87,85.94-130.18,35-130.18,35l-36.31-1S317.25-22,330.76-32.18s55.16-79,79.54-99.4,59.91-63.58,81.95-75.63c27.53-15,75.5-51.44,75.5-51.44s41-83.77,24.77-117.27c-3-6.15-16.23-32.19-34.36-44.61-12.56-8.6-20.54-20.42-32.93-48.52-7.38-16.76-1.9,19.76,14.68,40.06,21.55,26.4-25.21,59.37-54.89,69.73-45.38,15.84-61.34,19.34-61.34,19.34s-66.23,28.44-97,40.75-119.34,59.92-119.34,59.92-44.17,19.84-80,25.39S40-207.17,40-207.17s-15.88.85-33.39,12.23S28.2-166.56,28.2-166.56s20.85,9.86,23.1,23.13,4.43,29.2-14.67,49.78S-13.49-51.53-34.84-44.23c0,0,59.75-55,46.16-42.24,0,0,20.65-28.46,9.28-46s-52.11-25.23-51.32-52.33,24-54.16,24-54.16S43.14-270.49,87-278.46s110.29-66.78,110.29-66.78l37.93-31.92,36.1-14.79s68.22-17,86-27.86c30.95-18.91,58.93-72.26,35.33-78.24-8.95-2.26-95.39,22.75-129.9,14.69-40.9-9.55-36.77-7.68-80.84-36.72-7.61-5-11.13-16.12-18-17.7-6.56-1.52-13.2-2.23-18.41-3.18-10.65-1.95-17.08-3.15-17.08-3.15s-14.13-13.62-28.38-23.29S64.9-584.28,50.41-586s-28.33,42.77-39.47,62.26-2.68,46.16-60.88,48.41c0,0,27.49,8.74,38.94-66.23,0,0,12-47.21,58.11-44.54s80.68,42,80.68,42l36.81,6.37s19.14,23,43.87,35.63c0,0,24.65,15.26,53.62,18.75,0,0,31.6,3.57,51.55-1.13l45.12-6.6Z"/></g></g><g id="startskærm"><rect class="cls-4" x="-0.88" y="-1.78" width="1922.06" height="1083.78"/><path class="cls-5" d="M390.84,53.35l129-7.15L965.08,31.9h321.71s199,0,274.44,35.75,99.76,85.8,111.92,102.48,34.07,90.57,36.5,138.24-12.16,407.54-12.16,407.54l-4.87,250.25-56,62-12.17,9.53-442.85,9.54H577.78s-177.2,2.38-206.4-50.05-46.23-45.29-56-228.8,7.3-395.63,7.3-395.63l9.73-262.17Z"/><path class="cls-6" d="M412.74,172.52H1217.6s156.27-14.3,226.83,35.75,99.76,85.8,102.2,185.9,0,522.2,0,522.2l1.08,24.55L619.57,959s-136.26-16.68-155.73-47.66c0,0-60.83-38.14-65.7-126.32Z"/><path class="cls-1" d="M390.84,53.35,904,34.33s397.8-1.94,460.22,0,150.18-4.67,257.17,68.76,88.56,248.26,88.56,248.26L1697,861.73l-4.39,104.43-56,62,5.65-306.58S1654,429.89,1653.46,351s-52.6-173.16-80.22-194.55S1476.56,93.64,1399,89.39s-623.66-2.13-623.66-2.13L332.44,110.55Z"/><path class="cls-7" d="M412.28,168.75l702.06-8.9s286.53-20.54,368.56,59,65.7,176.37,65.7,176.37V783.65s-102-303.63-166.47-368.58c-64.69-65.19-211.36-115.22-327.48-98.55S604.5,214,604.5,214Z"/><path class="cls-3" d="M774,1012s-60.69-107.18-82-166c-25-69-39.63-368.88,290.26-371.13,276.9-1.89,272,271.43,263.22,359.29a109.86,109.86,0,0,1-15.58,46.39C1218,900.14,1206,934.29,1196,955c-11.21,23.12-18.49,78.77-9,82,17,5.77,50.84-40.83,50.84-142.16s93.46-109.22,163.26-100.21,208.3,23.65,252.21-16.89,81.06-150.87,128.35-154.25S1892,586.34,1892,586.34s-99.08,60.4-117.66,79.18-68.12,157.26-103,188.78-233.06,40.54-233.06,40.54-47.29,0-59.68,5.63-29.27,7.88-43.91,64.17-10.13,73.19-75.43,100.21S1167.53,1120.48,1118,1089s24.14,29.89,71.43,29.89,58-3.63,108.38,16.76-1.42,115-1.42,115-43,59.28-124.53,21.19-62.38-99.88-62.38-99.88l-60.79,41.53s-58.55-10.13-63.05-69.81S906,1263.06,906,1263.06s14.38,157.58-130.87,141.82-137.36-170-137.36-170,42.79-118.22,29.28-155.37-49.54-11.26-56.3,1.12-32.88,60.55-101.45,55-147.38-91.07-117-159.75S134,862,134,862,8.27,857.57-21,772c-9.74-28.48,39.62-116.11,14-163-53-97,73-220,73-220S2.79,531.51,41,556c39,25,11,160,11,160s-43.65,79.76,71.19,83.13,219.55,36,219.55,36,65.31,19.14,122.73,70.94S502.62,995,502.62,995s-15.76,34.91,15.77,38.28,9-43.91,107-69.8S779.6,1048,779.6,1048,780.76,1054.78,774,1012Z"/><g id="right_eye" data-name="right eye"><path class="cls-8" d="M941.32,866.93s-7.1-74.83-79.22-75.07-71.89,85-66.06,98.29,12.65,47.64,61.86,41.32S951.22,891.78,941.32,866.93Z"/><path class="cls-9" d="M939.76,856.57s-13.85-52.69-63-51.71S819.94,869,819.94,869s-.22,44,21,60.33c0,0,3.43,3.19,21.41.26,0,0-17.66-23.81-21.56-40.21s1.74-48.39,20.36-60.13,39.45-17.35,53.86-9.43S939.76,856.57,939.76,856.57Z"/><path class="cls-9" d="M922.18,839.91a10.39,10.39,0,1,1-10.49-7A10.39,10.39,0,0,1,922.18,839.91Z"/><path class="cls-9" d="M910.53,913.67l19.7-14.94S900.38,878.76,910.53,913.67Z"/></g><g id="left_eye" data-name="left eye"><path class="cls-8" d="M1001.85,866.68s7.1-74.83,79.22-75.07,71.89,85,66.06,98.29-12.65,47.65-61.85,41.32S992,891.53,1001.85,866.68Z"/><path class="cls-9" d="M1003.41,856.32s13.85-52.69,63-51.71,56.83,64.11,56.83,64.11.22,44-21,60.33c0,0-3.43,3.19-21.41.26,0,0,17.66-23.8,21.56-40.21S1100.64,840.71,1082,829s-39.44-17.34-53.86-9.43S1003.41,856.32,1003.41,856.32Z"/><ellipse class="cls-9" cx="1030.83" cy="843.02" rx="10.39" ry="10.37"/><path class="cls-9" d="M1032.64,913.42l-19.7-14.93S1042.79,878.51,1032.64,913.42Z"/></g><path class="cls-3" d="M1413,1014l104-26c87.91-22,77-21,132-44,52-21.76,163-109,132-160s-110.86-77.72-109.93-169.86S1706,498,1729,427s-34-157-16-207,59-89,59-89-24,88-20,109,25.1,78,34,146-40,187-28,205,95,81,132,143,2,247-66,289-262,111-339,116-225,8-275,44-553.91,31.09-553.91,31.09L350,1140s-99.71,50.89-161-12,24.66-107.46-10-140C130,942,58,886,63,817c2.86-39.49,31-69,66-110,37.14-43.51-14.57-112-38-122,0,0,84,9,96,80s-16.73,87.35-45,138c-24,43,23,82,23,82s19,6.14,63.5,38.07S277.69,988.49,267,1022c-30,94,111,32,163,32s257,92,257,92,21.43,33.49,118.71,13.74S1098,1065,1219,1051C1288,1043,1413,1014,1413,1014Z"/><g id="skygger"><path class="cls-2" d="M1308,1036s-25.54,3-37.77,0c0,0,23.77-15.14,34.77-40.57s17.48-68.1,22.24-81.76S1343,878,1358,874s64.3-1,95.65,0,109-1.36,125.17-6.18S1651.93,849.65,1664,840c15-12,63-92,64-111l11,10s-47.83,105.43-66,116c-14.89,8.66-38,21-116,31l-60,6.8s-99.1,6.41-109.06,10.31-29-1.11-42.27,29.13C1332.2,962.92,1324,1033,1308,1036Z"/><path class="cls-2" d="M665.38,1136.48l30.71,17.43S722.76,1051,665.38,1034s-102.72,60-102.72,60L603,1110s4-41,38-39S670.76,1112,665.38,1136.48Z"/><path class="cls-2" d="M434,1051s-24.43-15-19.21-44.5,10.33-50-.73-74.26S302.41,877,302.41,877l-134.29-23.7S44,830,27,814c0,0-28-20-33-34s-7-23.24-4-40.62S10,670,9,646,5,603-7,588s0-70,0-70S44,405,65,390c0,0-45,45-68,96s-15.25,91.08-15.25,91.08S-12,604-7,611s8,25,6,44-21.58,93.53-21.29,100.76S-25,779-3,805s37,47,152,59c0,0,131,31,164,42s60,28,77,50c0,0,4,14-1.86,31.75C381.59,1007.6,389,1049,397,1056,397,1056,421,1049,434,1051Z"/><path class="cls-2" d="M402.28,1152.65V1129L346,1108s-41.8,51.65-121.9,22.33c0,0-55.4-14.07-18.25-102.2,0,0,24.15-39.13-37.85-82.13s-85.3-92.35-85.3-92.35-9-1.67-16.36-3.66c0,0,6.85,31.5,19.66,47,4.82,5.83,15.94,19,28,32,20,21.49,48.15,45.64,60,55,19,15,11,31,11,31l-14.51,41s-31.06,49.26,42.23,90.13c0,0,29.75,20.24,79,11.56S340,1147,351,1142Z"/><path class="cls-2" d="M77,790s27.26-41.38,36-51c10-11,35-47,36-59,0,0,.1-19.18-2-25s-7-23-13-31-24-37-43-39c0,0,26,19,38,41s12.76,39.09,12.76,39.09S146,688,126,710s-43,53-43,53-12,20-14,25C69,788,74,791,77,790Z"/><path class="cls-2" d="M1514.91,1135l-10.29-27.93S1700,1071,1784,1008s92.35-140.43,92.35-140.43,17.34-70.75,0-103.16S1796,651,1761,617s-22-52.18-22-52.18,38-109.54,37.48-140.18S1765,314,1748,255s23.6-124,23.6-124S1748,223,1752,234s27,103,30,125,5,27,6,43-11,83-15,99-19,78-17,84,78,80.09,78,80.09S1883,710,1897,745s8,70.19,8,70.19S1901,898,1880,943s-26,51-26,51-12,21-47,39-115.3,51.67-163.65,66.84C1643.35,1099.84,1555.82,1130.08,1514.91,1135Z"/></g><path class="cls-9" d="M459.14,616.9a46.48,46.48,0,0,1,8.19,1.41,61,61,0,0,1,10,3.43q9.76,4.28,12.85,8.5t1.28,8.32L478,669.24l28.31,12.41,14-32a37.6,37.6,0,0,1,8.13,1.22,58.6,58.6,0,0,1,9.88,3.37q9.52,4.17,12.59,8.39t1.29,8.32L541,696.52l52.86,23.17a28.4,28.4,0,0,1-.7,5.7,34.35,34.35,0,0,1-2.23,7.12,19.82,19.82,0,0,1-3.47,5.54,10,10,0,0,1-5,2.93,16.8,16.8,0,0,1-7.42-.11,55.88,55.88,0,0,1-10.91-3.74l-109-47.78q-10.77-4.73-15.44-11.12t-1.91-12.68Z"/><path class="cls-9" d="M476.53,583.74c.23-1.21.66-3.08,1.3-5.64a29.86,29.86,0,0,1,2.62-6.92,20,20,0,0,1,3.89-5.25,10,10,0,0,1,5.23-2.53,16.93,16.93,0,0,1,7.39.69,55.87,55.87,0,0,1,10.58,4.57l89.26,47.73q21.48,11.48,28.37,24.4t-.54,26.84q-3.92,7.3-10.18,9.75a17.08,17.08,0,0,1-9.76.84,37.85,37.85,0,0,1-11.16-4.07,46.16,46.16,0,0,1-8-5.28,26.66,26.66,0,0,1-4.78-5A35.89,35.89,0,0,0,584.5,660a26.58,26.58,0,0,0,2.58-4,9.28,9.28,0,0,0-.5-10.39q-3.42-4.9-12.59-9.81Z"/><path class="cls-9" d="M527,545.2q-9.76-6.56-13.23-13.67t.36-12.82L543.41,475a47.63,47.63,0,0,1,7.7,2.76,59.31,59.31,0,0,1,9.13,5.06q8.63,5.79,10.8,10.41t-.23,8.21l-18.74,27.95,21.13,14.17,20-29.81a47.66,47.66,0,0,1,7.58,2.68,57.62,57.62,0,0,1,9,5q8.64,5.79,10.85,10.34t-.18,8.14L604.1,564.26l23.86,16,22.83-34a47.3,47.3,0,0,1,7.7,2.76,59.31,59.31,0,0,1,9.13,5.06q8.64,5.79,10.91,10.49t-.11,8.28l-25.94,38.69q-3.83,5.7-11.72,5.2t-17.67-7Z"/><path class="cls-9" d="M668,499.63l38.92,35.27a27.89,27.89,0,0,1-2.48,5.18,34.48,34.48,0,0,1-4.37,6,19.76,19.76,0,0,1-5,4.14,9.49,9.49,0,0,1-5.64,1.14,17.85,17.85,0,0,1-6.94-2.53,55.2,55.2,0,0,1-9.16-7l-95.49-86.51q-4.26-3.86-5.36-7.33a14.17,14.17,0,0,1-.38-7.12A40.08,40.08,0,0,1,577,428.37,74.64,74.64,0,0,1,586.12,416q14.79-16.32,34-13.94t39.33,20.56q12.57,11.39,18.06,23.25t5.65,21.48q13.8,4.74,26.26,8.5a192.78,192.78,0,0,1,21.7,7.82q6,7.62,6.94,14.14t-2.62,10.44a12.7,12.7,0,0,1-5.09,3.57,13.92,13.92,0,0,1-5.83.74,29.17,29.17,0,0,1-6.82-1.44q-3.71-1.2-7.71-2.9l-36.37-14.86Zm-20.22-31.87a10.93,10.93,0,0,0,2.47-10.68q-1.61-6.18-9.3-13.16t-14.28-7.66q-6.58-.69-12.26,5.58a20.69,20.69,0,0,0-2.36,3,29.76,29.76,0,0,0-1.54,2.92l30.41,27.55Z"/><path class="cls-9" d="M816.09,434.85a14.7,14.7,0,0,1-1.78,8.55,23,23,0,0,1-7,7.6,22.22,22.22,0,0,1-10.81,4.12q-6,.64-15.48-6.7l-45.2-35.5q-6.92-5.46-12.88-10.43T709.4,390.85l-.62.78Q718,403.23,727,415.58t17.71,24.33l24.87,34.35a28.16,28.16,0,0,1-3.37,4.46,31.08,31.08,0,0,1-5.27,4.83,21.17,21.17,0,0,1-5.52,3,8.3,8.3,0,0,1-5.54,0,18.66,18.66,0,0,1-6.13-3.83,52.54,52.54,0,0,1-7.27-8.42L656.28,363.45a16.31,16.31,0,0,1,.74-10.67,19.07,19.07,0,0,1,6.41-8,21.88,21.88,0,0,1,11-4.05q6.18-.58,15.34,6.63l45.33,35.41q6.9,5.46,12.87,10.44t13.55,11.63l.48-.69q-9.18-11.58-18-23.46t-17.46-23.84l-26-35.9a27.8,27.8,0,0,1,3.36-4.46,31.9,31.9,0,0,1,5.27-4.83q5.69-4.11,11.14-2.83T733.63,321Z"/><path class="cls-9" d="M830.21,364.11A141.1,141.1,0,0,1,815.3,361a42.59,42.59,0,0,1-12.94-6,47.55,47.55,0,0,1-11.23-11,77.2,77.2,0,0,1-9.55-18.16q-8.43-21.66-3.75-38.46T800,263.71a47.66,47.66,0,0,1,12.49-3.1,27.67,27.67,0,0,1,11.28,1.05,23.3,23.3,0,0,1,9.34,5.75,30.24,30.24,0,0,1,6.75,10.73,34.45,34.45,0,0,1,2.63,12,33.51,33.51,0,0,1-1.19,9.71,31,31,0,0,0-11.2-2.83,29,29,0,0,0-13.08,2q-6.69,2.6-8.57,7a11.78,11.78,0,0,0,0,9.25,10.41,10.41,0,0,0,4.36,5.49,19.39,19.39,0,0,0,7.54,2.21l9.56,1.27q16.95,2.2,29.08,11.14t20.05,29.33q8.45,21.67,3.69,38.93t-24.08,24.78a43.74,43.74,0,0,1-13.46,3,32.38,32.38,0,0,1-12.44-1.62,27.16,27.16,0,0,1-10.41-6.52A32.68,32.68,0,0,1,815,411.71a30.86,30.86,0,0,1-2.39-13.61A29.27,29.27,0,0,1,815,387.93a44.74,44.74,0,0,0,14,5.73,24.66,24.66,0,0,0,14.75-1q7.27-2.83,8.77-7.82a15.17,15.17,0,0,0-.5-10.08q-2-5.1-5.41-6.85a29.85,29.85,0,0,0-8.72-2.62Z"/><path class="cls-9" d="M927.45,404.83a28.76,28.76,0,0,1-5.33,2.15,34.52,34.52,0,0,1-7.3,1.52,19.9,19.9,0,0,1-6.52-.34,10,10,0,0,1-5-3,16.88,16.88,0,0,1-3.51-6.54,55.72,55.72,0,0,1-2-11.35L885.57,259c-.36-3.81,0-6.82,1-9a14.12,14.12,0,0,1,4.53-5.51,39.9,39.9,0,0,1,11.85-5.93,65.45,65.45,0,0,1,13.76-2.82q21.91-2.08,35,12.89t15.73,42.47a108.55,108.55,0,0,1-.17,24.34,60.22,60.22,0,0,1-5.55,19.21,34.71,34.71,0,0,1-11.09,13.15A34.07,34.07,0,0,1,934,353.65l-11.28,1.07Zm0-88.21a11.65,11.65,0,0,0,9.74-6.28q3.08-5.65,2-16.54-1-10.35-5.24-15.58a12.29,12.29,0,0,0-11.41-4.55c-1.69.16-3.09.34-4.19.53a16.19,16.19,0,0,0-3.35,1l4,42.21Z"/><path class="cls-9" d="M1017.56,355.09l-10.73,51.42a29.23,29.23,0,0,1-5.73.48,34.94,34.94,0,0,1-7.43-.71,20.08,20.08,0,0,1-6.13-2.26,9.57,9.57,0,0,1-3.83-4.29,17.88,17.88,0,0,1-1.33-7.27A55.51,55.51,0,0,1,983.79,381l26.33-126.14c.78-3.74,2-6.52,3.61-8.32a14,14,0,0,1,5.95-3.93,39.77,39.77,0,0,1,13.32-2.11,74.72,74.72,0,0,1,15.3,1.65q21.54,4.5,29.24,22.32t2.15,44.32q-3.46,16.6-10.92,27.34t-15.67,15.74q2.88,14.3,5.94,26.95a193.09,193.09,0,0,1,4.23,22.68q-3.51,9-8.69,13.14t-10.32,3a12.71,12.71,0,0,1-5.66-2.58,14,14,0,0,1-3.59-4.66,29.09,29.09,0,0,1-2.2-6.61c-.56-2.53-1-5.24-1.4-8.11l-5.58-38.89Zm17.27-33.56a10.93,10.93,0,0,0,10.46-3.27q4.51-4.51,6.65-14.68t-.61-16.2q-2.74-6-11-7.75a22.1,22.1,0,0,0-3.8-.51,28.07,28.07,0,0,0-3.29.15l-8.38,40.17Z"/><path class="cls-9" d="M1165.33,406.49a114,114,0,0,1-15.4,22.31A67.36,67.36,0,0,1,1132.54,443a40.53,40.53,0,0,1-18.24,5.22,37.24,37.24,0,0,1-31.72-17.13A40.49,40.49,0,0,1,1077,413a66.77,66.77,0,0,1,2.37-22.35,114.16,114.16,0,0,1,10.21-25.11l49.67-91.95c1.2.24,3.08.69,5.63,1.33a30.74,30.74,0,0,1,6.91,2.65,19.94,19.94,0,0,1,5.23,3.91,10.1,10.1,0,0,1,2.52,5.25,17,17,0,0,1-.73,7.38,54.9,54.9,0,0,1-4.62,10.56l-39.66,73.42q-6.24,11.55-6,20.06t6.11,11.69q6,3.25,13.19-1.27t13.4-16.08l49.28-91.22q1.8.36,5.63,1.33a30.26,30.26,0,0,1,6.91,2.64,20,20,0,0,1,5.23,3.92,10.07,10.07,0,0,1,2.52,5.24,17,17,0,0,1-.73,7.39,55.54,55.54,0,0,1-4.62,10.56Z"/><path class="cls-9" d="M1225,369.13a51.39,51.39,0,0,1,3.87-7.53,60.35,60.35,0,0,1,6.53-8.84q7-8,12.23-9.64t8.52,1.32l52.15,46a52.63,52.63,0,0,1-3.88,7.53,61.55,61.55,0,0,1-6.52,8.84q-7.07,8-12.23,9.63t-8.52-1.31l-13.28-11.72-83.63,94.77a29,29,0,0,1-5.21-2.41,34.57,34.57,0,0,1-6.1-4.3,20,20,0,0,1-4.22-5,10,10,0,0,1-1.26-5.68,17.11,17.11,0,0,1,2.37-7,55.68,55.68,0,0,1,6.89-9.24L1243,385Z"/><path class="cls-9" d="M1301.39,439.92a50.36,50.36,0,0,1,5.06-6.78,59.83,59.83,0,0,1,7.89-7.65q8.28-6.72,13.65-7.49t8.18,2.7l43.87,54a51.46,51.46,0,0,1-5.07,6.78,59.83,59.83,0,0,1-7.89,7.65c-5.51,4.48-10.07,7-13.64,7.49s-6.32-.39-8.19-2.7l-11.17-13.74L1236,559.86a27.85,27.85,0,0,1-4.74-3.24,34.68,34.68,0,0,1-5.32-5.23,20.12,20.12,0,0,1-3.33-5.62,10,10,0,0,1-.31-5.81,16.84,16.84,0,0,1,3.5-6.54,54.81,54.81,0,0,1,8.31-8l82.38-66.94Z"/><path class="cls-9" d="M1376.11,515.27q10-6.16,17.93-6.37c5.27-.13,9.11,1.74,11.52,5.64l27.65,44.79a47.87,47.87,0,0,1-5.71,5.87,58.7,58.7,0,0,1-8.38,6.2q-8.85,5.48-14,5.52t-7.37-3.6l-17.68-28.65L1358.46,558l18.86,30.54a47.48,47.48,0,0,1-5.59,5.79,57.1,57.1,0,0,1-8.27,6.14q-8.85,5.46-13.91,5.59t-7.33-3.54l-15.42-25-24.44,15.09,21.54,34.88a47.17,47.17,0,0,1-5.71,5.87,60.1,60.1,0,0,1-8.38,6.21q-8.85,5.46-14.07,5.59c-3.49.08-6-1.09-7.49-3.54L1263.78,602q-3.6-5.84.13-12.82t13.73-13.16Z"/><path class="cls-9" d="M1341.62,736.29a14.65,14.65,0,0,1-8.06-3.38,23.08,23.08,0,0,1-6.13-8.32,22.26,22.26,0,0,1-2-11.4q.51-6,9.52-13.92l43.47-37.6q6.68-5.74,12.7-10.65t14-11.08l-.65-.76q-13.12,6.81-27,13.33t-27.25,12.75l-38.46,17.87a28.12,28.12,0,0,1-3.74-4.16,32.29,32.29,0,0,1-3.74-6.09,21.47,21.47,0,0,1-1.87-6,8.35,8.35,0,0,1,1.09-5.43,18.64,18.64,0,0,1,4.94-5.28,51.86,51.86,0,0,1,9.64-5.54L1442.17,593a16.41,16.41,0,0,1,10.33,2.76,19.18,19.18,0,0,1,6.65,7.82,21.93,21.93,0,0,1,1.88,11.53q-.6,6.17-9.43,13.79l-43.39,37.75q-6.69,5.75-12.7,10.65t-14,11.08l.58.61q13.14-6.81,26.46-13.18t26.73-12.59l40.19-18.67a28.64,28.64,0,0,1,3.75,4.16,31.92,31.92,0,0,1,3.73,6.09q3,6.36.66,11.48t-14.46,10.76Z"/><circle id="mund" cx="962.5" cy="1006.5" r="27.5"/></g></svg>