<?xml version="1.0" encoding="utf-8"?>
<!-- Generator: Adobe Illustrator 25.2.1, SVG Export Plug-In . SVG Version: 6.00 Build 0)  -->
<svg version="1.1" id="Layer_1" xmlns="http://www.w3.org/2000/svg" xmlns:xlink="http://www.w3.org/1999/xlink" x="0px" y="0px"
	 viewBox="0 0 192 192" style="enable-background:new 0 0 192 192;" xml:space="preserve">
<style type="text/css">
	.st0{display:none;}
</style>
<g transform="translate(0.000000,192.000000) scale(0.100000,-0.100000)">
	<path d="M1018,1891c-24-8-72-31-107-53c-34-21-66-38-70-38c-14,0-100-94-129-140c-48-76-102-240-79-240c5,0,3-8-5-17
		c-8-10-18-27-20-38c-3-11-9-28-13-37c-4-11-3-18,4-18c6,0,11,7,11,15s5,15,10,15c7,0,7-7,0-21c-7-11-9-23-6-27c12-11,19,8,18,53
		c-1,29,3,48,12,51c8,3,11,15,9,28c-3,13,0,27,6,30c6,4,11,15,11,26c0,10,7,20,15,24c8,3,15,12,15,20s6,21,13,28
		c25,25,65,103,60,118c-4,12-3,12,5,2c7-10,17-4,42,27c17,23,52,55,76,71c25,18,41,36,38,43c-4,11,30,36,56,42c3,0,15,6,26,12
		c31,18,170,10,219-12c22-10,43-19,47-19c4-1,14-10,22-21c9-11,16-16,16-11s7,3,15-4s12-17,8-23c-3-5-1-7,4-4c6,4,13-3,16-14
		c3-12,10-18,16-15c5,4,13,1,16-5c13-21-4-21-34,1c-17,12-31,17-31,11s-7-11-15-11s-15-6-15-14c0-9,7-12,20-9c11,3,17,9,14,14
		c-13,21,15,7,29-15c11-16,23-22,39-20c19,3,30-7,61-56c21-33,42-73,47-88c4-16,13-39,19-51c15-27,7-27-18,1c-14,14-19,29-15,45
		c4,12,2,23-3,23c-9,0-41,48-42,63c0,10-45,47-50,41c-2-2,8-22,23-44c14-22,26-44,26-49c0-6,9-16,21-24c13-10,16-16,8-19s0-18,23-44
		c35-39,53-80,38-86c-4-2-2-30,5-63c11-49,14-54,15-27c2,17,3,38,3,45c3,35-14,138-28,172c-36,90-83,168-135,224
		c-64,70-160,131-205,131c-18,0-35,3-39,7C1144,1909,1062,1906,1018,1891z M860,1775c-7-9-15-13-17-11c-7,7,7,26,19,26
		C868,1790,868,1784,860,1775z M818,1736c-10-7-15-15-13-18c3-3-1-11-10-18c-13-11-15-9-12,9c3,22,23,41,42,41
		C831,1749,827,1743,818,1736z M753,1663c-4-10-11-21-17-25c-5-4-10-19-11-35c0-20-6-29-20-31c-20-4-20-4,0,12c11,8,15,16,8,16
		c-19,0,24,78,44,80C758,1680,756,1672,753,1663z M671,1517c-10-9-11-8-5,6c3,10,9,15,12,12S678,1524,671,1517z"/>
	<path d="M1620,1900c20-13,33-13,25,0c-3,6-14,10-23,10C1607,1910,1607,1908,1620,1900z"/>
	<path d="M1688,1903c7-3,16-2,19,1c4,3-2,6-13,5C1683,1909,1680,1906,1688,1903z"/>
	<path d="M1862,1903c24-3,38-10,40-21c3-13,5-12,10,6c6,21,3,22-40,20C1829,1907,1828,1906,1862,1903z"/>
	<path d="M972,1808c5-34,38-54,38-23c0,8-6,14-12,13c-7-2-12,5-10,15c2,9-2,17-8,17S970,1820,972,1808z"/>
	<path d="M1060,1792c0-19,18-42,32-42c4,0,8,7,8,15s-6,14-12,13c-7-2-12,5-12,15c1,9-2,17-7,17S1060,1802,1060,1792z"/>
	<path d="M1030,1789c0-5,5-7,10-4c6,3,10,8,10,11c0,2-4,4-10,4C1035,1800,1030,1795,1030,1789z"/>
	<path d="M1115,1790c3-5,8-10,11-10c2,0,4,5,4,10c0,6-5,10-11,10C1114,1800,1112,1796,1115,1790z"/>
	<path d="M945,1780c-3-5-1-10,4-10c6,0,11,5,11,10c0,6-2,10-4,10C953,1790,948,1786,945,1780z"/>
	<path d="M1180,1779c0-5,5-7,10-4c6,3,10,8,10,11c0,2-4,4-10,4C1185,1790,1180,1785,1180,1779z"/>
	<path d="M1246,1765c4-8,8-15,10-15s4,7,4,15s-4,15-10,15C1245,1780,1243,1773,1246,1765z"/>
	<path d="M1117,1746c-3-8-3-17,1-21s7-12,7-17c0-6,6-13,13-15c15-6,16,12,1,39c-9,16-8,19,2,13c8-5,10-4,5,3
		C1136,1764,1123,1763,1117,1746z"/>
	<path d="M1163,1753c4-3,1-13-6-21c-10-13-9-14,3-10c19,6,26,38,9,38C1162,1760,1160,1757,1163,1753z"/>
	<path d="M1205,1751c-2-5,4-11,15-14s20-2,20,3C1240,1752,1212,1761,1205,1751z"/>
	<path d="M1275,1730c3-5,8-10,11-10c2,0,4,5,4,10c0,6-5,10-11,10C1274,1740,1272,1736,1275,1730z"/>
	<path d="M906,1627c3-10,9-15,12-12s0,11-7,18C901,1642,900,1641,906,1627z"/>
	<path d="M780,1570c0-5,5-10,11-10c5,0,7,5,4,10c-3,6-8,10-11,10C782,1580,780,1576,780,1570z"/>
	<path d="M1115,1550c-3-6,1-7,9-4c18,7,21,14,7,14C1125,1560,1118,1556,1115,1550z"/>
	<path d="M1055,1540c-3-5-1-10,4-10c6,0,11,5,11,10c0,6-2,10-4,10C1063,1550,1058,1546,1055,1540z"/>
	<path d="M1300,1540c0-5,5-10,11-10c5,0,7,5,4,10c-3,6-8,10-11,10C1302,1550,1300,1546,1300,1540z"/>
	<path d="M348,1463c6-2,18-2,25,0c6,3,1,5-13,5S341,1466,348,1463z"/>
	<path d="M403,1463c9-2,25-2,35,0c9,3,1,5-18,5S393,1466,403,1463z"/>
	<path d="M960,1462c0-6-7-9-15-6c-19,8-19-3-1-21c12-12,16-12,27,1c9,11,9,18,1,26C963,1471,960,1471,960,1462z"/>
	<path d="M1000,1457c0-15,29-57,30-42c0,6-3,20-6,33C1017,1472,1000,1479,1000,1457z"/>
	<path d="M699,1443c-22-26-50-93-44-103c3-5,0-21-5-36c-6-16-7-31-2-36s14,17,22,54c6,34,21,79,31,100C722,1463,721,1470,699,1443z"
		/>
	<path d="M840,1446c0-4-6-6-14-3c-19,8-52-31-61-72c-5-26-4-32,6-29c8,3,15,10,15,16c1,7,2,17,3,23c0,5,5,8,10,4c5-3,12-1,16,5
		c3,5,1,10-4,10c-6,0-11,5-11,10c0,16,89,11,115-6c21-14,28-14,42-3c14,12,16,12,11-2c-4-10,6-23,29-39c32-22,35-27,30-62
		c-3-21-1-38,4-38s9,9,9,19c0,11,4,23,10,26c5,3,9,17,8,30s-6,21-11,18c-4-3-11,5-14,17c-4,13-8,17-13,11c-3-7-14-9-24-5
		c-13,5-14,9-5,20s8,14-2,15c-35,2-54,9-67,26C909,1455,840,1463,840,1446z"/>
	<path d="M1220,1446c0-8-4-16-9-18c-5-1-3-9,5-16c12-11,14-8,14,18c0,16-2,30-5,30S1220,1454,1220,1446z"/>
	<path d="M1510,1451c0-5,5-13,10-16c6-3,10-2,10,4c0,5-4,13-10,16C1515,1458,1510,1457,1510,1451z"/>
	<path d="M1080,1426c0-2,7-7,16-10c8-3,12-2,9,4C1099,1430,1080,1434,1080,1426z"/>
	<path d="M1265,1411c5-16,2-21-11-21c-14,0-15-3-6-12c8-8,15-8,27,2c10,9,15,9,15,1c0-7,9-9,23-6c35,9,88-19,108-56l18-34l1,36
		c0,41-36,84-63,73c-10-3-17-2-17,4c0,5-12,12-27,15c-16,3-39,8-52,13C1260,1432,1259,1430,1265,1411z"/>
	<path d="M1485,1403c1-16,7-53,13-83c11-51,18-120,21-212c0-21,6-38,11-38c7,0,9,26,4,78c-4,42-8,102-8,132c-1,30-7,65-14,77
		s-12,33-12,47s-4,26-9,26C1487,1430,1484,1418,1485,1403z"/>
	<path d="M1057,1399c7-9,10-19,6-22c-3-4-1-7,5-7c17,0,15,16-5,31C1047,1413,1046,1413,1057,1399z"/>
	<path d="M503,1383c9-2,23-2,30,0c6,3-1,5-18,5C499,1388,493,1386,503,1383z"/>
	<path d="M1100,1370c0-9,31-30,44-30c3,0,6,7,6,16c0,10-6,14-15,10c-8-3-15-1-15,4c0,6-4,10-10,10C1105,1380,1100,1376,1100,1370z"
		/>
	<path d="M1230,1360c0-5-7-10-15-10s-15-4-15-9s9-7,20-4c17,5,30,33,15,33C1232,1370,1230,1366,1230,1360z"/>
	<path d="M910,1350c8-5,23-10,32-10s19-4,23-9c3-5-19-3-49,6c-50,14-56,14-71-1c-25-25-78-50-97-47c-10,1-18-2-18-7s15-7,33-5
		c17,2,43,5,56,7s30,11,36,20c11,15,13,15,19,1c7-20,56-20,56,0c0,19,9,19,34,0c24-18,49-20,43-2c-2,6-9,11-15,10c-6-2-9,3-6,10
		c3,9-9,18-34,25C905,1362,890,1363,910,1350z"/>
	<path d="M1163,1333c-15-6-18-63-3-63c6,0,10,9,10,19c0,11,5,23,10,26C1203,1330,1189,1344,1163,1333z"/>
	<path d="M1210,1303c-11-8-20-18-20-24c0-17,29-9,44,12l14,21l4-23c2-18,10-25,31-27c19-2,27,1,27,12c0,22,21,20,26-1
		c6-21,76-58,96-50c9,4,8,6-3,6c-9,1-24,12-33,26s-22,23-28,19c-7-4-8-3-4,4C1385,1312,1254,1333,1210,1303z M1290,1290
		c0-5-2-10-4-10c-3,0-8,5-11,10c-3,6-1,10,4,10C1285,1300,1290,1296,1290,1290z"/>
	<path d="M15,1290c-3-5,9-16,27-23c18-8,96-49,172-91c77-42,143-76,147-76s9-7,13-15c3-8,13-15,22-15s36-13,60-30c62-41,84-52,84-41
		c0,5-54,41-120,81c-66,39-120,76-120,82s-3,9-6,5c-9-8-164,72-164,84c0,6-4,8-8,5c-5-3-22,3-38,13C42,1294,21,1300,15,1290z"/>
	<path d="M572,1185c2-63,0-115-4-115c-5,0-8-20-8-45c0-33,5-47,19-54c20-11,31-5,31,15c0,6-8,11-17,10c-15-1-17,6-15,34
		c1,19,4,69,6,110s9,88,15,104c9,21,9,32,0,42C575,1315,570,1296,572,1185z"/>
	<path d="M965,1280c7-11-22-19-90-22l-50-3l41-14c36-11,47-11,73,0c17,8,31,18,31,22c0,5,6,5,13,1c8-5,8-2-2,9
		C967,1291,955,1296,965,1280z"/>
	<path d="M1551,1230c1-55,1-55,9-15c4,22,4,47-1,55C1554,1280,1551,1265,1551,1230z"/>
	<path d="M1155,1247c-5-7-9-19-9-27c1-8,2-23,3-32c0-10,10-25,20-35c23-22,91-122,91-134c0-5,5-9,10-9c6,0,10-6,10-14s7-16,15-20
		c21-8,19,7-5,37c-11,14-20,32-20,41c0,8-10,22-22,30c-12,9-19,16-15,16c5,0-8,17-27,38c-40,41-54,85-36,107c7,8,9,15,4,15
		C1169,1259,1161,1254,1155,1247z"/>
	<path d="M616,1209c-4-22-4-44-1-50c4-5,2-9-3-9s-9-11-9-25c0-36,10-31,25,13c23,66,26,86,12,77c-10-6-12-3-8,13c4,12,3,22-2,22
		C626,1250,620,1232,616,1209z"/>
	<path d="M1240,1231c0-6,7-11,16-11c8,0,13-4,10-9c-3-4,19-9,50-10c64-1,65,14,2,22c-24,2-51,8-60,12C1247,1239,1240,1238,1240,1231
		z"/>
	<path d="M1015,1200c3-5,8-10,11-10c2,0,4,5,4,10c0,6-5,10-11,10C1014,1210,1012,1206,1015,1200z"/>
	<path d="M755,1190c-3-6,1-7,9-4c18,7,21,14,7,14C765,1200,758,1196,755,1190z"/>
	<path d="M1230,1192c0-15,49-52,55-42c4,6,1,10-4,10c-6,0-20,9-31,20S1230,1196,1230,1192z"/>
	<path d="M1037,1183c-10-9-9-23,1-23c5,0,9,7,9,15C1047,1192,1046,1193,1037,1183z"/>
	<path d="M978,1160c-7-11-20-20-28-20s-24-17-36-38c-11-21-26-36-35-34c-8,2-11,0-7-3c4-4-2-15-14-24c-11-10-19-23-17-29
		c5-15,99,75,99,94c0,8,5,14,10,14c6,0,10-6,10-13c0-8,12-24,26-38l26-24l-6,23c-4,12-5,22-1,22c13,0,65-31,65-39c0-5,11-11,24-13
		c17-4,23-1,19,8c-7,18,47,31,57,13c7-10,11-10,24,0c9,7,13,18,10,23c-4,6-10,5-15-3c-6-10-9-11-9-1c0,17-41,15-68-4
		c-22-15-25-15-47,6c-13,12-38,23-55,25c-43,3-47,11-21,45c12,17,17,30,11,30C995,1180,985,1171,978,1160z"/>
	<path d="M686,1155c4-8,8-15,10-15s4,7,4,15s-4,15-10,15C685,1170,683,1163,686,1155z"/>
	<path d="M1035,1120c3-5,8-10,11-10c2,0,4,5,4,10c0,6-5,10-11,10C1034,1130,1032,1126,1035,1120z"/>
	<path d="M1070,1114c0-11,29-34,34-26c2,4-4,13-15,20C1079,1115,1070,1118,1070,1114z"/>
	<path d="M1125,1110c-8-13,15-13,35,0c12,8,11,10-7,10C1141,1120,1128,1116,1125,1110z"/>
	<path d="M1300,1090c0-5,7-7,15-4c8,4,15,8,15,10s-7,4-15,4S1300,1096,1300,1090z"/>
	<path d="M1560,1008c0-99-7-116-45-102c-8,4-15,1-15-5c0-16,55-14,69,3c10,12,6,183-5,195C1562,1101,1560,1060,1560,1008z"/>
	<path d="M620,1070c0-5,5-10,10-10c6,0,10,5,10,10c0,6-4,10-10,10C625,1080,620,1076,620,1070z"/>
	<path d="M1355,1069c-4-6-5-12-2-15c2-3,7,2,10,11C1370,1082,1364,1085,1355,1069z"/>
	<path d="M730,1063c0-15,19-37,26-31c3,4-1,14-10,23S730,1068,730,1063z"/>
	<path d="M18,1054c-9-14,7-50,16-36c4,7,3,19-2,28S20,1059,18,1054z"/>
	<path d="M818,1053c7-3,16-2,19,1c4,3-2,6-13,5C813,1059,810,1056,818,1053z"/>
	<path d="M625,1040c3-5,8-10,11-10c2,0,4,5,4,10c0,6-5,10-11,10C624,1050,622,1046,625,1040z"/>
	<path d="M62,1016c13-14,28-12,28,5c0,5-9,9-20,9C53,1030,51,1028,62,1016z"/>
	<path d="M610,1026c0-11,30-39,36-34c2,3-5,13-16,23S610,1030,610,1026z"/>
	<path d="M94,999c-3-6-1-16,5-22c8-8,11-6,11,7c0,15,3,16,15,6c8-7,15-18,15-25c0-8,14-19,30-27c17-7,30-17,30-21c0-5,3-6,8-4
		c4,2,21-4,37-14c35-21,82-44,108-53c10-3,15-11,12-16c-4-6-3-10,2-9c17,4,63-13,57-22c-3-5,2-6,10-3c35,13,0,50-36,38
		c-20-6-21-5-9,10c7,9,12,17,10,17c-2,1-17,3-33,5c-16,1-37,12-48,24c-10,11-28,20-39,20c-13,0-18,4-13,13c5,7,1,6-10-3
		c-16-13-20-12-31,3c-7,9-19,17-28,17c-11,0-14,5-10,17c4,11,3,14-5,9c-7-4-24,4-39,18C112,1013,104,1015,94,999z"/>
	<path d="M720,1000c0-6,4-9,9-6c5,4,12-7,15-24c3-16,9-43,12-60c3-16,10-30,15-30s9-7,9-17c0-19,13-9,16,12c1,8-2,13-7,9
		c-13-8-11,10,4,25c10,11,9,13-3,9c-11-4-20,8-31,40C745,1000,720,1027,720,1000z"/>
	<path d="M1210,1000c0-4,9-10,20-13s20-2,20,3c0,4-9,10-20,13S1210,1005,1210,1000z"/>
	<path d="M1501,988c0-14-4-33-7-42s-2-16,4-16c15,0,19,21,11,55C1502,1015,1502,1015,1501,988z"/>
	<path d="M1000,976c0-4,10-11,23-16c21-8,21-9-5-9c-15-1-38-5-51-10c-14-6-28-7-32-3c-3,4,9,12,27,18c18,7,25,13,15,13
		c-24,1-86-34-104-58c-8-12-10-21-5-21c6,0,12,7,16,15c5,15,18,15,116-6c36-7,241-14,284-10c6,1,1,8-10,16c-14,11-15,14-4,15
		c8,0,2,7-14,15c-32,17-51,20-23,4c27-16,20-29-17-29c-39,0-134,39-101,41c11,1,0,5-25,9s-55,11-67,15C1010,979,1000,979,1000,976z
		 M1060,940c-12-8-9-10,12-10c33,0,83-18,75-27c-4-3-48,0-99,7c-61,9-85,16-72,21c10,4,29,5,40,2c12-2,25,0,28,6c4,6,13,11,19,11
		C1070,950,1069,946,1060,940z"/>
	<path d="M1165,970c3-5,8-10,11-10c2,0,4,5,4,10c0,6-5,10-11,10C1164,980,1162,976,1165,970z"/>
	<path d="M615,961c-3-6-6-59-5-119c0-124-1-143-10-137c-7,4-41-67-56-119c-8-28-16-32-114-58c-58-15-145-41-195-58s-112-35-140-40
		c-79-15-98-20-90-28c4-4,26-7,50-7c27,0,39,3,32,8s3,5,22,2c25-5,32-4,26,5s-2,9,15,0s21-9,15,0c-4,7-1,11,6,10c8-1,25,1,37,5
		c18,6,21,10,10,17c-9,7-4,8,15,3c17-3,26-2,23,3c-3,6,4,12,15,15c15,4,19,2,15-9c-8-20-1-18,30,11c15,14,32,25,38,25s4-5-4-10
		s-10-10-4-10c5,0,19,7,30,15c22,17,38,20,29,5c-3-5-1-10,5-10s13,7,16,15c4,8,10,15,15,15c4,0,6-6,3-13c-3-8,2-14,10-14
		c9,0,13,8,10,20c-3,16,1,18,22,13c17-5,23-3,19,4c-3,5,1,10,9,10c9,0,16-4,16-9s6-16,14-23c7-8,23-33,35-56s25-42,30-42
		s12-11,15-24s9-32,13-42c4-11,3-15-5-10c-8,4-8-3-2-25c13-45,23-51,17-9c-4,21,2,11,14-25c10-32,22-73,25-89c3-17,14-50,25-75
		c10-24,21-55,24-69c5-29,15-42,15-19c0,9-9,41-21,71c-11,30-31,92-43,138c-13,46-27,92-31,103c-5,13,1,9,16-10c13-16,23-34,21-39
		c-2-4,4-6,13-3c11,5,15,0,15-17c0-13,12-64,26-112c15-49,30-102,34-119c8-29,8-29,9-4c1,14-8,52-19,84c-21,62-27,101-11,76
		c7-11,9-11,13,0c3,8,14-15,25-51s16-67,12-68c-5-2-9-8-9-13c0-6,5-7,10-4c6,4,11-6,11-22c2-23,2-24,6-6c2,13,10,23,16,23
		c9,0,9,2,1,8c-11,6-65,152-57,152c2,0,11-8,21-18c24-24,40-65,51-132l10-55l-3,59c-3,58-3,58,15,35c10-13,19-33,19-44s5-27,11-35
		c8-11,9-6,4,20s-4,31,4,20c9-13,11-13,11,3c0,9-3,17-8,17c-4,0-13,9-20,21c-12,19-11,19,7,9c18-9,48-50,43-57c-6-9,0-43,7-43
		c12,0-7,84-20,88c-5,2-9,8-9,13c0,4,7,6,16,2c14-5,16-1,12,20c-11,56,11,14,27-53c9-38,18-70,20-70c1,0,5,9,8,20s1,18-4,14
		c-5-3-9,5-9,18c-1,13-7,40-14,60c-13,37-2,56,11,21c4-10,13-24,20-31s13-25,14-40c0-15,5-36,10-47c6-14,7-4,3,29c-6,47-6,48,15,37
		c11-7,21-17,21-23c0-7,9-2,20,10c26,28,33,28,25,0c-4-17-1-15,12,7c9,17,16,33,15,38c-1,4,3,7,8,7c13,0,13-27,0-35
		c-15-9-12-45,4-45c8,0,17-8,19-18c3-10,5-7,6,10c1,20-3,26-14,22c-9-4-15,0-15,10c0,9,6,15,13,13c10-2,12,17,4,43c-1,3,3,6,8,8
		c6,2,14-14,18-35c5-21,13-51,18-68c8-28,8-28,4,8c-4,41,18,54,30,16c6-19,9-19,22-7c13,13,12,20-6,52c-20,36-31,77-12,48
		c6-10,13-3,24,25c14,35,87,118,87,99c0-5,12-1,26,9c22,14,28,15,36,4c5-9,6-4,2,14c-3,15-2,27,2,27c12-1,50-30,39-30
		c-5,0,0-6,10-14c11-8,23-12,27-9c5,2,11-3,14-11c3-9,10-16,16-16c5,0,6,5,3,11c-4,6,12,1,35-11s39-24,36-28c-4-3-12,0-18,6
		c-14,14-28,16-28,5c0-14,49-32,53-20c5,16,119-43,125-65c2-10,8-15,13-12s9,0,9-5c0-6,8-11,18-11s23-10,28-22c6-13,9-17,7-11
		c-2,10,2,10,16,1c11-6,17-17,14-25c-3-7-10-10-15-7c-6,4-4-4,2-17c17-33,24-38,16-12c-10,31,9,37,23,6c6-14,14-23,18-20
		c13,14-46,90-101,131c-33,24-114,72-181,106c-66,34-135,74-153,89c-30,25-32,28-21,64c9,33,7,45-15,95c-22,48-23,53-6,33
		c26-30,26-15-1,28c-13,21-24,30-30,24c-13-13-50-146-44-160c9-26,27-13,23,17c-3,17-1,33,4,36c4,3,8,16,8,30c0,13,5,24,11,24
		s8-7,5-16c-3-8-2-12,4-9c6,4,8-10,4-37c-3-24-1-62,5-85c14-51,0-102-23-81c-7,7-11,19-8,27c8,20-57-19-70-42c-5-10-19-22-31-27
		c-16-6-18-9-5-9c9-1,30,11,47,25s31,20,31,14c0-14-40-49-57-50c-8,0-10-7-6-17c6-16,5-16-10-4c-9,7-17,10-17,6s-7-2-15,5
		c-11,9-13,15-5,20c7,4-1,12-19,20c-17,7-31,18-31,24s-7,3-14-7c-10-12-11-28-6-53c8-34,6-39-38-80c-26-24-41-44-34-44s10-5,6-11
		c-4-8-9-8-17,0c-6,6-18,11-26,11c-22,0-50,30-44,46c3,8,11,14,19,14c10,0,14,12,14,40c0,29-4,40-15,40c-8,0-15,5-15,11
		c0,5,5,7,12,3s8-3,4,5c-10,15-31,9-31-10c0-18-37-18-43,0c-3,8,0,11,7,7c6-4,11-2,11,3c0,6-4,11-10,11c-10,0-9,27,1,45
		c4,6,9,22,12,36c6,21,0,31-31,55c-20,16-51,43-68,60c-17,18-48,41-70,52c-54,28-149,119-173,167c-19,35-19,41-6,62c9,13,12,23,7,23
		c-10,0-10,153,0,160c3,3,0,13-7,23C627,965,620,967,615,961z M620,662c0-10,11-34,25-55c14-20,23-37,19-37s1-9,11-20s13-20,7-20
		s-19,11-30,25c-16,21-21,22-26,9c-3-8-10-13-15-9c-6,3-7,13-4,22c4,10,2,14-4,10c-13-8-24,18-17,38c4,8,11,12,18,8c8-4,8-3,0,6
		c-13,14-7,54,7,45C616,681,620,671,620,662z M764,524c64-65,116-122,116-128s-20,10-45,34s-45,40-45,36c0-5-9-1-20,9s-17,21-15,26
		c3,4-5,18-17,31c-13,13-17,16-9,6s12-21,8-24c-3-3-15,8-28,25c-12,17-27,27-32,24c-6-3-7-2-4,4c4,5-5,25-18,43c-14,19-25,43-24,54
		c0,21,0,21,9,0C645,652,701,589,764,524z M614,526c38-68,43-81,24-70c-7,4-8,3-4-5c4-6,11-9,16-6s12,0,16-6c4-8,3-9-4-5
		c-18,11-14-2,10-34c11-16,25-27,29-24c4,2,11-1,15-7c5-8,3-9-7-4c-8,5-3-4,10-18c35-39,11-33-26,6c-66,69-147,206-137,231
		C565,607,574,597,614,526z M661,533c22-24,22-26,4-20c-19,7-19,7-1-8c10-8,23-12,28-9s15,0,23-6c8-7,15-9,15-4c0,4,14-5,30-21
		c18-18,30-23,30-15s18-3,40-25c22-21,40-44,40-49c0-6-13,4-29,22c-17,17-33,32-37,32s2-10,14-23s19-27,15-32c-5-4-3-5,3-2
		c7,4,30-13,53-38c32-35,40-40,37-22c-2,12-8,21-14,20c-5-1-18,7-27,17c-10,11-13,20-7,20s14-5,17-10c4-6,10-8,15-5
		c13,8,35-26,32-50c-2-13,1-26,7-29c7-4,7-15,1-31c-7-19-6-23,5-18c17,6,19-10,5-38c-7-13-7-19,0-19c5,0,10-5,10-10c0-6-6-9-12-8
		c-7,2-12-5-12-14c2-20-21-30-55-23c-28,5-53,25-32,25c7,0,9,5,6,10c-4,6-11,7-17,4c-6-4-8-2-5,3c4,6-5,18-18,27c-14,10-23,22-19,28
		s3,8-3,5c-11-7-68,32-60,39c9,10-82,96-94,89c-7-5-10-3-7,6c2,7-20,51-49,97c-30,45-53,87-51,93c2,7,21-18,42-53
		c53-91,98-144,187-219c43-35,75-68,72-73c-4-5-1-6,4-3c15,9,31-14,28-41c-1-13,2-25,6-27c4-3,6,6,5,19c-3,22,0,24,24,21
		c30-4,32,5,12,41c-6,12-8,25-4,29c4,3,3,5-3,3c-16-5-58,29-51,41c4,6,1,9-7,5c-8-3-20,2-27,11c-7,8-17,15-22,15c-6,0-5-7,2-15
		c14-17,0-21-17-4c-9,9-8,15,0,24c10,10,17,10,40-2c26-13,28-13,19,4c-5,10-7,24-5,31c3,6,0,12-6,12s-10-5-8-11c1-6-4-14-11-16
		c-9-4-11,4-7,27c4,25,3,31-8,27c-8-3-29,7-47,23c-20,17-27,29-20,32c8,2,1,11-16,23l-29,18l19-21c28-32,11-27-35,10
		c-23,18-37,38-34,45c2,8-2,16-10,19c-8,4-12,10-9,15C633,563,634,563,661,533z M720,515c20-24,6-28-15-5c-10,11-13,20-8,20
		C703,530,713,523,720,515z M942,391c31-18,35-25,25-36s-22-4-70,43c-32,31-68,71-79,87c-15,21-4,14,33-21C881,436,922,403,942,391z
		 M753,398c32-27,53-48,46-48s-10-3-6-6c3-4-1-13-9-21c-13-14-13-18,2-35c10-10,24-16,33-13c19,8,116-86,99-96
		c-17-11-182,126-172,143c3,5-2,16-12,23c-15,11-16,15-4,15c9,1,2,12-19,30c-19,16-32,33-28,36c4,4-1,17-10,28c-18,20-17,20,2,6
		C686,452,721,424,753,398z M1430,423c0-43-9-39-15,6c-2,17,0,31,5,31C1426,460,1430,444,1430,423z M905,379c11-17-1-21-15-4
		c-8,9-8,15-2,15S902,385,905,379z M1215,250c17,0,13-43-6-67c-8-10-26-28-42-41c-15-13-25-27-23-31c3-4-5-8-16-8c-18-2-15,4,17,37
		c39,40,52,84,32,109c-10,12-9,14,6,8C1193,253,1208,250,1215,250z M754,224c20-19,20-31,1-31c-8,0-15,4-15,8s-3,14-6,23
		C726,244,734,244,754,224z M1037,215c0-8-4-15-7-15c-12,0-30,26-24,33C1016,243,1037,230,1037,215z M1040,177c0-5-5-5-10-2
		c-6,3-13-1-16-10c-6-15-8-15-24,0c-10,9-16,24-13,35c5,17,6,17,34,2C1027,192,1040,181,1040,177z M1250,198c0-9,4-8,11,2
		c8,12,9,10,7-9c-3-28-28-41-28-15c0,9-3,15-6,12s1-31,9-61c14-52,14-54-4-50c-26,7-34,47-20,94C1230,208,1250,225,1250,198z
		 M1280,60c0-5-5-10-11-10c-5,0-7,5-4,10c3,6,8,10,11,10C1278,70,1280,66,1280,60z"/>
	<path d="M760,496c0-2,7-9,15-16c13-11,14-10,9,4S760,507,760,496z"/>
	<path d="M580,540c6-11,13-20,16-20c2,0,0,9-6,20s-13,20-16,20C572,560,574,551,580,540z"/>
	<path d="M743,464c9-11,15-23,12-26s5-12,18-20c21-14,23-14,23,3c0,10-2,16-5,13c-3-2-18,8-35,23C739,473,733,476,743,464z"/>
	<path d="M860,325c7-8,17-15,22-15c6,0,5,7-2,15s-17,15-22,15C852,340,853,333,860,325z"/>
	<path d="M880,297c0-16,21-47,33-47c8,0,9,3,1,8c-6,4-16,16-22,27S880,301,880,297z"/>
	<path d="M690,427c0-2,11-13,25-25s25-18,25-13s-11,16-25,25S690,429,690,427z"/>
	<path d="M754,371c4-6,2-11-5-11c-8,0-8-4,1-15c7-8,17-15,22-15c6,0,4,8-3,17c-12,15-12,16,4,10c24-9,21,0-4,14
		C754,379,750,379,754,371z"/>
	<path d="M835,250c10-11,20-20,23-20s-3,9-13,20s-20,20-23,20S825,261,835,250z"/>
	<path d="M885,210c10-11,20-20,23-20s-3,9-13,20s-20,20-23,20S875,221,885,210z"/>
	<path d="M1170,930c20-13,33-13,25,0c-3,6-14,10-23,10C1157,940,1157,938,1170,930z"/>
	<path d="M1397,914c-4-4-7-14-7-23c0-11,3-12,11-4c6,6,10,16,7,23C1406,916,1401,918,1397,914z"/>
	<path d="M1039,850c25-22,48-25,71-10c16,11,9,13-32,10c-14-1-29,3-33,9c-3,6-12,11-18,11C1020,869,1026,860,1039,850z"/>
	<path d="M945,850c3-5,8-10,11-10c2,0,4,5,4,10c0,6-5,10-11,10C944,860,942,856,945,850z"/>
	<path d="M1210,850c0-5,5-10,11-10c5,0,7,5,4,10c-3,6-8,10-11,10C1212,860,1210,856,1210,850z"/>
	<path d="M995,840c9-14,81-50,100-50c8,0,15,4,15,10c0,5-7,6-17,3c-12-5-14-3-8,7c5,8,4,11-3,6c-12-7-62,13-62,26c0,4-7,8-16,8
		C996,850,992,845,995,840z"/>
	<path d="M1440,830c0-5,5-10,10-10c6,0,10,5,10,10c0,6-4,10-10,10C1445,840,1440,836,1440,830z"/>
	<path d="M1345,820c3-5,8-10,11-10c2,0,4,5,4,10c0,6-5,10-11,10C1344,830,1342,826,1345,820z"/>
	<path d="M454,799c-7-12,15-31,28-23c4,3,8,1,8-4c0-9,31-23,55-26c6-1,14-7,18-14c10-16,27-6,27,15c0,9-3,14-6,11c-3-4-30,7-61,23
		C460,814,463,813,454,799z"/>
	<path d="M854,786c-9-20-9-26,3-30c23-9,29-7,13,5c-11,8-12,12-2,16c13,5,17,33,5,33C868,810,860,799,854,786z"/>
	<path d="M570,780c0-5,5-10,10-10c6,0,10,5,10,10c0,6-4,10-10,10C575,790,570,786,570,780z"/>
	<path d="M1120,751c0-6,4-12,8-15c5-3,9,1,9,9s-4,15-9,15C1124,760,1120,756,1120,751z"/>
	<path d="M1896,752c-2-4-1-14,5-22c7-12,9-10,9,8C1910,761,1905,766,1896,752z"/>
	<path d="M1001,741c-7-5-12-14-10-20s10-2,17,9C1022,752,1021,753,1001,741z"/>
	<path d="M1156,735c4-8,11-15,16-15c6,0,5,6-2,15c-7,8-14,15-16,15S1153,743,1156,735z"/>
	<path d="M911,704c0-11,3-14,6-6c3,7,2,16-1,19C913,721,910,715,911,704z"/>
	<path d="M1180,700c-13-11-19-20-13-20c5,0,18,9,28,20s16,20,13,20S1193,711,1180,700z"/>
	<path d="M872,666c13-28,32-49,52-59c52-24,145-40,199-32c72,9,103,28,140,87c21,34,22,44,2,28c-8-7-15-18-15-24c0-15-62-68-86-73
		c-51-11-143-5-191,12c-29,10-53,23-53,27s-5,7-12,6c-7-2-12,2-13,9c0,6-3,15-7,19c-5,4-8,16-8,26s-7,18-15,18
		C853,710,854,702,872,666z"/>
	<path d="M1050,694c0-17,22-14,28,4c2,7-3,12-12,12S1050,703,1050,694z"/>
	<path d="M1320,690c0-5,5-10,11-10c5,0,7,5,4,10c-3,6-8,10-11,10C1322,700,1320,696,1320,690z"/>
	<path d="M1407,646c-15-31-23-56-19-56c11,0,54,88,50,101C1436,696,1422,676,1407,646z"/>
	<path d="M1008,683c7-3,16-2,19,1c4,3-2,6-13,5C1003,689,1000,686,1008,683z"/>
	<path d="M1128,673c-16-4-34-33-20-33c10,1,46,29,41,33C1147,675,1138,675,1128,673z"/>
	<path d="M1899,658c-5-16-3-58,3-58c4,0,8,14,8,30c0,17-2,30-5,30S1900,659,1899,658z"/>
	<path d="M390,445c-19-14-29-25-23-25c7,0,14,4,18,10c3,5,12,7,19,4c8-3,31,4,53,16c36,20,32,22-11,4c-14-5-17-4-12,4
		C445,477,428,471,390,445z"/>
	<path d="M533,463c9-2,17-9,17-14c0-6-4-7-10-4s-7-1-3-10c4-12,8-13,13-5c8,13,38-66,74-195c30-107,71-223,81-233c5-4,5-1,1,6
		s-2,12,6,12s9,3,2,8c-26,18-118,319-106,350c3,10,1,13-6,8c-7-4-19,11-31,39c-14,31-26,45-38,44C516,468,516,467,533,463z"/>
	<path d="M453,430c-24-10-43-25-43-32c0-10,2-10,9,1s12,4,20-25c15-53,12-67-4-24c-7,19-14,28-14,20c-1-20,59-213,64-208
		c3,2-4,33-15,69c-37,120-19,84,31-61C562-10,559-4,565,2c3,3-4,31-15,63c-27,78-19,82,10,5c12-33,26-63,30-65c4-3-4,27-18,65
		c-15,39-32,70-38,70s-28,55-48,123c-51,166-50,161-37,153c6-4,11-1,11,6c1,25,28-38,44-103C531,208,608-6,617,4c2,2-7,30-20,62
		c-13,33-37,102-52,154s-35,120-46,150c-14,41-15,56-6,62c6,4,15,4,19,0c3-4,23-63,43-132C602,137,659-19,660,13c0,10-11,43-24,75
		c-13,31-38,109-56,172c-40,141-59,190-74,190C500,450,476,441,453,430z"/>
	<path d="M1477,423c-4-7,1-17,12-22c25-14,31-14,31-1c0,6-6,10-14,10s-16,5-18,12C1485,431,1482,431,1477,423z"/>
	<path d="M215,410c-4-6,1-7,11-3c11,4,15,2,11-4s0-13,8-17c16-6,16,14,0,26C231,422,222,422,215,410z"/>
	<path d="M500,414c0-15,33-104,37-100c5,5-26,106-33,106C502,420,500,417,500,414z"/>
	<path d="M290,400c-9-6-10-10-3-10c6,0,15,5,18,10C313,412,309,412,290,400z"/>
	<path d="M329,403c-1-5-1-12,0-16s-5-10-12-13c-11-4-9-25,14-107C368,130,411-3,417,3c2,3-16,70-41,148c-44,144-66,237-47,210
		c7-11,10-10,14,5c3,10,4-3,2-31c-3-40-2-44,4-20c5,17,9,22,10,12c0-10,12-51,25-90c13-40,34-106,46-147s27-79,33-85c7-7,8-5,5,5
		c-39,118-49,152-46,162c2,6,17-31,34-82c16-52,30-87,31-79c2,7-15,66-37,129s-38,99-35,80l5-35l-14,30c-8,17-22,61-32,99
		c-14,57-15,70-3,77c11,7,17-3,27-39c26-93,104-327,113-342c13-18,17-32-50,174c-28,87-51,165-51,175c0,9-6,26-14,37
		c-12,15-17,17-27,7c-15-15-43-17-34-3c3,6,4,10,1,10S329,407,329,403z"/>
	<path d="M1370,375c-10-24-13-27-19-13c-5,14-9,12-24-13c-17-30-17-31,0-24c10,4,28,10,40,12c26,6,37,28,24,51
		C1383,403,1380,401,1370,375z"/>
	<path d="M30,375c-14-8-20-14-14-15c5,0,19,7,30,15C70,393,62,394,30,375z"/>
	<path d="M126,381c-3-4,6-6,19-3c14,2,25,6,25,8C170,394,131,390,126,381z"/>
	<path d="M185,370c-3-5-1-10,4-10c6,0,11,5,11,10c0,6-2,10-4,10C193,380,188,376,185,370z"/>
	<path d="M248,368c-32-11-34-22-13-101c20-77,17-85-5-17c-11,30-19,46-19,35c1-30,25-90,36-88c9,2,25-44,54-151c7-28,14-45,16-40
		c2,6-13,66-33,135c-53,180-57,201-42,210c18,11,28,1,27-29c0-26-1-26-9-4c-12,29-18,28-12-3c2-14,9-25,16-25c16,0,51-125,51-182
		c0-26,6-53,13-60c10-10,10-6,1,20c-6,17-9,37-7,44c2,6,12-16,22-51s20-61,22-58c3,3-2,29-11,59c-28,92-62,212-69,243
		c-4,17-9,38-13,49c-3,12-1,16,6,12c6-4,11-2,11,3C290,382,284,382,248,368z"/>
	<path d="M36,348c-21-10-36-21-33-24c4-4,73,29,86,42C99,375,72,366,36,348z"/>
	<path d="M471,354c0-11,3-14,6-6c3,7,2,16-1,19C473,371,470,365,471,354z"/>
	<path d="M150,350c0-5,4-10,10-10c5,0,7-15,5-32c-4-25-3-27,3-9s17-13,52-138C245,73,268,0,272,0s5,6,3,13c-2,6-22,77-45,157
		s-46,155-52,168C166,361,150,368,150,350z"/>
	<path d="M571,344c0-11,3-14,6-6c3,7,2,16-1,19C573,361,570,355,571,344z"/>
	<path d="M108,343c10-4,9-8-3-17c-15-11-13-25,20-156C165,8,169-5,175,1c2,3-14,74-35,159c-29,113-36,156-28,161c18,11,28,1,28-27
		c0-14-4-23-9-20c-4,3-6-7-2-22l5-27l4,25c3,17,13-6,33-75c16-55,29-105,29-112c0-18,20-66,25-61c3,3-13,69-35,147s-40,148-40,155
		c0,18-27,46-43,45C99,349,99,347,108,343z"/>
	<path d="M291,334c0-11,3-14,6-6c3,7,2,16-1,19C293,351,290,345,291,334z"/>
	<path d="M45,316c-22-13-39-28-39-32C14,226,65,13,73,5c6-7,7-3,4,10c-3,11-15,63-27,115c-11,52-24,109-29,127c-7,25-5,33,7,38
		c8,3,16,4,17,3c1-2,17-66,35-143S116,11,122,5s7-1,3,15c-3,14-21,85-39,157L53,310l21,14C106,347,90,342,45,316z"/>
	<path d="M201,324c0-11,3-14,6-6c3,7,2,16-1,19C203,341,200,335,201,324z"/>
	<path d="M481,320c0-8,4-24,9-35c5-13,9-14,9-5c0,8-4,24-9,35C485,328,481,329,481,320z"/>
	<path d="M1272,312c-13-13-25-16-38-11c-11,5-13,8-5,8c8,1,12,4,8,7c-3,3-13,2-22-3c-14-8-13-11,12-21c53-20,73-24,73-12
		c0,6-4,9-9,5c-19-11-23,17-5,30c11,8,16,15,12,15C1293,330,1282,322,1272,312z"/>
	<path d="M72,300c0-8,4-26,8-40c6-20,8-21,8-5c0,11-3,29-8,40C75,307,72,309,72,300z"/>
	<path d="M301,294c0-11,3-14,6-6c3,7,2,16-1,19C303,311,300,305,301,294z"/>
	<path d="M980,300c8-5,11-10,6-10c-6,0-5-5,1-11c8-8,16-8,30,0c17,10,17,10,1,11c-10,0-18,5-18,10c0,6-8,10-17,10
		C968,310,967,308,980,300z"/>
	<path d="M553,230c11-39,22-68,24-66c6,6-30,136-38,136C535,300,541,268,553,230z"/>
	<path d="M592,275c0-11,3-29,8-40c11-25,11,1,0,35C594,290,592,291,592,275z"/>
	<path d="M261,264c0-11,3-14,6-6c3,7,2,16-1,19C263,281,260,275,261,264z"/>
	<path d="M311,254c0-11,3-14,6-6c3,7,2,16-1,19C313,271,310,265,311,254z"/>
	<path d="M41,234c0-11,3-14,6-6c3,7,2,16-1,19C43,251,40,245,41,234z"/>
	<path d="M665,174c13-42,27-79,31-82c4-4,4,0,1,8s-13,45-23,83c-10,37-22,67-25,67C645,250,652,216,665,174z"/>
	<path d="M1385,240c-4-6-10-8-14-6c-12,8-101-97-101-118c0-20,33,0,61,37c20,25,24,34,11,23c-12-11-22-15-22-9c0,14,35,44,43,37
		c3-3,11,3,19,15c12,20,13,20,30-12l18-32l-6,30C1414,251,1400,264,1385,240z M1310,135c-7-9-15-13-18-10c-3,2,1,11,8,20
		s15,13,18,10C1321,153,1317,144,1310,135z"/>
	<path d="M90,226c0-21,54-228,57-219c2,6-8,57-23,114C100,215,90,246,90,226z"/>
	<path d="M186,205c14-57,43-139,43-124c1,18-39,149-45,149C182,230,182,219,186,205z"/>
	<path d="M326,205c11-48,25-76,18-35c-4,19-10,42-15,50C323,230,322,225,326,205z"/>
	<path d="M1540,211c0-6,4-13,10-16s7,1,4,9C1547,222,1540,225,1540,211z"/>
	<path d="M1,194c0-11,3-14,6-6c3,7,2,16-1,19C3,211,0,205,1,194z"/>
	<path d="M47,190c3-11,7-20,9-20s4,9,4,20s-4,20-9,20S44,201,47,190z"/>
	<path d="M141,205c1-19,18-51,18-35c0,8-4,22-9,30S141,211,141,205z"/>
	<path d="M611,200c0-8,4-22,9-30c12-18,12-2,0,25C614,208,611,210,611,200z"/>
	<path d="M1348,150c-47-58-58-77-38-65c6,3,10,2,10-4c0-5-4-13-10-16c-5-3-10-12-9-18c0-9,2-8,6,1c7,18,23,4,24-21c1-20,2-20,8,3
		c4,14,4,27,0,30c-11,8-13,33-5,53c11,23,26,22,26-4c0-11-4-17-10-14c-5,3-10,1-10-4c0-6,4-11,8-11c5,0,13-17,19-37
		c11-38,11-38,7,12c-3,28-8,63-11,79c-4,21-2,27,7,21s11-4,5,5c-6,10-4,12,7,7c12-4,15,1,14,19c0,13-1,24-1,24S1374,183,1348,150z"
		/>
	<path d="M711,184c0-11,3-14,6-6c3,7,2,16-1,19C713,201,710,195,711,184z"/>
	<path d="M1521,195c1-19,18-51,18-35c0,8-4,22-9,30S1521,201,1521,195z"/>
	<path d="M1580,191c0-6,4-13,10-16s7,1,4,9C1587,202,1580,205,1580,191z"/>
	<path d="M381,180c0-8,4-22,9-30c12-18,12-2,0,25C384,188,381,190,381,180z"/>
	<path d="M1471,180c0-8,4-24,9-35c5-13,9-14,9-5c0,8-4,24-9,35C1475,188,1471,189,1471,180z"/>
	<path d="M1650,167c11-12,29-33,41-47c25-28,23-20-6,27c-11,18-28,34-38,37C1631,188,1632,186,1650,167z"/>
	<path d="M291,170c0-8,4-22,9-30c12-18,12-2,0,25C294,178,291,180,291,170z"/>
	<path d="M1794,168c-3-4,1-8,8-9c7,0,32-1,55-3c36-2,88,11,58,15C1874,176,1798,174,1794,168z"/>
	<path d="M12,145c0-16,2-22,5-12c2,9,2,23,0,30C14,169,12,162,12,145z"/>
	<path d="M1415,159c4-6,9-27,11-47s8-53,13-72c8-30,9-28,6,21c-4,55-19,109-30,109C1411,170,1412,165,1415,159z"/>
	<path d="M1690,161c0-5,5-13,10-16c6-3,10-2,10,4c0,5-4,13-10,16C1695,168,1690,167,1690,161z"/>
	<path d="M61,144c0-11,3-14,6-6c3,7,2,16-1,19C63,161,60,155,61,144z"/>
	<path d="M721,150c0-17,38-110,38-95c1,6-8,33-19,60C730,143,721,158,721,150z"/>
	<path d="M778,115c9-24,18-43,19-41c6,6-21,86-29,86C764,160,768,140,778,115z"/>
	<path d="M1591,144c0-11,3-14,6-6c3,7,2,16-1,19C1593,161,1590,155,1591,144z"/>
	<path d="M167,115c3-22,9-49,14-60c8-20,8-20,8,0c0,11-7,38-14,60l-14,40L167,115z"/>
	<path d="M1032,133c2-10,13-18,26-19c27-2,29,12,3,26C1034,154,1028,153,1032,133z"/>
	<path d="M1640,143c0-7,5-15,11-18c6-4,8-14,5-22s-2-12,3-9c15,9,34-23,33-54c0-17,3-30,7-30c18,0-1,64-29,103
		C1654,136,1640,149,1640,143z"/>
	<path d="M1720,135c0-8,4-15,10-15c5,0,7,7,4,15c-4,8-8,15-10,15S1720,143,1720,135z"/>
	<path d="M401,114c0-11,3-14,6-6c3,7,2,16-1,19C403,131,400,125,401,114z"/>
	<path d="M1456,117c3-10,9-15,12-12s0,11-7,18C1451,132,1450,131,1456,117z"/>
	<path d="M1516,117c3-10,9-15,12-12s0,11-7,18C1511,132,1510,131,1516,117z"/>
	<path d="M1626,117c3-10,9-15,12-12s0,11-7,18C1621,132,1620,131,1626,117z"/>
	<path d="M73,80c6-22,13-38,15-36c6,7-10,76-18,76C66,120,68,102,73,80z"/>
	<path d="M501,110c0-8,4-22,9-30c12-18,12-2,0,25C504,118,501,120,501,110z"/>
	<path d="M591,120c-1-3,10-32,24-65c13-33,25-53,25-45C640,24,592,131,591,120z"/>
	<path d="M1600,112c0-5,9-17,20-27s20-15,20-12c0,4-9,16-20,27S1600,116,1600,112z"/>
	<path d="M6,65C9,38,16,11,21,6C32-6,32-7,15,60L0,115L6,65z"/>
	<path d="M831,94c0-11,3-14,6-6c3,7,2,16-1,19C833,111,830,105,831,94z"/>
	<path d="M1590,80c6-11,16-20,22-20s3,9-7,20s-20,20-22,20S1584,91,1590,80z"/>
	<path d="M1780,93c5-2,8-8,6-12c-3-4,0-13,5-21c8-12,9-9,7,9c-2,14-9,26-16,27S1774,96,1780,93z"/>
	<path d="M1464,70c0-11,4-20,8-20s8-9,8-20s4-20,9-20c6,0,6,13-1,33C1474,84,1464,95,1464,70z"/>
	<path d="M1502,80c0-8,6-31,13-50c9-23,14-28,14-15c0,11-6,34-14,50C1508,82,1502,88,1502,80z"/>
	<path d="M1530,85c0-5,5-17,10-25s10-10,10-5c0,6-5,17-10,25S1530,91,1530,85z"/>
	<path d="M1560,89c0-2,7-22,15-44c11-32,14-35,14-15c0,14-6,34-14,44C1567,85,1560,92,1560,89z"/>
	<path d="M1710,81c0-6,4-13,10-16s7,1,4,9C1717,92,1710,95,1710,81z"/>
	<path d="M32,65c0-11,4-31,8-45c6-20,8-21,8-5c0,11-4,31-8,45C34,80,32,81,32,65z"/>
	<path d="M1398,55c2-15,11-25,21-24c10,0,11,2,4,6c-7,2-13,13-13,24c0,10-4,19-9,19C1397,80,1395,69,1398,55z"/>
	<path d="M1890,61c0-5,7-14,15-21c13-10,15-9,15,9c0,12-6,21-15,21C1897,70,1890,66,1890,61z"/>
	<path d="M231,44c0-11,3-14,6-6c3,7,2,16-1,19C233,61,230,55,231,44z"/>
	<path d="M521,50c0-8,4-22,9-30c12-18,12-2,0,25C524,58,521,60,521,50z"/>
	<path d="M881,44c0-11,3-14,6-6c3,7,2,16-1,19C883,61,880,55,881,44z"/>
	<path d="M1635,50c3-5,8-10,11-10c2,0,4,5,4,10c0,6-5,10-11,10C1634,60,1632,56,1635,50z"/>
	<path d="M281,40c0-8,4-22,9-30c12-18,12-2,0,25C284,48,281,50,281,40z"/>
	<path d="M1100,36c0-7,11-18,25-24c19-9,25-9,25,1c0,6-11,17-25,24C1106,46,1100,45,1100,36z"/>
	<path d="M381,24c0-11,3-14,6-6c3,7,2,16-1,19C383,41,380,35,381,24z"/>
	<path d="M1060,30c0-5,5-10,11-10c5,0,7,5,4,10c-3,6-8,10-11,10C1062,40,1060,36,1060,30z"/>
	<path d="M1551,24c0-11,3-14,6-6c3,7,2,16-1,19C1553,41,1550,35,1551,24z"/>
	<path d="M1611,24c0-11,3-14,6-6c3,7,2,16-1,19C1613,41,1610,35,1611,24z"/>
	<path d="M1721,24c0-11,3-14,6-6c3,7,2,16-1,19C1723,41,1720,35,1721,24z"/>
	<path d="M1800,35c0-5,5-17,10-25s10-11,10-5s-5,17-10,25S1800,41,1800,35z"/>
	<path d="M91,14c0-11,3-14,6-6c3,7,2,16-1,19C93,31,90,25,91,14z"/>
	<path d="M191,14c0-11,3-14,6-6c3,7,2,16-1,19C193,31,190,25,191,14z"/>
	<path d="M330,21c0-6,4-13,10-16s7,1,4,9C337,32,330,35,330,21z"/>
	<path d="M431,14c0-11,3-14,6-6c3,7,2,16-1,19C433,31,430,25,431,14z"/>
	<path d="M841,14c0-11,3-14,6-6c3,7,2,16-1,19C843,31,840,25,841,14z"/>
	<path class="st0" d="M931,14c0-11,3-14,6-6c3,7,2,16-1,19C933,31,930,25,931,14z"/>
	<path d="M1280,21c0-6,5-13,10-16c6-3,10,1,10,9c0,9-4,16-10,16C1285,30,1280,26,1280,21z"/>
</g>
</svg>
