<?xml version="1.0" encoding="utf-8"?>
<!-- Generator: Adobe Illustrator 25.2.1, SVG Export Plug-In . SVG Version: 6.00 Build 0)  -->
<svg version="1.1" id="Layer_1" xmlns="http://www.w3.org/2000/svg" xmlns:xlink="http://www.w3.org/1999/xlink" x="0px" y="0px"
	 viewBox="0 0 191 192" style="enable-background:new 0 0 191 192;" xml:space="preserve">
<g transform="translate(0.000000,192.000000) scale(0.100000,-0.100000)">
	<path d="M654,1903c-29-29-66-121-59-144c4-12,8-27,9-33s10-21,21-32s25-29,32-40c11-18,11-18,6,3c-3,12-13,30-23,41
		c-11,12-17,32-16,51c1,17-1,31-5,31c-13,0,9,61,36,102S682,1930,654,1903z"/>
	<path d="M680,1878c-16-22-30-48-31-57c0-9-3-33-5-55c-3-25,0-44,9-55c8-9,18-25,21-36c9-28,38-60,66-74c22-11,23-11,8,2
		c-10,8-18,19-18,25s-12,20-27,31l-28,21l30-12c17-6,36-16,43-21c8-6,12-6,12,1c0,11-39,37-50,34c-3-1-5,6-6,16c-3,57-4,58-15,40
		c-5-10-15-18-22-18s-6,4,3,10c10,6,11,10,3,10c-18,0-16,52,3,100c10,24,21,37,28,33c6-3,8-2,3,2c-4,5,0,17,10,27c9,11,11,18,5,18
		C715,1920,697,1901,680,1878z"/>
	<path d="M764,1904c-12-7-25-10-28-8s-4,1-1-3c3-3,0-12-6-20c-17-19,2-16,30,6c18,14,31,17,48,10c14-5,25-4,28,2c4,5,16,7,28,4
		c17-5,18-4,8,4c-11,7-5,11,25,14l39,4l-39,1c-25,1-47-4-59-15c-17-15-19-15-15-3C829,1919,798,1921,764,1904z"/>
	<path d="M978,1913c6-2,18-2,25,0c6,3,1,5-13,5S971,1916,978,1913z"/>
	<path d="M1030,1909c-8-5-13-9-10-10c3,0,13-2,23-4c9-2,17,1,17,5C1060,1915,1045,1919,1030,1909z"/>
	<path d="M1105,1911c-3-6-12-8-20-4c-8,3-15,1-15-4c0-20,14-23,37-8c24,16,29,10,14-14c-6-9-19-12-40-8c-17,4-43,2-58-4
		c-19-7-29-7-31,0c-2,6-11,11-20,11c-14,0-14-3,3-19c14-14,29-18,52-14c18,3,30,9,27,14s0,9,6,9c7,0,14-9,17-20s11-20,18-20
		c8,0,22-3,32-7c17-6,17-6,1,10c-9,9-23,17-30,17s-2,6,12,13c15,8,28,9,31,4c4-5,9-4,13,2s2,11-3,11c-6,0-11,4-11,8s8,8,19,8
		s17-5,14-13c-3-7,2-13,11-13s16,5,16,11c0,5,4,8,9,4c5-3,13,0,17,6c5,8,3,9-6,4c-10-6-12-4-7,8c3,10,2,17-2,17c-5,0-12-6-14-12
		c-4-10-6-9-6,1c-1,11-4,11-17,0c-9-7-18-9-22-3C1142,1919,1113,1922,1105,1911z"/>
	<path d="M1251,1906c-7-9-11-21-8-28c4-8,6-7,6,5c1,19,26,23,37,5c4-6,3-8-2-5c-6,3-11-3-11-14c-2-22-40-58-63-59c-9,0-3,10,15,25
		c17,13,25,24,18,25c-6,0-15-5-19-11c-5-8-9-8-14,1s-9,9-14,1c-4-6-1-11,6-12s2-4-11-8c-14-4-26-13-29-21c-2-10-1-11,5-3s14,8,32-2
		c24-12,24-13,4-19c-22-7-53,1-53,14c0,10-126-15-173-35c-28-12-37-20-33-33c3-9-1-29-8-44c-11-20-11-28-3-32c8-3,7-8-3-15
		c-31-22,1-10,49,18c27,16,51,28,53,26c2-3,33,11,68,30c83,44,112,57,117,51c3-2-9-12-26-21c-17-8-31-19-31-24c0-13,30-35,37-27
		c3,3,1,6-5,6c-7,0-12,5-12,11s16,10,38,9c61-3,72-1,72,15c0,9-11,20-25,25c-39,15-39,33,0,74c23,24,35,46,33,60
		C1294,1919,1268,1926,1251,1906z M1156,1780c11,0,10-4-3-18c-10-11-21-17-24-16c-4,2-26-9-49-25c-25-17-51-26-62-23
		c-10,2-27-3-37-12c-14-13-21-14-27-5c-4,8-3,10,4,5c7-4,12-2,12,3c0,6-5,11-11,11c-8,0-8,5,1,15c7,8,9,15,4,15c-13,0,14,24,30,26
		c7,1,23,5,35,9c36,11,23-12-16-28c-34-14-35-16-12-16c14-1,34,8,44,19c13,14,21,17,26,9c4-8,9-4,14,10c4,14,12,20,21,17
		c10-4,12-2,8,6c-5,8-2,9,10,5C1134,1783,1148,1780,1156,1780z M1260,1737c0-2-11-4-25-4c-27,0-31,7-14,24c9,9,15,8,25-2
		C1254,1748,1260,1739,1260,1737z"/>
	<path d="M1035,1710c-3-6,1-7,9-4c18,7,21,14,7,14C1045,1720,1038,1716,1035,1710z"/>
	<path d="M593,1884c-15-16-31-29-35-29c-9,0-12-12-5-23c2-4,2-1,0,6c-1,7,2,10,8,7c6-4,7-19,4-35c-3-15-2-31,4-34c5-4,10,6,10,21
		c0,48,7,65,32,83c13,10,21,22,17,25C624,1909,609,1899,593,1884z"/>
	<path d="M938,1893c6-2,18-2,25,0c6,3,1,5-13,5S931,1896,938,1893z"/>
	<path d="M916,1873c-3-3-31-5-63-4c-86,2-140-16-158-55c-20-43-20-61,0-44c13,10,15,9,15-11c0-17,3-20,11-12s8,17,0,30
		c-8,17-5,25,20,49c24,23,38,28,72,27c66-3,87-7,87-17c0-5,7-1,16,10c15,18,15,18,10,0c-6-16-4-17,9-6c10,8,15,9,15,1
		c0-6,7-11,15-11c12,0,13,4,6,19C961,1867,926,1883,916,1873z"/>
	<path d="M1303,1865c-19-21-16-25,19-25c17,0,40-7,50-17c10-9,18-11,18-6c0,6-7,16-15,23s-13,16-10,20s-5,10-18,14
		C1318,1882,1317,1882,1303,1865z M1347,1854c-3-3-12-4-19-1c-8,3-5,6,6,6C1345,1860,1351,1857,1347,1854z"/>
	<path d="M1159,1843c-13-16-12-17,4-4c9,7,17,15,17,17C1180,1864,1172,1859,1159,1843z"/>
	<path d="M1380,1856c0-2,8-10,18-17c15-13,16-12,3,4S1380,1864,1380,1856z"/>
	<path d="M797,1822c-35-27-75-92-57-92c5,0,12,11,16,25c3,13,12,30,20,36c12,10,13,8,5-14c-8-20-6-28,11-43c19-18,20-18,33-1
		c16,22,29,22,21,0c-6-15-4-15,14,2c23,21,28,44,5,25c-9-7-15-8-15-2c0,9,43,42,56,42c3,0,1-7-6-15c-9-10-9-15-1-15c6,0,11,5,11,10
		c0,6,6,10,14,10c27,0,24,15-2,17c-15,0-28,6-30,12c-4,12-23,15-20,4c3-15-14-43-23-37c-5,3-8,0-7-7c2-6-3-14-10-16c-7-3-10,1-7,10
		c3,7-2,20-11,27c-14,13-13,15,17,25c24,8,29,13,17,18C838,1846,818,1838,797,1822z M810,1775c-10-12-10-18,0-30c14-17,0-21-17-4
		c-12,12,3,49,21,49C818,1790,817,1783,810,1775z"/>
	<path d="M507,1813c-36-19-43-37-28-71c11-22,10-28-6-40c-10-7-17-15-15-17c7-14,0-18-9-5s-10,13-6,0c2-8,12-14,21-14
		c15,2,20-11,19-44c-1-7,4-11,11-9c6,2,10,17,8,33c-2,28-2,28,13,10c8-11,15-16,15-11c0,4,9,0,20-10s20-15,20-11s10,2,21-5
		c15-8,19-8,15,0c-4,6-3,11,1,11c5,0,13-10,18-22c15-32,38-37,26-5c-5,14-7,28-3,33c4,4,1,3-7-1c-11-6-13-4-8,8c3,10,2,17-2,17
		c-5,0-18,14-29,31c-12,19-22,27-26,20c-4-6-2-11,4-11s9-4,6-9c-4-5-3-17,0-26c5-13,8-14,15-3c5,7,9,9,9,3c0-30-17-37-51-20
		c-43,22-38,17-49,54c-5,19-5,29,1,26c5-4,17-1,26,5c17,11,17,11,1,6c-26-8-22,13,5,24c20,8,19,9-10,7c-17,0-31-4-30-7s-2-6-8-7
		c-5-2-10,5-10,15c0,12,8,17,29,17c16,0,31,6,34,14c3,9,0,11-8,6c-10-6-12-4-7,8c3,10,5,17,4,16S522,1821,507,1813z"/>
	<path d="M741,1811c-12-11-18-21-14-24c5-3,18,6,30,19C783,1835,772,1838,741,1811z"/>
	<path d="M1015,1820c3-5,3-10-2-11c-31-3-48-11-81-40c-46-41-76-78-68-86c3-3,8,2,12,11c5,14,9,14,22,4c13-11,14-10,8,10
		c-5,16-4,22,5,20c7-2,13,3,14,9c0,7,9,19,21,27c29,21,105,46,118,40c6-3,2,2-8,10C1034,1832,1005,1836,1015,1820z"/>
	<path d="M1270,1816c0-22,17-28,41-15c12,6,19,7,15,1c-3-6,0-12,6-15c7-2,9-8,5-13s-12-2-16,5c-5,8-11,9-15,3c-8-13,17-22,64-22
		c21,0,41-4,45-9c3-6-18-10-50-10c-30,0-55,5-55,10s-4,9-10,9c-5,0-7-7-4-15c5-11,22-15,63-16c64-1,102-11,82-23c-6-4-18-2-26,4
		c-15,13-94,7-151-10c-29-8-28-8,8-9c20-1,40-5,43-11c3-5,12-10,18-10c8,0,8,3-1,9c-11,7-11,9,1,14c8,3,20,0,26-6c9-9,16-8,31,1
		c34,21,36,13,5-15l-30-26l50,28c32,18,45,22,36,12c-7-9-10-17-5-17c4,0,3-5-3-11c-7-7,1-22,28-49l38-38l-54-4c-41-2-60,1-76,15
		c-45,36-28,7,25-45c31-30,56-52,56-50c0,3,6-1,14-8c8-6,12-19,9-27c-4-11-3-14,6-9c18,11,40-12,33-36c-3-15-1-19,9-16
		c15,5,15,7,3,103c-4,33-7,64-5,69c1,4-10,23-24,41c-28,38-33,54-10,35c9-7,15-8,15-2c0,5-7,13-16,16s-14,12-11,20s3,17-1,21
		s-7,10-7,14c0,9-57,75-68,78c-4,2-22,10-39,19C1321,1830,1270,1836,1270,1816z M1435,1550c3-5,11-10,16-10c6,0,7,5,4,10
		c-3,6,3,10,14,10c12,0,21-2,21-5c0-9-39-49-43-44c-1,2-11,14-21,27c-11,12-14,22-8,22S1432,1556,1435,1550z M1511,1508
		c9-18,9-21-1-11c-7,6-19,9-26,6c-14-5-19,8-7,20S1499,1530,1511,1508z M1515,1472c-3-3-11,0-18,7c-9,10-8,11,6,5
		C1513,1481,1518,1475,1515,1472z"/>
	<path d="M830,1808c0-4,4-8,9-8c6,0,12,4,15,8c3,5-1,9-9,9S830,1813,830,1808z"/>
	<path d="M761,1724c0-11,3-14,6-6c3,7,2,16-1,19C763,1741,760,1735,761,1724z"/>
	<path d="M541,1711l-22-19l32-22c30-22,30-22,18-2c-7,11-17,18-21,16c-14-9-9,9,9,28C578,1736,569,1735,541,1711z"/>
	<path d="M780,1689c0-5-4-7-10-4c-5,3-10,2-10-3c0-8,22-22,34-22c1,0,2,9,2,20s-4,20-8,20S780,1695,780,1689z"/>
	<path d="M1113,1687c-17-7-35-16-40-21s0-6,12-1c11,4,32,10,48,13c15,2,27,8,27,13C1160,1702,1153,1702,1113,1687z"/>
	<path d="M831,1676c-21-25-23-63-4-71c14-5,15-4,6,6c-9,9-9,19,2,46C850,1693,849,1698,831,1676z"/>
	<path d="M863,1655c-12-14-18-27-13-30s10,1,13,7c3,10,7,10,20-1c9-7,14-17,11-22s0-9,5-9c14,0,14,27,1,35c-8,5-8,11-1,19
		c10,12,5,26-8,26C888,1680,875,1669,863,1655z"/>
	<path d="M1125,1659c-73-22-130-67-109-86c8-8,15-9,19-3c3,6,1,10-5,10s-8,5-5,10c4,6,10,8,14,5c5-2,19,7,32,21c12,13,29,22,37,19
		s19-2,25,2c6,3,33,7,61,8s59,6,69,10c12,5,17,3,15-5s19-20,55-30c58-18,70-14,41,14c-19,19-35,20-53,4c-11-11-12-10-6,1s4,13-8,8
		c-12-4-14-2-10,10c5,13,0,15-30,11c-19-2-34-1-32,3C1243,1683,1184,1677,1125,1659z M1210,1660c0-5-12-10-27-9c-25,0-26,1-8,9
		C1202,1672,1210,1672,1210,1660z"/>
	<path d="M1025,1660c-13-6-15-9-5-9c8,0,22,4,30,9C1068,1672,1052,1672,1025,1660z"/>
	<path d="M1416,1654c-23-23-20-43,10-54c33-13,53-2,29,16c-14,10-22,11-32,3c-18-15-16,2,3,29C1444,1674,1438,1677,1416,1654z"/>
	<path d="M776,1635c6-14,3-16-17-11c-22,7-22,6,4-11c46-30,28-44-29-23c-23,9-25,8-15-4c12-14,84-28,75-15c-2,4,0,10,6,14
		c5,3,10-1,10-9c0-18,8-20,29-7c10,6,5,12-17,22c-16,7-28,18-25,24c2,7-3,18-12,25C772,1651,771,1650,776,1635z"/>
	<path d="M972,1614c-24-14-41-28-38-31c6-6,86,43,86,52C1020,1643,1018,1642,972,1614z"/>
	<path d="M492,1568c-22-43-28-66-21-73s16-3,29,13c10,12,28,22,40,22s19,4,15,9c-3,5-1,12,5,16c5,3,10,0,10-7c1-8,6-6,15,6
		c8,11,15,15,15,10c0-22-64-74-90-74c-13,0-70-41-70-50c0-4,7-7,15-7s12,4,9,9c-3,4,2,5,11,2c17-7,20-1-31-80c-13-19-14-28-6-36
		c7-7,13-10,14-7c2,2,13,22,25,44s32,47,45,55c21,14,22,14,9-2c-7-10-11-24-8-32s-1-13-11-12c-9,0-21-9-27-20c-6-12-16-28-23-36
		c-6-8-10-17-7-19c2-3,15-46,29-96l24-91l-21-20c-12-11-31-22-42-24c-26-4-34-55-10-60c10-2,25-26,36-57c42-119,90-160,191-162
		c96-2,134,26,159,117c14,50,16,71,8,81c-17,20,7,43,45,43c34,0,76-23,64-36c-4-4-14-1-22,5c-18,15-68,11-73-6c-3-8,6-10,29-7
		c41,7,48,0,80-81c20-50,31-64,69-85c36-20,57-25,114-24c125,2,162,34,189,166c9,47,18,64,34,71c13,6,22,19,22,33c0,28,67,74,80,54
		c5-8,15-9,31-4c13,4,27,7,32,6c6-2,12,44,9,69c-1,4-2,44-3,90c-1,48-7,95-15,111c-11,21-11,28-1,32c6,3,3,4-9,1c-23-6-50,18-39,35
		c4,6,3,9-2,8c-5-2-19,7-33,20c-13,12-28,22-32,22c-5,0-7,4-3,9c3,5,0,13-6,17c-8,4-9,3-5-4c5-9-3-10-29-6c-29,4-35,3-29-8
		c5-7,10-24,12-37c2-14,8-33,13-43s7-23,3-29c-4-8-1-8,13-1c25,14,123-40,123-68c0-10,5-22,10-25c6-3,10-12,10-18c0-7-4-6-10,3
		c-17,27-20,3-4-36c14-33,14-36,1-25c-13,10-15,9-10-9c3-11,2-20-3-18s-9-2-9-7c0-6,4-9,8-7c5,1,7-10,5-25c-2-16-7-26-13-23
		c-5,3-9,11-9,18c2,9-4,8-17-4c-17-15-19-15-19-1c0,8-2,21-3,29c-2,7-2,10,0,5c3-4,9-4,14-1c15,9-10,34-26,28c-8-3-11-12-8-20
		s-1-14-7-14c-10,0-9-5,2-17c9-10,13-25,10-33c-12-35-34-39-185-34c-106,4-153,2-163-7c-8-6-14-9-14-5c0,3-17-1-37-10
		c-72-30-84-34-78-25c3,5,0,13-6,17c-7,4-9,3-6-3c4-6-14-8-47-5c-32,2-56,0-60-6c-7-11-51-1-88,19c-20,10-188,11-188,1
		c0-4-15-7-33-8h-32l28,10c26,10,27,12,28,90c1,45,0,86-1,91c-4,16-3,28,5,60l8,30l-22-19c-22-20-29-42-9-30c7,4,8,3,4-5
		c-4-6-12-8-18-5c-6,4-8,2-4-4c3-6,2-14-4-17c-7-4-10,5-8,25c2,23,11,36,34,51c20,12,34,30,38,50c3,16,21,61,40,100
		c20,40,29,69,23,70c-7,0-25,3-40,5c-22,4-30,0-34-15c-5-18-25-23-39-9c-3,4,3,20,15,36c23,32,26,42,13,42
		C527,1630,509,1602,492,1568z M1390,1500c0-5,6-10,13-10c8,0,22-9,32-20c18-20,18-20-5-17c-13,2-26,9-28,15c-5,17-19,15-19-2
		c0-7,13-21,29-30c19-12,28-13,28-5s4,8,15-1c8-7,12-16,9-21s1-6,8-4c8,3,18-6,24-23c11-28,11-28-53,15c-35,23-71,47-81,53
		c-16,9-16,11,0,23c13,11,15,16,6,25s-8,12,5,12C1382,1510,1390,1506,1390,1500z M565,1481c-3-6-11-9-16-6c-5,4-9-1-9-9
		s-10-20-21-27c-15-8-19-8-15,0c4,6,2,11-4,11c-19,0,1,21,34,35S576,1498,565,1481z M514,1236c-3-21-9-35-11-32c-3,3-2,21,1,42
		c4,20,10,34,12,31C519,1274,518,1256,514,1236z M1113,1093c-7-2-21-2-30,0c-10,3-4,5,12,5C1112,1098,1119,1096,1113,1093z
		 M1272,1073c-9-4-7-12,8-30c33-42,21-138-23-188c-29-33-129-57-172-41c-54,20-72,35-92,75c-11,22-22,39-24,37s-5,16-7,40
		c-3,54,19,91,62,103C1053,1078,1299,1081,1272,1073z M1350,1058c0-19-2-20-10-8c-13,19-13,30,0,30C1346,1080,1350,1070,1350,1058z
		 M732,1059c53-27,68-50,68-103c0-28-9-70-19-93c-16-35-26-44-60-53c-45-12-100-5-143,17c-36,17-68,82-75,148c-5,47-3,53,20,72
		c21,16,43,21,107,22C675,1070,720,1066,732,1059z M1310,1060c0-5-2-10-4-10c-3,0-8,5-11,10c-3,6-1,10,4,10
		C1305,1070,1310,1066,1310,1060z M510,1056c0-3-4-8-10-11c-5-3-10-1-10,4c0,6,5,11,10,11C506,1060,510,1058,510,1056z M870,1051
		c0-7-30-22-52-25c-19-3-7,20,14,26C866,1061,870,1061,870,1051z M450,1040c0-5-5-10-11-10c-5,0-7,5-4,10c3,6,8,10,11,10
		C448,1050,450,1046,450,1040z M480,1029c0-6-4-7-10-4c-5,3-10,11-10,16c0,6,5,7,10,4C476,1042,480,1034,480,1029z M930,1040
		c18-12,2-12-25,0c-13,6-15,9-5,9C908,1049,922,1045,930,1040z M489,973c0-25-1-26-9-8c-12,27-12,35,0,35C486,1000,490,988,489,973z
		"/>
	<path d="M1019,1048c-8-7-22-22-29-33c-10-13-4-11,18,8c37,30,54,35,46,12c-4-8-13-15-20-15c-26,0,7-26,35-28c22-1,23,0,9,9
		c-22,12-23,23-2,43c14,15,13,16-13,16C1047,1060,1027,1054,1019,1048z"/>
	<path d="M1100,1039c0-53,47-68,76-24c9,14,20,22,26,19c5-3,4-12-3-20c-10-12-9-13,5-8c9,3,18,0,21-7c3-8,16-15,29-15
		c15-1,23,3,20,10c-9,23-71,53-122,58C1107,1056,1100,1055,1100,1039z M1159,1031c8-5,9-11,3-15c-6-3-13-2-17,4c-3,5-11,10-16,10
		c-6,0-7-4-4-10c3-5,1-10-4-10c-6,0-11,7-11,15C1110,1041,1137,1045,1159,1031z"/>
	<path d="M1001,986c-9-11-9-16,0-22c7-4,9-3,5,4c-3,6,2,12,11,14c12,2,14,6,7,11C1017,997,1007,993,1001,986z"/>
	<path d="M1026,961c-3-4,6-8,20-9c13-1,24,0,24,2C1070,961,1030,968,1026,961z"/>
	<path d="M1217,949c7-7,15-10,18-7s-2,9-12,12C1209,960,1208,959,1217,949z"/>
	<path d="M990,940c0-5,7-10,15-10s19-8,24-17c12-23,71-58,71-43c0,6,5,8,13,4c9-6,8-3-1,8c-8,9-19,15-25,12c-7-2-28,9-47,26
		C1003,951,990,957,990,940z"/>
	<path d="M1236,905c-3-9-18-15-36-15s-29-4-25-10c9-15,41-12,59,5c8,8,19,15,25,15s11,5,11,10C1270,926,1243,922,1236,905z"/>
	<path d="M1115,840c3-5,8-10,11-10c2,0,4,5,4,10c0,6-5,10-11,10C1114,850,1112,846,1115,840z"/>
	<path d="M653,1044c-9-24,10-49,41-52c20-3,28,2,35,20c9,24,6,38-9,38c-5,0-7-6-4-14s1-17-5-21c-7-3-11,2-11,13s-7,23-16,26
		C662,1063,660,1062,653,1044z M683,1020c3-11,1-20-4-20s-9,9-9,20s2,20,4,20S680,1031,683,1020z"/>
	<path d="M589,1029c-12-12-19-29-16-39c3-13-2-20-19-24c-28-7-31-21-6-35c10-6,12-11,4-11c-7,0-10-5-7-10c4-6,10-8,15-5
		c4,3,10-1,13-7c2-7,7-10,11-7c13,12-16,58-33,53c-9-3-2,2,14,12c40,22,41,24,27,33c-10,6-5,15,18,35c21,17,26,26,16,26
		C617,1050,601,1041,589,1029z"/>
	<path d="M524,994c-1-13,2-24,8-24c5,0,6,5,3,10c-3,6-1,10,4,10c15,0,14,17-1,23C530,1016,524,1008,524,994z"/>
	<path d="M605,1011c-3-6,4-15,15-21c31-17,42-8,15,13C621,1012,609,1016,605,1011z"/>
	<path d="M751,1006c-9-11-6-15,14-18c28-6,32,3,11,21C766,1017,760,1017,751,1006z"/>
	<path d="M660,958c0-10,18-9,45,2c16,6,14,8-12,7C675,967,660,963,660,958z"/>
	<path d="M729,950l-24-21l33,16c31,15,41,25,23,25C756,970,742,961,729,950z"/>
	<path d="M617,949c7-7,15-10,18-7s-2,9-12,12C609,960,608,959,617,949z"/>
	<path d="M619,911c12-12,27-17,45-14c39,8,42,23,2,16c-19-3-36-1-40,6c-4,6-11,11-17,11C604,930,608,922,619,911z"/>
	<path d="M742,903c-12-2-20-9-17-14c4-5-1-9-10-9s-13,5-10,10c3,6,4,10,1,10s-10-8-15-18c-9-16-6-18,19-14c16,2,37,13,46,23
		s15,18,13,18C767,908,755,905,742,903z"/>
	<path d="M565,874c11-8,19-18,17-22c-2-3,1-8,7-10s11,2,11,9c0,13-29,38-45,38C550,889,554,883,565,874z"/>
	<path d="M628,843c7-3,16-2,19,1c4,3-2,6-13,5C623,849,620,846,628,843z"/>
	<path d="M680,1606c6-17,5-26-3-30c-9-5-9-7,0-12c6-3,30-30,53-59c35-46,86-85,109-85c3,0-17,20-45,44c-29,25-64,71-83,105
		C678,1632,663,1648,680,1606z"/>
	<path d="M1157,1619c-10-6-21-8-24-5s-15,1-26-5c-15-8-18-8-12,1c5,8,3,11-6,8c-8-3-22-19-33-37c-14-25-16-35-7-44s11-8,5,6
		c-4,13-2,16,9,11c10-4,15,0,14,13c-2,17,2,19,46,22c12,1,33,10,47,21C1196,1631,1188,1637,1157,1619z"/>
	<path d="M1199,1612c-13-9-27-20-30-25c-4-5-17-10-31-10c-14-1-25-7-25-14s8-9,21-4c12,5,27,6,34,4c6-3,12,2,12,10s7,20,15,27
		c12,10,15,10,15-1c0-9,3-10,8-4c11,16,41,15,35-1c-5-13-33-19-58-14c-5,1-6-2-2-6c17-17,57-10,79,14c13,14,17,22,10,18s-14-1-17,6
		C1257,1631,1227,1631,1199,1612z"/>
	<path d="M567,1599c7-7,15-10,18-7s-2,9-12,12C559,1610,558,1609,567,1599z"/>
	<path d="M530,1589c0-5,5-7,10-4c6,3,10,8,10,11c0,2-4,4-10,4C535,1600,530,1595,530,1589z"/>
	<path d="M874,1579c-2-4,0-9,6-11c5-1,7-14,3-27l-6-23l-12,22c-8,15-15,19-19,11c-4-6-2-11,4-11s9-4,6-9c-9-14,20-21,33-8
		c6,6,11,18,11,27s4,20,10,26s3,10-11,10C888,1586,877,1583,874,1579z"/>
	<path d="M1308,1578c25-12,31-34,6-24c-8,3-12,2-9-4c7-11,55-14,55-4c0,11-45,43-60,43C1291,1589,1294,1584,1308,1578z"/>
	<path d="M943,1573c-14-5-18-24-5-21c4,1,22-6,39-15c22-12,31-13,29-5c-15,51-16,51-33,37c-12-10-14-10-9-1
		C971,1580,964,1582,943,1573z"/>
	<path d="M445,1560c3-5,12-7,20-3c21,7,19,13-6,13C448,1570,441,1566,445,1560z"/>
	<path d="M760,1551c0-6,3-11,8-12c40-5,62-5,62,2c0,4-8,7-17,7c-10,0-26,3-35,7C767,1559,760,1558,760,1551z"/>
	<path d="M918,1533c7-3,16-2,19,1c4,3-2,6-13,5C913,1539,910,1536,918,1533z"/>
	<path d="M1180,1531c0-5,5-13,10-16c6-3,10-2,10,4c0,5-4,13-10,16C1185,1538,1180,1537,1180,1531z"/>
	<path d="M1245,1530c4-6,11-8,16-5c14,9,11,15-7,15C1246,1540,1242,1535,1245,1530z"/>
	<path d="M1101,1508c5-10,11-18,12-18c2,0,3,8,4,18s-5,19-12,19C1095,1527,1094,1522,1101,1508z"/>
	<path d="M1221,1520c-1-18,18-40,34-40c5,0,3,6-6,13s-18,19-22,27C1222,1533,1221,1533,1221,1520z"/>
	<path d="M818,1492c-10-2-18-7-18-12c0-4,9-6,20-3c14,4,21-1,26-21c3-14,10-26,15-26c13,0,11,6-8,38C842,1485,828,1494,818,1492z"/>
	<path d="M1160,1490c8-5,22-10,30-10c13,0,13,1,0,10c-8,5-22,10-30,10C1147,1500,1147,1499,1160,1490z"/>
	<path d="M665,1479c-4-6-5-12-2-15c2-3,7,2,10,11C680,1492,674,1495,665,1479z"/>
	<path d="M1031,1487c2-1,13-9,24-17c19-14,19-14,6,3c-7,9-18,17-24,17S1029,1489,1031,1487z"/>
	<path d="M1271,1463c-1-7-9-13-18-13c-15,0-16-2-3-10c18-11,35,2,27,22C1273,1471,1271,1472,1271,1463z"/>
	<path d="M605,1450c-3-5-1-10,4-10c6,0,11,5,11,10c0,6-2,10-4,10C613,1460,608,1456,605,1450z"/>
	<path d="M702,1444c-14-16-5-18,17-5c7,5,9,11,5,14C719,1456,709,1452,702,1444z"/>
	<path d="M1080,1456c0-2,8-10,18-17c15-13,16-12,3,4S1080,1464,1080,1456z"/>
	<path d="M638,1406c-19-14-23-26-10-26c4,0,13,9,20,20C662,1423,661,1424,638,1406z"/>
	<path d="M880,1412c0-5,7-15,15-22s15-8,15-2c0,5-7,15-15,22S880,1418,880,1412z"/>
	<path d="M850,1404c1-25,30-44,66-44c29,0,35,3,24,10c-8,5-23,7-33,4c-11-4-25,3-38,17C859,1403,850,1409,850,1404z"/>
	<path d="M1170,1400c0-5,5-10,11-10c5,0,7,5,4,10c-3,6-8,10-11,10C1172,1410,1170,1406,1170,1400z"/>
	<path d="M1270,1385c14-17,13-18-3-12c-23,9-13-9,13-23c16-9,17-7,11,17c-4,15-14,29-22,31C1257,1403,1257,1400,1270,1385z"/>
	<path d="M1390,1380c0-11-5-20-12-20c-9,0-9-3,0-12c10-9,16-8,30,6c9,11,11,16,5,12c-7-4-13-3-13,3c0,5,5,11,12,13c7,3,6,7-5,11
		C1395,1398,1390,1394,1390,1380z"/>
	<path d="M650,1379c0-5,5-7,10-4c6,3,10,8,10,11c0,2-4,4-10,4C655,1390,650,1385,650,1379z"/>
	<path d="M668,1361c-25-12-39-15-42-7c-2,6-5,5-5-3c-1-8-9-23-18-34c-18-20-18-20,9-3c15,10,33,14,39,10c7-4,9-3,6,3
		c-10,16,16,33,64,42c37,7,39,9,14,10C718,1380,688,1372,668,1361z"/>
	<path d="M1101,1361c31-10,61-21,67-25c7-4,12-4,12-1c0,11-84,45-110,44C1054,1379,1066,1372,1101,1361z"/>
	<path d="M1430,1364c0-5,12-18,27-28c16-12,24-14,21-6C1473,1346,1430,1376,1430,1364z"/>
	<path d="M1000,1346c0-9,30-14,35-6c4,6-3,10-14,10C1009,1350,1000,1348,1000,1346z"/>
	<path d="M1360,1330c6-11,13-20,16-20c2,0,0,9-6,20s-13,20-16,20C1352,1350,1354,1341,1360,1330z"/>
	<path d="M765,1330c-3-5-1-10,4-10c6,0,11,5,11,10c0,6-2,10-4,10C773,1340,768,1336,765,1330z"/>
	<path d="M1395,1278c6-50,15-63,15-22c0,22,3,26,10,14c6-9,10-10,10-3c0,6-7,18-15,26s-11,17-8,21c4,3,1,6-5,6
		C1394,1320,1391,1307,1395,1278z"/>
	<path d="M994,1302c4-7,3-12-1-12c-5,0-18-7-29-14c-17-13-14-13,21-1c86,30,178,14,229-41c14-16,26-24,26-18c0,18-55,64-91,75
		c-19,5-57,9-85,8c-27-2-56,1-64,6C991,1310,989,1309,994,1302z"/>
	<path d="M604,1289c-8-14,14-19,42-9c15,6,59,9,98,6c60-4,64-4,26,4C716,1301,611,1300,604,1289z"/>
	<path d="M860,1284c0-8,5-12,10-9c6,4,8,11,5,16C866,1305,860,1302,860,1284z"/>
	<path d="M922,1286c7-8,15-12,17-11c5,6-10,25-20,25C914,1300,915,1294,922,1286z"/>
	<path d="M734,1252c11-12,19-13,27-5c7,7,3,12-16,15C720,1267,720,1266,734,1252z"/>
	<path d="M1120,1259c0-5,5-7,10-4c6,3,10,8,10,11c0,2-4,4-10,4C1125,1270,1120,1265,1120,1259z"/>
	<path d="M623,1253c-24-5-39-30-17-30c7,0,11,4,8,9c-3,4,6,8,20,8s26,5,26,10c0,6-3,9-7,9C648,1258,635,1255,623,1253z"/>
	<path d="M790,1251c0-6,4-13,10-16s7,1,4,9C797,1262,790,1265,790,1251z"/>
	<path d="M970,1249c0-5,5-7,10-4c6,3,10,8,10,11c0,2-4,4-10,4C975,1260,970,1255,970,1249z"/>
	<path d="M1348,1245c5-11,12-27,15-35c5-13,6-13,6,1c1,8-6,24-15,35C1339,1265,1339,1265,1348,1245z"/>
	<path d="M832,1234c-9-10-9-14-1-14s10-13,6-42c-5-35-4-38,4-18c5,13,9,39,7,56C845,1243,843,1246,832,1234z"/>
	<path d="M950,1230c0-5,5-10,11-10c5,0,7,5,4,10c-3,6-8,10-11,10C952,1240,950,1236,950,1230z"/>
	<path d="M715,1210c-3-5-1-10,4-10c6,0,11,5,11,10c0,6-2,10-4,10C723,1220,718,1216,715,1210z"/>
	<path d="M1085,1210c3-5,10-10,16-10c5,0,9,5,9,10c0,6-7,10-16,10C1086,1220,1082,1216,1085,1210z"/>
	<path d="M1260,1212c0-5,19-24,43-42c40-33,36-20-10,27C1270,1221,1260,1225,1260,1212z"/>
	<path d="M1145,1195c17-8,41-14,54-15c30,0,20,12-13,15c-13,2-35,6-48,9C1122,1208,1124,1206,1145,1195z"/>
	<path d="M597,1189c8-8,16-8,30,0c16,9,14,10-11,11C594,1200,589,1197,597,1189z"/>
	<path d="M1056,1184c-11-8-28-14-39-14s-18-6-16-17c3-32-1-36-17-22c-15,12-16,11-9-11s6-23-9-11c-9,8-16,9-16,3c0-21,26-18,58,6
		c17,13,32,19,32,13c0-19,15-12,25,12c6,12,16,22,24,22s16,7,19,15s1,12-3,8c-5-4-13-4-19,1C1079,1195,1068,1193,1056,1184z
		 M1030,1156c0-3-4-8-10-11c-5-3-10-1-10,4c0,6,5,11,10,11C1026,1160,1030,1158,1030,1156z"/>
	<path d="M560,1175c0-8,2-15,4-15s6,7,10,15c3,8,1,15-4,15C564,1190,560,1183,560,1175z"/>
	<path d="M650,1182c0-4,6-14,13-21c10-10,8-11-7-5c-13,5-17,4-12-4c4-7,13-12,21-12c7,0,15-6,18-14c3-7,15-16,26-19c12-3,19-1,15,4
		c-9,15,13,10,26-6s35-21,26-6c-4,5,0,12,6,14c8,4,4,8-9,12s-23,11-23,15c0,5-8,6-18,3c-10-2-29,7-45,21C657,1191,650,1195,650,1182
		z"/>
	<path d="M975,1180c3-5,8-10,11-10c2,0,4,5,4,10c0,6-5,10-11,10C974,1190,972,1186,975,1180z"/>
	<path d="M620,1170c-8-5-12-12-9-15c4-3,12,1,19,10C644,1182,641,1184,620,1170z"/>
	<path d="M930,1170c0-5,5-10,11-10c5,0,7,5,4,10c-3,6-8,10-11,10C932,1180,930,1176,930,1170z"/>
	<path d="M1147,1163c-4-3-19-8-33-9c-49-5-49-22,0-22c32,1,46,5,46,15c0,8,5,11,10,8c6-4,8-10,5-15c-3-4,5-6,16-3c21,6,21,7,4,20
		C1174,1171,1157,1174,1147,1163z"/>
	<path d="M566,1141c-4-6-1-11,6-11c9,0,10-2,1-8c-6-4,13-7,43-8c57,0,72,10,27,19c-16,3-38,8-49,12C582,1149,569,1147,566,1141z"/>
	<path d="M1220,1139c0-5,5-7,10-4c6,3,10,8,10,11c0,2-4,4-10,4C1225,1150,1220,1145,1220,1139z"/>
	<path d="M1549,1126c9-10,8-16-4-26c-10-8-12-17-6-24c14-17,9-172-7-188c-6-6-12-20-12-30s-5-18-11-18c-5,0-8-4-4-9c3-5-5-21-17-36
		c-20-23-27-25-50-16c-19,7-26,15-22,26c8,19,13,19,33,1c11-10,21-12,31-6c13,9,13,10,0,10c-8,0-23,7-34,15c-18,13-18,16-1,85
		c14,58,20,69,31,59c11-9,14-6,14,15c0,31-4,32-30,9c-15-15-35-83-44-153c-1-9-5-21-10-28c-4-6-4-16-1-22c3-5,2-10-4-10s-7-7-4-17
		c5-12,3-14-7-8c-8,5-11,4-6-3c3-6,2-13-4-17c-5-3-10-11-10-18c0-6,7-2,15,9c13,18,14,16,15-27c0-25-6-51-12-58c-10-11-10-13,0-7
		c7,4,12,1,12-8c0-8,4-16,10-18c5-1,10-39,12-83c3-75,0-85-39-170c-22-49-47-108-53-130c-16-49-74-173-94-200c-15-20-14-20,227-17
		c133,2,246,7,251,12c6,6,5,14-2,22c-5,7-11,18-13,23c-9,37-12,45-20,45c-12,0-12-1,6-43c8-20,15-39,15-42s-98-5-219-5h-218l27,58
		c15,31,38,86,50,122s40,103,62,149c22,45,43,104,48,130c5,29,8,37,10,21l2-25l8,25l7,25l7-30c4-16,21-58,37-93s29-65,29-69
		c0-3,14-23,31-45c20-24,35-36,41-30s1,19-14,35c-37,41-44,51-56,86c-15,42-10,49,17,22c11-11,32-23,46-27c27-7,34-24,10-24
		c-8,0-15-7-15-16c0-12,5-14,18-8c9,4,28,7,42,6c29-2,173-71,150-72c-17,0-32-16-69-70c-13-19-31-41-39-48c-14-10-14-12-1-12
		c8,0,22,9,32,20c9,11,25,20,35,20c23,0,72,22,72,33c0,5-6,5-12,1c-8-4-9-3-5,2c5,5,15,9,24,9c18,0,60,51,50,61c-3,3-19,2-35-4
		c-21-7-33-7-41,1c-14,14-84,54-193,111c-48,25-94,56-103,68c-72,103-110,176-109,208c4,115,3,113,18,101c32-27,79,30,105,124
		c28,104,39,173,34,200c-6,33-20,55-35,55C1542,1140,1542,1135,1549,1126z M1815,210c-10-11-25-20-34-20c-12,1-10,5,8,20
		C1819,236,1838,236,1815,210z"/>
	<path d="M830,1110c0-11,4-20,9-20s7,9,4,20s-7,20-9,20S830,1121,830,1110z"/>
	<path d="M860,1100c0-5,5-10,11-10c5,0,7,5,4,10c-3,6-8,10-11,10C862,1110,860,1106,860,1100z"/>
	<path d="M905,1100c3-5,8-10,11-10c2,0,4,5,4,10c0,6-5,10-11,10C904,1110,902,1106,905,1100z"/>
	<path d="M1461,1093c0-7-13-19-28-27c-16-8-23-15-16-16c7,0,19-12,27-27l14-28l7,26c4,15,5,40,2,55C1465,1092,1462,1100,1461,1093z"
		/>
	<path d="M1496,1054c-4-9-4-19-1-22c2-3,7,3,11,12s4,19,1,22C1505,1069,1500,1063,1496,1054z"/>
	<path d="M1385,980c-3-5-1-10,4-10c6,0,11,5,11,10c0,6-2,10-4,10C1393,990,1388,986,1385,980z"/>
	<path d="M1512,962c-6-14-12-35-12-46c-1-21-1-21-16-1c-16,20-16,20-10-2c4-12,2-24-4-28c-17-10-12-45,5-39c8,4,15,11,15,17
		s7,18,16,28c17,19,36,87,25,93C1528,986,1519,977,1512,962z"/>
	<path d="M1345,920c3-5,8-10,11-10c2,0,4,5,4,10c0,6-5,10-11,10C1344,930,1342,926,1345,920z"/>
	<path d="M1390,919c0-5,5-7,10-4c6,3,10,8,10,11c0,2-4,4-10,4C1395,930,1390,925,1390,919z"/>
	<path d="M894,880c-1-15,4-27,10-27s11,12,11,27C915,915,895,915,894,880z"/>
	<path d="M926,875c4-8,8-15,10-15s4,7,4,15s-4,15-10,15C925,890,923,883,926,875z"/>
	<path d="M851,836c-9-11-9-16,0-22c7-4,9-3,5,4c-3,6,2,12,11,14c12,2,14,6,7,11C867,847,857,843,851,836z"/>
	<path d="M1340,805c-7-9-8-15-2-15c5,0,12,7,16,15c3,8,4,15,2,15S1347,813,1340,805z"/>
	<path d="M979,768c-7-24-20-52-28-62c-16-19-15-19,12-1c19,12,27,26,27,46c0,40,13,36,34-8l18-37l-44-39c-35-32-39-38-18-32
		c25,8,25,8,6-14c-14-15-15-21-6-21c10,0,11-3,3-11c-6-6-9-18-6-27c4-10,2-13-5-8c-18,11-14-3,5-22c16-16,16-16,10,1c-3,9-2,17,4,17
		s8,9,3,23c-3,12-3,19,1,15c11-10,34,23,34,47c0,15-3,14-11-7c-5-16-14-28-19-28c-6,0-6,7,0,19c6,10,8,21,4,25c-3,3,6,15,20,27
		c15,11,27,29,27,39s5,20,10,22c10,3-51,78-63,78C993,810,985,791,979,768z"/>
	<path d="M550,791c0-24,122-349,140-374c12-15,18-32,14-38c-9-14-114-62-204-92c-102-34-162-70-209-123C246,113,201,0,225,0
		c17,0,38,36,30,50c-3,6-3,16,2,23c8,12,9,17,12,40c1,8,4,7,11-3c7-11,10-12,10-2c0,8,12,31,28,53c25,37,75,62,105,55c7-1,9-1,5,1
		c-13,7-9,20,8,27c8,3,12,2,9-4s-1-10,4-10c6,0,11,5,11,10c0,6,4,10,9,10c13,0,38-116,50-227c0-7,5-13,10-13s7,19,4,43l-5,42l22-34
		c15-24,18-36,10-41c-7-4,1-9,19-12s34-1,37,4c3,4-2,8-11,8s-14,4-10,9c3,5-4,13-15,16c-12,4-19,12-17,18c2,7-1,19-8,27
		c-10,13-40,101-36,108c1,1-5,15-13,31c-11,21-12,31-3,40c15,15,30,14,24-3c-4-10,5-8,35,6c33,16,42,17,56,6c12-10,14-10,8,0
		c-4,6-2,12,3,12c6,0,11,6,11,13c0,8,9,22,20,32s20,16,20,14c0-8-47-120-54-126c-10-10-7-53,4-53c6,0,10,7,10,15c0,24,58,145,69,145
		c6,0,28-27,50-60c40-61,46-88,39-185c-1-11,2-30,6-42c7-22,5-23-63-23h-70l10,32c11,40,11,61-1,33c-7-18-8-18-15,8s-63,83-72,73
		c-3-3,13-26,35-51c36-41,40-49,30-71c-6-13-9-26-7-28s47-6,101-8c83-3,95-1,88,12c-4,8-8,54-9,103l-1,87l-55,84
		c-55,83-71,122-40,96c13-11,14-10,9,4c-3,9-13,16-21,16c-14,0-60,86-55,104c2,4-2,13-7,20c-5,6-12,23-14,37c-3,15-14,44-25,65
		c-10,21-23,53-27,69C576,775,550,825,550,791z M820,75c0-19-6-19-14,0c-3,8-1,15,4,15C816,90,820,83,820,75z"/>
	<path d="M895,770c-3-5-1-10,4-10c6,0,11,5,11,10c0,6-2,10-4,10C903,780,898,776,895,770z"/>
	<path d="M1095,770c3-5,8-10,11-10c2,0,4,5,4,10c0,6-5,10-11,10C1094,780,1092,776,1095,770z"/>
	<path d="M1140,770c0-5,7-7,15-4c8,4,15,8,15,10s-7,4-15,4S1140,776,1140,770z"/>
	<path d="M757,752c-10-10-14-21-11-24c3-4-7-32-22-63c-30-65-46-125-33-125c10,0,30,35,24,42c-4,4,30,94,40,106c7,8,55-20,55-33
		c0-8,7-15,15-15s15-4,15-9s7-12,16-15c20-8,7,13-23,38c-13,10-30,32-38,50c-8,17-12,21-9,9c3-13,1-23-4-23c-16,0-22,28-12,55
		C781,775,779,776,757,752z"/>
	<path d="M672,730c0-14,2-19,5-12c2,6,2,18,0,25C674,749,672,744,672,730z"/>
	<path d="M1340,735c-7-9-8-15-2-15c5,0,12,7,16,15c3,8,4,15,2,15S1347,743,1340,735z"/>
	<path d="M1236,724c-4-9-4-19-1-22c2-3,7,3,11,12s4,19,1,22C1245,739,1240,733,1236,724z"/>
	<path d="M1080,709c0-4,18-34,40-67c25-37,38-66,34-76c-4-11-2-16,7-14c8,2,13-3,12-9c-2-7,2-13,7-13c14,0,13,5-16,63
		C1141,641,1081,723,1080,709z"/>
	<path d="M1330,691c0-6,5-13,10-16c6-3,10,1,10,9c0,9-4,16-10,16C1335,700,1330,696,1330,691z"/>
	<path d="M935,666c-23-19-27-27-18-36c14-15,34-4,27,15c-3,8,6,20,23,29c15,8,21,15,13,16C972,690,952,679,935,666z"/>
	<path d="M1052,652c5-12,88-85,88-78c0,9-76,86-85,86C1051,660,1050,656,1052,652z"/>
	<path d="M1295,642c-5-4-12-16-13-27c-2-11-8-24-13-29c-12-13-12-26,1-26c6,0,10,7,10,16c0,14,2,15,18,3c15-13,16-12,3,4
		c-11,14-11,23-3,42C1310,652,1310,654,1295,642z"/>
	<path d="M800,615c7-9,15-13,17-11c7,7-7,26-19,26C792,630,792,624,800,615z"/>
	<path d="M878,603c-5-21,0-43,11-43c8,0,8,46,0,55C885,618,880,613,878,603z"/>
	<path d="M782,564c-7-8-8-14-3-14c10,0,25,19,20,25C797,576,789,572,782,564z"/>
	<path d="M1077,569c7-7,15-10,18-7s-2,9-12,12C1069,580,1068,579,1077,569z"/>
	<path d="M1220,569c0-5,5-7,10-4c6,3,10,8,10,11c0,2-4,4-10,4C1225,580,1220,575,1220,569z"/>
	<path d="M840,553c0-13,6-23,14-23s17-6,19-12c4-10,6-10,6,0c2,20,1,22-4,20c-2-2-11,6-19,17C841,575,841,575,840,553z"/>
	<path d="M911,551c-8-6-9-11-3-15c6-3,14-1,17,5C934,555,927,561,911,551z"/>
	<path d="M1053,538c-4-7,1-9,15-6c12,4,23,0,26-8c6-15-53-30-78-21c-8,3-17-1-20-10c-9-23-148-14-203,13c-40,20-41,20-55,2
		c-7-10-13-22-13-26s-3-12-7-17c-4-6-3-17,1-24c6-9,15-4,33,19c17,22,30,30,39,24c7-4,22-9,34-10c11-2,41-7,67-12s49-6,50-2
		c2,4,22,10,46,14c29,4,41,3,37-4c-3-5-13-10-21-10s-14-4-14-10c0-12,26-2,70,27c40,27,65,29,74,8c5-14-6-20-29-15c-5,1-5-4,2-11
		c10-10,15-9,28,1c23,19,18,36-17,62C1081,548,1063,553,1053,538z"/>
	<path d="M1233,535c-8-22,5-31,20-15c10,10,9,11-2,5s-13-4-8,8c3,10,4,17,1,17C1242,550,1237,543,1233,535z"/>
	<path d="M1325,530c3-5,8-10,11-10c2,0,4,5,4,10c0,6-5,10-11,10C1324,540,1322,536,1325,530z"/>
	<path d="M1385,513c-4-13-10-23-14-23s-15-16-24-35s-22-35-29-35c-6,0-9-3-5-6c7-8-61-82-88-96c-16-9-18-8-7,3c17,18,15,34-3,19
		c-8-7-15-19-15-26c0-8-7-11-17-8c-13,4-14,3-5-3c10-7,7-15-12-36c-23-25-23-26-6-42c14-12,20-13,26-4c4,7,3,10-4,5c-6-3-13-2-17,4
		c-7,11,23,43,97,102c51,41,143,171,134,191C1393,530,1389,526,1385,513z"/>
	<path d="M960,500c-8-5-10-10-5-10c6,0,17,5,25,10s11,10,5,10C980,510,968,505,960,500z"/>
	<path d="M1220,496c0-2,7-9,15-16c9-7,15-8,15-2c0,5-7,12-15,16C1227,497,1220,498,1220,496z"/>
	<path d="M810,450c0-5,5-10,11-10c5,0,7,5,4,10c-3,6-8,10-11,10C812,460,810,456,810,450z"/>
	<path d="M1150,450c0-5,7-10,16-10c8,0,12,5,9,10c-3,6-10,10-16,10C1154,460,1150,456,1150,450z"/>
	<path d="M1023,418c-33-11-53-38-28-38c8,0,15,5,15,11c0,5,4,8,9,5c13-8,38,3,45,20C1070,432,1068,432,1023,418z"/>
	<path d="M1247,423c-3-5-1-17,3-27c6-17,7-18,13-3c3,9,2,17-4,17s-7,5-4,10c3,6,4,10,1,10S1249,427,1247,423z"/>
	<path d="M1170,410c0-5,6-7,13-5c15,6,41-14,50-39c9-24,18-17,11,9C1237,403,1170,434,1170,410z"/>
	<path d="M785,401c-3-5-2-12,3-15s9,1,9,9C797,412,794,414,785,401z"/>
	<path d="M824,396c21-17,132-23,122-8c-3,5-25,9-50,9c-24,1-55,4-68,8C806,411,806,411,824,396z"/>
	<path d="M1093,395c-15-17-17-39-3-30c14,8,32,45,23,45C1109,409,1099,403,1093,395z"/>
	<path d="M961,372c-1-8-12-11-33-8c-18,2-42,0-53-5c-24-9-9-12,50-9c46,2,49,4,42,22C963,382,961,382,961,372z"/>
	<path d="M770,355c-8-9-8-15-2-15c12,0,26,19,19,26C785,368,777,364,770,355z"/>
	<path d="M1,344c0-11,3-14,6-6c3,7,2,16-1,19C3,361,0,355,1,344z"/>
	<path d="M993,353c37-10,12-50-28-44c-20,3-20,3,0-12c17-13,21-13,28-1c4,8,14,14,22,14s17,5,21,12c8,13-23,39-45,37
		C978,358,979,357,993,353z"/>
	<path d="M1181,346c-9-11-9-16,1-22c7-4,10-4,6,1c-4,4-3,14,3,22c6,7,9,13,6,13C1195,360,1187,354,1181,346z"/>
	<path d="M1100,340c0-5,5-10,11-10c5,0,7,5,4,10c-3,6-8,10-11,10C1102,350,1100,346,1100,340z"/>
	<path d="M900,330c0-5,5-10,11-10c5,0,7,5,4,10c-3,6-8,10-11,10C902,340,900,336,900,330z"/>
	<path d="M1097,309c7-7,15-10,18-7s-2,9-12,12C1089,320,1088,319,1097,309z"/>
	<path d="M816,293c-6-14-5-15,5-6c7,7,10,15,7,18S819,303,816,293z"/>
	<path d="M866,297c3-10,9-15,12-12s0,11-7,18C861,312,860,311,866,297z"/>
	<path d="M910,285c-7-9-11-17-9-20c3-2,10,5,17,15C932,304,928,306,910,285z"/>
	<path d="M1662,271c-24-21-28-31-22-51l7-25l7,26c8,27,59,64,76,54c6-3,10-2,10,3C1740,301,1690,296,1662,271z"/>
	<path d="M826,265c-3-8-1-15,4-15c6,0,10,7,10,15s-2,15-4,15S830,273,826,265z"/>
	<path d="M930,270c0-5,7-7,15-4c8,4,15,8,15,10s-7,4-15,4S930,276,930,270z"/>
	<path d="M1747,267c-4-10,2-13,20-9c18,3,21,7,11,13C1760,283,1753,282,1747,267z"/>
	<path d="M856,254c-5-14-4-15,9-4c12,10,15,10,15-4c0-10,5-14,10-11c8,5,7,11-1,21C874,274,864,274,856,254z"/>
	<path d="M1074,253c-4-10-6-21-6-25c1-5-5-8-13-8c-18,0-19-9-4-30c9-13,10-12,5,3c-5,14-1,18,17,15c12-2,24-6,27-10s11,6,17,23
		c12,30,12,31-7,14s-46-12-34,6c3,5,10,7,15,4c5-4,9,1,9,9C1100,275,1084,274,1074,253z"/>
	<path d="M1190,250c0-5,5-10,11-10c5,0,7,5,4,10c-3,6-8,10-11,10C1192,260,1190,256,1190,250z"/>
	<path d="M1020,240c0-5,5-10,10-10c6,0,10,5,10,10c0,6-4,10-10,10C1025,250,1020,246,1020,240z"/>
	<path d="M847,223c-4-6,0-16,8-23s15-9,15-4s4,3,9-5s29-14,64-15c30,0,59-4,63-8c12-13,24-9,24,7c0,9-6,12-15,9c-9-4-15,0-15,10
		c0,9-4,16-10,16c-5,0-10-5-10-11c0-7-14-9-37-5c-21,3-47,7-58,9c-11,1-23,8-26,16C855,229,851,230,847,223z"/>
	<path d="M1130,220c0-5,5-10,11-10c5,0,7,5,4,10c-3,6-8,10-11,10C1132,230,1130,226,1130,220z"/>
	<path d="M1711,211c-8-10-12-22-10-26s-5-12-16-18c-23-14-30-48-9-40c8,3,14,11,14,19s4,14,9,14s16,12,26,26
		C1745,216,1731,240,1711,211z"/>
	<path d="M445,200c-3-5,1-10,10-10s13,5,10,10c-3,6-8,10-10,10S448,206,445,200z"/>
	<path d="M355,190c-3-5,1-10,10-10s13,5,10,10c-3,6-8,10-10,10S358,196,355,190z"/>
	<path d="M1120,189c0-5,5-7,10-4c6,3,10,8,10,11c0,2-4,4-10,4C1125,200,1120,195,1120,189z"/>
	<path d="M1657,193c-4-3-7-11-7-17s5-5,12,2c6,6,9,14,7,17C1666,198,1660,197,1657,193z"/>
	<path d="M1084,181c5-8,0-14-13-18c-11-3-23-14-26-24c-4-10-11-19-16-19s-9-5-9-10c0-17,36,7,59,39c15,21,18,32,10,37
		S1080,189,1084,181z"/>
	<path d="M1865,180c-8-13,5-13,25,0c13,8,13,10-2,10C1879,190,1868,186,1865,180z"/>
	<path d="M428,155c-5-25-4-25,10-11c12,11,13,19,5,27C436,178,431,174,428,155z"/>
	<path d="M1133,166c-13-6-23-14-23-19c0-4,14-1,30,8c17,9,30,18,30,20C1170,182,1158,179,1133,166z"/>
	<path d="M1891,154c0-11,3-14,6-6c3,7,2,16-1,19C1893,171,1890,165,1891,154z"/>
	<path d="M353,154c3-4,1-16-5-28c-11-21-11-21,10-2s21,36,0,36C352,160,350,157,353,154z"/>
	<path d="M968,148c5-5,16-8,23-6c8,3,3,7-10,11C964,157,960,156,968,148z"/>
	<path d="M1757,140c-14-16-14-20-2-20c8,0,19,9,25,20s7,20,3,20C1778,160,1767,151,1757,140z"/>
	<path d="M1830,156c0-10,28-13,41-5c10,6,7,9-13,9C1842,160,1830,158,1830,156z"/>
	<path d="M1250,130c-13-8-13-10,2-10c9,0,20,5,23,10C1283,143,1270,143,1250,130z"/>
	<path d="M433,114c-15-16-17-34-4-34c10,0,26,39,19,45C447,127,439,122,433,114z"/>
	<path d="M1870,124c0-3,7-12,15-20c13-14,15-13,15,5c0,12-6,21-15,21C1877,130,1870,127,1870,124z"/>
	<path d="M890,115c0-5,5-17,10-25s10-10,10-5c0,6-5,17-10,25S890,121,890,115z"/>
	<path d="M1775,110c-3-5-1-10,4-10c6,0,11,5,11,10c0,6-2,10-4,10C1783,120,1778,116,1775,110z"/>
	<path d="M1832,84l-21-27l22-19c17-15,18-18,5-14c-10,3-18,1-18-4c0-12,27-13,34-1c3,4-1,17-8,27c-17,23-3,46,22,37c15-6,15-5,3,10
		C1854,114,1858,115,1832,84z"/>
	<path d="M1101,64c-12-14-11-16,4-12c10,1,20,9,23,16C1133,85,1118,83,1101,64z"/>
	<path d="M851,54c0-11,3-14,6-6c3,7,2,16-1,19C853,71,850,65,851,54z"/>
	<path d="M910,58c0-9,7-22,17-29c15-13,15-12,3,11C913,74,910,76,910,58z"/>
	<path d="M345,40c-3-11-11-20-16-20c-6,0-8-4-5-9c8-13,43-2,50,14c3,10,0,12-12,8c-15-6-15-5-3,10c8,10,9,17,3,17S348,51,345,40z"/>
	<path d="M270,30c-8-15-8-20,3-20c7,0,13,9,13,20s-1,20-3,20C282,50,276,41,270,30z"/>
	<path d="M1880,39c0-5,5-7,10-4c6,3,10,8,10,11c0,2-4,4-10,4C1885,50,1880,45,1880,39z"/>
	<path d="M987,33c-4-3-7-11-7-17s5-5,12,2c6,6,9,14,7,17C996,38,990,37,987,33z"/>
	<path d="M1787,29c7-7,15-10,18-7s-2,9-12,12C1779,40,1778,39,1787,29z"/>
	<path d="M1740,14c0-8,5-12,10-9c6,3,10,10,10,16c0,5-4,9-10,9C1745,30,1740,23,1740,14z"/>
</g>
</svg>
