<?xml version="1.0" standalone="no"?>
<!DOCTYPE svg PUBLIC "-//W3C//DTD SVG 20010904//EN"
 "http://www.w3.org/TR/2001/REC-SVG-20010904/DTD/svg10.dtd">
<svg version="1.0" xmlns="http://www.w3.org/2000/svg"
 width="191.000000pt" height="192.000000pt" viewBox="0 0 191.000000 192.000000"
 preserveAspectRatio="xMidYMid meet">
<metadata>
Created by potrace 1.10, written by Peter Selinger 2001-2011
</metadata>
<g transform="translate(0.000000,192.000000) scale(0.100000,-0.100000)"
fill="#000000" stroke="none">
<path d="M654 1903 c-29 -29 -66 -121 -59 -144 4 -12 8 -27 9 -33 1 -6 10 -21
21 -32 11 -11 25 -29 32 -40 11 -18 11 -18 6 3 -3 12 -13 30 -23 41 -11 12
-17 32 -16 51 1 17 -1 31 -5 31 -13 0 9 61 36 102 27 41 27 48 -1 21z"/>
<path d="M680 1878 c-16 -22 -30 -48 -31 -57 0 -9 -3 -33 -5 -55 -3 -25 0 -44
9 -55 8 -9 18 -25 21 -36 9 -28 38 -60 66 -74 22 -11 23 -11 8 2 -10 8 -18 19
-18 25 0 6 -12 20 -27 31 l-28 21 30 -12 c17 -6 36 -16 43 -21 8 -6 12 -6 12
1 0 11 -39 37 -50 34 -3 -1 -5 6 -6 16 -3 57 -4 58 -15 40 -5 -10 -15 -18 -22
-18 -7 0 -6 4 3 10 10 6 11 10 3 10 -18 0 -16 52 3 100 10 24 21 37 28 33 6
-3 8 -2 3 2 -4 5 0 17 10 27 9 11 11 18 5 18 -7 0 -25 -19 -42 -42z"/>
<path d="M764 1904 c-12 -7 -25 -10 -28 -8 -3 2 -4 1 -1 -3 3 -3 0 -12 -6 -20
-17 -19 2 -16 30 6 18 14 31 17 48 10 14 -5 25 -4 28 2 4 5 16 7 28 4 17 -5
18 -4 8 4 -11 7 -5 11 25 14 l39 4 -39 1 c-25 1 -47 -4 -59 -15 -17 -15 -19
-15 -15 -3 7 19 -24 21 -58 4z"/>
<path d="M978 1913 c6 -2 18 -2 25 0 6 3 1 5 -13 5 -14 0 -19 -2 -12 -5z"/>
<path d="M1030 1909 c-8 -5 -13 -9 -10 -10 3 0 13 -2 23 -4 9 -2 17 1 17 5 0
15 -15 19 -30 9z"/>
<path d="M1105 1911 c-3 -6 -12 -8 -20 -4 -8 3 -15 1 -15 -4 0 -20 14 -23 37
-8 24 16 29 10 14 -14 -6 -9 -19 -12 -40 -8 -17 4 -43 2 -58 -4 -19 -7 -29 -7
-31 0 -2 6 -11 11 -20 11 -14 0 -14 -3 3 -19 14 -14 29 -18 52 -14 18 3 30 9
27 14 -3 5 0 9 6 9 7 0 14 -9 17 -20 3 -11 11 -20 18 -20 8 0 22 -3 32 -7 17
-6 17 -6 1 10 -9 9 -23 17 -30 17 -7 0 -2 6 12 13 15 8 28 9 31 4 4 -5 9 -4
13 2 4 6 2 11 -3 11 -6 0 -11 4 -11 8 0 4 8 8 19 8 11 0 17 -5 14 -13 -3 -7 2
-13 11 -13 9 0 16 5 16 11 0 5 4 8 9 4 5 -3 13 0 17 6 5 8 3 9 -6 4 -10 -6
-12 -4 -7 8 3 10 2 17 -2 17 -5 0 -12 -6 -14 -12 -4 -10 -6 -9 -6 1 -1 11 -4
11 -17 0 -9 -7 -18 -9 -22 -3 -10 13 -39 16 -47 5z"/>
<path d="M1251 1906 c-7 -9 -11 -21 -8 -28 4 -8 6 -7 6 5 1 19 26 23 37 5 4
-6 3 -8 -2 -5 -6 3 -11 -3 -11 -14 -2 -22 -40 -58 -63 -59 -9 0 -3 10 15 25
17 13 25 24 18 25 -6 0 -15 -5 -19 -11 -5 -8 -9 -8 -14 1 -5 9 -9 9 -14 1 -4
-6 -1 -11 6 -12 7 -1 2 -4 -11 -8 -14 -4 -26 -13 -29 -21 -2 -10 -1 -11 5 -3
6 8 14 8 32 -2 24 -12 24 -13 4 -19 -22 -7 -53 1 -53 14 0 10 -126 -15 -173
-35 -28 -12 -37 -20 -33 -33 3 -9 -1 -29 -8 -44 -11 -20 -11 -28 -3 -32 8 -3
7 -8 -3 -15 -31 -22 1 -10 49 18 27 16 51 28 53 26 2 -3 33 11 68 30 83 44
112 57 117 51 3 -2 -9 -12 -26 -21 -17 -8 -31 -19 -31 -24 0 -13 30 -35 37
-27 3 3 1 6 -5 6 -7 0 -12 5 -12 11 0 6 16 10 38 9 61 -3 72 -1 72 15 0 9 -11
20 -25 25 -39 15 -39 33 0 74 23 24 35 46 33 60 -4 25 -30 32 -47 12z m-95
-126 c11 0 10 -4 -3 -18 -10 -11 -21 -17 -24 -16 -4 2 -26 -9 -49 -25 -25 -17
-51 -26 -62 -23 -10 2 -27 -3 -37 -12 -14 -13 -21 -14 -27 -5 -4 8 -3 10 4 5
7 -4 12 -2 12 3 0 6 -5 11 -11 11 -8 0 -8 5 1 15 7 8 9 15 4 15 -13 0 14 24
30 26 7 1 23 5 35 9 36 11 23 -12 -16 -28 -34 -14 -35 -16 -12 -16 14 -1 34 8
44 19 13 14 21 17 26 9 4 -8 9 -4 14 10 4 14 12 20 21 17 10 -4 12 -2 8 6 -5
8 -2 9 10 5 10 -4 24 -7 32 -7z m104 -43 c0 -2 -11 -4 -25 -4 -27 0 -31 7 -14
24 9 9 15 8 25 -2 8 -7 14 -16 14 -18z"/>
<path d="M1035 1710 c-3 -6 1 -7 9 -4 18 7 21 14 7 14 -6 0 -13 -4 -16 -10z"/>
<path d="M593 1884 c-15 -16 -31 -29 -35 -29 -9 0 -12 -12 -5 -23 2 -4 2 -1 0
6 -1 7 2 10 8 7 6 -4 7 -19 4 -35 -3 -15 -2 -31 4 -34 5 -4 10 6 10 21 0 48 7
65 32 83 13 10 21 22 17 25 -4 4 -19 -6 -35 -21z"/>
<path d="M938 1893 c6 -2 18 -2 25 0 6 3 1 5 -13 5 -14 0 -19 -2 -12 -5z"/>
<path d="M916 1873 c-3 -3 -31 -5 -63 -4 -86 2 -140 -16 -158 -55 -20 -43 -20
-61 0 -44 13 10 15 9 15 -11 0 -17 3 -20 11 -12 8 8 8 17 0 30 -8 17 -5 25 20
49 24 23 38 28 72 27 66 -3 87 -7 87 -17 0 -5 7 -1 16 10 15 18 15 18 10 0 -6
-16 -4 -17 9 -6 10 8 15 9 15 1 0 -6 7 -11 15 -11 12 0 13 4 6 19 -10 18 -45
34 -55 24z"/>
<path d="M1303 1865 c-19 -21 -16 -25 19 -25 17 0 40 -7 50 -17 10 -9 18 -11
18 -6 0 6 -7 16 -15 23 -8 7 -13 16 -10 20 3 4 -5 10 -18 14 -29 8 -30 8 -44
-9z m44 -11 c-3 -3 -12 -4 -19 -1 -8 3 -5 6 6 6 11 1 17 -2 13 -5z"/>
<path d="M1159 1843 c-13 -16 -12 -17 4 -4 9 7 17 15 17 17 0 8 -8 3 -21 -13z"/>
<path d="M1380 1856 c0 -2 8 -10 18 -17 15 -13 16 -12 3 4 -13 16 -21 21 -21
13z"/>
<path d="M797 1822 c-35 -27 -75 -92 -57 -92 5 0 12 11 16 25 3 13 12 30 20
36 12 10 13 8 5 -14 -8 -20 -6 -28 11 -43 19 -18 20 -18 33 -1 16 22 29 22 21
0 -6 -15 -4 -15 14 2 23 21 28 44 5 25 -9 -7 -15 -8 -15 -2 0 9 43 42 56 42 3
0 1 -7 -6 -15 -9 -10 -9 -15 -1 -15 6 0 11 5 11 10 0 6 6 10 14 10 27 0 24 15
-2 17 -15 0 -28 6 -30 12 -4 12 -23 15 -20 4 3 -15 -14 -43 -23 -37 -5 3 -8 0
-7 -7 2 -6 -3 -14 -10 -16 -7 -3 -10 1 -7 10 3 7 -2 20 -11 27 -14 13 -13 15
17 25 24 8 29 13 17 18 -10 3 -30 -5 -51 -21z m13 -47 c-10 -12 -10 -18 0 -30
14 -17 0 -21 -17 -4 -12 12 3 49 21 49 4 0 3 -7 -4 -15z"/>
<path d="M507 1813 c-36 -19 -43 -37 -28 -71 11 -22 10 -28 -6 -40 -10 -7 -17
-15 -15 -17 7 -14 0 -18 -9 -5 -9 13 -10 13 -6 0 2 -8 12 -14 21 -14 15 2 20
-11 19 -44 -1 -7 4 -11 11 -9 6 2 10 17 8 33 -2 28 -2 28 13 10 8 -11 15 -16
15 -11 0 4 9 0 20 -10 11 -10 20 -15 20 -11 0 4 10 2 21 -5 15 -8 19 -8 15 0
-4 6 -3 11 1 11 5 0 13 -10 18 -22 15 -32 38 -37 26 -5 -5 14 -7 28 -3 33 4 4
1 3 -7 -1 -11 -6 -13 -4 -8 8 3 10 2 17 -2 17 -5 0 -18 14 -29 31 -12 19 -22
27 -26 20 -4 -6 -2 -11 4 -11 6 0 9 -4 6 -9 -4 -5 -3 -17 0 -26 5 -13 8 -14
15 -3 5 7 9 9 9 3 0 -30 -17 -37 -51 -20 -43 22 -38 17 -49 54 -5 19 -5 29 1
26 5 -4 17 -1 26 5 17 11 17 11 1 6 -26 -8 -22 13 5 24 20 8 19 9 -10 7 -17 0
-31 -4 -30 -7 1 -3 -2 -6 -8 -7 -5 -2 -10 5 -10 15 0 12 8 17 29 17 16 0 31 6
34 14 3 9 0 11 -8 6 -10 -6 -12 -4 -7 8 3 10 5 17 4 16 -1 -1 -15 -8 -30 -16z"/>
<path d="M741 1811 c-12 -11 -18 -21 -14 -24 5 -3 18 6 30 19 26 29 15 32 -16
5z"/>
<path d="M1015 1820 c3 -5 3 -10 -2 -11 -31 -3 -48 -11 -81 -40 -46 -41 -76
-78 -68 -86 3 -3 8 2 12 11 5 14 9 14 22 4 13 -11 14 -10 8 10 -5 16 -4 22 5
20 7 -2 13 3 14 9 0 7 9 19 21 27 29 21 105 46 118 40 6 -3 2 2 -8 10 -22 18
-51 22 -41 6z"/>
<path d="M1270 1816 c0 -22 17 -28 41 -15 12 6 19 7 15 1 -3 -6 0 -12 6 -15 7
-2 9 -8 5 -13 -4 -5 -12 -2 -16 5 -5 8 -11 9 -15 3 -8 -13 17 -22 64 -22 21 0
41 -4 45 -9 3 -6 -18 -10 -50 -10 -30 0 -55 5 -55 10 0 5 -4 9 -10 9 -5 0 -7
-7 -4 -15 5 -11 22 -15 63 -16 64 -1 102 -11 82 -23 -6 -4 -18 -2 -26 4 -15
13 -94 7 -151 -10 -29 -8 -28 -8 8 -9 20 -1 40 -5 43 -11 3 -5 12 -10 18 -10
8 0 8 3 -1 9 -11 7 -11 9 1 14 8 3 20 0 26 -6 9 -9 16 -8 31 1 34 21 36 13 5
-15 l-30 -26 50 28 c32 18 45 22 36 12 -7 -9 -10 -17 -5 -17 4 0 3 -5 -3 -11
-7 -7 1 -22 28 -49 l38 -38 -54 -4 c-41 -2 -60 1 -76 15 -45 36 -28 7 25 -45
31 -30 56 -52 56 -50 0 3 6 -1 14 -8 8 -6 12 -19 9 -27 -4 -11 -3 -14 6 -9 18
11 40 -12 33 -36 -3 -15 -1 -19 9 -16 15 5 15 7 3 103 -4 33 -7 64 -5 69 1 4
-10 23 -24 41 -28 38 -33 54 -10 35 9 -7 15 -8 15 -2 0 5 -7 13 -16 16 -9 3
-14 12 -11 20 3 8 3 17 -1 21 -4 4 -7 10 -7 14 0 9 -57 75 -68 78 -4 2 -22 10
-39 19 -47 24 -98 30 -98 10z m165 -266 c3 -5 11 -10 16 -10 6 0 7 5 4 10 -3
6 3 10 14 10 12 0 21 -2 21 -5 0 -9 -39 -49 -43 -44 -1 2 -11 14 -21 27 -11
12 -14 22 -8 22 6 0 14 -4 17 -10z m76 -42 c9 -18 9 -21 -1 -11 -7 6 -19 9
-26 6 -14 -5 -19 8 -7 20 12 12 22 7 34 -15z m4 -36 c-3 -3 -11 0 -18 7 -9 10
-8 11 6 5 10 -3 15 -9 12 -12z"/>
<path d="M830 1808 c0 -4 4 -8 9 -8 6 0 12 4 15 8 3 5 -1 9 -9 9 -8 0 -15 -4
-15 -9z"/>
<path d="M761 1724 c0 -11 3 -14 6 -6 3 7 2 16 -1 19 -3 4 -6 -2 -5 -13z"/>
<path d="M541 1711 l-22 -19 32 -22 c30 -22 30 -22 18 -2 -7 11 -17 18 -21 16
-14 -9 -9 9 9 28 21 24 12 23 -16 -1z"/>
<path d="M780 1689 c0 -5 -4 -7 -10 -4 -5 3 -10 2 -10 -3 0 -8 22 -22 34 -22
1 0 2 9 2 20 0 11 -4 20 -8 20 -4 0 -8 -5 -8 -11z"/>
<path d="M1113 1687 c-17 -7 -35 -16 -40 -21 -5 -5 0 -6 12 -1 11 4 32 10 48
13 15 2 27 8 27 13 0 11 -7 11 -47 -4z"/>
<path d="M831 1676 c-21 -25 -23 -63 -4 -71 14 -5 15 -4 6 6 -9 9 -9 19 2 46
15 36 14 41 -4 19z"/>
<path d="M863 1655 c-12 -14 -18 -27 -13 -30 5 -3 10 1 13 7 3 10 7 10 20 -1
9 -7 14 -17 11 -22 -3 -5 0 -9 5 -9 14 0 14 27 1 35 -8 5 -8 11 -1 19 10 12 5
26 -8 26 -3 0 -16 -11 -28 -25z"/>
<path d="M1125 1659 c-73 -22 -130 -67 -109 -86 8 -8 15 -9 19 -3 3 6 1 10 -5
10 -6 0 -8 5 -5 10 4 6 10 8 14 5 5 -2 19 7 32 21 12 13 29 22 37 19 8 -3 19
-2 25 2 6 3 33 7 61 8 28 1 59 6 69 10 12 5 17 3 15 -5 -2 -8 19 -20 55 -30
58 -18 70 -14 41 14 -19 19 -35 20 -53 4 -11 -11 -12 -10 -6 1 6 11 4 13 -8 8
-12 -4 -14 -2 -10 10 5 13 0 15 -30 11 -19 -2 -34 -1 -32 3 8 12 -51 6 -110
-12z m85 1 c0 -5 -12 -10 -27 -9 -25 0 -26 1 -8 9 27 12 35 12 35 0z"/>
<path d="M1025 1660 c-13 -6 -15 -9 -5 -9 8 0 22 4 30 9 18 12 2 12 -25 0z"/>
<path d="M1416 1654 c-23 -23 -20 -43 10 -54 33 -13 53 -2 29 16 -14 10 -22
11 -32 3 -18 -15 -16 2 3 29 18 26 12 29 -10 6z"/>
<path d="M776 1635 c6 -14 3 -16 -17 -11 -22 7 -22 6 4 -11 46 -30 28 -44 -29
-23 -23 9 -25 8 -15 -4 12 -14 84 -28 75 -15 -2 4 0 10 6 14 5 3 10 -1 10 -9
0 -18 8 -20 29 -7 10 6 5 12 -17 22 -16 7 -28 18 -25 24 2 7 -3 18 -12 25 -13
11 -14 10 -9 -5z"/>
<path d="M972 1614 c-24 -14 -41 -28 -38 -31 6 -6 86 43 86 52 0 8 -2 7 -48
-21z"/>
<path d="M492 1568 c-22 -43 -28 -66 -21 -73 7 -7 16 -3 29 13 10 12 28 22 40
22 12 0 19 4 15 9 -3 5 -1 12 5 16 5 3 10 0 10 -7 1 -8 6 -6 15 6 8 11 15 15
15 10 0 -22 -64 -74 -90 -74 -13 0 -70 -41 -70 -50 0 -4 7 -7 15 -7 8 0 12 4
9 9 -3 4 2 5 11 2 17 -7 20 -1 -31 -80 -13 -19 -14 -28 -6 -36 7 -7 13 -10 14
-7 2 2 13 22 25 44 12 22 32 47 45 55 21 14 22 14 9 -2 -7 -10 -11 -24 -8 -32
3 -8 -1 -13 -11 -12 -9 0 -21 -9 -27 -20 -6 -12 -16 -28 -23 -36 -6 -8 -10
-17 -7 -19 2 -3 15 -46 29 -96 l24 -91 -21 -20 c-12 -11 -31 -22 -42 -24 -26
-4 -34 -55 -10 -60 10 -2 25 -26 36 -57 42 -119 90 -160 191 -162 96 -2 134
26 159 117 14 50 16 71 8 81 -17 20 7 43 45 43 34 0 76 -23 64 -36 -4 -4 -14
-1 -22 5 -18 15 -68 11 -73 -6 -3 -8 6 -10 29 -7 41 7 48 0 80 -81 20 -50 31
-64 69 -85 36 -20 57 -25 114 -24 125 2 162 34 189 166 9 47 18 64 34 71 13 6
22 19 22 33 0 28 67 74 80 54 5 -8 15 -9 31 -4 13 4 27 7 32 6 6 -2 12 44 9
69 -1 4 -2 44 -3 90 -1 48 -7 95 -15 111 -11 21 -11 28 -1 32 6 3 3 4 -9 1
-23 -6 -50 18 -39 35 4 6 3 9 -2 8 -5 -2 -19 7 -33 20 -13 12 -28 22 -32 22
-5 0 -7 4 -3 9 3 5 0 13 -6 17 -8 4 -9 3 -5 -4 5 -9 -3 -10 -29 -6 -29 4 -35
3 -29 -8 5 -7 10 -24 12 -37 2 -14 8 -33 13 -43 5 -10 7 -23 3 -29 -4 -8 -1
-8 13 -1 25 14 123 -40 123 -68 0 -10 5 -22 10 -25 6 -3 10 -12 10 -18 0 -7
-4 -6 -10 3 -17 27 -20 3 -4 -36 14 -33 14 -36 1 -25 -13 10 -15 9 -10 -9 3
-11 2 -20 -3 -18 -5 2 -9 -2 -9 -7 0 -6 4 -9 8 -7 5 1 7 -10 5 -25 -2 -16 -7
-26 -13 -23 -5 3 -9 11 -9 18 2 9 -4 8 -17 -4 -17 -15 -19 -15 -19 -1 0 8 -2
21 -3 29 -2 7 -2 10 0 5 3 -4 9 -4 14 -1 15 9 -10 34 -26 28 -8 -3 -11 -12 -8
-20 3 -8 -1 -14 -7 -14 -10 0 -9 -5 2 -17 9 -10 13 -25 10 -33 -12 -35 -34
-39 -185 -34 -106 4 -153 2 -163 -7 -8 -6 -14 -9 -14 -5 0 3 -17 -1 -37 -10
-72 -30 -84 -34 -78 -25 3 5 0 13 -6 17 -7 4 -9 3 -6 -3 4 -6 -14 -8 -47 -5
-32 2 -56 0 -60 -6 -7 -11 -51 -1 -88 19 -20 10 -188 11 -188 1 0 -4 -15 -7
-33 -8 l-32 0 28 10 c26 10 27 12 28 90 1 45 0 86 -1 91 -4 16 -3 28 5 60 l8
30 -22 -19 c-22 -20 -29 -42 -9 -30 7 4 8 3 4 -5 -4 -6 -12 -8 -18 -5 -6 4 -8
2 -4 -4 3 -6 2 -14 -4 -17 -7 -4 -10 5 -8 25 2 23 11 36 34 51 20 12 34 30 38
50 3 16 21 61 40 100 20 40 29 69 23 70 -7 0 -25 3 -40 5 -22 4 -30 0 -34 -15
-5 -18 -25 -23 -39 -9 -3 4 3 20 15 36 23 32 26 42 13 42 -5 0 -23 -28 -40
-62z m898 -68 c0 -5 6 -10 13 -10 8 0 22 -9 32 -20 18 -20 18 -20 -5 -17 -13
2 -26 9 -28 15 -5 17 -19 15 -19 -2 0 -7 13 -21 29 -30 19 -12 28 -13 28 -5 0
8 4 8 15 -1 8 -7 12 -16 9 -21 -3 -5 1 -6 8 -4 8 3 18 -6 24 -23 11 -28 11
-28 -53 15 -35 23 -71 47 -81 53 -16 9 -16 11 0 23 13 11 15 16 6 25 -9 9 -8
12 5 12 9 0 17 -4 17 -10z m-825 -19 c-3 -6 -11 -9 -16 -6 -5 4 -9 -1 -9 -9 0
-8 -10 -20 -21 -27 -15 -8 -19 -8 -15 0 4 6 2 11 -4 11 -19 0 1 21 34 35 33
14 42 13 31 -4z m-51 -245 c-3 -21 -9 -35 -11 -32 -3 3 -2 21 1 42 4 20 10 34
12 31 3 -3 2 -21 -2 -41z m599 -143 c-7 -2 -21 -2 -30 0 -10 3 -4 5 12 5 17 0
24 -2 18 -5z m159 -20 c-9 -4 -7 -12 8 -30 33 -42 21 -138 -23 -188 -29 -33
-129 -57 -172 -41 -54 20 -72 35 -92 75 -11 22 -22 39 -24 37 -2 -2 -5 16 -7
40 -3 54 19 91 62 103 29 9 275 12 248 4z m78 -15 c0 -19 -2 -20 -10 -8 -13
19 -13 30 0 30 6 0 10 -10 10 -22z m-618 1 c53 -27 68 -50 68 -103 0 -28 -9
-70 -19 -93 -16 -35 -26 -44 -60 -53 -45 -12 -100 -5 -143 17 -36 17 -68 82
-75 148 -5 47 -3 53 20 72 21 16 43 21 107 22 45 1 90 -3 102 -10z m578 1 c0
-5 -2 -10 -4 -10 -3 0 -8 5 -11 10 -3 6 -1 10 4 10 6 0 11 -4 11 -10z m-800
-4 c0 -3 -4 -8 -10 -11 -5 -3 -10 -1 -10 4 0 6 5 11 10 11 6 0 10 -2 10 -4z
m360 -5 c0 -7 -30 -22 -52 -25 -19 -3 -7 20 14 26 34 9 38 9 38 -1z m-420 -11
c0 -5 -5 -10 -11 -10 -5 0 -7 5 -4 10 3 6 8 10 11 10 2 0 4 -4 4 -10z m30 -11
c0 -6 -4 -7 -10 -4 -5 3 -10 11 -10 16 0 6 5 7 10 4 6 -3 10 -11 10 -16z m450
11 c18 -12 2 -12 -25 0 -13 6 -15 9 -5 9 8 0 22 -4 30 -9z m-441 -67 c0 -25
-1 -26 -9 -8 -12 27 -12 35 0 35 6 0 10 -12 9 -27z"/>
<path d="M1019 1048 c-8 -7 -22 -22 -29 -33 -10 -13 -4 -11 18 8 37 30 54 35
46 12 -4 -8 -13 -15 -20 -15 -26 0 7 -26 35 -28 22 -1 23 0 9 9 -22 12 -23 23
-2 43 14 15 13 16 -13 16 -16 0 -36 -6 -44 -12z"/>
<path d="M1100 1039 c0 -53 47 -68 76 -24 9 14 20 22 26 19 5 -3 4 -12 -3 -20
-10 -12 -9 -13 5 -8 9 3 18 0 21 -7 3 -8 16 -15 29 -15 15 -1 23 3 20 10 -9
23 -71 53 -122 58 -45 4 -52 3 -52 -13z m59 -8 c8 -5 9 -11 3 -15 -6 -3 -13
-2 -17 4 -3 5 -11 10 -16 10 -6 0 -7 -4 -4 -10 3 -5 1 -10 -4 -10 -6 0 -11 7
-11 15 0 16 27 20 49 6z"/>
<path d="M1001 986 c-9 -11 -9 -16 0 -22 7 -4 9 -3 5 4 -3 6 2 12 11 14 12 2
14 6 7 11 -7 4 -17 0 -23 -7z"/>
<path d="M1026 961 c-3 -4 6 -8 20 -9 13 -1 24 0 24 2 0 7 -40 14 -44 7z"/>
<path d="M1217 949 c7 -7 15 -10 18 -7 3 3 -2 9 -12 12 -14 6 -15 5 -6 -5z"/>
<path d="M990 940 c0 -5 7 -10 15 -10 8 0 19 -8 24 -17 12 -23 71 -58 71 -43
0 6 5 8 13 4 9 -6 8 -3 -1 8 -8 9 -19 15 -25 12 -7 -2 -28 9 -47 26 -37 31
-50 37 -50 20z"/>
<path d="M1236 905 c-3 -9 -18 -15 -36 -15 -18 0 -29 -4 -25 -10 9 -15 41 -12
59 5 8 8 19 15 25 15 6 0 11 5 11 10 0 16 -27 12 -34 -5z"/>
<path d="M1115 840 c3 -5 8 -10 11 -10 2 0 4 5 4 10 0 6 -5 10 -11 10 -5 0 -7
-4 -4 -10z"/>
<path d="M653 1044 c-9 -24 10 -49 41 -52 20 -3 28 2 35 20 9 24 6 38 -9 38
-5 0 -7 -6 -4 -14 3 -8 1 -17 -5 -21 -7 -3 -11 2 -11 13 0 11 -7 23 -16 26
-22 9 -24 8 -31 -10z m30 -24 c3 -11 1 -20 -4 -20 -5 0 -9 9 -9 20 0 11 2 20
4 20 2 0 6 -9 9 -20z"/>
<path d="M589 1029 c-12 -12 -19 -29 -16 -39 3 -13 -2 -20 -19 -24 -28 -7 -31
-21 -6 -35 10 -6 12 -11 4 -11 -7 0 -10 -5 -7 -10 4 -6 10 -8 15 -5 4 3 10 -1
13 -7 2 -7 7 -10 11 -7 13 12 -16 58 -33 53 -9 -3 -2 2 14 12 40 22 41 24 27
33 -10 6 -5 15 18 35 21 17 26 26 16 26 -9 0 -25 -9 -37 -21z"/>
<path d="M524 994 c-1 -13 2 -24 8 -24 5 0 6 5 3 10 -3 6 -1 10 4 10 15 0 14
17 -1 23 -8 3 -14 -5 -14 -19z"/>
<path d="M605 1011 c-3 -6 4 -15 15 -21 31 -17 42 -8 15 13 -14 9 -26 13 -30
8z"/>
<path d="M751 1006 c-9 -11 -6 -15 14 -18 28 -6 32 3 11 21 -10 8 -16 8 -25
-3z"/>
<path d="M660 958 c0 -10 18 -9 45 2 16 6 14 8 -12 7 -18 0 -33 -4 -33 -9z"/>
<path d="M729 950 l-24 -21 33 16 c31 15 41 25 23 25 -5 0 -19 -9 -32 -20z"/>
<path d="M617 949 c7 -7 15 -10 18 -7 3 3 -2 9 -12 12 -14 6 -15 5 -6 -5z"/>
<path d="M619 911 c12 -12 27 -17 45 -14 39 8 42 23 2 16 -19 -3 -36 -1 -40 6
-4 6 -11 11 -17 11 -5 0 -1 -8 10 -19z"/>
<path d="M742 903 c-12 -2 -20 -9 -17 -14 4 -5 -1 -9 -10 -9 -9 0 -13 5 -10
10 3 6 4 10 1 10 -3 0 -10 -8 -15 -18 -9 -16 -6 -18 19 -14 16 2 37 13 46 23
9 10 15 18 13 18 -2 -1 -14 -4 -27 -6z"/>
<path d="M565 874 c11 -8 19 -18 17 -22 -2 -3 1 -8 7 -10 6 -2 11 2 11 9 0 13
-29 38 -45 38 -5 0 -1 -6 10 -15z"/>
<path d="M628 843 c7 -3 16 -2 19 1 4 3 -2 6 -13 5 -11 0 -14 -3 -6 -6z"/>
<path d="M680 1606 c6 -17 5 -26 -3 -30 -9 -5 -9 -7 0 -12 6 -3 30 -30 53 -59
35 -46 86 -85 109 -85 3 0 -17 20 -45 44 -29 25 -64 71 -83 105 -33 63 -48 79
-31 37z"/>
<path d="M1157 1619 c-10 -6 -21 -8 -24 -5 -3 3 -15 1 -26 -5 -15 -8 -18 -8
-12 1 5 8 3 11 -6 8 -8 -3 -22 -19 -33 -37 -14 -25 -16 -35 -7 -44 9 -9 11 -8
5 6 -4 13 -2 16 9 11 10 -4 15 0 14 13 -2 17 2 19 46 22 12 1 33 10 47 21 26
21 18 27 -13 9z"/>
<path d="M1199 1612 c-13 -9 -27 -20 -30 -25 -4 -5 -17 -10 -31 -10 -14 -1
-25 -7 -25 -14 0 -7 8 -9 21 -4 12 5 27 6 34 4 6 -3 12 2 12 10 0 8 7 20 15
27 12 10 15 10 15 -1 0 -9 3 -10 8 -4 11 16 41 15 35 -1 -5 -13 -33 -19 -58
-14 -5 1 -6 -2 -2 -6 17 -17 57 -10 79 14 13 14 17 22 10 18 -7 -4 -14 -1 -17
6 -8 19 -38 19 -66 0z"/>
<path d="M567 1599 c7 -7 15 -10 18 -7 3 3 -2 9 -12 12 -14 6 -15 5 -6 -5z"/>
<path d="M530 1589 c0 -5 5 -7 10 -4 6 3 10 8 10 11 0 2 -4 4 -10 4 -5 0 -10
-5 -10 -11z"/>
<path d="M874 1579 c-2 -4 0 -9 6 -11 5 -1 7 -14 3 -27 l-6 -23 -12 22 c-8 15
-15 19 -19 11 -4 -6 -2 -11 4 -11 6 0 9 -4 6 -9 -9 -14 20 -21 33 -8 6 6 11
18 11 27 0 9 4 20 10 26 6 6 3 10 -11 10 -11 0 -22 -3 -25 -7z"/>
<path d="M1308 1578 c25 -12 31 -34 6 -24 -8 3 -12 2 -9 -4 7 -11 55 -14 55
-4 0 11 -45 43 -60 43 -9 0 -6 -5 8 -11z"/>
<path d="M943 1573 c-14 -5 -18 -24 -5 -21 4 1 22 -6 39 -15 22 -12 31 -13 29
-5 -15 51 -16 51 -33 37 -12 -10 -14 -10 -9 -1 7 12 0 14 -21 5z"/>
<path d="M445 1560 c3 -5 12 -7 20 -3 21 7 19 13 -6 13 -11 0 -18 -4 -14 -10z"/>
<path d="M760 1551 c0 -6 3 -11 8 -12 40 -5 62 -5 62 2 0 4 -8 7 -17 7 -10 0
-26 3 -35 7 -11 4 -18 3 -18 -4z"/>
<path d="M918 1533 c7 -3 16 -2 19 1 4 3 -2 6 -13 5 -11 0 -14 -3 -6 -6z"/>
<path d="M1180 1531 c0 -5 5 -13 10 -16 6 -3 10 -2 10 4 0 5 -4 13 -10 16 -5
3 -10 2 -10 -4z"/>
<path d="M1245 1530 c4 -6 11 -8 16 -5 14 9 11 15 -7 15 -8 0 -12 -5 -9 -10z"/>
<path d="M1101 1508 c5 -10 11 -18 12 -18 2 0 3 8 4 18 1 10 -5 19 -12 19 -10
0 -11 -5 -4 -19z"/>
<path d="M1221 1520 c-1 -18 18 -40 34 -40 5 0 3 6 -6 13 -9 7 -18 19 -22 27
-5 13 -6 13 -6 0z"/>
<path d="M818 1492 c-10 -2 -18 -7 -18 -12 0 -4 9 -6 20 -3 14 4 21 -1 26 -21
3 -14 10 -26 15 -26 13 0 11 6 -8 38 -11 17 -25 26 -35 24z"/>
<path d="M1160 1490 c8 -5 22 -10 30 -10 13 0 13 1 0 10 -8 5 -22 10 -30 10
-13 0 -13 -1 0 -10z"/>
<path d="M665 1479 c-4 -6 -5 -12 -2 -15 2 -3 7 2 10 11 7 17 1 20 -8 4z"/>
<path d="M1031 1487 c2 -1 13 -9 24 -17 19 -14 19 -14 6 3 -7 9 -18 17 -24 17
-6 0 -8 -1 -6 -3z"/>
<path d="M1271 1463 c-1 -7 -9 -13 -18 -13 -15 0 -16 -2 -3 -10 18 -11 35 2
27 22 -4 9 -6 10 -6 1z"/>
<path d="M605 1450 c-3 -5 -1 -10 4 -10 6 0 11 5 11 10 0 6 -2 10 -4 10 -3 0
-8 -4 -11 -10z"/>
<path d="M702 1444 c-14 -16 -5 -18 17 -5 7 5 9 11 5 14 -5 3 -15 -1 -22 -9z"/>
<path d="M1080 1456 c0 -2 8 -10 18 -17 15 -13 16 -12 3 4 -13 16 -21 21 -21
13z"/>
<path d="M638 1406 c-19 -14 -23 -26 -10 -26 4 0 13 9 20 20 14 23 13 24 -10
6z"/>
<path d="M880 1412 c0 -5 7 -15 15 -22 8 -7 15 -8 15 -2 0 5 -7 15 -15 22 -8
7 -15 8 -15 2z"/>
<path d="M850 1404 c1 -25 30 -44 66 -44 29 0 35 3 24 10 -8 5 -23 7 -33 4
-11 -4 -25 3 -38 17 -10 12 -19 18 -19 13z"/>
<path d="M1170 1400 c0 -5 5 -10 11 -10 5 0 7 5 4 10 -3 6 -8 10 -11 10 -2 0
-4 -4 -4 -10z"/>
<path d="M1270 1385 c14 -17 13 -18 -3 -12 -23 9 -13 -9 13 -23 16 -9 17 -7
11 17 -4 15 -14 29 -22 31 -12 5 -12 2 1 -13z"/>
<path d="M1390 1380 c0 -11 -5 -20 -12 -20 -9 0 -9 -3 0 -12 10 -9 16 -8 30 6
9 11 11 16 5 12 -7 -4 -13 -3 -13 3 0 5 5 11 12 13 7 3 6 7 -5 11 -12 5 -17 1
-17 -13z"/>
<path d="M650 1379 c0 -5 5 -7 10 -4 6 3 10 8 10 11 0 2 -4 4 -10 4 -5 0 -10
-5 -10 -11z"/>
<path d="M668 1361 c-25 -12 -39 -15 -42 -7 -2 6 -5 5 -5 -3 -1 -8 -9 -23 -18
-34 -18 -20 -18 -20 9 -3 15 10 33 14 39 10 7 -4 9 -3 6 3 -10 16 16 33 64 42
37 7 39 9 14 10 -17 1 -47 -7 -67 -18z"/>
<path d="M1101 1361 c31 -10 61 -21 67 -25 7 -4 12 -4 12 -1 0 11 -84 45 -110
44 -16 0 -4 -7 31 -18z"/>
<path d="M1430 1364 c0 -5 12 -18 27 -28 16 -12 24 -14 21 -6 -5 16 -48 46
-48 34z"/>
<path d="M1000 1346 c0 -9 30 -14 35 -6 4 6 -3 10 -14 10 -12 0 -21 -2 -21 -4z"/>
<path d="M1360 1330 c6 -11 13 -20 16 -20 2 0 0 9 -6 20 -6 11 -13 20 -16 20
-2 0 0 -9 6 -20z"/>
<path d="M765 1330 c-3 -5 -1 -10 4 -10 6 0 11 5 11 10 0 6 -2 10 -4 10 -3 0
-8 -4 -11 -10z"/>
<path d="M1395 1278 c6 -50 15 -63 15 -22 0 22 3 26 10 14 6 -9 10 -10 10 -3
0 6 -7 18 -15 26 -8 8 -11 17 -8 21 4 3 1 6 -5 6 -8 0 -11 -13 -7 -42z"/>
<path d="M994 1302 c4 -7 3 -12 -1 -12 -5 0 -18 -7 -29 -14 -17 -13 -14 -13
21 -1 86 30 178 14 229 -41 14 -16 26 -24 26 -18 0 18 -55 64 -91 75 -19 5
-57 9 -85 8 -27 -2 -56 1 -64 6 -9 5 -11 4 -6 -3z"/>
<path d="M604 1289 c-8 -14 14 -19 42 -9 15 6 59 9 98 6 60 -4 64 -4 26 4 -54
11 -159 10 -166 -1z"/>
<path d="M860 1284 c0 -8 5 -12 10 -9 6 4 8 11 5 16 -9 14 -15 11 -15 -7z"/>
<path d="M922 1286 c7 -8 15 -12 17 -11 5 6 -10 25 -20 25 -5 0 -4 -6 3 -14z"/>
<path d="M734 1252 c11 -12 19 -13 27 -5 7 7 3 12 -16 15 -25 5 -25 4 -11 -10z"/>
<path d="M1120 1259 c0 -5 5 -7 10 -4 6 3 10 8 10 11 0 2 -4 4 -10 4 -5 0 -10
-5 -10 -11z"/>
<path d="M623 1253 c-24 -5 -39 -30 -17 -30 7 0 11 4 8 9 -3 4 6 8 20 8 14 0
26 5 26 10 0 6 -3 9 -7 9 -5 -1 -18 -4 -30 -6z"/>
<path d="M790 1251 c0 -6 4 -13 10 -16 6 -3 7 1 4 9 -7 18 -14 21 -14 7z"/>
<path d="M970 1249 c0 -5 5 -7 10 -4 6 3 10 8 10 11 0 2 -4 4 -10 4 -5 0 -10
-5 -10 -11z"/>
<path d="M1348 1245 c5 -11 12 -27 15 -35 5 -13 6 -13 6 1 1 8 -6 24 -15 35
-15 19 -15 19 -6 -1z"/>
<path d="M832 1234 c-9 -10 -9 -14 -1 -14 8 0 10 -13 6 -42 -5 -35 -4 -38 4
-18 5 13 9 39 7 56 -3 27 -5 30 -16 18z"/>
<path d="M950 1230 c0 -5 5 -10 11 -10 5 0 7 5 4 10 -3 6 -8 10 -11 10 -2 0
-4 -4 -4 -10z"/>
<path d="M715 1210 c-3 -5 -1 -10 4 -10 6 0 11 5 11 10 0 6 -2 10 -4 10 -3 0
-8 -4 -11 -10z"/>
<path d="M1085 1210 c3 -5 10 -10 16 -10 5 0 9 5 9 10 0 6 -7 10 -16 10 -8 0
-12 -4 -9 -10z"/>
<path d="M1260 1212 c0 -5 19 -24 43 -42 40 -33 36 -20 -10 27 -23 24 -33 28
-33 15z"/>
<path d="M1145 1195 c17 -8 41 -14 54 -15 30 0 20 12 -13 15 -13 2 -35 6 -48
9 -16 4 -14 2 7 -9z"/>
<path d="M597 1189 c8 -8 16 -8 30 0 16 9 14 10 -11 11 -22 0 -27 -3 -19 -11z"/>
<path d="M1056 1184 c-11 -8 -28 -14 -39 -14 -11 0 -18 -6 -16 -17 3 -32 -1
-36 -17 -22 -15 12 -16 11 -9 -11 7 -22 6 -23 -9 -11 -9 8 -16 9 -16 3 0 -21
26 -18 58 6 17 13 32 19 32 13 0 -19 15 -12 25 12 6 12 16 22 24 22 8 0 16 7
19 15 3 8 1 12 -3 8 -5 -4 -13 -4 -19 1 -7 6 -18 4 -30 -5z m-26 -28 c0 -3 -4
-8 -10 -11 -5 -3 -10 -1 -10 4 0 6 5 11 10 11 6 0 10 -2 10 -4z"/>
<path d="M560 1175 c0 -8 2 -15 4 -15 2 0 6 7 10 15 3 8 1 15 -4 15 -6 0 -10
-7 -10 -15z"/>
<path d="M650 1182 c0 -4 6 -14 13 -21 10 -10 8 -11 -7 -5 -13 5 -17 4 -12 -4
4 -7 13 -12 21 -12 7 0 15 -6 18 -14 3 -7 15 -16 26 -19 12 -3 19 -1 15 4 -9
15 13 10 26 -6 13 -16 35 -21 26 -6 -4 5 0 12 6 14 8 4 4 8 -9 12 -13 4 -23
11 -23 15 0 5 -8 6 -18 3 -10 -2 -29 7 -45 21 -30 27 -37 31 -37 18z"/>
<path d="M975 1180 c3 -5 8 -10 11 -10 2 0 4 5 4 10 0 6 -5 10 -11 10 -5 0 -7
-4 -4 -10z"/>
<path d="M620 1170 c-8 -5 -12 -12 -9 -15 4 -3 12 1 19 10 14 17 11 19 -10 5z"/>
<path d="M930 1170 c0 -5 5 -10 11 -10 5 0 7 5 4 10 -3 6 -8 10 -11 10 -2 0
-4 -4 -4 -10z"/>
<path d="M1147 1163 c-4 -3 -19 -8 -33 -9 -49 -5 -49 -22 0 -22 32 1 46 5 46
15 0 8 5 11 10 8 6 -4 8 -10 5 -15 -3 -4 5 -6 16 -3 21 6 21 7 4 20 -21 14
-38 17 -48 6z"/>
<path d="M566 1141 c-4 -6 -1 -11 6 -11 9 0 10 -2 1 -8 -6 -4 13 -7 43 -8 57
0 72 10 27 19 -16 3 -38 8 -49 12 -12 4 -25 2 -28 -4z"/>
<path d="M1220 1139 c0 -5 5 -7 10 -4 6 3 10 8 10 11 0 2 -4 4 -10 4 -5 0 -10
-5 -10 -11z"/>
<path d="M1549 1126 c9 -10 8 -16 -4 -26 -10 -8 -12 -17 -6 -24 14 -17 9 -172
-7 -188 -6 -6 -12 -20 -12 -30 0 -10 -5 -18 -11 -18 -5 0 -8 -4 -4 -9 3 -5 -5
-21 -17 -36 -20 -23 -27 -25 -50 -16 -19 7 -26 15 -22 26 8 19 13 19 33 1 11
-10 21 -12 31 -6 13 9 13 10 0 10 -8 0 -23 7 -34 15 -18 13 -18 16 -1 85 14
58 20 69 31 59 11 -9 14 -6 14 15 0 31 -4 32 -30 9 -15 -15 -35 -83 -44 -153
-1 -9 -5 -21 -10 -28 -4 -6 -4 -16 -1 -22 3 -5 2 -10 -4 -10 -6 0 -7 -7 -4
-17 5 -12 3 -14 -7 -8 -8 5 -11 4 -6 -3 3 -6 2 -13 -4 -17 -5 -3 -10 -11 -10
-18 0 -6 7 -2 15 9 13 18 14 16 15 -27 0 -25 -6 -51 -12 -58 -10 -11 -10 -13
0 -7 7 4 12 1 12 -8 0 -8 4 -16 10 -18 5 -1 10 -39 12 -83 3 -75 0 -85 -39
-170 -22 -49 -47 -108 -53 -130 -16 -49 -74 -173 -94 -200 -15 -20 -14 -20
227 -17 133 2 246 7 251 12 6 6 5 14 -2 22 -5 7 -11 18 -13 23 -9 37 -12 45
-20 45 -12 0 -12 -1 6 -43 8 -20 15 -39 15 -42 0 -3 -98 -5 -219 -5 l-218 0
27 58 c15 31 38 86 50 122 12 36 40 103 62 149 22 45 43 104 48 130 5 29 8 37
10 21 l2 -25 8 25 7 25 7 -30 c4 -16 21 -58 37 -93 16 -35 29 -65 29 -69 0 -3
14 -23 31 -45 20 -24 35 -36 41 -30 6 6 1 19 -14 35 -37 41 -44 51 -56 86 -15
42 -10 49 17 22 11 -11 32 -23 46 -27 27 -7 34 -24 10 -24 -8 0 -15 -7 -15
-16 0 -12 5 -14 18 -8 9 4 28 7 42 6 29 -2 173 -71 150 -72 -17 0 -32 -16 -69
-70 -13 -19 -31 -41 -39 -48 -14 -10 -14 -12 -1 -12 8 0 22 9 32 20 9 11 25
20 35 20 23 0 72 22 72 33 0 5 -6 5 -12 1 -8 -4 -9 -3 -5 2 5 5 15 9 24 9 18
0 60 51 50 61 -3 3 -19 2 -35 -4 -21 -7 -33 -7 -41 1 -14 14 -84 54 -193 111
-48 25 -94 56 -103 68 -72 103 -110 176 -109 208 4 115 3 113 18 101 32 -27
79 30 105 124 28 104 39 173 34 200 -6 33 -20 55 -35 55 -6 0 -6 -5 1 -14z
m266 -916 c-10 -11 -25 -20 -34 -20 -12 1 -10 5 8 20 30 26 49 26 26 0z"/>
<path d="M830 1110 c0 -11 4 -20 9 -20 5 0 7 9 4 20 -3 11 -7 20 -9 20 -2 0
-4 -9 -4 -20z"/>
<path d="M860 1100 c0 -5 5 -10 11 -10 5 0 7 5 4 10 -3 6 -8 10 -11 10 -2 0
-4 -4 -4 -10z"/>
<path d="M905 1100 c3 -5 8 -10 11 -10 2 0 4 5 4 10 0 6 -5 10 -11 10 -5 0 -7
-4 -4 -10z"/>
<path d="M1461 1093 c0 -7 -13 -19 -28 -27 -16 -8 -23 -15 -16 -16 7 0 19 -12
27 -27 l14 -28 7 26 c4 15 5 40 2 55 -2 16 -5 24 -6 17z"/>
<path d="M1496 1054 c-4 -9 -4 -19 -1 -22 2 -3 7 3 11 12 4 9 4 19 1 22 -2 3
-7 -3 -11 -12z"/>
<path d="M1385 980 c-3 -5 -1 -10 4 -10 6 0 11 5 11 10 0 6 -2 10 -4 10 -3 0
-8 -4 -11 -10z"/>
<path d="M1512 962 c-6 -14 -12 -35 -12 -46 -1 -21 -1 -21 -16 -1 -16 20 -16
20 -10 -2 4 -12 2 -24 -4 -28 -17 -10 -12 -45 5 -39 8 4 15 11 15 17 0 6 7 18
16 28 17 19 36 87 25 93 -3 2 -12 -7 -19 -22z"/>
<path d="M1345 920 c3 -5 8 -10 11 -10 2 0 4 5 4 10 0 6 -5 10 -11 10 -5 0 -7
-4 -4 -10z"/>
<path d="M1390 919 c0 -5 5 -7 10 -4 6 3 10 8 10 11 0 2 -4 4 -10 4 -5 0 -10
-5 -10 -11z"/>
<path d="M894 880 c-1 -15 4 -27 10 -27 6 0 11 12 11 27 0 35 -20 35 -21 0z"/>
<path d="M926 875 c4 -8 8 -15 10 -15 2 0 4 7 4 15 0 8 -4 15 -10 15 -5 0 -7
-7 -4 -15z"/>
<path d="M851 836 c-9 -11 -9 -16 0 -22 7 -4 9 -3 5 4 -3 6 2 12 11 14 12 2
14 6 7 11 -7 4 -17 0 -23 -7z"/>
<path d="M1340 805 c-7 -9 -8 -15 -2 -15 5 0 12 7 16 15 3 8 4 15 2 15 -2 0
-9 -7 -16 -15z"/>
<path d="M979 768 c-7 -24 -20 -52 -28 -62 -16 -19 -15 -19 12 -1 19 12 27 26
27 46 0 40 13 36 34 -8 l18 -37 -44 -39 c-35 -32 -39 -38 -18 -32 25 8 25 8 6
-14 -14 -15 -15 -21 -6 -21 10 0 11 -3 3 -11 -6 -6 -9 -18 -6 -27 4 -10 2 -13
-5 -8 -18 11 -14 -3 5 -22 16 -16 16 -16 10 1 -3 9 -2 17 4 17 6 0 8 9 3 23
-3 12 -3 19 1 15 11 -10 34 23 34 47 0 15 -3 14 -11 -7 -5 -16 -14 -28 -19
-28 -6 0 -6 7 0 19 6 10 8 21 4 25 -3 3 6 15 20 27 15 11 27 29 27 39 0 10 5
20 10 22 10 3 -51 78 -63 78 -4 0 -12 -19 -18 -42z"/>
<path d="M550 791 c0 -24 122 -349 140 -374 12 -15 18 -32 14 -38 -9 -14 -114
-62 -204 -92 -102 -34 -162 -70 -209 -123 -45 -51 -90 -164 -66 -164 17 0 38
36 30 50 -3 6 -3 16 2 23 8 12 9 17 12 40 1 8 4 7 11 -3 7 -11 10 -12 10 -2 0
8 12 31 28 53 25 37 75 62 105 55 7 -1 9 -1 5 1 -13 7 -9 20 8 27 8 3 12 2 9
-4 -3 -6 -1 -10 4 -10 6 0 11 5 11 10 0 6 4 10 9 10 13 0 38 -116 50 -227 0
-7 5 -13 10 -13 5 0 7 19 4 43 l-5 42 22 -34 c15 -24 18 -36 10 -41 -7 -4 1
-9 19 -12 18 -3 34 -1 37 4 3 4 -2 8 -11 8 -9 0 -14 4 -10 9 3 5 -4 13 -15 16
-12 4 -19 12 -17 18 2 7 -1 19 -8 27 -10 13 -40 101 -36 108 1 1 -5 15 -13 31
-11 21 -12 31 -3 40 15 15 30 14 24 -3 -4 -10 5 -8 35 6 33 16 42 17 56 6 12
-10 14 -10 8 0 -4 6 -2 12 3 12 6 0 11 6 11 13 0 8 9 22 20 32 11 10 20 16 20
14 0 -8 -47 -120 -54 -126 -10 -10 -7 -53 4 -53 6 0 10 7 10 15 0 24 58 145
69 145 6 0 28 -27 50 -60 40 -61 46 -88 39 -185 -1 -11 2 -30 6 -42 7 -22 5
-23 -63 -23 l-70 0 10 32 c11 40 11 61 -1 33 -7 -18 -8 -18 -15 8 -7 26 -63
83 -72 73 -3 -3 13 -26 35 -51 36 -41 40 -49 30 -71 -6 -13 -9 -26 -7 -28 2
-2 47 -6 101 -8 83 -3 95 -1 88 12 -4 8 -8 54 -9 103 l-1 87 -55 84 c-55 83
-71 122 -40 96 13 -11 14 -10 9 4 -3 9 -13 16 -21 16 -14 0 -60 86 -55 104 2
4 -2 13 -7 20 -5 6 -12 23 -14 37 -3 15 -14 44 -25 65 -10 21 -23 53 -27 69
-19 70 -45 120 -45 86z m270 -716 c0 -19 -6 -19 -14 0 -3 8 -1 15 4 15 6 0 10
-7 10 -15z"/>
<path d="M895 770 c-3 -5 -1 -10 4 -10 6 0 11 5 11 10 0 6 -2 10 -4 10 -3 0
-8 -4 -11 -10z"/>
<path d="M1095 770 c3 -5 8 -10 11 -10 2 0 4 5 4 10 0 6 -5 10 -11 10 -5 0 -7
-4 -4 -10z"/>
<path d="M1140 770 c0 -5 7 -7 15 -4 8 4 15 8 15 10 0 2 -7 4 -15 4 -8 0 -15
-4 -15 -10z"/>
<path d="M757 752 c-10 -10 -14 -21 -11 -24 3 -4 -7 -32 -22 -63 -30 -65 -46
-125 -33 -125 10 0 30 35 24 42 -4 4 30 94 40 106 7 8 55 -20 55 -33 0 -8 7
-15 15 -15 8 0 15 -4 15 -9 0 -5 7 -12 16 -15 20 -8 7 13 -23 38 -13 10 -30
32 -38 50 -8 17 -12 21 -9 9 3 -13 1 -23 -4 -23 -16 0 -22 28 -12 55 11 30 9
31 -13 7z"/>
<path d="M672 730 c0 -14 2 -19 5 -12 2 6 2 18 0 25 -3 6 -5 1 -5 -13z"/>
<path d="M1340 735 c-7 -9 -8 -15 -2 -15 5 0 12 7 16 15 3 8 4 15 2 15 -2 0
-9 -7 -16 -15z"/>
<path d="M1236 724 c-4 -9 -4 -19 -1 -22 2 -3 7 3 11 12 4 9 4 19 1 22 -2 3
-7 -3 -11 -12z"/>
<path d="M1080 709 c0 -4 18 -34 40 -67 25 -37 38 -66 34 -76 -4 -11 -2 -16 7
-14 8 2 13 -3 12 -9 -2 -7 2 -13 7 -13 14 0 13 5 -16 63 -23 48 -83 130 -84
116z"/>
<path d="M1330 691 c0 -6 5 -13 10 -16 6 -3 10 1 10 9 0 9 -4 16 -10 16 -5 0
-10 -4 -10 -9z"/>
<path d="M935 666 c-23 -19 -27 -27 -18 -36 14 -15 34 -4 27 15 -3 8 6 20 23
29 15 8 21 15 13 16 -8 0 -28 -11 -45 -24z"/>
<path d="M1052 652 c5 -12 88 -85 88 -78 0 9 -76 86 -85 86 -4 0 -5 -4 -3 -8z"/>
<path d="M1295 642 c-5 -4 -12 -16 -13 -27 -2 -11 -8 -24 -13 -29 -12 -13 -12
-26 1 -26 6 0 10 7 10 16 0 14 2 15 18 3 15 -13 16 -12 3 4 -11 14 -11 23 -3
42 12 27 12 29 -3 17z"/>
<path d="M800 615 c7 -9 15 -13 17 -11 7 7 -7 26 -19 26 -6 0 -6 -6 2 -15z"/>
<path d="M878 603 c-5 -21 0 -43 11 -43 8 0 8 46 0 55 -4 3 -9 -2 -11 -12z"/>
<path d="M782 564 c-7 -8 -8 -14 -3 -14 10 0 25 19 20 25 -2 1 -10 -3 -17 -11z"/>
<path d="M1077 569 c7 -7 15 -10 18 -7 3 3 -2 9 -12 12 -14 6 -15 5 -6 -5z"/>
<path d="M1220 569 c0 -5 5 -7 10 -4 6 3 10 8 10 11 0 2 -4 4 -10 4 -5 0 -10
-5 -10 -11z"/>
<path d="M840 553 c0 -13 6 -23 14 -23 8 0 17 -6 19 -12 4 -10 6 -10 6 0 2 20
1 22 -4 20 -2 -2 -11 6 -19 17 -15 20 -15 20 -16 -2z"/>
<path d="M911 551 c-8 -6 -9 -11 -3 -15 6 -3 14 -1 17 5 9 14 2 20 -14 10z"/>
<path d="M1053 538 c-4 -7 1 -9 15 -6 12 4 23 0 26 -8 6 -15 -53 -30 -78 -21
-8 3 -17 -1 -20 -10 -9 -23 -148 -14 -203 13 -40 20 -41 20 -55 2 -7 -10 -13
-22 -13 -26 0 -4 -3 -12 -7 -17 -4 -6 -3 -17 1 -24 6 -9 15 -4 33 19 17 22 30
30 39 24 7 -4 22 -9 34 -10 11 -2 41 -7 67 -12 26 -5 49 -6 50 -2 2 4 22 10
46 14 29 4 41 3 37 -4 -3 -5 -13 -10 -21 -10 -8 0 -14 -4 -14 -10 0 -12 26 -2
70 27 40 27 65 29 74 8 5 -14 -6 -20 -29 -15 -5 1 -5 -4 2 -11 10 -10 15 -9
28 1 23 19 18 36 -17 62 -37 26 -55 31 -65 16z"/>
<path d="M1233 535 c-8 -22 5 -31 20 -15 10 10 9 11 -2 5 -11 -6 -13 -4 -8 8
3 10 4 17 1 17 -2 0 -7 -7 -11 -15z"/>
<path d="M1325 530 c3 -5 8 -10 11 -10 2 0 4 5 4 10 0 6 -5 10 -11 10 -5 0 -7
-4 -4 -10z"/>
<path d="M1385 513 c-4 -13 -10 -23 -14 -23 -4 0 -15 -16 -24 -35 -9 -19 -22
-35 -29 -35 -6 0 -9 -3 -5 -6 7 -8 -61 -82 -88 -96 -16 -9 -18 -8 -7 3 17 18
15 34 -3 19 -8 -7 -15 -19 -15 -26 0 -8 -7 -11 -17 -8 -13 4 -14 3 -5 -3 10
-7 7 -15 -12 -36 -23 -25 -23 -26 -6 -42 14 -12 20 -13 26 -4 4 7 3 10 -4 5
-6 -3 -13 -2 -17 4 -7 11 23 43 97 102 51 41 143 171 134 191 -3 7 -7 3 -11
-10z"/>
<path d="M960 500 c-8 -5 -10 -10 -5 -10 6 0 17 5 25 10 8 5 11 10 5 10 -5 0
-17 -5 -25 -10z"/>
<path d="M1220 496 c0 -2 7 -9 15 -16 9 -7 15 -8 15 -2 0 5 -7 12 -15 16 -8 3
-15 4 -15 2z"/>
<path d="M810 450 c0 -5 5 -10 11 -10 5 0 7 5 4 10 -3 6 -8 10 -11 10 -2 0 -4
-4 -4 -10z"/>
<path d="M1150 450 c0 -5 7 -10 16 -10 8 0 12 5 9 10 -3 6 -10 10 -16 10 -5 0
-9 -4 -9 -10z"/>
<path d="M1023 418 c-33 -11 -53 -38 -28 -38 8 0 15 5 15 11 0 5 4 8 9 5 13
-8 38 3 45 20 6 16 4 16 -41 2z"/>
<path d="M1247 423 c-3 -5 -1 -17 3 -27 6 -17 7 -18 13 -3 3 9 2 17 -4 17 -6
0 -7 5 -4 10 3 6 4 10 1 10 -3 0 -7 -3 -9 -7z"/>
<path d="M1170 410 c0 -5 6 -7 13 -5 15 6 41 -14 50 -39 9 -24 18 -17 11 9 -7
28 -74 59 -74 35z"/>
<path d="M785 401 c-3 -5 -2 -12 3 -15 5 -3 9 1 9 9 0 17 -3 19 -12 6z"/>
<path d="M824 396 c21 -17 132 -23 122 -8 -3 5 -25 9 -50 9 -24 1 -55 4 -68 8
-22 6 -22 6 -4 -9z"/>
<path d="M1093 395 c-15 -17 -17 -39 -3 -30 14 8 32 45 23 45 -4 -1 -14 -7
-20 -15z"/>
<path d="M961 372 c-1 -8 -12 -11 -33 -8 -18 2 -42 0 -53 -5 -24 -9 -9 -12 50
-9 46 2 49 4 42 22 -4 10 -6 10 -6 0z"/>
<path d="M770 355 c-8 -9 -8 -15 -2 -15 12 0 26 19 19 26 -2 2 -10 -2 -17 -11z"/>
<path d="M1 344 c0 -11 3 -14 6 -6 3 7 2 16 -1 19 -3 4 -6 -2 -5 -13z"/>
<path d="M993 353 c37 -10 12 -50 -28 -44 -20 3 -20 3 0 -12 17 -13 21 -13 28
-1 4 8 14 14 22 14 8 0 17 5 21 12 8 13 -23 39 -45 37 -13 -1 -12 -2 2 -6z"/>
<path d="M1181 346 c-9 -11 -9 -16 1 -22 7 -4 10 -4 6 1 -4 4 -3 14 3 22 6 7
9 13 6 13 -2 0 -10 -6 -16 -14z"/>
<path d="M1100 340 c0 -5 5 -10 11 -10 5 0 7 5 4 10 -3 6 -8 10 -11 10 -2 0
-4 -4 -4 -10z"/>
<path d="M900 330 c0 -5 5 -10 11 -10 5 0 7 5 4 10 -3 6 -8 10 -11 10 -2 0 -4
-4 -4 -10z"/>
<path d="M1097 309 c7 -7 15 -10 18 -7 3 3 -2 9 -12 12 -14 6 -15 5 -6 -5z"/>
<path d="M816 293 c-6 -14 -5 -15 5 -6 7 7 10 15 7 18 -3 3 -9 -2 -12 -12z"/>
<path d="M866 297 c3 -10 9 -15 12 -12 3 3 0 11 -7 18 -10 9 -11 8 -5 -6z"/>
<path d="M910 285 c-7 -9 -11 -17 -9 -20 3 -2 10 5 17 15 14 24 10 26 -8 5z"/>
<path d="M1662 271 c-24 -21 -28 -31 -22 -51 l7 -25 7 26 c8 27 59 64 76 54 6
-3 10 -2 10 3 0 23 -50 18 -78 -7z"/>
<path d="M826 265 c-3 -8 -1 -15 4 -15 6 0 10 7 10 15 0 8 -2 15 -4 15 -2 0
-6 -7 -10 -15z"/>
<path d="M930 270 c0 -5 7 -7 15 -4 8 4 15 8 15 10 0 2 -7 4 -15 4 -8 0 -15
-4 -15 -10z"/>
<path d="M1747 267 c-4 -10 2 -13 20 -9 18 3 21 7 11 13 -18 12 -25 11 -31 -4z"/>
<path d="M856 254 c-5 -14 -4 -15 9 -4 12 10 15 10 15 -4 0 -10 5 -14 10 -11
8 5 7 11 -1 21 -15 18 -25 18 -33 -2z"/>
<path d="M1074 253 c-4 -10 -6 -21 -6 -25 1 -5 -5 -8 -13 -8 -18 0 -19 -9 -4
-30 9 -13 10 -12 5 3 -5 14 -1 18 17 15 12 -2 24 -6 27 -10 3 -4 11 6 17 23
12 30 12 31 -7 14 -19 -17 -46 -12 -34 6 3 5 10 7 15 4 5 -4 9 1 9 9 0 21 -16
20 -26 -1z"/>
<path d="M1190 250 c0 -5 5 -10 11 -10 5 0 7 5 4 10 -3 6 -8 10 -11 10 -2 0
-4 -4 -4 -10z"/>
<path d="M1020 240 c0 -5 5 -10 10 -10 6 0 10 5 10 10 0 6 -4 10 -10 10 -5 0
-10 -4 -10 -10z"/>
<path d="M847 223 c-4 -6 0 -16 8 -23 8 -7 15 -9 15 -4 0 5 4 3 9 -5 5 -8 29
-14 64 -15 30 0 59 -4 63 -8 12 -13 24 -9 24 7 0 9 -6 12 -15 9 -9 -4 -15 0
-15 10 0 9 -4 16 -10 16 -5 0 -10 -5 -10 -11 0 -7 -14 -9 -37 -5 -21 3 -47 7
-58 9 -11 1 -23 8 -26 16 -4 10 -8 11 -12 4z"/>
<path d="M1130 220 c0 -5 5 -10 11 -10 5 0 7 5 4 10 -3 6 -8 10 -11 10 -2 0
-4 -4 -4 -10z"/>
<path d="M1711 211 c-8 -10 -12 -22 -10 -26 2 -4 -5 -12 -16 -18 -23 -14 -30
-48 -9 -40 8 3 14 11 14 19 0 8 4 14 9 14 5 0 16 12 26 26 20 30 6 54 -14 25z"/>
<path d="M445 200 c-3 -5 1 -10 10 -10 9 0 13 5 10 10 -3 6 -8 10 -10 10 -2 0
-7 -4 -10 -10z"/>
<path d="M355 190 c-3 -5 1 -10 10 -10 9 0 13 5 10 10 -3 6 -8 10 -10 10 -2 0
-7 -4 -10 -10z"/>
<path d="M1120 189 c0 -5 5 -7 10 -4 6 3 10 8 10 11 0 2 -4 4 -10 4 -5 0 -10
-5 -10 -11z"/>
<path d="M1657 193 c-4 -3 -7 -11 -7 -17 0 -6 5 -5 12 2 6 6 9 14 7 17 -3 3
-9 2 -12 -2z"/>
<path d="M1084 181 c5 -8 0 -14 -13 -18 -11 -3 -23 -14 -26 -24 -4 -10 -11
-19 -16 -19 -5 0 -9 -5 -9 -10 0 -17 36 7 59 39 15 21 18 32 10 37 -8 5 -9 3
-5 -5z"/>
<path d="M1865 180 c-8 -13 5 -13 25 0 13 8 13 10 -2 10 -9 0 -20 -4 -23 -10z"/>
<path d="M428 155 c-5 -25 -4 -25 10 -11 12 11 13 19 5 27 -7 7 -12 3 -15 -16z"/>
<path d="M1133 166 c-13 -6 -23 -14 -23 -19 0 -4 14 -1 30 8 17 9 30 18 30 20
0 7 -12 4 -37 -9z"/>
<path d="M1891 154 c0 -11 3 -14 6 -6 3 7 2 16 -1 19 -3 4 -6 -2 -5 -13z"/>
<path d="M353 154 c3 -4 1 -16 -5 -28 -11 -21 -11 -21 10 -2 21 19 21 36 0 36
-6 0 -8 -3 -5 -6z"/>
<path d="M968 148 c5 -5 16 -8 23 -6 8 3 3 7 -10 11 -17 4 -21 3 -13 -5z"/>
<path d="M1757 140 c-14 -16 -14 -20 -2 -20 8 0 19 9 25 20 6 11 7 20 3 20 -5
0 -16 -9 -26 -20z"/>
<path d="M1830 156 c0 -10 28 -13 41 -5 10 6 7 9 -13 9 -16 0 -28 -2 -28 -4z"/>
<path d="M1250 130 c-13 -8 -13 -10 2 -10 9 0 20 5 23 10 8 13 -5 13 -25 0z"/>
<path d="M433 114 c-15 -16 -17 -34 -4 -34 10 0 26 39 19 45 -1 2 -9 -3 -15
-11z"/>
<path d="M1870 124 c0 -3 7 -12 15 -20 13 -14 15 -13 15 5 0 12 -6 21 -15 21
-8 0 -15 -3 -15 -6z"/>
<path d="M890 115 c0 -5 5 -17 10 -25 5 -8 10 -10 10 -5 0 6 -5 17 -10 25 -5
8 -10 11 -10 5z"/>
<path d="M1775 110 c-3 -5 -1 -10 4 -10 6 0 11 5 11 10 0 6 -2 10 -4 10 -3 0
-8 -4 -11 -10z"/>
<path d="M1832 84 l-21 -27 22 -19 c17 -15 18 -18 5 -14 -10 3 -18 1 -18 -4 0
-12 27 -13 34 -1 3 4 -1 17 -8 27 -17 23 -3 46 22 37 15 -6 15 -5 3 10 -17 21
-13 22 -39 -9z"/>
<path d="M1101 64 c-12 -14 -11 -16 4 -12 10 1 20 9 23 16 5 17 -10 15 -27 -4z"/>
<path d="M851 54 c0 -11 3 -14 6 -6 3 7 2 16 -1 19 -3 4 -6 -2 -5 -13z"/>
<path d="M910 58 c0 -9 7 -22 17 -29 15 -13 15 -12 3 11 -17 34 -20 36 -20 18z"/>
<path d="M345 40 c-3 -11 -11 -20 -16 -20 -6 0 -8 -4 -5 -9 8 -13 43 -2 50 14
3 10 0 12 -12 8 -15 -6 -15 -5 -3 10 8 10 9 17 3 17 -6 0 -14 -9 -17 -20z"/>
<path d="M270 30 c-8 -15 -8 -20 3 -20 7 0 13 9 13 20 0 11 -1 20 -3 20 -1 0
-7 -9 -13 -20z"/>
<path d="M1880 39 c0 -5 5 -7 10 -4 6 3 10 8 10 11 0 2 -4 4 -10 4 -5 0 -10
-5 -10 -11z"/>
<path d="M987 33 c-4 -3 -7 -11 -7 -17 0 -6 5 -5 12 2 6 6 9 14 7 17 -3 3 -9
2 -12 -2z"/>
<path d="M1787 29 c7 -7 15 -10 18 -7 3 3 -2 9 -12 12 -14 6 -15 5 -6 -5z"/>
<path d="M1740 14 c0 -8 5 -12 10 -9 6 3 10 10 10 16 0 5 -4 9 -10 9 -5 0 -10
-7 -10 -16z"/>
</g>
</svg>
