<svg xmlns="http://www.w3.org/2000/svg" xmlns:xlink="http://www.w3.org/1999/xlink" viewBox="0 0 1920 1080"><defs><style>.cls-1{fill:#db8c00;}.cls-2{fill:#8f5b00;}.cls-3{fill:#848484;}.cls-4{fill:url(#linear-gradient);}.cls-5{fill:#a5a5a5;}.cls-6{fill:#919191;}.cls-7{fill:#828282;}.cls-8{fill:#898989;}</style><linearGradient id="linear-gradient" x1="1574" y1="659" x2="1753.02" y2="659" gradientUnits="userSpaceOnUse"><stop offset="0" stop-color="#b2b2b2"/><stop offset="1" stop-color="#848484"/></linearGradient><image id="image" width="1920" height="1080" xlink:href="../sk%C3%A6rm%20copy.png"/></defs><g id="background_artboard" data-name="background artboard"><path class="cls-1" d="M53.55-992.36s45.05,3.74,145.15,65.84c0,.61-25-83.13-6-135.21,16-56.09,50.12-84.21,55.05-89.15,7-7,15.85-75.07,21-78.12,0,0,21.52,70,18,79.13,0,0-.13,27.11-27,65.1-17,24-6,58.09-6,79.13,4,33,11,35,26,51.08,35.51,37.9,10.62,101.95,9,105.17h0c16,24,38,65.1,38,65.1,1-6,.11-4.72,1-31.05.69-20.71-1-9.11,1.69-33.74,3.7-33.74,6-71.13,6-71.13-2-43.07,81.4-105.47,127.45-193.61,16.72-32,50-70.11,76.08-85.13,22.76-13.14,101.11,11,125.13,14,19.11,2.39,73.22,32,121.13,32,30,0,210.24-.5,252.26,3,24,2,212.59,4.36,242.26,6,36,2,153.9,24.45,143.15,25-21.13,1.14,1.6-.83-154.17,5-70.25,2.64-151.23,18.91-223.23,22-183.72,8-433.45,3-471.49,14C555.6-1072.4,465-969.59,447-950.56c-33.62,35.51-24,74.12-13,107.18,10.18,30.57,17,66.1,13,92.14-4.34,28.26-37.84,78.66-52.38,89a6,6,0,0,0-1.6,8.12c5.49,8.63,17.32,26.51,27,36.15,13,13,13.78,46.49,13.78,46.49S423.87-527,420.4-524.42s1.54,42.61,1.54,42.61l35,68.11s56.4,125.45,271.29,85.14c64.06-12,95.1-21,139.14-27s172.94,13.93,195.21,26c46.05,25,65.07,36.05,87.09,54.08,92.69,75.88,98.81,70.55,139.81,79.57,83.11,18.28,199,11,253-2,0,0,119.06-18.12,159-49.09,31-24,45-96.17,45-96.17,6-31.06-4.24-62.74-50-55.1-12,2-25,12-26,31-.89,17-6.52,104.47,0,90.16,3.94-8.62-81.7-88.1-51-147.26,26-50.09,102-50.09,102-50.09,47-4,116,79.14,116,79.14-8,2,30,5.79,30,108.2,0,35.06-12.64,96.07-93,149.26-56,37.07-385.55,17.58-518.69,18.58-71.36.54-143.15-46.07-168.18-85.13-10.15-15.85-34-101.16-73.07-119.19-1.47-.68-1.33-.93,0,0,9,6.3,24.57,15.1,45,56.09,27,54.08,28,80.12,27,106.17-.58,15.08-.63,19.65-.63,21.29a34,34,0,0,1-1,5c-3.24,12-19.55,66.87-70.44,87.17-57.06,22.75-97,9.73-107.08,5.73s-64.1-26.22-72.11-67.7,23-99.57,63.07-102.58c15.79-1.18,27.62-3.37,41,4,20,11,31.31,30.44,33,36.06,4,13-13-12.38-36-14-4.73-.34-34.37-6.46-51.06,13-24,28,12,73.11,35,75.12,25.64,2.23,55.63-10.57,59.06-13,1.82-1.3,14.22-10.39,21-24s8-31.87,8-32.05c1-42.07-28-59.1-28-59.1s-43-32-71.07-30S838.2-213.63,820.77-197,688.22-56.13,667.19-49.11s-39,32.05-103.1,38.06-123.13-2-155.17-18-49.05-25-63.06-36.06c0,0-54.06,39.06-97.1,48.08s-61.83,10-83.47,8-54.71-33-54.71-33l-34,11s-25,17-59.07,16-72.07-21-72.07-21-10,21-64.07,17c0,0-14.16,21-37.11,20s-38-7-38-7-23,12-43-4-30.47-32-30.47-32-35.6-10-42.61-39.07,0-45.15,0-45.15-17.45-33,.29-77.56,22.74-63.58,60.78-71.6c0,0,7-22-4-27s-49-49.08-49-65.1v-43.07s-22-85.14-10-138.22,38-110.18,38-110.18-46-212.34,70.07-261.42c0,0-19-50.08-92.09-54.08,0,0,69.07-43.07,142.14,9C-153.67-965.58-60.57-1016.13,53.55-992.36Z"/><g id="shadow"><path class="cls-2" d="M999-207s-22-81-76.16-93S840.33-294,787.4-247.45s-104,116.72-182.17,164.8-160.31,13-160.31,13-69.35-22.71-84.16-58.1c-3.12-7.47-15-32-15-32-13,8-58.11,11-58.11,11s6,52.08-14,83.13C262-47.69,249.1-42.45,240.26-41.23c-5.45.75-36.11-10.51-40.81-13.38l-29-23c-2.63-.7-15.6-12.23-17-14-11.52-14.32-26.07-43-40.07-42.07-9.14.61-58.11,0-72.14,0-2.55,0,8.82,20.3,10,24C53-104,88.54-62.17,84.48-58.17,73.83-47.66,63.65-39.69,54.17-41.59l-52.1-30S-41-116.71-97.12-174.8c-7.66-7.94-57.11-9-67.12-8-13.64,1.37-30.49,8.2-30.06,9l41.08,59.09,17,26.05h0A14.64,14.64,0,0,0-145-68.54l-15.26,4.94c-7,3-30.07,6-44.1-1l-52.1-33.06c-20.45-8.17-27.66-47.82-28-68.42,0-1.18-4-19.72-6-27.73l-5.74-25.44c-.5-2.19-2.27-11.62-4.28-6.61l-13,35a209.43,209.43,0,0,0-4,28.05l1,12,2,11c1,5,5,14,5,14l-2,6c-1.65,5-1,19-.5,22.77a101.72,101.72,0,0,0,2.51,16.29c.19.77,1.31,4,1.87,5.63.09.25,0,.17.13.38l2,4a62.85,62.85,0,0,0,4,6l3,4a34.4,34.4,0,0,0,6,5.06l5,4c.48.33,9.47,5.81,10,6,3.66,1.31,10.89,4,11,4l7,10,24.05,23,12,6,9,1c2.89-.23,10.59,1.21,21-4a155.05,155.05,0,0,0,25.05,6,91.19,91.19,0,0,0,24,0l10-4c.54-.31,10-6,16-15l8.87,1a9.48,9.48,0,0,0,4.06-.91C-97.86-22-77.08-11.54-54-35.58c0,0,47.09,19,63.12,20,10.61.67,36.11.14,45.08-4,13-6,58.12-21,58.12-21,32.06,27.05,39,46.19,116.22,29.05,74.72-16.59,119.23-52.08,119.23-52.08s37,36.3,111.21,50.08c65.79,12.21,118.73,3.14,137.26-1,2.48-.56,34.09-12.37,50.1-23,5.57-3.71,37.07-15,69.13-50.08,16.91-18.49,38.16-33.92,55.11-56.09,5.57-7.29,39.77-41.23,47.09-47.08,3.23-2.58,29.06-30,46.09-42.07,11.23-7.92,31.45-21.73,47.09-23C922.84-256.93,974.27-236.65,999-207Z"/></g></g><g id="ikoner"><path class="cls-3" d="M1567,164a79.07,79.07,0,0,0,5-17c2-11,22-12,22-12s17-2,29-2,70,2,70,2l24,1a28.35,28.35,0,0,1,15,8c7,7,9,11,9,11v7.46l2,4.54-1,5,1,10.32,1,.68,1,7v84.21L1742,288l-3,5-7,12-4,8-17,10-24,1h-43.44L1615,323l-14-3-13-6-10-7-10-16-2.22-7.84L1565,253l2-44V164"/><path class="cls-4" d="M1574,451l3-20,14-27,16-8,28-4h82.19L1735,403l11.13,18.5L1749,457v59.13l2,69.87V687.32L1753,788v96s1,13-11,26a39.9,39.9,0,0,1-27,13l-15,2h-66.85l-6.15,1h-8.17L1608,925l-2-3-12-7-7-12-5-11-4-16V677l.17-18L1577,616l-1-49V452Z"/><image id="liv_box" data-name="liv box" width="1000" height="2000" transform="translate(1502 333) scale(0.33)" xlink:href="../box2.png"/><image id="box" width="1000" height="1000" transform="translate(1475 68) scale(0.34)" xlink:href="../box4.png"/></g><g id="computer-2" data-name="computer"><path class="cls-3" d="M77,110l53-3,183-6H445.21S527,101,558,116s41,36,46,43,14,38,15,58-5,171-5,171l-2,105-23,26-5,4-182,4H153.83S81,528,69,506s-19-19-23-96,3-166,3-166l4-110Z"/><path class="cls-5" d="M86,160H416.78S481,154,510,175s41,36,42,78,0,219.11,0,219.11l.44,10.3L171,490s-56-7-64-20c0,0-25-16-27-53Z"/><use id="skærm_1" data-name="skærm 1" transform="translate(-126 50) scale(0.47)" xlink:href="#image"/><path class="cls-3" d="M724.82,102l53-3,183-6H1093s81.78,0,112.78,15,41,36,46,43,14,38,15,58-5,171-5,171l-2,105-23,26-5,4-182,4H801.65s-72.83,1-84.83-21-19-19-23-96,3-166,3-166l4-110Z"/><path class="cls-6" d="M733.82,152H1064.6s64.22-6,93.22,15,41,36,42,78,0,219.11,0,219.11l.45,10.3L818.82,482s-56-7-64-20c0,0-25-16-27-53Z"/><use id="skærm_2" data-name="skærm 2" transform="translate(521 43) scale(0.47)" xlink:href="#image"/><path class="cls-3" d="M90.19,622l53-3,183-6H458.4s81.79,0,112.79,15,41,36,46,43,14,38,15,58-5,171-5,171l-2,105-23,26-5,4-182,4H167s-72.83,1-84.83-21-19-19-23-96,3-166,3-166l4-110Z"/><path class="cls-6" d="M99.19,672H430s64.22-6,93.22,15,41,36,42,78,0,219.11,0,219.11l.45,10.3L184.19,1002s-56-7-64-20c0,0-25-16-27-53Z"/><path class="cls-7" d="M99,670l288.53-3.73S505.29,657.65,539,691s27,74,27,74V928s-41.92-127.39-68.41-154.65S410.72,725,363,732s-185-43-185-43Z"/><use id="skærm_3" data-name="skærm 3" transform="translate(-111 560) scale(0.47)" xlink:href="#image"/><path class="cls-3" d="M724.46,629l53-3,183-6h132.21s81.79,0,112.79,15,41,36,46,43,14,38,15,58-5,171-5,171l-2,105-23,26-5,4-182,4H801.28s-72.82,1-84.82-21-19-19-23-96,3-166,3-166l4-110Z"/><path class="cls-6" d="M733.46,681h330.78s64.22-6,93.22,15,41,36,42,78,0,219.11,0,219.11l.44,10.3L818.46,1011s-56-7-64-20c0,0-25-16-27-53Z"/><path class="cls-8" d="M733.46,681l277-7.35s97.89-3.21,142.73,19.57,45.73,69.64,45.73,69.64l1,82.74-.41,141.52S1163,912,1127,897s-91.33-51.4-91.33-51.4S955,778,921,768,756.91,742,733.46,681Z"/><use id="skærm_4" data-name="skærm 4" transform="translate(521 568) scale(0.47)" xlink:href="#image"/></g></svg>