<svg xmlns="http://www.w3.org/2000/svg" xmlns:xlink="http://www.w3.org/1999/xlink" viewBox="0 0 1920 1080"><defs><style>.cls-1{fill:url(#linear-gradient);}.cls-2{fill:#707070;}.cls-3{fill:#848484;}.cls-4{fill:#919191;}.cls-5{fill:#7c7c7c;}.cls-6{fill:#fff;}.cls-7{fill:#8f5b00;}.cls-8{fill:#db8c00;}</style><linearGradient id="linear-gradient" x1="961.55" y1="-5" x2="961.55" y2="1081.81" gradientUnits="userSpaceOnUse"><stop offset="0" stop-color="#3995ff"/><stop offset="1" stop-color="#00438e"/></linearGradient></defs><g id="snooze_u_loose" data-name="snooze u loose"><rect class="cls-1" x="0.52" y="-5" width="1922.06" height="1086.81"/><path class="cls-2" d="M889.32,988.21a129.26,129.26,0,0,0,6.34-24.88c2.54-16.1,27.92-17.56,27.92-17.56s21.57-2.93,36.79-2.93,88.82,2.93,88.82,2.93l30.46,1.46s10.15,1.46,19,11.71S1110.1,975,1110.1,975V986l2.54,6.64-1.27,7.31,1.27,15.11,1.26,1,1.27,10.24v123.24l-3.8,20.18-3.81,7.32-8.88,17.56-5.08,11.71L1072,1220.89l-30.45,1.47H986.46l-36.24-1.47-17.76-4.39L916,1207.72l-12.69-10.24-12.69-23.42-2.82-11.47-1-44.14,2.54-64.39V988.21"/><path class="cls-3" d="M394.24,54.44l129-7.15L968.49,33h321.7s199,0,274.44,35.75,99.76,85.8,111.93,102.49,34.06,90.56,36.49,138.23S1700.89,717,1700.89,717L1696,967.25l-56,62-12.17,9.53L1185,1048.29H581.18s-177.2,2.38-206.4-50-46.23-45.29-56-228.8,7.3-395.63,7.3-395.63l9.74-262.17Z"/><path class="cls-4" d="M416.14,173.61H1221s156.27-14.3,226.83,35.75,99.76,85.8,102.2,185.9,0,522.2,0,522.2l1.08,24.55L623,960.1s-136.26-16.68-155.73-47.66c0,0-60.83-38.14-65.7-126.32Z"/><path class="cls-2" d="M394.24,54.44l513.14-19s397.8-1.94,460.23,0,150.17-4.67,257.16,68.76,88.56,248.26,88.56,248.26l-12.92,510.38L1696,967.25l-56,62,5.65-306.58S1657.39,431,1656.86,352.1s-52.6-173.15-80.22-194.54S1480,94.73,1402.41,90.48s-623.66-2.12-623.66-2.12l-442.9,23.28Z"/><path class="cls-5" d="M415.68,169.84l702.06-8.9s286.53-20.54,368.56,58.95S1552,396.26,1552,396.26V784.74s-102-303.62-166.47-368.58c-64.69-65.19-211.36-115.22-327.48-98.55S607.9,215.12,607.9,215.12Z"/><g id="snorken"><path class="cls-6" d="M806.13,557.82l-.2,4.22c0,.18,0,.34,0,.5s0,.31,0,.48a1.36,1.36,0,0,1-.38,1.06,1.71,1.71,0,0,1-1.16.34,1.38,1.38,0,0,1-1.09-.4,2,2,0,0,1-.33-1.31v-.79l.26-5.6a1.45,1.45,0,0,1,.4-1.08,1.68,1.68,0,0,1,1.16-.34h11.61a3,3,0,0,1,1.81.46,1.55,1.55,0,0,1,.61,1.32,2.61,2.61,0,0,1-.2,1,5.69,5.69,0,0,1-.55,1.06l-12,17.42h9.4l.24-4.75v-.08c.07-1.56.58-2.34,1.54-2.34a1.35,1.35,0,0,1,1.1.42,2.06,2.06,0,0,1,.34,1.33c0,.34,0,.59,0,.75l-.28,6.15a1.35,1.35,0,0,1-.39,1.06,1.74,1.74,0,0,1-1.15.32H804.06a2,2,0,0,1-1.42-.51,1.74,1.74,0,0,1-.55-1.32,3,3,0,0,1,.25-1.08,7.52,7.52,0,0,1,.75-1.33l11.65-16.91Z"/><path class="cls-6" d="M918.64,516.34l-5.86,6.82c-.25.28-.49.54-.7.8s-.43.51-.64.79a2.6,2.6,0,0,1-2.17,1.2,5.48,5.48,0,0,1-2.92-1.33,4.13,4.13,0,0,1-1.81-2.43,3.67,3.67,0,0,1,1-2.76l1-1.34,7.75-9.07a2.81,2.81,0,0,1,2.23-1.18,5.37,5.37,0,0,1,2.94,1.31L944.25,528a9.66,9.66,0,0,1,3.28,3.69,3.09,3.09,0,0,1-.41,3.24,4.45,4.45,0,0,1-1.62,1.29,11.35,11.35,0,0,1-2.56.9L895,547.2l20.09,15.21,6.62-7.65.1-.14q3.21-3.79,6.3-1.46a4.17,4.17,0,0,1,1.81,2.48,3.81,3.81,0,0,1-1,2.82,13.42,13.42,0,0,0-1,1.2l-8.51,10a2.65,2.65,0,0,1-2.19,1.19,5.67,5.67,0,0,1-2.88-1.34l-27.24-20.64a6.32,6.32,0,0,1-2.39-3.16,3.37,3.37,0,0,1,.52-3.13,5.17,5.17,0,0,1,1.91-1.43,15.92,15.92,0,0,1,3.32-1.05L937,530.27Z"/><path class="cls-6" d="M1124.06,97.32l-3.29,15.78c-.17.65-.31,1.27-.43,1.85s-.22,1.18-.3,1.79a4.41,4.41,0,0,1-2.63,3.74c-1.5.65-3.7.78-6.62.38q-4.15-.57-5.8-2.31t-1.17-5.2l.4-3,4.35-20.94a4.73,4.73,0,0,1,2.74-3.75q2.26-1,6.63-.42L1182.11,94q6.62.9,9.75,3.09a5.46,5.46,0,0,1,2.68,5.47A7.34,7.34,0,0,1,1193,106a21.38,21.38,0,0,1-3.64,3.59l-75.17,56.65,51.94,7.1,3.8-17.73c0-.05,0-.15,0-.31q1.77-8.72,9.73-7.64,4.15.57,5.85,2.4t1.22,5.28a24.56,24.56,0,0,0-.61,2.8l-4.75,23a4.52,4.52,0,0,1-2.68,3.73c-1.45.61-3.64.72-6.55.32l-70.46-9.64a14.6,14.6,0,0,1-7.59-3,5.8,5.8,0,0,1-2.35-5.39,8.17,8.17,0,0,1,1.9-3.88,28.79,28.79,0,0,1,4.85-4.48l73.11-55Z"/><path class="cls-6" d="M1319.78-28.27l-7.47,26.42c-.36,1.1-.67,2.13-.94,3.1s-.51,2-.72,3a7.45,7.45,0,0,1-5,6q-4,1.38-11.56-.17-7.15-1.47-9.83-4.64t-1.48-9l1-5,9.85-35.08a8,8,0,0,1,5.18-6q4-1.45,11.57.1l110.63,22.79q11.42,2.36,16.62,6.45t4.06,9.65A12.29,12.29,0,0,1,1438.68-5,37.3,37.3,0,0,1,1432,.63L1295.06,87.77l89.54,18.45,8.54-29.7c0-.08.06-.26.11-.51q4-14.64,17.76-11.81,7.14,1.48,9.89,4.8c1.83,2.21,2.35,5.26,1.55,9.12a45.27,45.27,0,0,0-1.37,4.7l-10.76,38.52c-.78,3.15-2.47,5.16-5.07,6s-6.41.76-11.44-.27l-121.45-25q-8.33-1.72-12.88-6T1256,86.57a13.45,13.45,0,0,1,3.73-6.35,49.47,49.47,0,0,1,8.91-7l133.15-84.55Z"/><path class="cls-6" d="M1448.47,313.36,1442,324.41c-.3.45-.56.88-.79,1.29s-.47.84-.69,1.28a3.46,3.46,0,0,1-2.94,2.14,10.42,10.42,0,0,1-5.16-1.42q-3-1.49-3.84-3.24a4.78,4.78,0,0,1,.4-4.22l1.07-2.15,8.58-14.68a3.75,3.75,0,0,1,3.05-2.13,10.19,10.19,0,0,1,5.16,1.39l46.81,23.15c3.22,1.59,5.45,3.21,6.67,4.84a4.34,4.34,0,0,1,.67,4.83,5.81,5.81,0,0,1-2,2.18,18.06,18.06,0,0,1-3.68,1.78l-71.67,23.4,37.89,18.74,7.36-12.41.11-.22q3.54-6.13,9.35-3.26,3,1.5,3.86,3.31a4.93,4.93,0,0,1-.39,4.3,17.93,17.93,0,0,0-1.17,2l-9.41,16.13a3.6,3.6,0,0,1-3,2.12,10.7,10.7,0,0,1-5.08-1.45l-51.4-25.42a11.92,11.92,0,0,1-5-4.21,4.58,4.58,0,0,1-.44-4.68,6.25,6.25,0,0,1,2.43-2.43,23.53,23.53,0,0,1,4.82-2.14l69.68-22.67Z"/></g><path class="cls-6" d="M576.28,274.12a15.25,15.25,0,0,1-1.11,5.91,12.51,12.51,0,0,1-3.21,4.56,14.33,14.33,0,0,1-5.1,2.91,23,23,0,0,1-13.56,0,14.33,14.33,0,0,1-5.1-2.91A12.51,12.51,0,0,1,545,280a15.25,15.25,0,0,1-1.11-5.91V251.2q.66-.12,2.1-.33a19.14,19.14,0,0,1,2.76-.21,12.5,12.5,0,0,1,2.43.21,4.32,4.32,0,0,1,1.77.75,3.29,3.29,0,0,1,1.08,1.5,7.32,7.32,0,0,1,.36,2.52v18.3a6.15,6.15,0,0,0,1.59,4.5,6.06,6.06,0,0,0,8.25,0,6.22,6.22,0,0,0,1.56-4.5V251.2q.66-.12,2.1-.33a19.14,19.14,0,0,1,2.76-.21,12.5,12.5,0,0,1,2.43.21,4.32,4.32,0,0,1,1.77.75,3.29,3.29,0,0,1,1.08,1.5,7.32,7.32,0,0,1,.36,2.52Z"/><path class="cls-6" d="M594.4,287.32a16.66,16.66,0,0,1-2.07.36,22,22,0,0,1-2.79.18,12.5,12.5,0,0,1-2.43-.21,4.32,4.32,0,0,1-1.77-.75,3.24,3.24,0,0,1-1.08-1.5,7.32,7.32,0,0,1-.36-2.52V254.62a2.64,2.64,0,0,1,.69-2,4.93,4.93,0,0,1,1.89-1.11,22.47,22.47,0,0,1,4.65-1.05,41.81,41.81,0,0,1,5.25-.33c5.52,0,9.74,1.19,12.66,3.54a11.7,11.7,0,0,1,4.38,9.6,14.39,14.39,0,0,1-.93,5.31,11,11,0,0,1-2.76,4.08,12.4,12.4,0,0,1-4.62,2.64,20.39,20.39,0,0,1-6.45.93H594.4Zm3.12-19.26a5.74,5.74,0,0,0,3.87-1.17,4.47,4.47,0,0,0,1.35-3.57,4.41,4.41,0,0,0-1.41-3.51,6.13,6.13,0,0,0-4.11-1.23q-1,0-1.59,0a9.82,9.82,0,0,0-1.29.15v9.3Z"/><path class="cls-6" d="M628.78,273.1c-1.76-.6-3.36-1.2-4.8-1.83a14.73,14.73,0,0,1-3.72-2.25,9.24,9.24,0,0,1-2.43-3.15,10.33,10.33,0,0,1-.87-4.47,9.82,9.82,0,0,1,3.93-8.16q3.93-3.06,11-3.06a30,30,0,0,1,4.8.36,14.31,14.31,0,0,1,3.81,1.11,6.74,6.74,0,0,1,2.49,1.92,4.35,4.35,0,0,1,.9,2.73,4.8,4.8,0,0,1-.72,2.67,7.48,7.48,0,0,1-1.74,1.89,13.56,13.56,0,0,0-3.54-1.47,17.76,17.76,0,0,0-4.86-.63,8,8,0,0,0-4,.75,2.2,2.2,0,0,0-1.26,1.89,1.73,1.73,0,0,0,.78,1.47,8.1,8.1,0,0,0,2.34,1.05l3.18,1a23,23,0,0,1,8.67,4.59,9.81,9.81,0,0,1,3,7.59,10,10,0,0,1-4,8.25q-4,3.15-11.82,3.15a27.52,27.52,0,0,1-5.13-.45,16.24,16.24,0,0,1-4.14-1.32,7.55,7.55,0,0,1-2.76-2.16,4.72,4.72,0,0,1-1-3,4.5,4.5,0,0,1,1-3,7.94,7.94,0,0,1,2.22-1.89,16,16,0,0,0,4.11,2.28,14.33,14.33,0,0,0,5.31,1,7.12,7.12,0,0,0,4.14-.9A2.59,2.59,0,0,0,635,277a2.07,2.07,0,0,0-1-1.83,12.42,12.42,0,0,0-2.7-1.23Z"/><path class="cls-6" d="M648.94,282.7a5.93,5.93,0,0,1,1.56-4.2,6.24,6.24,0,0,1,8.52,0,6.43,6.43,0,0,1,0,8.4,6.24,6.24,0,0,1-8.52,0A5.92,5.92,0,0,1,648.94,282.7Z"/><path class="cls-6" d="M663.22,282.7a5.93,5.93,0,0,1,1.56-4.2,6.24,6.24,0,0,1,8.52,0,6.43,6.43,0,0,1,0,8.4,6.24,6.24,0,0,1-8.52,0A5.92,5.92,0,0,1,663.22,282.7Z"/><path class="cls-6" d="M677.5,282.7a5.93,5.93,0,0,1,1.56-4.2,6.24,6.24,0,0,1,8.52,0,6.43,6.43,0,0,1,0,8.4,6.24,6.24,0,0,1-8.52,0A5.92,5.92,0,0,1,677.5,282.7Z"/><path class="cls-6" d="M691.78,282.7a5.93,5.93,0,0,1,1.55-4.2,6.25,6.25,0,0,1,8.53,0,6.43,6.43,0,0,1,0,8.4,6.25,6.25,0,0,1-8.53,0A5.91,5.91,0,0,1,691.78,282.7Z"/><path class="cls-6" d="M734.43,288.52q-1,0-2.34-.06t-2.73-.24q-1.41-.18-2.82-.45a14.21,14.21,0,0,1-2.61-.75q-3.3-1.26-3.3-4.38v-28a2.64,2.64,0,0,1,.69-2,4.93,4.93,0,0,1,1.89-1.11,25.17,25.17,0,0,1,5.46-1.11q2.88-.27,5.16-.27a29.91,29.91,0,0,1,8.49,1.14,17.46,17.46,0,0,1,6.54,3.51,15.9,15.9,0,0,1,4.23,6,25,25,0,0,1,.06,16.89,16.06,16.06,0,0,1-4.11,6,17.2,17.2,0,0,1-6.39,3.63A26.67,26.67,0,0,1,734.43,288.52Zm-3.36-8.76q.66.12,1.62.21t1.8.09a11,11,0,0,0,3.75-.6,7.42,7.42,0,0,0,2.94-1.86,8.59,8.59,0,0,0,1.92-3.27,14.9,14.9,0,0,0,.69-4.83c0-3.6-.84-6.3-2.52-8.13a8.71,8.71,0,0,0-6.72-2.73c-.56,0-1.13,0-1.71.06s-1.17.1-1.77.18Z"/><path class="cls-6" d="M792.81,274.12A15.25,15.25,0,0,1,791.7,280a12.51,12.51,0,0,1-3.21,4.56,14.33,14.33,0,0,1-5.1,2.91,23,23,0,0,1-13.56,0,14.33,14.33,0,0,1-5.1-2.91,12.51,12.51,0,0,1-3.21-4.56,15.25,15.25,0,0,1-1.11-5.91V251.2q.66-.12,2.1-.33a19.14,19.14,0,0,1,2.76-.21,12.5,12.5,0,0,1,2.43.21,4.32,4.32,0,0,1,1.77.75,3.29,3.29,0,0,1,1.08,1.5,7.32,7.32,0,0,1,.36,2.52v18.3a6.15,6.15,0,0,0,1.59,4.5,6.06,6.06,0,0,0,8.25,0,6.22,6.22,0,0,0,1.56-4.5V251.2q.66-.12,2.1-.33a19.14,19.14,0,0,1,2.76-.21,12.5,12.5,0,0,1,2.43.21,4.32,4.32,0,0,1,1.77.75,3.29,3.29,0,0,1,1.08,1.5,7.32,7.32,0,0,1,.36,2.52Z"/><path class="cls-6" d="M838,251.2a7.28,7.28,0,0,1,.75,1.77,8.06,8.06,0,0,1,.33,2.31,4.6,4.6,0,0,1-1,3.33,3.61,3.61,0,0,1-2.67,1h-12.6v6.78H836a6,6,0,0,1,.81,1.74,7.76,7.76,0,0,1,.33,2.28,4.5,4.5,0,0,1-1,3.27,3.61,3.61,0,0,1-2.67,1h-10.5v12.66a16.66,16.66,0,0,1-2.07.36,22,22,0,0,1-2.79.18,12.5,12.5,0,0,1-2.43-.21,4.32,4.32,0,0,1-1.77-.75,3.24,3.24,0,0,1-1.08-1.5,7.32,7.32,0,0,1-.36-2.52v-26.1A5.18,5.18,0,0,1,818,251.2Z"/><path class="cls-6" d="M850.23,252.28a12.7,12.7,0,0,1,3.09-1.14,16.46,16.46,0,0,1,4.17-.54,15.24,15.24,0,0,1,5.31.87,4.62,4.62,0,0,1,3,2.73c.72,2.09,1.5,4.5,2.34,7.26s1.68,5.61,2.52,8.55,1.66,5.85,2.46,8.7,1.5,5.4,2.1,7.59a4.78,4.78,0,0,1-2.16,1.35,10.26,10.26,0,0,1-3.42.51,10.49,10.49,0,0,1-2.43-.24,4.17,4.17,0,0,1-1.62-.72,3.55,3.55,0,0,1-1-1.26,10.59,10.59,0,0,1-.69-1.8L862.77,280H851.91q-.48,1.8-1,3.72t-1,3.72a15.24,15.24,0,0,1-1.77.51,10.37,10.37,0,0,1-2.25.21,7.85,7.85,0,0,1-4.53-1.05A3.37,3.37,0,0,1,840,284.2a6.09,6.09,0,0,1,.24-1.68q.24-.84.54-2,.42-1.62,1.17-4t1.65-5.19q.9-2.79,1.92-5.73c.68-2,1.32-3.81,1.92-5.55s1.15-3.29,1.65-4.65S850,253,850.23,252.28Zm7.2,7.74c-.56,1.68-1.19,3.56-1.89,5.61s-1.33,4.16-1.89,6.27h7.44q-.84-3.24-1.71-6.33c-.58-2.06-1.11-3.9-1.59-5.55Z"/><path class="cls-6" d="M885.69,287.74a5.18,5.18,0,0,1-5.58-5.58v-31c.44-.08,1.14-.18,2.1-.33a19.14,19.14,0,0,1,2.76-.21,12.5,12.5,0,0,1,2.43.21,4.45,4.45,0,0,1,1.77.75,3.24,3.24,0,0,1,1.08,1.5,7.36,7.36,0,0,1,.36,2.52v23.7h13.74a7.86,7.86,0,0,1,.78,1.77,7.44,7.44,0,0,1,.36,2.31,4.61,4.61,0,0,1-1,3.39,3.71,3.71,0,0,1-2.7,1Z"/><path class="cls-6" d="M924.69,288.52q-1,0-2.34-.06t-2.73-.24q-1.41-.18-2.82-.45a14.21,14.21,0,0,1-2.61-.75q-3.3-1.26-3.3-4.38v-28a2.64,2.64,0,0,1,.69-2,4.93,4.93,0,0,1,1.89-1.11,25.17,25.17,0,0,1,5.46-1.11q2.88-.27,5.16-.27a29.91,29.91,0,0,1,8.49,1.14,17.46,17.46,0,0,1,6.54,3.51,15.9,15.9,0,0,1,4.23,6,25,25,0,0,1,.06,16.89,16.06,16.06,0,0,1-4.11,6,17.2,17.2,0,0,1-6.39,3.63A26.67,26.67,0,0,1,924.69,288.52Zm-3.36-8.76q.66.12,1.62.21t1.8.09a11,11,0,0,0,3.75-.6,7.42,7.42,0,0,0,2.94-1.86,8.59,8.59,0,0,0,1.92-3.27,14.9,14.9,0,0,0,.69-4.83c0-3.6-.84-6.3-2.52-8.13a8.71,8.71,0,0,0-6.72-2.73c-.56,0-1.13,0-1.71.06s-1.17.1-1.77.18Z"/><path class="cls-6" d="M948.09,259.6a7.58,7.58,0,0,1-.78-1.8,7.92,7.92,0,0,1-.36-2.4,4.54,4.54,0,0,1,1-3.36,3.79,3.79,0,0,1,2.73-1h26.16a8.46,8.46,0,0,1,1.14,4.2,4.54,4.54,0,0,1-1,3.36,3.75,3.75,0,0,1-2.73,1h-6.66v27.72a16.66,16.66,0,0,1-2.07.36,22,22,0,0,1-2.79.18,12.5,12.5,0,0,1-2.43-.21,4.32,4.32,0,0,1-1.77-.75,3.24,3.24,0,0,1-1.08-1.5,7.32,7.32,0,0,1-.36-2.52V259.6Z"/><path class="cls-6" d="M1016.91,286.36a7.36,7.36,0,0,1-2.61,1.26,13.21,13.21,0,0,1-3.87.54,11.21,11.21,0,0,1-4.32-.75,4.5,4.5,0,0,1-2.46-2.07c-.44-.92-1-2.1-1.62-3.57s-1.31-3.09-2-4.89-1.42-3.71-2.16-5.73-1.45-4.07-2.13-6.15-1.32-4.12-1.92-6.12-1.12-3.88-1.56-5.64a7.82,7.82,0,0,1,2.43-1.53,8.42,8.42,0,0,1,3.39-.69,6.48,6.48,0,0,1,3.63.93,5.68,5.68,0,0,1,2.07,3.45q1.62,5.89,3.27,11.25t3.45,11.19h.36q1.62-5.64,3.33-12.3c1.14-4.44,2.23-8.85,3.27-13.26a13.86,13.86,0,0,1,2.31-.9,9.94,9.94,0,0,1,2.79-.36,6.91,6.91,0,0,1,3.78,1,3.57,3.57,0,0,1,1.56,3.27,17.2,17.2,0,0,1-.63,3.84q-.63,2.52-1.62,5.67t-2.22,6.57q-1.23,3.42-2.46,6.45c-.82,2-1.59,3.81-2.31,5.34A21.21,21.21,0,0,1,1016.91,286.36Z"/><path class="cls-6" d="M1043.67,287.32a16.66,16.66,0,0,1-2.07.36,22,22,0,0,1-2.79.18,12.5,12.5,0,0,1-2.43-.21,4.32,4.32,0,0,1-1.77-.75,3.24,3.24,0,0,1-1.08-1.5,7.32,7.32,0,0,1-.36-2.52V251.2q.66-.12,2.1-.33a19.14,19.14,0,0,1,2.76-.21,12.5,12.5,0,0,1,2.43.21,4.32,4.32,0,0,1,1.77.75,3.29,3.29,0,0,1,1.08,1.5,7.32,7.32,0,0,1,.36,2.52Z"/><path class="cls-6" d="M1065.27,288.52q-1,0-2.34-.06t-2.73-.24q-1.41-.18-2.82-.45a14.21,14.21,0,0,1-2.61-.75q-3.3-1.26-3.3-4.38v-28a2.64,2.64,0,0,1,.69-2,4.93,4.93,0,0,1,1.89-1.11,25.17,25.17,0,0,1,5.46-1.11q2.88-.27,5.16-.27a29.91,29.91,0,0,1,8.49,1.14,17.46,17.46,0,0,1,6.54,3.51,15.9,15.9,0,0,1,4.23,6,25,25,0,0,1,.06,16.89,16.06,16.06,0,0,1-4.11,6,17.2,17.2,0,0,1-6.39,3.63A26.67,26.67,0,0,1,1065.27,288.52Zm-3.36-8.76q.66.12,1.62.21t1.8.09a11,11,0,0,0,3.75-.6,7.42,7.42,0,0,0,2.94-1.86,8.59,8.59,0,0,0,1.92-3.27,14.9,14.9,0,0,0,.69-4.83c0-3.6-.84-6.3-2.52-8.13a8.71,8.71,0,0,0-6.72-2.73c-.56,0-1.13,0-1.71.06s-1.17.1-1.77.18Z"/><path class="cls-6" d="M1101.75,273.1c-1.76-.6-3.36-1.2-4.8-1.83a14.73,14.73,0,0,1-3.72-2.25,9.24,9.24,0,0,1-2.43-3.15,10.33,10.33,0,0,1-.87-4.47,9.82,9.82,0,0,1,3.93-8.16q3.93-3.06,11-3.06a30,30,0,0,1,4.8.36,14.31,14.31,0,0,1,3.81,1.11,6.74,6.74,0,0,1,2.49,1.92,4.35,4.35,0,0,1,.9,2.73,4.8,4.8,0,0,1-.72,2.67,7.48,7.48,0,0,1-1.74,1.89,13.56,13.56,0,0,0-3.54-1.47,17.76,17.76,0,0,0-4.86-.63,8,8,0,0,0-4,.75,2.2,2.2,0,0,0-1.26,1.89,1.73,1.73,0,0,0,.78,1.47,8.1,8.1,0,0,0,2.34,1.05l3.18,1a23,23,0,0,1,8.67,4.59,9.81,9.81,0,0,1,3,7.59,10,10,0,0,1-4,8.25q-4,3.15-11.82,3.15a27.52,27.52,0,0,1-5.13-.45,16.24,16.24,0,0,1-4.14-1.32,7.55,7.55,0,0,1-2.76-2.16,4.72,4.72,0,0,1-1-3,4.5,4.5,0,0,1,1-3,7.94,7.94,0,0,1,2.22-1.89,16,16,0,0,0,4.11,2.28,14.33,14.33,0,0,0,5.31,1,7.12,7.12,0,0,0,4.14-.9,2.59,2.59,0,0,0,1.2-2.1,2.07,2.07,0,0,0-1-1.83,12.42,12.42,0,0,0-2.7-1.23Z"/><path class="cls-6" d="M1122,259.6a7.58,7.58,0,0,1-.78-1.8,7.92,7.92,0,0,1-.36-2.4,4.54,4.54,0,0,1,1-3.36,3.79,3.79,0,0,1,2.73-1h26.16a8.46,8.46,0,0,1,1.14,4.2,4.54,4.54,0,0,1-1,3.36,3.75,3.75,0,0,1-2.73,1h-6.66v27.72a16.66,16.66,0,0,1-2.07.36,22,22,0,0,1-2.79.18,12.5,12.5,0,0,1-2.43-.21,4.32,4.32,0,0,1-1.77-.75,3.24,3.24,0,0,1-1.08-1.5,7.32,7.32,0,0,1-.36-2.52V259.6Z"/><path class="cls-6" d="M1179.57,287.32a16.66,16.66,0,0,1-2.07.36,22,22,0,0,1-2.79.18,12.5,12.5,0,0,1-2.43-.21,4.32,4.32,0,0,1-1.77-.75,3.24,3.24,0,0,1-1.08-1.5,7.32,7.32,0,0,1-.36-2.52V251.2q.66-.12,2.1-.33a19.14,19.14,0,0,1,2.76-.21,12.5,12.5,0,0,1,2.43.21,4.32,4.32,0,0,1,1.77.75,3.29,3.29,0,0,1,1.08,1.5,7.32,7.32,0,0,1,.36,2.52Z"/><path class="cls-6" d="M1209.69,273.1c-1.76-.6-3.36-1.2-4.8-1.83a14.73,14.73,0,0,1-3.72-2.25,9.24,9.24,0,0,1-2.43-3.15,10.33,10.33,0,0,1-.87-4.47,9.82,9.82,0,0,1,3.93-8.16q3.93-3.06,11-3.06a30,30,0,0,1,4.8.36,14.31,14.31,0,0,1,3.81,1.11,6.74,6.74,0,0,1,2.49,1.92,4.35,4.35,0,0,1,.9,2.73,4.8,4.8,0,0,1-.72,2.67,7.48,7.48,0,0,1-1.74,1.89,13.56,13.56,0,0,0-3.54-1.47,17.76,17.76,0,0,0-4.86-.63,8,8,0,0,0-4,.75,2.2,2.2,0,0,0-1.26,1.89,1.73,1.73,0,0,0,.78,1.47,8.1,8.1,0,0,0,2.34,1.05l3.18,1a23,23,0,0,1,8.67,4.59,9.81,9.81,0,0,1,3,7.59,10,10,0,0,1-4,8.25q-4,3.15-11.82,3.15a27.52,27.52,0,0,1-5.13-.45,16.24,16.24,0,0,1-4.14-1.32,7.55,7.55,0,0,1-2.76-2.16,4.72,4.72,0,0,1-1-3,4.5,4.5,0,0,1,1-3,7.94,7.94,0,0,1,2.22-1.89,16,16,0,0,0,4.11,2.28,14.33,14.33,0,0,0,5.31,1,7.12,7.12,0,0,0,4.14-.9,2.59,2.59,0,0,0,1.2-2.1,2.07,2.07,0,0,0-1-1.83,12.42,12.42,0,0,0-2.7-1.23Z"/><path class="cls-6" d="M1230.87,269.32a21.77,21.77,0,0,1,1.47-8.28,16.69,16.69,0,0,1,10-9.72,21.61,21.61,0,0,1,7.47-1.26,21.13,21.13,0,0,1,6.84,1.08l2.52-4.2a6.66,6.66,0,0,1,3.9,1.05,3,3,0,0,1,1.5,2.43,5,5,0,0,1-.51,2.07,16.25,16.25,0,0,1-1.17,2.13,18,18,0,0,1,4.35,6.18,21.27,21.27,0,0,1,1.59,8.52,22.41,22.41,0,0,1-1.44,8.31,16.77,16.77,0,0,1-4,6.06,17,17,0,0,1-6,3.69,23.33,23.33,0,0,1-14.58.18l-2.46,4.14a6.47,6.47,0,0,1-4-1.08A3.16,3.16,0,0,1,1235,288a5,5,0,0,1,.51-2,21.87,21.87,0,0,1,1.11-2.16,17.35,17.35,0,0,1-4.2-6.15A21.91,21.91,0,0,1,1230.87,269.32Zm10.5,0a18.69,18.69,0,0,0,.24,3.15,12.44,12.44,0,0,0,.72,2.61l9.78-16.26a9.2,9.2,0,0,0-2.22-.3,7.82,7.82,0,0,0-6.12,2.7Q1241.37,263.92,1241.37,269.32Zm8.46,10.86a7.8,7.8,0,0,0,6.15-2.7q2.37-2.7,2.37-8.16a18.09,18.09,0,0,0-.24-3.06,13.05,13.05,0,0,0-.72-2.58l-9.84,16.26A9.49,9.49,0,0,0,1249.83,280.18Z"/><path class="cls-6" d="M1295.73,286.36a7.36,7.36,0,0,1-2.61,1.26,13.21,13.21,0,0,1-3.87.54,11.21,11.21,0,0,1-4.32-.75,4.5,4.5,0,0,1-2.46-2.07c-.44-.92-1-2.1-1.62-3.57s-1.31-3.09-2-4.89-1.42-3.71-2.16-5.73-1.45-4.07-2.13-6.15-1.32-4.12-1.92-6.12-1.12-3.88-1.56-5.64a7.82,7.82,0,0,1,2.43-1.53,8.42,8.42,0,0,1,3.39-.69,6.48,6.48,0,0,1,3.63.93,5.68,5.68,0,0,1,2.07,3.45q1.62,5.89,3.27,11.25t3.45,11.19h.36q1.62-5.64,3.33-12.3c1.14-4.44,2.23-8.85,3.27-13.26a13.86,13.86,0,0,1,2.31-.9,9.94,9.94,0,0,1,2.79-.36,6.91,6.91,0,0,1,3.78,1,3.57,3.57,0,0,1,1.56,3.27,17.2,17.2,0,0,1-.63,3.84q-.63,2.52-1.62,5.67t-2.22,6.57q-1.23,3.42-2.46,6.45c-.82,2-1.59,3.81-2.31,5.34A21.21,21.21,0,0,1,1295.73,286.36Z"/><path class="cls-6" d="M1344.93,286.3a5.39,5.39,0,0,1-2.43,1.29,14.12,14.12,0,0,1-3.81.45,13.2,13.2,0,0,1-4.2-.66,5.82,5.82,0,0,1-3.24-3.18l-5.94-12.12q-.9-1.86-1.62-3.51t-1.56-3.81l-.36.06q.24,3.24.27,6.6c0,2.25,0,4.44,0,6.6v9.3a17.07,17.07,0,0,1-2,.36,20.19,20.19,0,0,1-2.67.18,13.58,13.58,0,0,1-2.34-.18,3.58,3.58,0,0,1-1.68-.72,3.41,3.41,0,0,1-1-1.47,6.81,6.81,0,0,1-.36-2.43v-30a5.08,5.08,0,0,1,2.58-1.8,11.6,11.6,0,0,1,3.72-.6,13.21,13.21,0,0,1,4.23.69,5.76,5.76,0,0,1,3.21,3.15l6,12.12q.9,1.88,1.62,3.51c.48,1.11,1,2.37,1.56,3.81l.3-.06q-.24-3.24-.3-6.48t-.06-6.48V251.2a16.68,16.68,0,0,1,2-.36,20.19,20.19,0,0,1,2.67-.18,7.22,7.22,0,0,1,4,.93q1.38.93,1.38,3.87Z"/><path class="cls-6" d="M548.4,395.56h-4.46a1.69,1.69,0,0,1-1.22-.39,1.59,1.59,0,0,1-.41-1.19,1.35,1.35,0,0,1,.47-1.18,3.39,3.39,0,0,1,1.79-.33h.4v-19.8h-.35a3.4,3.4,0,0,1-1.82-.35,1.45,1.45,0,0,1-.49-1.23,1.58,1.58,0,0,1,.41-1.2,1.76,1.76,0,0,1,1.26-.39h9.27A11.31,11.31,0,0,1,562,373q3.24,3.53,3.25,9.53a15.24,15.24,0,0,1-.94,5.42,12.84,12.84,0,0,1-2.71,4.4,9.67,9.67,0,0,1-4,2.49,19.72,19.72,0,0,1-6.07.78c-.3,0-.79,0-1.49,0S548.78,395.56,548.4,395.56Zm0-3.09,1.39.1,1.35,0q5.42,0,7.92-2.42t2.52-7.62q0-5.24-2.53-7.62c-1.68-1.59-4.38-2.38-8.08-2.38l-1.57,0a9.52,9.52,0,0,0-1,.09Z"/><path class="cls-6" d="M575.18,387.46a5.86,5.86,0,0,0,1.17,4,4.75,4.75,0,0,0,3.69,1.27,6,6,0,0,0,4.1-1.51,4.93,4.93,0,0,0,1.7-3.81v-9.09h-3a1.77,1.77,0,0,1-1.24-.36,1.45,1.45,0,0,1-.39-1.12,1.62,1.62,0,0,1,.42-1.23,1.93,1.93,0,0,1,1.34-.39h4.68a1.59,1.59,0,0,1,1.18.36,3,3,0,0,1,.34,1.77v15.08h1a2.63,2.63,0,0,1,1.55.35,1.36,1.36,0,0,1,.47,1.16,1.5,1.5,0,0,1-.45,1.19,2,2,0,0,1-1.31.39h-3.34a1.55,1.55,0,0,1-.92-.24.77.77,0,0,1-.33-.66v-1.49a16.15,16.15,0,0,1-3.62,2.23,8.47,8.47,0,0,1-3.17.6,7.14,7.14,0,0,1-5.44-1.92q-1.82-1.92-1.81-5.82v-9.9h-.46a4.21,4.21,0,0,1-2.05-.35,1.34,1.34,0,0,1-.55-1.22,1.49,1.49,0,0,1,.43-1.15,2,2,0,0,1,1.33-.38h3.32a1.46,1.46,0,0,1,1.07.31,2.15,2.15,0,0,1,.29,1.36Z"/><path class="cls-6" d="M641.43,392.42a2,2,0,0,1,1.37.4,1.41,1.41,0,0,1,.47,1.16,1.5,1.5,0,0,1-.45,1.19,1.92,1.92,0,0,1-1.3.39H627.15a2.14,2.14,0,0,1-1.38-.39,1.47,1.47,0,0,1-.47-1.19,1.46,1.46,0,0,1,.45-1.16,1.9,1.9,0,0,1,1.31-.4h3.73V379h-3.6a2.11,2.11,0,0,1-1.4-.42,1.72,1.72,0,0,1,0-2.37,2,2,0,0,1,1.34-.4h3.47v-1.49c0-2.65.76-4.58,2.27-5.77s3.95-1.79,7.31-1.79a9,9,0,0,1,3.64.55A1.81,1.81,0,0,1,645,369a1.4,1.4,0,0,1-.51,1.12,1.88,1.88,0,0,1-1.3.44,16.73,16.73,0,0,1-1.9-.26,14.88,14.88,0,0,0-2.58-.27,5,5,0,0,0-3.56,1.05,4.66,4.66,0,0,0-1.07,3.46v1.25h7.77a2.08,2.08,0,0,1,1.38.4,1.46,1.46,0,0,1,.47,1.18,1.51,1.51,0,0,1-.48,1.18,2,2,0,0,1-1.32.43h-7.6v13.42Z"/><path class="cls-6" d="M663.71,392.47h7a1.91,1.91,0,0,1,1.27.36,1.47,1.47,0,0,1,.4,1.15,1.62,1.62,0,0,1-.38,1.24,2.18,2.18,0,0,1-1.42.34h-17a2,2,0,0,1-1.32-.39,1.53,1.53,0,0,1-.44-1.19,1.38,1.38,0,0,1,.47-1.14,2.14,2.14,0,0,1,1.38-.37h6.7V378.36h-4.3a2.08,2.08,0,0,1-1.38-.4,1.71,1.71,0,0,1,0-2.32,2,2,0,0,1,1.32-.38h6.43a1.61,1.61,0,0,1,.94.24.77.77,0,0,1,.34.66Zm-4.07-23.54a6.37,6.37,0,0,1,.43-3,2.15,2.15,0,0,1,1.84-.62,2.31,2.31,0,0,1,1.8.52,4.33,4.33,0,0,1,.44,2.45,4.1,4.1,0,0,1-.41,2.34,2.56,2.56,0,0,1-1.83.45,2.78,2.78,0,0,1-1.84-.42A2.54,2.54,0,0,1,659.64,368.93Z"/><path class="cls-6" d="M684.67,387.15v6.48a2.45,2.45,0,0,1-.36,1.41,1.08,1.08,0,0,1-.93.52h-4.07a1.92,1.92,0,0,1-1.3-.39,1.53,1.53,0,0,1-.44-1.19,1.29,1.29,0,0,1,.52-1.19,4.8,4.8,0,0,1,2.21-.32h1.05V370h-.9a5.61,5.61,0,0,1-2.44-.34,1.36,1.36,0,0,1-.55-1.25,1.49,1.49,0,0,1,.46-1.18,1.87,1.87,0,0,1,1.3-.4h4.2a1.55,1.55,0,0,1,.92.24.78.78,0,0,1,.33.66v15.76l6.35-5.32a2.89,2.89,0,0,1-1.06-.68,1.25,1.25,0,0,1-.34-.88,1.12,1.12,0,0,1,.48-1,2.49,2.49,0,0,1,1.41-.33h6a1.94,1.94,0,0,1,1.27.37,1.39,1.39,0,0,1,.44,1.13c0,.87-.71,1.39-2.13,1.53l-.66.09a5.9,5.9,0,0,0-2,.69,12.06,12.06,0,0,0-2.18,1.55L689,383.41l8.33,9.06h1.89a2,2,0,0,1,1.35.35A1.46,1.46,0,0,1,701,394a1.5,1.5,0,0,1-.45,1.18,1.9,1.9,0,0,1-1.31.4h-6a2.29,2.29,0,0,1-1.41-.33,1.22,1.22,0,0,1-.44-1.05,1.38,1.38,0,0,1,.43-1,3,3,0,0,1,1.29-.69l-6.53-7.12Z"/><path class="cls-6" d="M738.68,387.15v6.48a2.45,2.45,0,0,1-.36,1.41,1.1,1.1,0,0,1-.94.52h-4.06a1.91,1.91,0,0,1-1.3-.39,1.53,1.53,0,0,1-.44-1.19,1.27,1.27,0,0,1,.52-1.19,4.77,4.77,0,0,1,2.21-.32h1.05V370h-.9a5.61,5.61,0,0,1-2.44-.34,1.36,1.36,0,0,1-.55-1.25,1.49,1.49,0,0,1,.45-1.18,1.9,1.9,0,0,1,1.31-.4h4.2a1.55,1.55,0,0,1,.92.24.78.78,0,0,1,.33.66v15.76l6.35-5.32a3,3,0,0,1-1.07-.68,1.29,1.29,0,0,1-.34-.88,1.11,1.11,0,0,1,.49-1,2.48,2.48,0,0,1,1.4-.33h6a2,2,0,0,1,1.27.37,1.39,1.39,0,0,1,.44,1.13c0,.87-.71,1.39-2.13,1.53l-.66.09a6,6,0,0,0-2,.69,12.37,12.37,0,0,0-2.17,1.55l-3.19,2.79,8.33,9.06h1.89a2,2,0,0,1,1.35.35A1.46,1.46,0,0,1,755,394a1.5,1.5,0,0,1-.45,1.18,1.9,1.9,0,0,1-1.31.4h-6a2.28,2.28,0,0,1-1.4-.33,1.22,1.22,0,0,1-.44-1.05,1.38,1.38,0,0,1,.43-1,2.91,2.91,0,0,1,1.28-.69l-6.52-7.12Z"/><path class="cls-6" d="M764.21,387.46a5.86,5.86,0,0,0,1.17,4,4.75,4.75,0,0,0,3.69,1.27,6,6,0,0,0,4.1-1.51,4.93,4.93,0,0,0,1.7-3.81v-9.09h-3a1.77,1.77,0,0,1-1.24-.36,1.45,1.45,0,0,1-.39-1.12,1.62,1.62,0,0,1,.42-1.23,1.93,1.93,0,0,1,1.34-.39h4.68a1.59,1.59,0,0,1,1.18.36,3,3,0,0,1,.34,1.77v15.08h1a2.61,2.61,0,0,1,1.55.35,1.36,1.36,0,0,1,.47,1.16,1.5,1.5,0,0,1-.45,1.19,2,2,0,0,1-1.31.39h-3.34a1.55,1.55,0,0,1-.92-.24.77.77,0,0,1-.33-.66v-1.49a16.15,16.15,0,0,1-3.62,2.23,8.47,8.47,0,0,1-3.17.6,7.14,7.14,0,0,1-5.44-1.92q-1.82-1.92-1.81-5.82v-9.9h-.46a4.21,4.21,0,0,1-2-.35,1.34,1.34,0,0,1-.55-1.22,1.49,1.49,0,0,1,.43-1.15,2,2,0,0,1,1.33-.38h3.32a1.46,1.46,0,0,1,1.07.31,2.15,2.15,0,0,1,.29,1.36Z"/><path class="cls-6" d="M788.51,392.47V378.38h-.41A4.28,4.28,0,0,1,786,378a1.33,1.33,0,0,1-.56-1.23,1.45,1.45,0,0,1,.46-1.18,2.47,2.47,0,0,1,1.5-.36h3.14a1.53,1.53,0,0,1,.92.24.78.78,0,0,1,.33.66v1.5a11.83,11.83,0,0,1,3.18-2.21,7.7,7.7,0,0,1,3.26-.72,6.74,6.74,0,0,1,5.22,2.07,8.1,8.1,0,0,1,1.9,5.71v10h1a2.7,2.7,0,0,1,1.59.36,1.33,1.33,0,0,1,.49,1.15,1.37,1.37,0,0,1-.52,1.22,3.39,3.39,0,0,1-1.84.36h-4.86a3.1,3.1,0,0,1-1.81-.33,1.53,1.53,0,0,1-.4-1.25,1.35,1.35,0,0,1,.47-1.18,3.24,3.24,0,0,1,1.75-.33h.77v-9.14a5.84,5.84,0,0,0-1.17-3.93,4.21,4.21,0,0,0-3.39-1.35,5.81,5.81,0,0,0-4,1.52,4.83,4.83,0,0,0-1.72,3.76v9.14h.77a3.32,3.32,0,0,1,1.78.33,1.35,1.35,0,0,1,.46,1.18,1.57,1.57,0,0,1-.39,1.25,3.45,3.45,0,0,1-1.94.33h-5.18a2,2,0,0,1-1.35-.38,1.5,1.5,0,0,1-.45-1.2,1.29,1.29,0,0,1,.51-1.19,4.2,4.2,0,0,1,2-.32Z"/><path class="cls-6" d="M877.7,396.29a7.42,7.42,0,0,1-6.56-3.9q-2.43-3.9-2.43-10.69T871.14,371a7.47,7.47,0,0,1,13.13,0q2.44,3.91,2.44,10.66t-2.44,10.67A7.43,7.43,0,0,1,877.7,396.29Zm0-26q-2.52,0-3.93,3a20.25,20.25,0,0,0-1.41,8.44,20.46,20.46,0,0,0,1.41,8.48q1.41,3,3.93,3t4-3a20.64,20.64,0,0,0,1.4-8.48,20.43,20.43,0,0,0-1.4-8.44Q880.25,370.27,877.7,370.27Z"/><path class="cls-6" d="M953,401.19h5.28a1.77,1.77,0,0,1,1.25.39,1.57,1.57,0,0,1,.42,1.19,1.53,1.53,0,0,1-.41,1.21,2.26,2.26,0,0,1-1.44.35h-9.69a2,2,0,0,1-1.33-.39,1.49,1.49,0,0,1-.45-1.17,1.36,1.36,0,0,1,.56-1.23,4.35,4.35,0,0,1,2.08-.35h.42V378.38h-.42a4.35,4.35,0,0,1-2.08-.35,1.33,1.33,0,0,1-.56-1.23,1.42,1.42,0,0,1,.45-1.15,2,2,0,0,1,1.33-.39h3.34a1.62,1.62,0,0,1,1,.22.79.79,0,0,1,.29.68v2.13a10.15,10.15,0,0,1,3.31-2.3,9.77,9.77,0,0,1,3.9-.77,9.93,9.93,0,0,1,7.38,3,10.19,10.19,0,0,1,3,7.49,9.63,9.63,0,0,1-2.81,7.12,9.78,9.78,0,0,1-7.19,2.79,10.89,10.89,0,0,1-4.28-.83,8.51,8.51,0,0,1-3.28-2.36Zm6.82-8.81a6.87,6.87,0,0,0,5-1.92,6.7,6.7,0,0,0,2-5,6.63,6.63,0,0,0-2-4.93,6.82,6.82,0,0,0-5-1.95,6.89,6.89,0,1,0,0,13.78Z"/><path class="cls-6" d="M997.25,385.44a10,10,0,0,1-3.2,7.68,13.07,13.07,0,0,1-16.64,0,10.82,10.82,0,0,1,0-15.36,13.07,13.07,0,0,1,16.63,0A10,10,0,0,1,997.25,385.44ZM985.72,393a7.61,7.61,0,0,0,5.55-2.14,8,8,0,0,0,0-10.93,8.17,8.17,0,0,0-11.07,0,8,8,0,0,0,0,10.94A7.55,7.55,0,0,0,985.72,393Z"/><path class="cls-6" d="M1014.77,392.47h7.05a1.86,1.86,0,0,1,1.26.36,1.48,1.48,0,0,1,.41,1.15,1.62,1.62,0,0,1-.38,1.24,2.18,2.18,0,0,1-1.42.34h-17a1.93,1.93,0,0,1-1.32-.39,1.53,1.53,0,0,1-.44-1.19,1.4,1.4,0,0,1,.46-1.14,2.18,2.18,0,0,1,1.39-.37h6.7V378.36h-4.3a2.08,2.08,0,0,1-1.38-.4,1.47,1.47,0,0,1-.47-1.17,1.43,1.43,0,0,1,.44-1.15,2,2,0,0,1,1.31-.38h6.44a1.61,1.61,0,0,1,.94.24.79.79,0,0,1,.34.66Zm-4.07-23.54a6.24,6.24,0,0,1,.43-3,2.14,2.14,0,0,1,1.83-.62,2.35,2.35,0,0,1,1.81.52,4.33,4.33,0,0,1,.44,2.45,4.1,4.1,0,0,1-.41,2.34,2.57,2.57,0,0,1-1.84.45,2.77,2.77,0,0,1-1.83-.42A2.49,2.49,0,0,1,1010.7,368.93Z"/><path class="cls-6" d="M1031.55,392.47V378.38h-.41a4.28,4.28,0,0,1-2.06-.35,1.33,1.33,0,0,1-.56-1.23,1.45,1.45,0,0,1,.46-1.18,2.47,2.47,0,0,1,1.5-.36h3.14a1.55,1.55,0,0,1,.92.24.78.78,0,0,1,.33.66v1.5a11.83,11.83,0,0,1,3.18-2.21,7.7,7.7,0,0,1,3.26-.72,6.74,6.74,0,0,1,5.22,2.07,8.15,8.15,0,0,1,1.9,5.71v10h1a2.7,2.7,0,0,1,1.59.36,1.33,1.33,0,0,1,.49,1.15,1.37,1.37,0,0,1-.52,1.22,3.39,3.39,0,0,1-1.84.36h-4.86a3.08,3.08,0,0,1-1.81-.33,1.53,1.53,0,0,1-.4-1.25,1.35,1.35,0,0,1,.47-1.18,3.24,3.24,0,0,1,1.75-.33h.77v-9.14a5.84,5.84,0,0,0-1.17-3.93,4.21,4.21,0,0,0-3.39-1.35,5.81,5.81,0,0,0-4,1.52,4.79,4.79,0,0,0-1.72,3.76v9.14h.77a3.32,3.32,0,0,1,1.78.33,1.35,1.35,0,0,1,.46,1.18,1.57,1.57,0,0,1-.39,1.25,3.45,3.45,0,0,1-1.94.33h-5.18a2,2,0,0,1-1.35-.38,1.5,1.5,0,0,1-.45-1.2,1.29,1.29,0,0,1,.51-1.19,4.2,4.2,0,0,1,2-.32Z"/><path class="cls-6" d="M1072.73,376.49a2.61,2.61,0,0,1,1.57.38,1.38,1.38,0,0,1,.49,1.18,1.42,1.42,0,0,1-.46,1.16,2.14,2.14,0,0,1-1.38.38h-8.9v7.34c0,2.4.31,4,.93,4.75a3.94,3.94,0,0,0,3.2,1.14,12.8,12.8,0,0,0,4.79-1.17,14.28,14.28,0,0,1,3.45-1.16,1.4,1.4,0,0,1,1,.44,1.46,1.46,0,0,1,.43,1.07,1.76,1.76,0,0,1-.53,1.27,5.4,5.4,0,0,1-1.84,1,26.78,26.78,0,0,1-3.88,1.25,14.19,14.19,0,0,1-3.24.4,10.12,10.12,0,0,1-4.32-.82,5.53,5.53,0,0,1-2.6-2.45,5.88,5.88,0,0,1-.63-1.83,21.11,21.11,0,0,1-.18-3.25v-8h-3.74a2,2,0,0,1-1.34-.36,1.49,1.49,0,0,1-.42-1.18,1.28,1.28,0,0,1,.58-1.23,5.7,5.7,0,0,1,2.43-.33h2.49v-5.67a2,2,0,0,1,.4-1.39,1.64,1.64,0,0,1,1.27-.45,1.5,1.5,0,0,1,1.34.55,5.23,5.23,0,0,1,.37,2.5v4.46Z"/><path class="cls-6" d="M1127.51,392.42a2,2,0,0,1,1.37.4,1.41,1.41,0,0,1,.47,1.16,1.5,1.5,0,0,1-.45,1.19,1.92,1.92,0,0,1-1.3.39h-14.37a2.14,2.14,0,0,1-1.38-.39,1.47,1.47,0,0,1-.47-1.19,1.46,1.46,0,0,1,.45-1.16,1.9,1.9,0,0,1,1.31-.4h3.73V379h-3.6a2.08,2.08,0,0,1-1.39-.42,1.47,1.47,0,0,1-.5-1.19,1.49,1.49,0,0,1,.46-1.18,2,2,0,0,1,1.34-.4h3.47v-1.49c0-2.65.76-4.58,2.27-5.77s3.95-1.79,7.31-1.79a9,9,0,0,1,3.64.55,1.81,1.81,0,0,1,1.18,1.71,1.4,1.4,0,0,1-.51,1.12,1.88,1.88,0,0,1-1.3.44,16.73,16.73,0,0,1-1.9-.26,14.88,14.88,0,0,0-2.58-.27,5,5,0,0,0-3.56,1.05,4.66,4.66,0,0,0-1.07,3.46v1.25h7.77a2.08,2.08,0,0,1,1.38.4,1.46,1.46,0,0,1,.47,1.18,1.51,1.51,0,0,1-.48,1.18,2,2,0,0,1-1.32.43h-7.6v13.42Z"/><path class="cls-6" d="M1145.59,392.47h7.3a1.86,1.86,0,0,1,1.26.36,1.48,1.48,0,0,1,.41,1.15,1.59,1.59,0,0,1-.39,1.24,2.16,2.16,0,0,1-1.42.34h-14.37a1.88,1.88,0,0,1-1.29-.39,1.49,1.49,0,0,1-.44-1.19,1.4,1.4,0,0,1,.45-1.14,2.14,2.14,0,0,1,1.39-.37h3.83V378.36h-1.5a6.06,6.06,0,0,1-2.65-.34,1.32,1.32,0,0,1-.53-1.23,1.46,1.46,0,0,1,.43-1.15,1.92,1.92,0,0,1,1.3-.38h5a1.49,1.49,0,0,1,.9.23.79.79,0,0,1,.31.67v3.74a15.35,15.35,0,0,1,4.35-3.89,9.8,9.8,0,0,1,4.88-1.28,5.73,5.73,0,0,1,3.16.79,2.33,2.33,0,0,1,1.21,2,2,2,0,0,1-.6,1.44,1.84,1.84,0,0,1-1.33.62,4.19,4.19,0,0,1-1.7-.67,4.6,4.6,0,0,0-2.15-.67,6.77,6.77,0,0,0-3.61,1.22,20.94,20.94,0,0,0-4.21,3.87Z"/><path class="cls-6" d="M1179.8,392.77a13.13,13.13,0,0,1-3.92,2.49,11.55,11.55,0,0,1-4.36.85,7.58,7.58,0,0,1-5.29-1.82,6.12,6.12,0,0,1-2-4.75,6.24,6.24,0,0,1,2.67-5.38q2.67-1.91,7.51-1.91a20.38,20.38,0,0,1,2.57.16,22.65,22.65,0,0,1,2.66.52v-.15a4.32,4.32,0,0,0-5-4.95,9.57,9.57,0,0,0-3.82.93,9.57,9.57,0,0,1-2.79.92,1.29,1.29,0,0,1-1.06-.52,2,2,0,0,1-.41-1.33c0-.86.8-1.59,2.42-2.2a18.37,18.37,0,0,1,6.21-.9q3.87,0,5.84,2a7.85,7.85,0,0,1,2,5.81v10h1.08a4.42,4.42,0,0,1,2.09.33,1.28,1.28,0,0,1,.52,1.18,1.52,1.52,0,0,1-.43,1.19,2,2,0,0,1-1.32.39h-3.45a1.4,1.4,0,0,1-1-.37,1.91,1.91,0,0,1-.53-1.08Zm-.17-6.92a16,16,0,0,0-2.34-.58,14.44,14.44,0,0,0-2.25-.19,10.48,10.48,0,0,0-5.34,1.15,3.44,3.44,0,0,0-2,3.07,3,3,0,0,0,1.22,2.46,4.82,4.82,0,0,0,3.11,1,9.74,9.74,0,0,0,5.17-1.46c1.59-1,2.39-2,2.39-3Z"/><path class="cls-6" d="M1227.29,370h-3.74a6.38,6.38,0,0,1-2.67-.34,1.36,1.36,0,0,1-.54-1.25,1.49,1.49,0,0,1,.45-1.18,1.9,1.9,0,0,1,1.31-.4h7.25a1.58,1.58,0,0,1,.93.24.8.8,0,0,1,.32.66v24.77h6.9a1.73,1.73,0,0,1,1.22.36,1.51,1.51,0,0,1,.39,1.15,1.62,1.62,0,0,1-.38,1.24,2.08,2.08,0,0,1-1.4.34h-16.22a2,2,0,0,1-1.31-.39,1.5,1.5,0,0,1-.45-1.19,1.38,1.38,0,0,1,.47-1.14,2.13,2.13,0,0,1,1.38-.37h6.09Z"/><path class="cls-6" d="M1266.07,386.38h-8.86v1.32a6.46,6.46,0,0,0,1,3.94,3.46,3.46,0,0,0,3,1.38,5.71,5.71,0,0,0,3.5-1.42,6.11,6.11,0,0,1,2.26-1.42,1.24,1.24,0,0,1,.94.39,1.33,1.33,0,0,1,.38,1c0,1-.76,2-2.27,3a8.7,8.7,0,0,1-4.94,1.52,5.73,5.73,0,0,1-3-.77,8.42,8.42,0,0,1-2.5-2.52,15.12,15.12,0,0,1-3.46,2.54,7.26,7.26,0,0,1-3.2.75,5.6,5.6,0,0,1-4.18-1.65,5.86,5.86,0,0,1-1.62-4.26,5.72,5.72,0,0,1,2.15-4.89q2.14-1.59,6.67-1.59h2.39v-1.34a6.81,6.81,0,0,0-.79-3.7,2.74,2.74,0,0,0-2.46-1.2,5.48,5.48,0,0,0-3,1.06,5.46,5.46,0,0,1-2.17,1,1,1,0,0,1-.79-.37,1.3,1.3,0,0,1-.33-.88c0-.85.66-1.68,2-2.48a8.32,8.32,0,0,1,4.44-1.21,6,6,0,0,1,2.79.62,6.25,6.25,0,0,1,2.13,2,7.79,7.79,0,0,1,2.41-1.95,6.39,6.39,0,0,1,2.84-.64,5.91,5.91,0,0,1,5,2.47,11.21,11.21,0,0,1,1.84,6.8,3.6,3.6,0,0,1-.37,2C1267.55,386.23,1267,386.38,1266.07,386.38Zm-11.78,0h-1.08a12.39,12.39,0,0,0-5.4.85,3.22,3.22,0,0,0-.77,5,3.38,3.38,0,0,0,2.39.8,5.19,5.19,0,0,0,3.38-1.21,3.49,3.49,0,0,0,1.48-2.76Zm2.92-2.66h7.52v-.35a8.1,8.1,0,0,0-.91-4.21,2.92,2.92,0,0,0-2.61-1.46,3.43,3.43,0,0,0-2.93,1.45,6.64,6.64,0,0,0-1.07,4Z"/><path class="cls-6" d="M1280.61,392.47h7.3a1.86,1.86,0,0,1,1.26.36,1.48,1.48,0,0,1,.41,1.15,1.59,1.59,0,0,1-.39,1.24,2.15,2.15,0,0,1-1.41.34h-14.37a1.89,1.89,0,0,1-1.3-.39,1.53,1.53,0,0,1-.44-1.19,1.4,1.4,0,0,1,.45-1.14,2.17,2.17,0,0,1,1.4-.37h3.82V378.36h-1.49a6.09,6.09,0,0,1-2.66-.34,1.32,1.32,0,0,1-.53-1.23,1.46,1.46,0,0,1,.43-1.15,1.92,1.92,0,0,1,1.3-.38h5a1.55,1.55,0,0,1,.91.23.81.81,0,0,1,.3.67v3.74A15.48,15.48,0,0,1,1285,376a9.8,9.8,0,0,1,4.88-1.28,5.77,5.77,0,0,1,3.17.79,2.34,2.34,0,0,1,1.2,2,2,2,0,0,1-.6,1.44,1.84,1.84,0,0,1-1.33.62,4.24,4.24,0,0,1-1.7-.67,4.57,4.57,0,0,0-2.14-.67,6.77,6.77,0,0,0-3.62,1.22,20.94,20.94,0,0,0-4.21,3.87Z"/><path class="cls-6" d="M1302.34,386.38a6.75,6.75,0,0,0,2.15,4.91,7.86,7.86,0,0,0,5.37,1.73,13.63,13.63,0,0,0,5.6-1.38,15.42,15.42,0,0,1,3.67-1.37,1.52,1.52,0,0,1,1.1.42,1.36,1.36,0,0,1,.44,1,1.71,1.71,0,0,1-.46,1.16,4.79,4.79,0,0,1-1.47,1,22.84,22.84,0,0,1-4.54,1.64,20.1,20.1,0,0,1-4.65.56,11.09,11.09,0,0,1-8-2.89,10.08,10.08,0,0,1-3-7.65,10.32,10.32,0,0,1,3.19-7.87,11.57,11.57,0,0,1,8.3-3,10.93,10.93,0,0,1,7.69,2.81,8.93,8.93,0,0,1,3.06,6.81,2,2,0,0,1-.52,1.65,5.49,5.49,0,0,1-2.8.42h-15.1Zm.11-2.88h14.31a6.41,6.41,0,0,0-2.19-4.21,6.76,6.76,0,0,0-4.56-1.59,7.79,7.79,0,0,0-4.92,1.54A7.3,7.3,0,0,0,1302.45,383.5Z"/><path class="cls-6" d="M1328.6,392.47V378.38h-.41a4.26,4.26,0,0,1-2.06-.35,1.33,1.33,0,0,1-.56-1.23,1.42,1.42,0,0,1,.46-1.18,2.47,2.47,0,0,1,1.5-.36h3.14a1.55,1.55,0,0,1,.92.24.78.78,0,0,1,.33.66v1.5a11.83,11.83,0,0,1,3.18-2.21,7.7,7.7,0,0,1,3.26-.72,6.74,6.74,0,0,1,5.22,2.07,8.15,8.15,0,0,1,1.9,5.71v10h1a2.72,2.72,0,0,1,1.59.36,1.33,1.33,0,0,1,.49,1.15,1.4,1.4,0,0,1-.52,1.22,3.39,3.39,0,0,1-1.84.36h-4.87a3.06,3.06,0,0,1-1.8-.33,1.53,1.53,0,0,1-.4-1.25,1.35,1.35,0,0,1,.47-1.18,3.22,3.22,0,0,1,1.74-.33h.78v-9.14a5.84,5.84,0,0,0-1.17-3.93,4.24,4.24,0,0,0-3.39-1.35,5.8,5.8,0,0,0-4,1.52,4.79,4.79,0,0,0-1.72,3.76v9.14h.77a3.32,3.32,0,0,1,1.78.33,1.35,1.35,0,0,1,.46,1.18,1.57,1.57,0,0,1-.39,1.25,3.45,3.45,0,0,1-1.94.33h-5.18a2.06,2.06,0,0,1-1.36-.38,1.5,1.5,0,0,1-.45-1.2,1.29,1.29,0,0,1,.52-1.19,4.15,4.15,0,0,1,2-.32Z"/><path class="cls-6" d="M1356.35,386.38a6.71,6.71,0,0,0,2.15,4.91,7.86,7.86,0,0,0,5.37,1.73,13.63,13.63,0,0,0,5.6-1.38,15.42,15.42,0,0,1,3.67-1.37,1.52,1.52,0,0,1,1.1.42,1.36,1.36,0,0,1,.44,1,1.71,1.71,0,0,1-.46,1.16,4.79,4.79,0,0,1-1.47,1,22.84,22.84,0,0,1-4.54,1.64,20.1,20.1,0,0,1-4.65.56,11.09,11.09,0,0,1-8-2.89,10.08,10.08,0,0,1-3-7.65,10.32,10.32,0,0,1,3.19-7.87,11.57,11.57,0,0,1,8.3-3,10.93,10.93,0,0,1,7.69,2.81,8.93,8.93,0,0,1,3.06,6.81,2.08,2.08,0,0,1-.52,1.65,5.49,5.49,0,0,1-2.8.42h-15.1Zm.11-2.88h14.31a6.41,6.41,0,0,0-2.19-4.21,6.78,6.78,0,0,0-4.56-1.59,7.79,7.79,0,0,0-4.92,1.54A7.3,7.3,0,0,0,1356.46,383.5Z"/><path class="cls-6" d="M1386.48,392a3.66,3.66,0,0,1,1.19-2.81,4.44,4.44,0,0,1,3.11-1.1,4.51,4.51,0,0,1,3.15,1.08,4,4,0,0,1,0,5.66,5.08,5.08,0,0,1-6.26,0A3.63,3.63,0,0,1,1386.48,392Z"/><path class="cls-6" d="M629.41,446.47h1.47a3.44,3.44,0,0,1,1.83.35,1.28,1.28,0,0,1,.52,1.16,1.43,1.43,0,0,1-.46,1.24,3.84,3.84,0,0,1-2,.34H625a1.7,1.7,0,0,1-1.22-.39,1.59,1.59,0,0,1-.41-1.19,1.33,1.33,0,0,1,.48-1.18,3.36,3.36,0,0,1,1.79-.33H626v-19.8h-.35a3.36,3.36,0,0,1-1.81-.35,1.42,1.42,0,0,1-.5-1.23,1.58,1.58,0,0,1,.41-1.2,1.76,1.76,0,0,1,1.26-.39h5.54a4.44,4.44,0,0,1,2.23.35,1.41,1.41,0,0,1,.47,1.24,1.31,1.31,0,0,1-.59,1.23,4.94,4.94,0,0,1-2.24.35h-1v7.65h10.52v-7.65h-1.49a3.24,3.24,0,0,1-1.79-.38,1.35,1.35,0,0,1-.54-1.2,1.39,1.39,0,0,1,.5-1.24,5.11,5.11,0,0,1,2.42-.35h5.36a1.67,1.67,0,0,1,1.2.4,1.59,1.59,0,0,1,.41,1.19,1.47,1.47,0,0,1-.46,1.22,2.79,2.79,0,0,1-1.65.36h-.53v19.8h.35a3.38,3.38,0,0,1,1.81.34A1.33,1.33,0,0,1,646,448a1.43,1.43,0,0,1-.46,1.24,4.16,4.16,0,0,1-2.13.34h-4.55a4.67,4.67,0,0,1-2.27-.34,1.41,1.41,0,0,1-.48-1.24,1.24,1.24,0,0,1,.57-1.18,4.87,4.87,0,0,1,2.18-.33h1.07v-9.14H629.41Z"/><path class="cls-6" d="M654.24,440.38a6.74,6.74,0,0,0,2.14,4.91,7.86,7.86,0,0,0,5.37,1.73,13.67,13.67,0,0,0,5.61-1.38,15.26,15.26,0,0,1,3.67-1.37,1.5,1.5,0,0,1,1.09.42,1.33,1.33,0,0,1,.44,1,1.71,1.71,0,0,1-.46,1.16,4.67,4.67,0,0,1-1.47,1,22.62,22.62,0,0,1-4.54,1.64,20.08,20.08,0,0,1-4.64.56,11.07,11.07,0,0,1-8-2.89,10.08,10.08,0,0,1-3-7.65,10.34,10.34,0,0,1,3.18-7.87,11.6,11.6,0,0,1,8.31-3,10.94,10.94,0,0,1,7.69,2.81,9,9,0,0,1,3,6.81,2.08,2.08,0,0,1-.51,1.65,5.54,5.54,0,0,1-2.81.42H654.24Zm.11-2.88h14.3a6.4,6.4,0,0,0-2.18-4.21,6.78,6.78,0,0,0-4.56-1.59,7.79,7.79,0,0,0-4.92,1.54A7.21,7.21,0,0,0,654.35,437.5Z"/><path class="cls-6" d="M687.2,424h-3.74a6.38,6.38,0,0,1-2.67-.34,1.36,1.36,0,0,1-.53-1.25,1.49,1.49,0,0,1,.45-1.18,1.87,1.87,0,0,1,1.3-.4h7.25a1.56,1.56,0,0,1,.93.24.78.78,0,0,1,.33.66v24.77h6.9a1.76,1.76,0,0,1,1.22.36A1.55,1.55,0,0,1,699,448a1.63,1.63,0,0,1-.37,1.24,2.13,2.13,0,0,1-1.41.34H681a1.92,1.92,0,0,1-1.3-.39,1.5,1.5,0,0,1-.45-1.19,1.37,1.37,0,0,1,.46-1.14,2.16,2.16,0,0,1,1.38-.37h6.09Z"/><path class="cls-6" d="M722.29,449.56a.77.77,0,0,1-.65-.23,1.52,1.52,0,0,1-.19-.89v-1.8a8.94,8.94,0,0,1-3.29,2.56,10.1,10.1,0,0,1-4.29.91,9.18,9.18,0,0,1-7-2.95,11.06,11.06,0,0,1,.19-14.92A10.7,10.7,0,0,1,718.62,430a8.47,8.47,0,0,1,3.1,2.36V424h-1.17a5.75,5.75,0,0,1-2.47-.34,1.35,1.35,0,0,1-.56-1.25,1.49,1.49,0,0,1,.45-1.18,1.9,1.9,0,0,1,1.31-.4h4.5a1.7,1.7,0,0,1,1,.22.8.8,0,0,1,.3.68v24.77h1a2.64,2.64,0,0,1,1.56.36,1.33,1.33,0,0,1,.49,1.15,1.58,1.58,0,0,1-.42,1.17,1.5,1.5,0,0,1-1.12.41ZM707.9,439.7a6.67,6.67,0,0,0,2,5,6.78,6.78,0,0,0,5,1.94,6.68,6.68,0,0,0,5-2,7,7,0,0,0,2-5.11,6.89,6.89,0,0,0-1.94-5,6.72,6.72,0,0,0-5-2,6.61,6.61,0,0,0-5,2A7.21,7.21,0,0,0,707.9,439.7Z"/><path class="cls-6" d="M744.72,446.47h7.06a1.86,1.86,0,0,1,1.26.36,1.48,1.48,0,0,1,.41,1.15,1.59,1.59,0,0,1-.39,1.24,2.18,2.18,0,0,1-1.42.34h-17a1.93,1.93,0,0,1-1.32-.39,1.49,1.49,0,0,1-.44-1.19,1.37,1.37,0,0,1,.46-1.14,2.16,2.16,0,0,1,1.38-.37h6.7V432.36h-4.3a2,2,0,0,1-1.37-.4,1.45,1.45,0,0,1-.48-1.17,1.46,1.46,0,0,1,.44-1.15,2,2,0,0,1,1.32-.38h6.44a1.6,1.6,0,0,1,.93.24.77.77,0,0,1,.34.66Zm-4.06-23.54a6.24,6.24,0,0,1,.43-3c.28-.41.89-.62,1.83-.62a2.31,2.31,0,0,1,1.8.52,4.33,4.33,0,0,1,.44,2.45,4,4,0,0,1-.41,2.34,2.56,2.56,0,0,1-1.83.45,2.73,2.73,0,0,1-1.83-.42A2.49,2.49,0,0,1,740.66,422.93Z"/><path class="cls-6" d="M778.63,448.4a21.58,21.58,0,0,1-.31,4.36,5.73,5.73,0,0,1-1.07,2.25,7.57,7.57,0,0,1-3.46,2.48,14.75,14.75,0,0,1-5.23.84,10.23,10.23,0,0,1-3.66-.48,1.59,1.59,0,0,1-.59-2.74,1.91,1.91,0,0,1,1.33-.51,14.83,14.83,0,0,1,1.82.16,15.61,15.61,0,0,0,1.87.17q3.25,0,4.62-1.5c.9-1,1.36-2.7,1.36-5.12v-2.66a8.38,8.38,0,0,1-3,2.29,9.89,9.89,0,0,1-10.53-2,10.24,10.24,0,0,1,.07-13.93,9.63,9.63,0,0,1,10.17-2.16,13.68,13.68,0,0,1,3.26,1.9v-1.58a.8.8,0,0,1,.3-.68,1.52,1.52,0,0,1,.93-.22h3.32a1.92,1.92,0,0,1,1.31.39,1.42,1.42,0,0,1,.44,1.15,1.35,1.35,0,0,1-.54,1.23,4.18,4.18,0,0,1-2.05.35h-.39Zm-9.56-15.89a6.46,6.46,0,0,0-4.7,1.78,6.7,6.7,0,0,0,0,9.2,7.05,7.05,0,0,0,9.39,0,6.66,6.66,0,0,0,0-9.17A6.39,6.39,0,0,0,769.07,432.51Z"/><path class="cls-6" d="M786.62,432.36a4,4,0,0,1-2-.35,1.34,1.34,0,0,1-.54-1.22,1.43,1.43,0,0,1,.44-1.15,2,2,0,0,1,1.32-.38H792a2.9,2.9,0,0,1,1.67.34,1.45,1.45,0,0,1,.42,1.19,1.34,1.34,0,0,1-.55,1.22,4.12,4.12,0,0,1-2,.35h-.82l5.71,14.24,6.36-14.24h-1.32a5.14,5.14,0,0,1-2.29-.34,1.29,1.29,0,0,1-.59-1.23,1.45,1.45,0,0,1,.42-1.19,2.86,2.86,0,0,1,1.67-.34h6.79a2,2,0,0,1,1.31.38,1.43,1.43,0,0,1,.44,1.15,1.34,1.34,0,0,1-.54,1.22,3.94,3.94,0,0,1-2,.35h-.4l-7.25,16A3.85,3.85,0,0,1,798,450a2.83,2.83,0,0,1-1.57.36,2.52,2.52,0,0,1-1.46-.35,3.87,3.87,0,0,1-1.07-1.58Z"/><path class="cls-6" d="M825.74,446.47h7a1.86,1.86,0,0,1,1.26.36,1.48,1.48,0,0,1,.41,1.15,1.59,1.59,0,0,1-.39,1.24,2.13,2.13,0,0,1-1.41.34h-17a1.93,1.93,0,0,1-1.32-.39,1.53,1.53,0,0,1-.44-1.19,1.37,1.37,0,0,1,.46-1.14,2.18,2.18,0,0,1,1.39-.37h6.7V432.36h-4.3a2.07,2.07,0,0,1-1.38-.4,1.71,1.71,0,0,1,0-2.32,2,2,0,0,1,1.31-.38h6.44a1.61,1.61,0,0,1,.94.24.79.79,0,0,1,.34.66Zm-4.07-23.54a6.24,6.24,0,0,1,.43-3,2.13,2.13,0,0,1,1.83-.62,2.35,2.35,0,0,1,1.81.52,4.33,4.33,0,0,1,.44,2.45,4.1,4.1,0,0,1-.41,2.34,2.57,2.57,0,0,1-1.84.45,2.75,2.75,0,0,1-1.83-.42A2.49,2.49,0,0,1,821.67,422.93Z"/><path class="cls-6" d="M841.12,448v-3.91a2.11,2.11,0,0,1,.36-1.38,1.46,1.46,0,0,1,1.17-.42c.6,0,1.08.41,1.43,1.23a6.76,6.76,0,0,0,.64,1.12,6.28,6.28,0,0,0,2.72,1.9,10.68,10.68,0,0,0,4,.72,6.62,6.62,0,0,0,3.74-.95,2.88,2.88,0,0,0,1.4-2.48,2.35,2.35,0,0,0-1.13-2.22,8.22,8.22,0,0,0-3.88-.66h-1.21q-4.47,0-6.83-1.56a5.09,5.09,0,0,1-2.35-4.53,5.18,5.18,0,0,1,2.3-4.5,11.14,11.14,0,0,1,6.45-1.61,13.15,13.15,0,0,1,3.45.48c1.17.31,1.78.47,1.84.47a2.29,2.29,0,0,0,.92-.43,2.49,2.49,0,0,1,1.34-.43,1.25,1.25,0,0,1,1.11.55,3,3,0,0,1,.37,1.65v2.57a3,3,0,0,1-.36,1.68,1.23,1.23,0,0,1-1.12.52c-.44,0-1-.38-1.62-1.12-.46-.52-.83-.9-1.12-1.17a7.53,7.53,0,0,0-2.49-1.55,9.25,9.25,0,0,0-3.09-.47,5.61,5.61,0,0,0-3.33.91,2.75,2.75,0,0,0-1.27,2.32,2.05,2.05,0,0,0,1.3,2,17.37,17.37,0,0,0,5.58.68q4.58.11,6.68,1.59a5.21,5.21,0,0,1,2.11,4.58,5.69,5.69,0,0,1-2.33,4.75,10.07,10.07,0,0,1-6.28,1.78,19.37,19.37,0,0,1-2.79-.23q-1.54-.22-3.87-.78a9.89,9.89,0,0,1-1.32.76,2.27,2.27,0,0,1-.92.25,1.39,1.39,0,0,1-1.18-.54A2.54,2.54,0,0,1,841.12,448Z"/><path class="cls-6" d="M897.28,440.38a6.74,6.74,0,0,0,2.14,4.91,7.86,7.86,0,0,0,5.37,1.73,13.64,13.64,0,0,0,5.61-1.38,15.26,15.26,0,0,1,3.67-1.37,1.54,1.54,0,0,1,1.1.42,1.35,1.35,0,0,1,.43,1,1.71,1.71,0,0,1-.46,1.16,4.67,4.67,0,0,1-1.47,1,22.62,22.62,0,0,1-4.54,1.64,20.08,20.08,0,0,1-4.64.56,11.07,11.07,0,0,1-8-2.89,10.08,10.08,0,0,1-3-7.65,10.34,10.34,0,0,1,3.18-7.87,11.6,11.6,0,0,1,8.31-3,10.94,10.94,0,0,1,7.69,2.81,9,9,0,0,1,3.05,6.81,2.08,2.08,0,0,1-.51,1.65,5.51,5.51,0,0,1-2.8.42h-15.1Zm.11-2.88h14.3a6.4,6.4,0,0,0-2.18-4.21A6.78,6.78,0,0,0,905,431.7a7.79,7.79,0,0,0-4.92,1.54A7.21,7.21,0,0,0,897.39,437.5Z"/><path class="cls-6" d="M929.56,446.47h7.29a1.91,1.91,0,0,1,1.27.36,1.47,1.47,0,0,1,.4,1.15,1.62,1.62,0,0,1-.38,1.24,2.18,2.18,0,0,1-1.42.34H922.35a1.92,1.92,0,0,1-1.3-.39,1.53,1.53,0,0,1-.44-1.19,1.4,1.4,0,0,1,.45-1.14,2.17,2.17,0,0,1,1.4-.37h3.82V432.36h-1.49a6.12,6.12,0,0,1-2.66-.34,1.34,1.34,0,0,1-.53-1.23,1.49,1.49,0,0,1,.43-1.15,2,2,0,0,1,1.31-.38h5a1.53,1.53,0,0,1,.9.23.81.81,0,0,1,.31.67v3.74a15.35,15.35,0,0,1,4.35-3.89,9.77,9.77,0,0,1,4.88-1.28,5.76,5.76,0,0,1,3.16.79,2.36,2.36,0,0,1,1.21,2,2,2,0,0,1-.61,1.44,1.83,1.83,0,0,1-1.33.62,4.29,4.29,0,0,1-1.7-.67,4.57,4.57,0,0,0-2.14-.67,6.8,6.8,0,0,0-3.62,1.22,20.92,20.92,0,0,0-4.2,3.87Z"/><path class="cls-6" d="M992.33,449.56a.78.78,0,0,1-.65-.23,1.53,1.53,0,0,1-.18-.89v-1.8a9,9,0,0,1-3.3,2.56,10.05,10.05,0,0,1-4.28.91,9.2,9.2,0,0,1-7-2.95,11.06,11.06,0,0,1,.19-14.92A10.7,10.7,0,0,1,988.66,430a8.39,8.39,0,0,1,3.1,2.36V424H990.6a5.8,5.8,0,0,1-2.48-.34,1.35,1.35,0,0,1-.56-1.25,1.49,1.49,0,0,1,.45-1.18,1.92,1.92,0,0,1,1.31-.4h4.51a1.66,1.66,0,0,1,.95.22.8.8,0,0,1,.3.68v24.77h1a2.64,2.64,0,0,1,1.56.36,1.35,1.35,0,0,1,.48,1.15,1.58,1.58,0,0,1-.42,1.17,1.49,1.49,0,0,1-1.12.41Zm-14.39-9.86a6.64,6.64,0,0,0,2,5,6.75,6.75,0,0,0,5,1.94,6.66,6.66,0,0,0,5-2,7.06,7.06,0,0,0,2-5.11,6.86,6.86,0,0,0-1.95-5,7.29,7.29,0,0,0-10,0A7.26,7.26,0,0,0,977.94,439.7Z"/><path class="cls-6" d="M1005.3,440.38a6.71,6.71,0,0,0,2.14,4.91,7.86,7.86,0,0,0,5.37,1.73,13.59,13.59,0,0,0,5.6-1.38,15.58,15.58,0,0,1,3.67-1.37,1.52,1.52,0,0,1,1.1.42,1.33,1.33,0,0,1,.44,1,1.71,1.71,0,0,1-.46,1.16,4.79,4.79,0,0,1-1.47,1,22.84,22.84,0,0,1-4.54,1.64,20.1,20.1,0,0,1-4.65.56,11.09,11.09,0,0,1-8-2.89,10.12,10.12,0,0,1-3-7.65,10.35,10.35,0,0,1,3.19-7.87,11.57,11.57,0,0,1,8.3-3,11,11,0,0,1,7.7,2.81,9,9,0,0,1,3.05,6.81,2,2,0,0,1-.52,1.65,5.46,5.46,0,0,1-2.8.42H1005.3Zm.11-2.88h14.3a6.41,6.41,0,0,0-2.19-4.21,6.74,6.74,0,0,0-4.56-1.59,7.83,7.83,0,0,0-4.92,1.54A7.24,7.24,0,0,0,1005.41,437.5Z"/><path class="cls-6" d="M1037.57,446.47h7.3a1.86,1.86,0,0,1,1.26.36,1.48,1.48,0,0,1,.41,1.15,1.59,1.59,0,0,1-.39,1.24,2.13,2.13,0,0,1-1.41.34h-14.37a1.91,1.91,0,0,1-1.3-.39,1.53,1.53,0,0,1-.44-1.19,1.4,1.4,0,0,1,.45-1.14,2.17,2.17,0,0,1,1.4-.37h3.82V432.36h-1.49a6.09,6.09,0,0,1-2.66-.34,1.34,1.34,0,0,1-.53-1.23,1.46,1.46,0,0,1,.43-1.15,1.93,1.93,0,0,1,1.31-.38h5a1.53,1.53,0,0,1,.9.23.81.81,0,0,1,.3.67v3.74a15.62,15.62,0,0,1,4.35-3.89,9.8,9.8,0,0,1,4.88-1.28,5.77,5.77,0,0,1,3.17.79,2.36,2.36,0,0,1,1.21,2,2,2,0,0,1-.61,1.44,1.84,1.84,0,0,1-1.33.62,4.24,4.24,0,0,1-1.7-.67,4.57,4.57,0,0,0-2.14-.67,6.77,6.77,0,0,0-3.62,1.22,20.94,20.94,0,0,0-4.21,3.87Z"/><path class="cls-6" d="M1086.31,440.38a6.74,6.74,0,0,0,2.14,4.91,7.86,7.86,0,0,0,5.37,1.73,13.64,13.64,0,0,0,5.61-1.38,15.26,15.26,0,0,1,3.67-1.37,1.54,1.54,0,0,1,1.1.42,1.35,1.35,0,0,1,.43,1,1.71,1.71,0,0,1-.46,1.16,4.55,4.55,0,0,1-1.47,1,22.62,22.62,0,0,1-4.54,1.64,20.08,20.08,0,0,1-4.64.56,11.07,11.07,0,0,1-8-2.89,10.08,10.08,0,0,1-3-7.65,10.34,10.34,0,0,1,3.18-7.87,11.6,11.6,0,0,1,8.31-3,10.94,10.94,0,0,1,7.69,2.81,9,9,0,0,1,3,6.81,2.08,2.08,0,0,1-.51,1.65,5.51,5.51,0,0,1-2.8.42h-15.1Zm.11-2.88h14.3a6.4,6.4,0,0,0-2.18-4.21,6.78,6.78,0,0,0-4.56-1.59,7.79,7.79,0,0,0-4.92,1.54A7.21,7.21,0,0,0,1086.42,437.5Z"/><path class="cls-6" d="M1112.57,446.47V432.38h-.42a4.21,4.21,0,0,1-2.05-.35,1.31,1.31,0,0,1-.56-1.23,1.42,1.42,0,0,1,.46-1.18,2.41,2.41,0,0,1,1.49-.36h3.14a1.56,1.56,0,0,1,.93.24.78.78,0,0,1,.32.66v1.5a11.83,11.83,0,0,1,3.18-2.21,7.77,7.77,0,0,1,3.26-.72,6.73,6.73,0,0,1,5.22,2.07,8.1,8.1,0,0,1,1.9,5.71v10h1a2.76,2.76,0,0,1,1.6.36,1.35,1.35,0,0,1,.48,1.15,1.37,1.37,0,0,1-.52,1.22,3.35,3.35,0,0,1-1.83.36h-4.87a3.12,3.12,0,0,1-1.81-.33,1.57,1.57,0,0,1-.39-1.25,1.35,1.35,0,0,1,.46-1.18,3.24,3.24,0,0,1,1.75-.33h.77v-9.14a5.84,5.84,0,0,0-1.16-3.93,4.24,4.24,0,0,0-3.39-1.35,5.84,5.84,0,0,0-4,1.52,4.83,4.83,0,0,0-1.72,3.76v9.14h.77a3.29,3.29,0,0,1,1.78.33,1.35,1.35,0,0,1,.47,1.18,1.57,1.57,0,0,1-.4,1.25,3.41,3.41,0,0,1-1.93.33h-5.19a2,2,0,0,1-1.35-.38,1.5,1.5,0,0,1-.45-1.2,1.27,1.27,0,0,1,.52-1.19,4.15,4.15,0,0,1,2-.32Z"/><path class="cls-6" d="M1181.36,449.56a.78.78,0,0,1-.65-.23,1.53,1.53,0,0,1-.18-.89v-1.8a9,9,0,0,1-3.3,2.56,10.05,10.05,0,0,1-4.28.91,9.2,9.2,0,0,1-7-2.95,11.06,11.06,0,0,1,.19-14.92,10.7,10.7,0,0,1,11.51-2.22,8.39,8.39,0,0,1,3.1,2.36V424h-1.16a5.72,5.72,0,0,1-2.47-.34,1.33,1.33,0,0,1-.57-1.25,1.52,1.52,0,0,1,.45-1.18,1.92,1.92,0,0,1,1.31-.4h4.51a1.64,1.64,0,0,1,1,.22.8.8,0,0,1,.3.68v24.77h1a2.64,2.64,0,0,1,1.56.36,1.35,1.35,0,0,1,.48,1.15,1.58,1.58,0,0,1-.42,1.17,1.49,1.49,0,0,1-1.12.41ZM1167,439.7a6.64,6.64,0,0,0,2,5,6.75,6.75,0,0,0,5,1.94,6.66,6.66,0,0,0,5-2,7.06,7.06,0,0,0,2-5.11,6.86,6.86,0,0,0-1.95-5,7.29,7.29,0,0,0-10,0A7.26,7.26,0,0,0,1167,439.7Z"/><path class="cls-6" d="M1206.81,446.77a13.13,13.13,0,0,1-3.92,2.49,11.6,11.6,0,0,1-4.37.85,7.53,7.53,0,0,1-5.28-1.82,6.12,6.12,0,0,1-2-4.75,6.24,6.24,0,0,1,2.67-5.38q2.67-1.91,7.5-1.91a20.27,20.27,0,0,1,2.57.16,22.26,22.26,0,0,1,2.66.52v-.15a4.32,4.32,0,0,0-5-4.95,9.62,9.62,0,0,0-3.83.93,9.39,9.39,0,0,1-2.79.92,1.29,1.29,0,0,1-1-.52,2,2,0,0,1-.42-1.33c0-.86.81-1.59,2.43-2.2a18.37,18.37,0,0,1,6.21-.9,8,8,0,0,1,5.84,2,7.85,7.85,0,0,1,2,5.81v10h1.07a4.42,4.42,0,0,1,2.09.33,1.28,1.28,0,0,1,.53,1.18,1.53,1.53,0,0,1-.44,1.19,1.93,1.93,0,0,1-1.32.39h-3.45a1.4,1.4,0,0,1-1-.37,2,2,0,0,1-.53-1.08Zm-.18-6.92a15.36,15.36,0,0,0-2.34-.58,14.24,14.24,0,0,0-2.25-.19,10.48,10.48,0,0,0-5.34,1.15,3.44,3.44,0,0,0-2,3.07,3,3,0,0,0,1.21,2.46,4.84,4.84,0,0,0,3.11,1,9.78,9.78,0,0,0,5.18-1.46c1.59-1,2.38-2,2.38-3Z"/><path class="cls-6" d="M1237.7,448.4a20.85,20.85,0,0,1-.31,4.36,5.71,5.71,0,0,1-1.06,2.25,7.68,7.68,0,0,1-3.46,2.48,14.79,14.79,0,0,1-5.23.84,10.23,10.23,0,0,1-3.66-.48,1.61,1.61,0,0,1-1.15-1.54,1.58,1.58,0,0,1,.56-1.2,1.89,1.89,0,0,1,1.33-.51,15,15,0,0,1,1.82.16,15.44,15.44,0,0,0,1.87.17c2.17,0,3.7-.5,4.61-1.5s1.36-2.7,1.36-5.12v-2.66a8.44,8.44,0,0,1-3,2.29,9.91,9.91,0,0,1-10.54-2A10.25,10.25,0,0,1,1221,432a9.61,9.61,0,0,1,10.16-2.16,13.3,13.3,0,0,1,3.26,1.9v-1.58a.8.8,0,0,1,.3-.68,1.56,1.56,0,0,1,.93-.22h3.32a1.93,1.93,0,0,1,1.32.39,1.45,1.45,0,0,1,.44,1.15,1.33,1.33,0,0,1-.55,1.23,4.16,4.16,0,0,1-2.05.35h-.39Zm-9.56-15.89a6.48,6.48,0,0,0-4.7,1.78,6.72,6.72,0,0,0,0,9.2,7.05,7.05,0,0,0,9.39,0,6.63,6.63,0,0,0,0-9.17A6.37,6.37,0,0,0,1228.14,432.51Z"/><path class="cls-6" d="M1284.81,446.47h7a1.89,1.89,0,0,1,1.27.36,1.47,1.47,0,0,1,.4,1.15,1.59,1.59,0,0,1-.38,1.24,2.18,2.18,0,0,1-1.42.34h-17a2,2,0,0,1-1.32-.39A1.52,1.52,0,0,1,1273,448a1.37,1.37,0,0,1,.46-1.14,2.14,2.14,0,0,1,1.38-.37h6.7V432.36h-4.3a2.08,2.08,0,0,1-1.38-.4,1.71,1.71,0,0,1,0-2.32,2,2,0,0,1,1.32-.38h6.44a1.6,1.6,0,0,1,.93.24.77.77,0,0,1,.34.66Zm-4.06-23.54a6.42,6.42,0,0,1,.42-3,2.15,2.15,0,0,1,1.84-.62,2.31,2.31,0,0,1,1.8.52,4.33,4.33,0,0,1,.44,2.45,4.1,4.1,0,0,1-.41,2.34,2.56,2.56,0,0,1-1.83.45,2.78,2.78,0,0,1-1.84-.42A2.55,2.55,0,0,1,1280.75,422.93Z"/><path class="cls-6" d="M1344.93,437.33a10.49,10.49,0,0,0-.56-4.19,2,2,0,0,0-1.92-1.09,3,3,0,0,0-2.57,1.41,6.88,6.88,0,0,0-1,3.87v9.14h.39a3.29,3.29,0,0,1,1.78.32,1.36,1.36,0,0,1,.44,1.19,1.66,1.66,0,0,1-.37,1.19,1.51,1.51,0,0,1-1.14.39h-2.79a1.54,1.54,0,0,1-1.29-.44,3.48,3.48,0,0,1-.34-1.88V435.61a4.16,4.16,0,0,0-.74-2.6,2.46,2.46,0,0,0-2-1,3.12,3.12,0,0,0-1.81.58,4.81,4.81,0,0,0-1.42,1.73v12.11h.81a3.3,3.3,0,0,1,1.77.33,1.37,1.37,0,0,1,.45,1.18,1.63,1.63,0,0,1-.37,1.24,2.15,2.15,0,0,1-1.42.34H1325a1.77,1.77,0,0,1-1.27-.38,1.6,1.6,0,0,1-.4-1.2,1.29,1.29,0,0,1,.51-1.19,4.12,4.12,0,0,1,2-.32h.43V432.36h-.39a4.3,4.3,0,0,1-2.08-.35,1.33,1.33,0,0,1-.56-1.22,1.46,1.46,0,0,1,.44-1.15,2,2,0,0,1,1.32-.38h3.36a1.38,1.38,0,0,1,1,.25,1.87,1.87,0,0,1,.27,1.06,6.08,6.08,0,0,1,1.94-1.42,5.64,5.64,0,0,1,2.33-.46,4.42,4.42,0,0,1,2.54.67,3.84,3.84,0,0,1,1.49,2,6.1,6.1,0,0,1,2.13-2,5.7,5.7,0,0,1,2.77-.66,4.74,4.74,0,0,1,4.15,1.85q1.3,1.84,1.31,6v10h.34a3.35,3.35,0,0,1,1.81.33,1.35,1.35,0,0,1,.46,1.18,1.39,1.39,0,0,1-1.56,1.58h-2.66a1.54,1.54,0,0,1-1.29-.52,2.68,2.68,0,0,1-.42-1.67Z"/><path class="cls-6" d="M1375.32,439.44a10,10,0,0,1-3.21,7.68,13.07,13.07,0,0,1-16.64,0,10.82,10.82,0,0,1,0-15.36,13.07,13.07,0,0,1,16.63,0A10,10,0,0,1,1375.32,439.44ZM1363.78,447a7.58,7.58,0,0,0,5.55-2.14,8,8,0,0,0,0-10.93,8.17,8.17,0,0,0-11.07,0,8,8,0,0,0,0,10.94A7.55,7.55,0,0,0,1363.78,447Z"/><path class="cls-6" d="M1388.63,446.47h7.3a1.86,1.86,0,0,1,1.26.36,1.48,1.48,0,0,1,.41,1.15,1.59,1.59,0,0,1-.39,1.24,2.16,2.16,0,0,1-1.42.34h-14.37a1.88,1.88,0,0,1-1.29-.39,1.49,1.49,0,0,1-.44-1.19,1.4,1.4,0,0,1,.45-1.14,2.14,2.14,0,0,1,1.39-.37h3.83V432.36h-1.5a6.15,6.15,0,0,1-2.66-.34,1.34,1.34,0,0,1-.52-1.23,1.46,1.46,0,0,1,.43-1.15,1.92,1.92,0,0,1,1.3-.38h5a1.49,1.49,0,0,1,.9.23.79.79,0,0,1,.31.67v3.74A15.35,15.35,0,0,1,1393,430a9.8,9.8,0,0,1,4.88-1.28,5.73,5.73,0,0,1,3.16.79,2.33,2.33,0,0,1,1.21,2,2,2,0,0,1-.6,1.44,1.86,1.86,0,0,1-1.33.62,4.19,4.19,0,0,1-1.7-.67,4.6,4.6,0,0,0-2.15-.67,6.77,6.77,0,0,0-3.61,1.22,20.94,20.94,0,0,0-4.21,3.87Z"/><path class="cls-6" d="M1426.73,448.4a20.85,20.85,0,0,1-.31,4.36,5.71,5.71,0,0,1-1.06,2.25,7.68,7.68,0,0,1-3.46,2.48,14.79,14.79,0,0,1-5.23.84,10.23,10.23,0,0,1-3.66-.48,1.61,1.61,0,0,1-1.15-1.54,1.58,1.58,0,0,1,.56-1.2,1.89,1.89,0,0,1,1.33-.51,15,15,0,0,1,1.82.16,15.44,15.44,0,0,0,1.87.17c2.17,0,3.7-.5,4.61-1.5s1.36-2.7,1.36-5.12v-2.66a8.44,8.44,0,0,1-3,2.29,9.91,9.91,0,0,1-10.54-2A10.25,10.25,0,0,1,1410,432a9.61,9.61,0,0,1,10.16-2.16,13.3,13.3,0,0,1,3.26,1.9v-1.58a.8.8,0,0,1,.3-.68,1.56,1.56,0,0,1,.93-.22H1428a1.93,1.93,0,0,1,1.32.39,1.45,1.45,0,0,1,.44,1.15,1.33,1.33,0,0,1-.55,1.23,4.16,4.16,0,0,1-2.05.35h-.39Zm-9.56-15.89a6.48,6.48,0,0,0-4.7,1.78,6.72,6.72,0,0,0,0,9.2,7.07,7.07,0,0,0,9.4,0,6.66,6.66,0,0,0,0-9.17A6.41,6.41,0,0,0,1417.17,432.51Z"/><path class="cls-6" d="M1437.37,440.38a6.71,6.71,0,0,0,2.14,4.91,7.86,7.86,0,0,0,5.37,1.73,13.59,13.59,0,0,0,5.6-1.38,15.58,15.58,0,0,1,3.67-1.37,1.52,1.52,0,0,1,1.1.42,1.33,1.33,0,0,1,.44,1,1.71,1.71,0,0,1-.46,1.16,4.79,4.79,0,0,1-1.47,1,22.84,22.84,0,0,1-4.54,1.64,20.1,20.1,0,0,1-4.65.56,11.09,11.09,0,0,1-8-2.89,10.12,10.12,0,0,1-3-7.65,10.35,10.35,0,0,1,3.19-7.87,11.58,11.58,0,0,1,8.31-3,10.94,10.94,0,0,1,7.69,2.81,9,9,0,0,1,3,6.81,2,2,0,0,1-.52,1.65,5.46,5.46,0,0,1-2.8.42h-15.09Zm.11-2.88h14.3a6.41,6.41,0,0,0-2.19-4.21,6.73,6.73,0,0,0-4.55-1.59,7.84,7.84,0,0,0-4.93,1.54A7.24,7.24,0,0,0,1437.48,437.5Z"/><path class="cls-6" d="M1463.62,446.47V432.38h-.41a4.28,4.28,0,0,1-2.06-.35,1.33,1.33,0,0,1-.56-1.23,1.45,1.45,0,0,1,.46-1.18,2.47,2.47,0,0,1,1.5-.36h3.14a1.55,1.55,0,0,1,.92.24.78.78,0,0,1,.33.66v1.5a11.83,11.83,0,0,1,3.18-2.21,7.7,7.7,0,0,1,3.26-.72,6.74,6.74,0,0,1,5.22,2.07,8.1,8.1,0,0,1,1.9,5.71v10h1a2.7,2.7,0,0,1,1.59.36,1.33,1.33,0,0,1,.49,1.15,1.37,1.37,0,0,1-.52,1.22,3.39,3.39,0,0,1-1.84.36h-4.86a3.1,3.1,0,0,1-1.81-.33,1.53,1.53,0,0,1-.4-1.25,1.35,1.35,0,0,1,.47-1.18,3.24,3.24,0,0,1,1.75-.33h.77v-9.14a5.84,5.84,0,0,0-1.17-3.93,4.21,4.21,0,0,0-3.39-1.35,5.81,5.81,0,0,0-4,1.52,4.79,4.79,0,0,0-1.72,3.76v9.14h.77a3.32,3.32,0,0,1,1.78.33A1.35,1.35,0,0,1,1470,448a1.57,1.57,0,0,1-.39,1.25,3.45,3.45,0,0,1-1.94.33h-5.18a2,2,0,0,1-1.35-.38,1.5,1.5,0,0,1-.45-1.2,1.29,1.29,0,0,1,.51-1.19,4.2,4.2,0,0,1,2-.32Z"/><g id="digisprutte"><path id="spruttebund" class="cls-7" d="M428.29,697.63s-83.7,16-115.38,15.12c-2.85-.09-5.76-.27-8.74-.56C274,709.28,237.43,695.44,204.74,662c-35.91-36.72-55-61.06-56.69-139.06S227.86,369.4,227.86,369.4,264.5,336.13,316,337.64s75,8.8,75,8.8,48.64,8,114.65,54.89,65.81,53.45,65.81,53.45l57.69,59.83s53,2.87,66.2,21.75,19,45.48,19,45.48l12.23,33.39s16.23,32.18,33,45.88,23.18,20.5,60,28.19,75,11.44,75,11.44,54.55,16.33,104.58,15.62c60.79-.86,106.93-20,106.93-20s18.83-11.34,100,14.82,81,32.76,167.22,19.44c0,0,27.36,2.28,60.06,19l15.72,9.63-70.11,3.23s-54.32,5-74.27,9.71-66.39,11.27-102.1,12.86-84.25-10.4-84.25-10.4-65.57,28.46-78.89,32-74.34,12.35-74.34,12.35,78.42,28.72,104.74,32.14,30.13,8.81,85.38,17S1258.5,904.3,1258.5,904.3s43,19.76,70.58,25.85-73.72-8.77-73.72-8.77l-89.83,5.33s-77.7-14.2-93.54-14.67-51.59,2.45-63.43.78-93-26.5-93-26.5l-21-3.26s-23.87,3.26-33.11,3-55.88-9.43-55.88-9.43,39.15,39.32,87.68,51.32,185,88.65,185,88.65,42.79,27.68,87.28,42.2,79.94,22.16,79.94,22.16l-98.65-2.9s-42.78,5.36-85.49-25c0,0-68.33-12.58-89.18-22.43S841.86,1011,841.86,1011s-58-4.34-88.64-40.91c0,0-41,45-70.3,54.75s-111.63,37-111.63,37l-58.1,29.36s-62.52,38.13-88.54,80.14-130.18,35-130.18,35l-36.31-1s94.07-31.69,107.58-41.86,55.16-79,79.54-99.4,64.13-69.45,89.25-70,61-53.7,61-53.7,32.53-28.11,2.91-54.08S464.1,873.07,464.1,873.07s-71.67,11.11-102.42,23.42-119.33,59.92-119.33,59.92-44.18,19.84-80,25.39-87.39,6.69-87.39,6.69-15.88.85-33.38,12.23,21.62,28.38,21.62,28.38S84,1039,86.28,1052.23s4.43,29.2-14.67,49.78S21.5,1144.13.14,1151.43c0,0,59.75-55,46.16-42.24,0,0,20.65-28.46,9.28-46S3.47,1038,4.27,1010.89s24-54.16,24-54.16S78.12,925.17,122,917.2s110.29-66.78,110.29-66.78l37.93-31.92,36.11-14.79s-23.73-2-43.33-9.2-34-11.57-42.4-40.88-48.5-58.23-48.5-58.23-25.19,3.23-39.44-6.44-30.79-31.29-45.27-33-30.28-3.53-41.42,16-2.68,46.16-60.87,48.41c0,0,27.48,8.74,38.93-66.23,0,0,12-47.21,58.11-44.54s80.68,42,80.68,42l36.81,6.37s19.14,23,43.87,35.63c0,0,24.65,15.26,53.62,18.75,0,0,31.6,3.57,51.55-1.13l45.12-6.6Z"/><path id="sprutteskygge" class="cls-8" d="M428.31,697s-83.7,16-115.38,15.12c-2.85-.09-5.76-.27-8.74-.56-30.19-2.91-67.4-16.77-100.09-50.2-35.91-36.72-54.36-61-56-139s79.81-153.55,79.81-153.55S264.52,335.47,316,337s75.05,8.8,75.05,8.8,48.64,8,114.65,54.89,65.81,53.45,65.81,53.45L629.86,514s52.34,2.85,65.54,21.73,19,45.48,19,45.48l12.23,33.39s16.23,32.18,33,45.88,23.18,20.5,60,28.19,75,11.44,75,11.44,54.69,20.34,104.56,16.28c71.51-5.83,106.95-20.64,106.95-20.64s18.83-11.34,100,14.82,81,32.76,167.22,19.44c0,0,27.36,2.28,60.06,19l15.72,9.63-70.11,3.23s-48.07-5.37-68-.67-58.43,10.17-94.15,11.77c-25.09,1.12-66.86-2-81-10.8a31,31,0,0,0-22-4.1c-26.78,5-88.62,16.44-99.22,18.21-60.4,10.12-219.7-76.46-219.7-76.46s248.67,147.33,275,150.75,30.13,8.81,85.38,17,103.31,36.06,103.31,36.06,43,19.76,70.58,25.85-73.72-8.77-73.72-8.77L1184.83,916s-61.73-12.38-77.57-12.84-60.64-4.42-72.48-6.09-73.34-22-73.34-22L915.55,863.2s-83.86-23.6-93.1-23.87-102.73-55.86-102.73-55.86,42.09,54.2,85.77,93.67c26.2,23.68,53.2,38.55,71.4,43.05,48.53,12,201.3,95.74,201.3,95.74s42.79,27.68,87.28,42.2,79.94,22.16,79.94,22.16l-98.65-2.9s-36.53-5-79.24-35.35c0,0-64.91-16.43-93.1-23.87-25.16-6.63-110.81-50.81-110.81-50.81S706.61,915.2,696.05,870c0,0-5.26,88.38-25.74,111.54s-110.17,62.82-110.17,62.82l-64.6,40.39s-44.85,43.93-70.87,85.94-130.18,35-130.18,35l-36.31-1s94.07-31.69,107.58-41.86,55.16-79,79.54-99.4,59.91-63.58,81.95-75.63c27.53-15,75.5-51.44,75.5-51.44s41-83.77,24.77-117.27c-3-6.15-16.23-32.19-34.36-44.61-12.56-8.6-20.54-20.42-32.93-48.52-7.38-16.76-1.9,19.76,14.68,40.06,21.55,26.4-25.21,59.37-54.89,69.73-45.38,15.84-61.34,19.34-61.34,19.34s-66.23,28.44-97,40.75-119.34,59.92-119.34,59.92-44.17,19.84-80,25.39S75,987.83,75,987.83s-15.88.85-33.39,12.23,21.63,28.38,21.63,28.38,20.85,9.86,23.1,23.13,4.43,29.2-14.67,49.78S21.51,1143.47.16,1150.77c0,0,59.75-55,46.16-42.24,0,0,20.65-28.46,9.28-46s-52.11-25.23-51.32-52.33,24-54.16,24-54.16S78.14,924.51,122,916.54s110.29-66.78,110.29-66.78l37.93-31.92,36.1-14.79s68.22-17,86-27.86c30.95-18.91,58.93-72.26,35.33-78.24-8.95-2.26-95.39,22.75-129.9,14.69-40.9-9.55-36.77-7.68-80.84-36.72-7.61-5-11.13-16.12-18-17.7-6.56-1.52-13.2-2.23-18.41-3.18-10.65-1.95-17.08-3.15-17.08-3.15s-14.13-13.62-28.38-23.29S99.9,610.72,85.41,609s-28.33,42.77-39.47,62.26-2.68,46.16-60.88,48.41c0,0,27.49,8.74,38.94-66.23,0,0,12-47.21,58.11-44.54s80.68,42,80.68,42l36.81,6.37s19.14,23,43.87,35.63c0,0,24.65,15.26,53.62,18.75,0,0,31.6,3.57,51.55-1.13l45.12-6.6Z"/><g id="ansigt"><path id="HJRE" d="M685.91,538.23s7.81,15.3,7.7,19.26a49.9,49.9,0,0,1-1.71,13.16c-1.48,5.24-11,14.21-11,14.21s-10.83,8.93-20.22,13.94-13.43,7.54-13.43,7.54,7.84,2.87,13.16,1.7,16-3.49,25.27-5.86,17.74-19.3,17.74-19.3a62.31,62.31,0,0,0,4.28-9.77l-1.25-3.35L704.53,565l-1.2-2.74-1.92-4.06-.72-1.44L699.23,554l-1.8-3.15-2.31-3.67-1.42-2.06-1.27-1.54L691,542.12l-1.43-1.25-.88-.7Z"/><path id="VENSTRE" d="M596.09,639.18s-24.34,19.11-35,21.44-21.31,6-41.11,5.4-35.38-14.25-35.38-14.25S496.08,670.6,510.49,675s24,5.55,38.24,2.44c15.95-3.5,30.63-8.35,30.63-8.35A65.74,65.74,0,0,0,593,653.63C595.51,649.56,596.09,639.18,596.09,639.18Z"/><path id="MUND" d="M694.39,710.77s16.12-8.78,19-16.62S719.9,697,719.9,697a14,14,0,0,1-4.31,11.77c-5.43,5.12-16,4.81-16,4.81S689,714.57,694.39,710.77Z"/></g></g></g></svg>