<svg xmlns="http://www.w3.org/2000/svg" viewBox="0 0 450 200"><defs><style>.cls-1{fill:#db8c00;}.cls-2{fill:#0707d1;}.cls-3{fill:blue;}.cls-4{fill:#fff;}</style></defs><g id="startskærm"><path class="cls-1" d="M-997-364s-60.69-107.18-82-166c-25-69-39.63-368.88,290.26-371.13,276.9-1.89,272,271.43,263.22,359.29a109.86,109.86,0,0,1-15.58,46.39C-553-475.86-565-441.71-575-421c-11.21,23.12-18.49,78.77-9,82,17,5.77,50.84-40.83,50.84-142.16S-439.7-590.38-369.9-581.37s208.3,23.65,252.21-16.89S-36.63-749.13,10.66-752.51,121-789.66,121-789.66,21.92-729.26,3.34-710.48s-68.12,157.26-103,188.78-233.06,40.54-233.06,40.54-47.29,0-59.68,5.63-29.27,7.88-43.91,64.17-10.13,73.19-75.43,100.21S-603.47-255.52-653-287s24.14,29.89,71.43,29.89,58-3.63,108.38,16.76-1.42,115-1.42,115-43,59.28-124.53,21.19-62.38-99.88-62.38-99.88l-60.79,41.53s-58.55-10.13-63.05-69.81S-865-112.94-865-112.94-850.66,44.64-995.91,28.88s-137.36-170-137.36-170,42.79-118.22,29.28-155.37-49.54-11.26-56.3,1.12-32.88,60.55-101.45,55-147.38-91.07-117-159.75S-1637-514-1637-514s-125.73-4.43-155-90c-9.74-28.48,39.62-116.11,14-163-53-97,73-220,73-220s-63.21,142.51-25,167c39,25,11,160,11,160s-43.65,79.76,71.19,83.13,219.55,36,219.55,36,65.31,19.14,122.73,70.94,37.15,88.94,37.15,88.94-15.76,34.91,15.77,38.28,9-43.91,107-69.8S-991.4-328-991.4-328-990.24-321.22-997-364Z"/><rect id="spilknap" class="cls-2" x="4" y="24" width="430" height="152" rx="70.36"/><rect id="spilknap-2" data-name="spilknap" class="cls-3" x="13" y="15" width="430" height="152" rx="70.36"/><path class="cls-4" d="M135,53.38a5.91,5.91,0,0,1,2-2.58,6.48,6.48,0,0,1,3.4-.71c2.27,0,3.72.42,4.37,1.26s1,2.51,1.08,5L146,67.61v.65q0,3.45-1.37,4.83T140,74.47c-2.77,0-4.84-1.49-6.21-4.45-.2-.43-.35-.79-.47-1.06a12.86,12.86,0,0,0-4.92-5.48,14.07,14.07,0,0,0-7.33-1.84,13.88,13.88,0,0,0-8.52,2.43,7.46,7.46,0,0,0-3.25,6.24q0,5.39,14.88,8.49c1.68.36,3,.63,4,.82q11.25,2.47,16.29,7.5t5,13.77q0,10.78-7.32,16.62t-21,5.83a57.75,57.75,0,0,1-9.52-.71,44,44,0,0,1-8.12-2.17,5.92,5.92,0,0,1-2.16,2.2,7.14,7.14,0,0,1-3.4.68q-3.69,0-5.16-1.41t-1.52-5l-.24-13.77v-.64q0-3.87,1.44-5.4t5-1.52q3.81,0,6.39,5.51c.39.9.7,1.58.93,2.05a15.4,15.4,0,0,0,6.36,6.74,20.63,20.63,0,0,0,10,2.22c3.59,0,6.39-.74,8.38-2.22a7.38,7.38,0,0,0,3-6.27q0-6.27-13.54-9.49-4-.94-6.38-1.59-11.37-3-15.77-7.47c-2.92-3-4.39-7.08-4.39-12.27A20.46,20.46,0,0,1,100,56.45q7.53-6.36,19.48-6.36a37.67,37.67,0,0,1,7.82.82A40.77,40.77,0,0,1,135,53.38Z"/><path class="cls-4" d="M184.42,96.68v12h6c2.54,0,4.34.49,5.42,1.46s1.61,2.6,1.61,4.87-.55,4-1.64,5-2.89,1.52-5.39,1.52H170.19q-3.87,0-5.54-1.52T163,115a6.49,6.49,0,0,1,1.58-4.72,6.19,6.19,0,0,1,4.63-1.61h1V65h-1a6.11,6.11,0,0,1-4.6-1.67A6.6,6.6,0,0,1,163,58.53c0-2.26.56-3.91,1.7-5s3-1.55,5.51-1.55h24.19q14.37,0,21.71,5.51t7.36,16.23q0,11.3-7.33,17.11t-21.74,5.8Zm0-31.7V83.49h8.32q6.91,0,10.4-2.34a7.9,7.9,0,0,0,3.49-7,7.63,7.63,0,0,0-3.6-6.77C200.62,65.77,197.2,65,192.74,65Z"/><path class="cls-4" d="M271.9,65v43.71h9.85c2.65,0,4.56.5,5.71,1.49s1.73,2.61,1.73,4.84-.59,3.91-1.76,5-3.07,1.55-5.68,1.55H246.94c-2.65,0-4.56-.51-5.71-1.52s-1.73-2.68-1.73-5,.57-3.89,1.7-4.87,3.05-1.46,5.74-1.46h9.85V65h-9.85c-2.65,0-4.56-.51-5.71-1.53s-1.73-2.65-1.73-4.92.57-3.94,1.7-4.92,3.05-1.47,5.74-1.47h34.81c2.77,0,4.71.49,5.8,1.47s1.64,2.62,1.64,4.92-.57,3.91-1.7,4.92S284.44,65,281.75,65Z"/><path class="cls-4" d="M330,65v43.71h26.66V98.26q0-4,1.43-5.74c1-1.14,2.55-1.7,4.78-1.7s3.85.57,4.86,1.72,1.53,3.06,1.53,5.72v18c0,2.11-.41,3.51-1.23,4.21s-2.46,1.06-4.93,1.06H310q-3.81,0-5.45-1.52t-1.64-5q0-3.4,1.61-4.87c1.08-1,2.9-1.46,5.48-1.46h5.16V65H310q-3.81,0-5.45-1.53t-1.64-4.92q0-3.39,1.73-5T310.11,52h25c2.5,0,4.32.52,5.48,1.55s1.73,2.69,1.73,5-.57,3.91-1.7,4.92-3,1.53-5.51,1.53Z"/></g></svg>