<svg xmlns="http://www.w3.org/2000/svg" xmlns:xlink="http://www.w3.org/1999/xlink" viewBox="0 0 1920 1080"><defs><style>.cls-1{fill:url(#linear-gradient);}.cls-2{fill:#707070;}.cls-3{fill:#848484;}.cls-4{fill:#919191;}.cls-5{fill:#7c7c7c;}.cls-6{fill:#fff;}.cls-7{fill:#db8c00;}.cls-8{fill:#8f5b00;}.cls-9{fill:#050300;}.cls-10{fill:#0707d1;}.cls-11{fill:blue;}</style><linearGradient id="linear-gradient" x1="960.42" y1="-7.91" x2="960.42" y2="1078.9" gradientUnits="userSpaceOnUse"><stop offset="0" stop-color="#3995ff"/><stop offset="1" stop-color="#00438e"/></linearGradient></defs><g id="winner_winner_chicken_dinner" data-name="winner winner chicken dinner"><rect class="cls-1" x="-0.61" y="-7.91" width="1922.06" height="1086.81"/><path class="cls-2" d="M888.19,972.54a77,77,0,0,0,6.34-18.43c2.54-11.93,27.92-13,27.92-13s21.57-2.17,36.79-2.17,88.82,2.17,88.82,2.17l30.46,1.08a38.77,38.77,0,0,1,19,8.68c8.88,7.59,11.42,11.92,11.42,11.92v8.1l2.54,4.91-1.27,5.42,1.27,11.2,1.26.73,1.27,7.59V1092l-3.8,15-3.81,5.42-8.88,13-5.08,8.67-21.57,10.85-30.45,1.08H985.33l-36.24-1.08-17.76-3.26-16.5-6.5-12.68-7.59-12.69-17.35-2.82-8.5-1-32.69,2.54-47.7V972.54"/><path class="cls-3" d="M393.11,50.54l129-7.15,445.29-14.3h321.7s199,0,274.44,35.75,99.76,85.8,111.93,102.48,34.06,90.56,36.49,138.23-12.16,407.55-12.16,407.55l-4.87,250.25-56,62-12.17,9.54-442.85,9.53H580.05s-177.2,2.38-206.4-50.05-46.23-45.28-56-228.8S325,369.9,325,369.9l9.74-262.16Z"/><path class="cls-4" d="M415,169.7h804.86s156.27-14.3,226.83,35.75,99.76,85.8,102.2,185.9,0,522.2,0,522.2l1.08,24.56L621.84,956.2s-136.26-16.69-155.73-47.67c0,0-60.83-38.13-65.7-126.32Z"/><path class="cls-2" d="M393.11,50.54l513.14-19s397.8-1.94,460.22,0,150.18-4.66,257.17,68.76,88.56,248.27,88.56,248.27l-12.92,510.37-4.39,104.44-56,62,5.65-306.58s11.68-291.66,11.15-370.54-52.6-173.15-80.22-194.54-96.68-62.83-174.23-67.08-623.66-2.12-623.66-2.12l-442.9,23.29Z"/><path class="cls-5" d="M414.55,165.94,1116.61,157s286.53-20.54,368.56,59,65.7,176.36,65.7,176.36V780.83s-102-303.62-166.47-368.58C1319.71,347.07,1173,297,1056.92,313.7S606.77,211.22,606.77,211.22Z"/><path class="cls-6" d="M679.29,286a16.66,16.66,0,0,1-2.07.36,22,22,0,0,1-2.79.18,12.5,12.5,0,0,1-2.43-.21,4.32,4.32,0,0,1-1.77-.75,3.24,3.24,0,0,1-1.08-1.5,7.32,7.32,0,0,1-.36-2.52V272.2H657.27V286a16.66,16.66,0,0,1-2.07.36,22,22,0,0,1-2.79.18,12.5,12.5,0,0,1-2.43-.21,4.32,4.32,0,0,1-1.77-.75,3.24,3.24,0,0,1-1.08-1.5,7.32,7.32,0,0,1-.36-2.52V249.88q.66-.12,2.1-.33a19.14,19.14,0,0,1,2.76-.21,12.5,12.5,0,0,1,2.43.21,4.32,4.32,0,0,1,1.77.75,3.24,3.24,0,0,1,1.08,1.5,7.32,7.32,0,0,1,.36,2.52v9.6h11.52v-14q.66-.12,2.1-.33a19.14,19.14,0,0,1,2.76-.21,12.5,12.5,0,0,1,2.43.21,4.32,4.32,0,0,1,1.77.75,3.24,3.24,0,0,1,1.08,1.5,7.32,7.32,0,0,1,.36,2.52Z"/><path class="cls-6" d="M719.31,272.8a15.25,15.25,0,0,1-1.11,5.91,12.51,12.51,0,0,1-3.21,4.56,14.48,14.48,0,0,1-5.1,2.91,23,23,0,0,1-13.56,0,14.48,14.48,0,0,1-5.1-2.91,12.51,12.51,0,0,1-3.21-4.56,15.25,15.25,0,0,1-1.11-5.91V249.88q.66-.12,2.1-.33a19.14,19.14,0,0,1,2.76-.21,12.5,12.5,0,0,1,2.43.21,4.32,4.32,0,0,1,1.77.75,3.24,3.24,0,0,1,1.08,1.5,7.32,7.32,0,0,1,.36,2.52v18.3a6.15,6.15,0,0,0,1.59,4.5,6.06,6.06,0,0,0,8.25,0,6.22,6.22,0,0,0,1.56-4.5V249.88q.66-.12,2.1-.33a19.14,19.14,0,0,1,2.76-.21,12.5,12.5,0,0,1,2.43.21,4.32,4.32,0,0,1,1.77.75,3.24,3.24,0,0,1,1.08,1.5,7.32,7.32,0,0,1,.36,2.52Z"/><path class="cls-6" d="M737.37,274.48V286a17.27,17.27,0,0,1-2.08.36,21.86,21.86,0,0,1-2.78.18,12.35,12.35,0,0,1-2.43-.21,4.12,4.12,0,0,1-1.75-.75,3.4,3.4,0,0,1-1-1.5,7.08,7.08,0,0,1-.36-2.52V253.3a2.64,2.64,0,0,1,.69-2,4.93,4.93,0,0,1,1.89-1.11,22.5,22.5,0,0,1,4.74-1.05,47.43,47.43,0,0,1,5.76-.33q8.28,0,12.48,3.48a11.59,11.59,0,0,1,4.2,9.42,10.59,10.59,0,0,1-1.92,6.36,14,14,0,0,1-4.56,4.08c1.44,2,2.85,3.8,4.26,5.52a36.54,36.54,0,0,1,3.3,4.68,5.7,5.7,0,0,1-2.19,3.21,6.11,6.11,0,0,1-3.57,1.11,7.64,7.64,0,0,1-2.28-.3,5.57,5.57,0,0,1-1.69-.84,6.83,6.83,0,0,1-1.31-1.32,19.76,19.76,0,0,1-1.15-1.68l-5-8.1Zm3.78-8a5.23,5.23,0,0,0,3.6-1.17,4.4,4.4,0,0,0,1.32-3.45,4.14,4.14,0,0,0-1.47-3.45,7.46,7.46,0,0,0-4.65-1.17,13.66,13.66,0,0,0-1.44.06q-.54.06-1.2.18v9Z"/><path class="cls-6" d="M773.9,274.48V286a16.66,16.66,0,0,1-2.07.36,22,22,0,0,1-2.79.18,12.5,12.5,0,0,1-2.43-.21,4.07,4.07,0,0,1-1.74-.75,3.34,3.34,0,0,1-1-1.5,7.32,7.32,0,0,1-.36-2.52V253.3a2.64,2.64,0,0,1,.69-2,4.93,4.93,0,0,1,1.89-1.11,22.5,22.5,0,0,1,4.74-1.05,47.55,47.55,0,0,1,5.76-.33q8.28,0,12.48,3.48a11.59,11.59,0,0,1,4.2,9.42,10.52,10.52,0,0,1-1.92,6.36,13.79,13.79,0,0,1-4.56,4.08q2.16,2.94,4.26,5.52a35.56,35.56,0,0,1,3.3,4.68,5.65,5.65,0,0,1-2.19,3.21,6.09,6.09,0,0,1-3.57,1.11,7.68,7.68,0,0,1-2.28-.3,5.51,5.51,0,0,1-1.68-.84,6.87,6.87,0,0,1-1.32-1.32,17.62,17.62,0,0,1-1.14-1.68l-5-8.1Zm3.78-8a5.23,5.23,0,0,0,3.6-1.17,4.37,4.37,0,0,0,1.32-3.45,4.14,4.14,0,0,0-1.47-3.45,7.46,7.46,0,0,0-4.65-1.17,13.66,13.66,0,0,0-1.44.06q-.54.06-1.2.18v9Z"/><path class="cls-6" d="M808.22,251a12.7,12.7,0,0,1,3.09-1.14,16.46,16.46,0,0,1,4.17-.54,15,15,0,0,1,5.31.87,4.62,4.62,0,0,1,3,2.73q1.08,3.12,2.34,7.26t2.52,8.55q1.26,4.41,2.46,8.7t2.1,7.59a5,5,0,0,1-2.16,1.35,10.26,10.26,0,0,1-3.42.51,10.49,10.49,0,0,1-2.43-.24,4.33,4.33,0,0,1-1.62-.72,3.55,3.55,0,0,1-1-1.26,10.93,10.93,0,0,1-.69-1.8l-1.08-4.14H809.9q-.48,1.8-1,3.72t-1,3.72a15.24,15.24,0,0,1-1.77.51,10.37,10.37,0,0,1-2.25.21,7.85,7.85,0,0,1-4.53-1,3.38,3.38,0,0,1-1.47-2.91,6.09,6.09,0,0,1,.24-1.68q.24-.84.54-2,.42-1.62,1.17-4t1.65-5.19q.9-2.79,1.92-5.73l1.92-5.55q.9-2.61,1.65-4.65T808.22,251Zm7.2,7.74q-.84,2.52-1.89,5.61t-1.89,6.27h7.44q-.84-3.24-1.71-6.33t-1.59-5.55Z"/><path class="cls-6" d="M847,251a12.7,12.7,0,0,1,3.09-1.14,16.46,16.46,0,0,1,4.17-.54,15,15,0,0,1,5.31.87,4.62,4.62,0,0,1,3,2.73q1.08,3.12,2.34,7.26t2.52,8.55q1.26,4.41,2.46,8.7T872,285a5,5,0,0,1-2.16,1.35,10.26,10.26,0,0,1-3.42.51,10.49,10.49,0,0,1-2.43-.24,4.33,4.33,0,0,1-1.62-.72,3.55,3.55,0,0,1-1-1.26,10.93,10.93,0,0,1-.69-1.8l-1.08-4.14H848.72q-.48,1.8-1,3.72t-1,3.72a15.24,15.24,0,0,1-1.77.51,10.37,10.37,0,0,1-2.25.21,7.85,7.85,0,0,1-4.53-1,3.38,3.38,0,0,1-1.47-2.91,6.09,6.09,0,0,1,.24-1.68q.24-.84.54-2,.42-1.62,1.17-4t1.65-5.19q.9-2.79,1.92-5.73l1.92-5.55q.9-2.61,1.65-4.65T847,251Zm7.2,7.74q-.84,2.52-1.89,5.61t-1.89,6.27h7.44q-.84-3.24-1.71-6.33t-1.59-5.55Z"/><path class="cls-6" d="M885.86,251a12.7,12.7,0,0,1,3.09-1.14,16.46,16.46,0,0,1,4.17-.54,15,15,0,0,1,5.31.87,4.62,4.62,0,0,1,3,2.73q1.08,3.12,2.34,7.26t2.52,8.55q1.26,4.41,2.46,8.7t2.1,7.59a5,5,0,0,1-2.16,1.35,10.26,10.26,0,0,1-3.42.51,10.49,10.49,0,0,1-2.43-.24,4.33,4.33,0,0,1-1.62-.72,3.55,3.55,0,0,1-1-1.26,10.93,10.93,0,0,1-.69-1.8l-1.08-4.14H887.54q-.48,1.8-1,3.72t-1,3.72a15.24,15.24,0,0,1-1.77.51,10.37,10.37,0,0,1-2.25.21,7.85,7.85,0,0,1-4.53-1,3.38,3.38,0,0,1-1.47-2.91,6.09,6.09,0,0,1,.24-1.68q.24-.84.54-2,.42-1.62,1.17-4T879.2,270q.9-2.79,1.92-5.73l1.92-5.55q.9-2.61,1.65-4.65T885.86,251Zm7.2,7.74q-.84,2.52-1.89,5.61t-1.89,6.27h7.44q-.84-3.24-1.71-6.33t-1.59-5.55Z"/><path class="cls-6" d="M948.26,286a16.66,16.66,0,0,1-2.07.36,22,22,0,0,1-2.79.18,12.5,12.5,0,0,1-2.43-.21,4.32,4.32,0,0,1-1.77-.75,3.24,3.24,0,0,1-1.08-1.5,7.32,7.32,0,0,1-.36-2.52V272.2H926.24V286a16.66,16.66,0,0,1-2.07.36,22,22,0,0,1-2.79.18,12.5,12.5,0,0,1-2.43-.21,4.32,4.32,0,0,1-1.77-.75,3.24,3.24,0,0,1-1.08-1.5,7.32,7.32,0,0,1-.36-2.52V249.88q.66-.12,2.1-.33a19.14,19.14,0,0,1,2.76-.21,12.5,12.5,0,0,1,2.43.21,4.32,4.32,0,0,1,1.77.75,3.24,3.24,0,0,1,1.08,1.5,7.32,7.32,0,0,1,.36,2.52v9.6h11.52v-14q.66-.12,2.1-.33a19.14,19.14,0,0,1,2.76-.21,12.5,12.5,0,0,1,2.43.21,4.32,4.32,0,0,1,1.77.75,3.24,3.24,0,0,1,1.08,1.5,7.32,7.32,0,0,1,.36,2.52Z"/><path class="cls-6" d="M955.34,281.68a5.36,5.36,0,1,1,1.53,4.05A5.6,5.6,0,0,1,955.34,281.68Zm11-30.24q0,1.38-.06,4t-.24,5.64q-.18,3-.48,6.06t-.72,5.25a3,3,0,0,1-.72.36,7.59,7.59,0,0,1-1,.3,10.13,10.13,0,0,1-1.08.18,8.8,8.8,0,0,1-1,.06,6.94,6.94,0,0,1-2.91-.54,2.68,2.68,0,0,1-1.47-2.1,33.12,33.12,0,0,1-.51-4.2q-.21-2.82-.39-6.12t-.27-6.54q-.09-3.24-.09-5.52a11.58,11.58,0,0,1,2.73-1,12.23,12.23,0,0,1,3-.39A5.74,5.74,0,0,1,965,248,4.3,4.3,0,0,1,966.38,251.44Z"/><path class="cls-6" d="M973.22,281.68a5.36,5.36,0,1,1,1.53,4.05A5.6,5.6,0,0,1,973.22,281.68Zm11-30.24q0,1.38-.06,4t-.24,5.64q-.18,3-.48,6.06t-.72,5.25a3,3,0,0,1-.72.36,7.59,7.59,0,0,1-1,.3,10.13,10.13,0,0,1-1.08.18,8.8,8.8,0,0,1-1,.06,6.94,6.94,0,0,1-2.91-.54,2.68,2.68,0,0,1-1.47-2.1,33.12,33.12,0,0,1-.51-4.2q-.21-2.82-.39-6.12t-.27-6.54q-.09-3.24-.09-5.52a11.58,11.58,0,0,1,2.73-1,12.23,12.23,0,0,1,3-.39,5.74,5.74,0,0,1,3.81,1.14A4.3,4.3,0,0,1,984.26,251.44Z"/><path class="cls-6" d="M991.1,281.68a5.36,5.36,0,1,1,1.53,4.05A5.6,5.6,0,0,1,991.1,281.68Zm11-30.24q0,1.38-.06,4t-.24,5.64q-.18,3-.48,6.06t-.72,5.25a3,3,0,0,1-.72.36,7.59,7.59,0,0,1-1,.3,10.13,10.13,0,0,1-1.08.18,8.8,8.8,0,0,1-1,.06,6.94,6.94,0,0,1-2.91-.54,2.68,2.68,0,0,1-1.47-2.1,33.12,33.12,0,0,1-.51-4.2q-.21-2.82-.39-6.12t-.27-6.54q-.09-3.24-.09-5.52a11.58,11.58,0,0,1,2.73-1,12.23,12.23,0,0,1,3-.39,5.74,5.74,0,0,1,3.81,1.14A4.3,4.3,0,0,1,1002.14,251.44Z"/><path class="cls-6" d="M1035.5,287.2q-1,0-2.34-.06t-2.73-.24q-1.41-.18-2.82-.45a14.21,14.21,0,0,1-2.61-.75q-3.3-1.26-3.3-4.38v-28a2.64,2.64,0,0,1,.69-2,4.93,4.93,0,0,1,1.89-1.11,25.17,25.17,0,0,1,5.46-1.11q2.88-.27,5.16-.27a29.56,29.56,0,0,1,8.49,1.14,17.46,17.46,0,0,1,6.54,3.51,15.82,15.82,0,0,1,4.23,6,22.07,22.07,0,0,1,1.5,8.52,22.29,22.29,0,0,1-1.44,8.37,16.14,16.14,0,0,1-4.11,6,17.2,17.2,0,0,1-6.39,3.63A26.67,26.67,0,0,1,1035.5,287.2Zm-3.36-8.76q.66.12,1.62.21t1.8.09a11.26,11.26,0,0,0,3.75-.6,7.53,7.53,0,0,0,2.94-1.86,8.59,8.59,0,0,0,1.92-3.27,15,15,0,0,0,.69-4.83q0-5.4-2.52-8.13a8.71,8.71,0,0,0-6.72-2.73q-.84,0-1.71.06t-1.77.18Z"/><path class="cls-6" d="M1093.88,272.8a15.25,15.25,0,0,1-1.11,5.91,12.51,12.51,0,0,1-3.21,4.56,14.48,14.48,0,0,1-5.1,2.91,23,23,0,0,1-13.56,0,14.48,14.48,0,0,1-5.1-2.91,12.51,12.51,0,0,1-3.21-4.56,15.25,15.25,0,0,1-1.11-5.91V249.88q.66-.12,2.1-.33a19.14,19.14,0,0,1,2.76-.21,12.5,12.5,0,0,1,2.43.21,4.32,4.32,0,0,1,1.77.75,3.24,3.24,0,0,1,1.08,1.5,7.32,7.32,0,0,1,.36,2.52v18.3a6.15,6.15,0,0,0,1.59,4.5,6.06,6.06,0,0,0,8.25,0,6.22,6.22,0,0,0,1.56-4.5V249.88q.66-.12,2.1-.33a19.14,19.14,0,0,1,2.76-.21,12.5,12.5,0,0,1,2.43.21,4.32,4.32,0,0,1,1.77.75,3.24,3.24,0,0,1,1.08,1.5,7.32,7.32,0,0,1,.36,2.52Z"/><path class="cls-6" d="M1135.28,285a7.36,7.36,0,0,1-2.61,1.26,13.21,13.21,0,0,1-3.87.54,11.21,11.21,0,0,1-4.32-.75A4.54,4.54,0,0,1,1122,284q-.66-1.38-1.62-3.57t-2-4.89q-1-2.7-2.16-5.73t-2.13-6.15q-1-3.12-1.92-6.12t-1.56-5.64a7.82,7.82,0,0,1,2.43-1.53,8.42,8.42,0,0,1,3.39-.69,6.48,6.48,0,0,1,3.63.93,5.65,5.65,0,0,1,2.07,3.45q1.62,5.88,3.27,11.25t3.45,11.19h.36q1.62-5.64,3.33-12.3t3.27-13.26a13.86,13.86,0,0,1,2.31-.9,9.94,9.94,0,0,1,2.79-.36,6.91,6.91,0,0,1,3.78,1,3.57,3.57,0,0,1,1.56,3.27,17.29,17.29,0,0,1-.63,3.84q-.63,2.52-1.62,5.67t-2.22,6.57q-1.23,3.42-2.46,6.45t-2.31,5.34A21.21,21.21,0,0,1,1135.28,285Z"/><path class="cls-6" d="M1157.48,251a12.7,12.7,0,0,1,3.09-1.14,16.46,16.46,0,0,1,4.17-.54,15,15,0,0,1,5.31.87,4.62,4.62,0,0,1,3,2.73q1.08,3.12,2.34,7.26t2.52,8.55q1.26,4.41,2.46,8.7t2.1,7.59a5,5,0,0,1-2.16,1.35,10.26,10.26,0,0,1-3.42.51,10.49,10.49,0,0,1-2.43-.24,4.33,4.33,0,0,1-1.62-.72,3.55,3.55,0,0,1-1-1.26,10.93,10.93,0,0,1-.69-1.8l-1.08-4.14h-10.86q-.48,1.8-1,3.72t-1,3.72a15.24,15.24,0,0,1-1.77.51,10.37,10.37,0,0,1-2.25.21,7.85,7.85,0,0,1-4.53-1,3.38,3.38,0,0,1-1.47-2.91,6.09,6.09,0,0,1,.24-1.68q.24-.84.54-2,.42-1.62,1.17-4t1.65-5.19q.9-2.79,1.92-5.73l1.92-5.55q.9-2.61,1.65-4.65T1157.48,251Zm7.2,7.74q-.84,2.52-1.89,5.61t-1.89,6.27h7.44q-.84-3.24-1.71-6.33T1165,258.7Z"/><path class="cls-6" d="M1220.3,285a5.48,5.48,0,0,1-2.43,1.29,14.12,14.12,0,0,1-3.81.45,13.2,13.2,0,0,1-4.2-.66,5.82,5.82,0,0,1-3.24-3.18l-5.94-12.12q-.9-1.86-1.62-3.51t-1.56-3.81l-.36.06q.24,3.24.27,6.6t0,6.6V286a16.68,16.68,0,0,1-2,.36,20.19,20.19,0,0,1-2.67.18,13.58,13.58,0,0,1-2.34-.18,3.58,3.58,0,0,1-1.68-.72,3.47,3.47,0,0,1-1-1.47,6.84,6.84,0,0,1-.36-2.43v-30a5,5,0,0,1,2.58-1.8,11.33,11.33,0,0,1,3.72-.6,12.94,12.94,0,0,1,4.23.69,5.73,5.73,0,0,1,3.21,3.15l6,12.12q.9,1.86,1.62,3.51t1.56,3.81l.3-.06q-.24-3.24-.3-6.48t-.06-6.48v-9.72a16.68,16.68,0,0,1,2-.36,20.19,20.19,0,0,1,2.67-.18,7.2,7.2,0,0,1,4,.93q1.38.93,1.38,3.87Z"/><path class="cls-6" d="M1241.9,287.2q-1,0-2.34-.06t-2.73-.24q-1.41-.18-2.82-.45a14.21,14.21,0,0,1-2.61-.75q-3.3-1.26-3.3-4.38v-28a2.64,2.64,0,0,1,.69-2,4.93,4.93,0,0,1,1.89-1.11,25.17,25.17,0,0,1,5.46-1.11q2.88-.27,5.16-.27a29.56,29.56,0,0,1,8.49,1.14,17.46,17.46,0,0,1,6.54,3.51,15.82,15.82,0,0,1,4.23,6,22.07,22.07,0,0,1,1.5,8.52,22.29,22.29,0,0,1-1.44,8.37,16.14,16.14,0,0,1-4.11,6,17.2,17.2,0,0,1-6.39,3.63A26.67,26.67,0,0,1,1241.9,287.2Zm-3.36-8.76q.66.12,1.62.21t1.8.09a11.26,11.26,0,0,0,3.75-.6,7.53,7.53,0,0,0,2.94-1.86,8.59,8.59,0,0,0,1.92-3.27,15,15,0,0,0,.69-4.83q0-5.4-2.52-8.13a8.71,8.71,0,0,0-6.72-2.73q-.84,0-1.71.06t-1.77.18Z"/><path class="cls-6" d="M1265.3,258.28a7.77,7.77,0,0,1-.78-1.8,7.92,7.92,0,0,1-.36-2.4,4.54,4.54,0,0,1,1-3.36,3.75,3.75,0,0,1,2.73-1h26.16a7.77,7.77,0,0,1,.78,1.8,7.92,7.92,0,0,1,.36,2.4,4.54,4.54,0,0,1-1,3.36,3.75,3.75,0,0,1-2.73,1h-6.66V286a16.66,16.66,0,0,1-2.07.36,22,22,0,0,1-2.79.18,12.5,12.5,0,0,1-2.43-.21,4.32,4.32,0,0,1-1.77-.75,3.24,3.24,0,0,1-1.08-1.5,7.32,7.32,0,0,1-.36-2.52V258.28Z"/><path class="cls-6" d="M655.43,355.66h-4.95a1.88,1.88,0,0,1-1.36-.44,1.79,1.79,0,0,1-.45-1.32,1.47,1.47,0,0,1,.53-1.32,3.74,3.74,0,0,1,2-.37h.44v-22h-.39a3.71,3.71,0,0,1-2-.39,1.56,1.56,0,0,1-.55-1.37,1.75,1.75,0,0,1,.45-1.33,2,2,0,0,1,1.41-.43h10.3a12.55,12.55,0,0,1,9.69,3.92q3.62,3.92,3.61,10.58a17.12,17.12,0,0,1-1,6,14.46,14.46,0,0,1-3,4.89,10.71,10.71,0,0,1-4.46,2.77,22.14,22.14,0,0,1-6.74.86c-.33,0-.88,0-1.65,0S655.86,355.66,655.43,355.66Zm0-3.45c.52.05,1,.09,1.55.11s1,0,1.5,0c4,0,6.94-.89,8.81-2.69s2.79-4.61,2.79-8.47-.94-6.69-2.81-8.46-4.86-2.65-9-2.65c-.77,0-1.35,0-1.75,0s-.77.05-1.11.1Z"/><path class="cls-6" d="M685.19,346.65a6.48,6.48,0,0,0,1.3,4.49,5.32,5.32,0,0,0,4.1,1.42,6.63,6.63,0,0,0,4.55-1.69,5.45,5.45,0,0,0,1.89-4.23v-10.1h-3.34a2,2,0,0,1-1.38-.4,1.66,1.66,0,0,1-.43-1.25,1.81,1.81,0,0,1,.47-1.36,2.12,2.12,0,0,1,1.49-.43H699a1.73,1.73,0,0,1,1.3.4,3.25,3.25,0,0,1,.38,2v16.74h1.12a3,3,0,0,1,1.73.39,1.53,1.53,0,0,1,.52,1.3,1.7,1.7,0,0,1-.5,1.32,2.15,2.15,0,0,1-1.45.44h-3.71a1.71,1.71,0,0,1-1-.27.88.88,0,0,1-.37-.73V353a17.79,17.79,0,0,1-4,2.47,9.35,9.35,0,0,1-3.53.67q-4,0-6-2.13t-2-6.47v-11h-.51a4.59,4.59,0,0,1-2.27-.39,1.48,1.48,0,0,1-.61-1.36,1.61,1.61,0,0,1,.48-1.27,2.17,2.17,0,0,1,1.47-.42h3.69a1.6,1.6,0,0,1,1.18.34,2.33,2.33,0,0,1,.33,1.51Z"/><path class="cls-6" d="M758.8,352.17a2.34,2.34,0,0,1,1.53.43,1.61,1.61,0,0,1,.52,1.3,1.66,1.66,0,0,1-.5,1.32,2.15,2.15,0,0,1-1.45.44h-16a2.32,2.32,0,0,1-1.52-.44,1.65,1.65,0,0,1-.53-1.32,1.67,1.67,0,0,1,.5-1.3,2.16,2.16,0,0,1,1.45-.43H747V337.25h-4a2.33,2.33,0,0,1-1.55-.47,1.62,1.62,0,0,1-.55-1.31,1.64,1.64,0,0,1,.51-1.32,2.21,2.21,0,0,1,1.49-.44h3.86v-1.66c0-2.95.84-5.08,2.52-6.41s4.38-2,8.13-2a10,10,0,0,1,4,.61,2,2,0,0,1,1.3,1.9,1.6,1.6,0,0,1-.56,1.25,2.08,2.08,0,0,1-1.44.49,16.75,16.75,0,0,1-2.11-.3,17.58,17.58,0,0,0-2.87-.29,5.59,5.59,0,0,0-4,1.16,5.23,5.23,0,0,0-1.19,3.85v1.39h8.64a2.29,2.29,0,0,1,1.53.44,1.61,1.61,0,0,1,.52,1.32,1.63,1.63,0,0,1-.54,1.3,2.09,2.09,0,0,1-1.46.48h-8.45v14.92Z"/><path class="cls-6" d="M783.56,352.21h7.83a2.06,2.06,0,0,1,1.41.41,1.62,1.62,0,0,1,.45,1.28,1.77,1.77,0,0,1-.43,1.38,2.43,2.43,0,0,1-1.57.38H772.33a2.17,2.17,0,0,1-1.47-.44,1.73,1.73,0,0,1-.49-1.32,1.52,1.52,0,0,1,.52-1.27,2.37,2.37,0,0,1,1.53-.42h7.45V336.54h-4.78a2.29,2.29,0,0,1-1.53-.45,1.9,1.9,0,0,1,0-2.57,2.22,2.22,0,0,1,1.47-.42h7.15a1.76,1.76,0,0,1,1,.27.85.85,0,0,1,.38.73ZM779,326.07a7,7,0,0,1,.48-3.32q.47-.69,2-.69a2.59,2.59,0,0,1,2,.58,4.83,4.83,0,0,1,.49,2.72,4.48,4.48,0,0,1-.46,2.6,2.86,2.86,0,0,1-2,.5,3.12,3.12,0,0,1-2-.46A2.78,2.78,0,0,1,779,326.07Z"/><path class="cls-6" d="M806.85,346.31v7.2a2.77,2.77,0,0,1-.4,1.56,1.23,1.23,0,0,1-1,.59h-4.52a2.12,2.12,0,0,1-1.44-.44,1.69,1.69,0,0,1-.49-1.32,1.42,1.42,0,0,1,.58-1.33,5.34,5.34,0,0,1,2.45-.36h1.17v-25h-1a6.18,6.18,0,0,1-2.71-.37,1.5,1.5,0,0,1-.61-1.38,1.67,1.67,0,0,1,.5-1.32,2.1,2.1,0,0,1,1.45-.44h4.67a1.67,1.67,0,0,1,1,.27.85.85,0,0,1,.37.73v17.5l7-5.9a3.39,3.39,0,0,1-1.18-.76,1.42,1.42,0,0,1-.38-1,1.25,1.25,0,0,1,.54-1.1,2.81,2.81,0,0,1,1.56-.36h6.62a2.14,2.14,0,0,1,1.41.41,1.55,1.55,0,0,1,.49,1.25q0,1.46-2.37,1.71l-.73.09a6.53,6.53,0,0,0-2.2.77,13.52,13.52,0,0,0-2.41,1.72l-3.54,3.11,9.25,10h2.1a2.29,2.29,0,0,1,1.5.39,2,2,0,0,1,0,2.61,2.1,2.1,0,0,1-1.45.45h-6.62a2.67,2.67,0,0,1-1.56-.37,1.35,1.35,0,0,1-.49-1.17,1.56,1.56,0,0,1,.48-1.14,3.55,3.55,0,0,1,1.43-.77l-7.25-7.91Z"/><path class="cls-6" d="M901.31,356.46a8.24,8.24,0,0,1-7.29-4.33q-2.7-4.33-2.7-11.88T894,328.4a8.25,8.25,0,0,1,7.29-4.34q4.59,0,7.3,4.35t2.71,11.84q0,7.5-2.71,11.85T901.31,356.46Zm0-28.9c-1.88,0-3.33,1.1-4.37,3.32s-1.57,5.34-1.57,9.38.52,7.2,1.57,9.42,2.49,3.34,4.37,3.34,3.35-1.11,4.39-3.34,1.56-5.36,1.56-9.42-.52-7.17-1.56-9.38S903.19,327.56,901.31,327.56Z"/><path class="cls-6" d="M985,361.91h5.86a1.92,1.92,0,0,1,1.39.44,2.15,2.15,0,0,1,0,2.66,2.51,2.51,0,0,1-1.6.39H979.92a2.22,2.22,0,0,1-1.48-.44,1.65,1.65,0,0,1-.5-1.3,1.47,1.47,0,0,1,.63-1.36,4.7,4.7,0,0,1,2.3-.39h.47V336.56h-.47a4.7,4.7,0,0,1-2.3-.39,1.47,1.47,0,0,1-.63-1.36,1.59,1.59,0,0,1,.5-1.28,2.22,2.22,0,0,1,1.48-.43h3.71a1.82,1.82,0,0,1,1.06.24.88.88,0,0,1,.33.76v2.37a11.21,11.21,0,0,1,3.68-2.57,10.93,10.93,0,0,1,4.33-.85,11.09,11.09,0,0,1,8.2,3.32,11.32,11.32,0,0,1,3.3,8.32,10.63,10.63,0,0,1-3.13,7.91,10.84,10.84,0,0,1-8,3.11,12.17,12.17,0,0,1-4.76-.92,9.75,9.75,0,0,1-3.64-2.62Zm7.57-9.79a7.64,7.64,0,0,0,5.57-2.14,8.05,8.05,0,0,0,0-11,7.58,7.58,0,0,0-5.56-2.16,7.66,7.66,0,1,0,0,15.31Z"/><path class="cls-6" d="M1034.14,344.4a11.16,11.16,0,0,1-3.56,8.55,14.52,14.52,0,0,1-18.48,0,12,12,0,0,1,0-17.08,14.52,14.52,0,0,1,18.47,0A11.1,11.1,0,0,1,1034.14,344.4Zm-12.81,8.42a8.41,8.41,0,0,0,6.16-2.37,8.84,8.84,0,0,0,0-12.14,9.07,9.07,0,0,0-12.29,0,8.89,8.89,0,0,0,0,12.15A8.38,8.38,0,0,0,1021.33,352.82Z"/><path class="cls-6" d="M1053.6,352.21h7.84a2.05,2.05,0,0,1,1.4.41,1.62,1.62,0,0,1,.45,1.28,1.81,1.81,0,0,1-.42,1.38,2.46,2.46,0,0,1-1.58.38h-18.92a2.12,2.12,0,0,1-1.46-.44,1.69,1.69,0,0,1-.49-1.32,1.55,1.55,0,0,1,.51-1.27,2.4,2.4,0,0,1,1.54-.42h7.45V336.54h-4.78a2.29,2.29,0,0,1-1.53-.45,1.87,1.87,0,0,1,0-2.57,2.17,2.17,0,0,1,1.46-.42h7.16a1.75,1.75,0,0,1,1,.27.83.83,0,0,1,.38.73Zm-4.52-26.14a7,7,0,0,1,.48-3.32,2.37,2.37,0,0,1,2-.69,2.56,2.56,0,0,1,2,.58,4.74,4.74,0,0,1,.49,2.72,4.59,4.59,0,0,1-.45,2.6,2.87,2.87,0,0,1-2,.5,3.16,3.16,0,0,1-2-.46A2.78,2.78,0,0,1,1049.08,326.07Z"/><path class="cls-6" d="M1072.25,352.21V336.56h-.46a4.63,4.63,0,0,1-2.28-.39,1.47,1.47,0,0,1-.63-1.36,1.58,1.58,0,0,1,.52-1.31,2.68,2.68,0,0,1,1.66-.4h3.49a1.67,1.67,0,0,1,1,.27.85.85,0,0,1,.37.73v1.66a13.33,13.33,0,0,1,3.53-2.46,8.78,8.78,0,0,1,3.62-.79,7.5,7.5,0,0,1,5.8,2.3,9,9,0,0,1,2.11,6.34v11.06h1.16a3,3,0,0,1,1.77.41,1.48,1.48,0,0,1,.54,1.28,1.54,1.54,0,0,1-.57,1.35,3.77,3.77,0,0,1-2.05.41h-5.41a3.54,3.54,0,0,1-2-.37,1.73,1.73,0,0,1-.44-1.39,1.51,1.51,0,0,1,.51-1.32,3.69,3.69,0,0,1,2-.37h.86V342.06a6.5,6.5,0,0,0-1.3-4.36,4.7,4.7,0,0,0-3.77-1.5,6.46,6.46,0,0,0-4.4,1.68,5.38,5.38,0,0,0-1.91,4.18v10.15h.85a3.72,3.72,0,0,1,2,.37,1.51,1.51,0,0,1,.52,1.32,1.76,1.76,0,0,1-.44,1.39,4,4,0,0,1-2.15.37h-5.76a2.32,2.32,0,0,1-1.51-.43,1.68,1.68,0,0,1-.5-1.33,1.42,1.42,0,0,1,.58-1.33,4.64,4.64,0,0,1,2.23-.36Z"/><path class="cls-6" d="M1118,334.46a2.87,2.87,0,0,1,1.74.42,1.55,1.55,0,0,1,.55,1.32,1.57,1.57,0,0,1-.51,1.28,2.4,2.4,0,0,1-1.54.43h-9.89v8.15q0,4,1,5.27a4.34,4.34,0,0,0,3.55,1.27,14.26,14.26,0,0,0,5.32-1.29,15.71,15.71,0,0,1,3.84-1.29,1.59,1.59,0,0,1,1.16.48,1.69,1.69,0,0,1,.47,1.2,2,2,0,0,1-.59,1.41,6.16,6.16,0,0,1-2,1.15,30.39,30.39,0,0,1-4.31,1.4,16.36,16.36,0,0,1-3.6.44,11.2,11.2,0,0,1-4.8-.92,6.07,6.07,0,0,1-2.89-2.72,6.23,6.23,0,0,1-.7-2,22.38,22.38,0,0,1-.21-3.61v-8.91h-4.15a2.25,2.25,0,0,1-1.49-.41,1.62,1.62,0,0,1-.46-1.3,1.45,1.45,0,0,1,.63-1.37,6.46,6.46,0,0,1,2.71-.37h2.76v-6.29a2.26,2.26,0,0,1,.45-1.55,1.8,1.8,0,0,1,1.41-.5,1.68,1.68,0,0,1,1.49.61,5.91,5.91,0,0,1,.41,2.78v4.95Z"/><g id="Body"><path class="cls-7" d="M59.71,826.23s-2.38-50-16.66-72.61c0,0-37.15-99.36-38.69-103-3.57-8.33-25-35.71-45.22-32.14-.68.12-14.29,10.72,16.66,48.8,8.85,10.9,26.18,20.24,42.85,19,0,0,21.2,57.16,25,66.65,2.38,6-20.3,9.36-21.42,9.52a104.69,104.69,0,0,1-22,.6c-17.85-1.2-57.35,1.76-85.21-39s-25.48-78.84-25.48-78.84-1.19-41.65,27.37-64.27,77.37-19,77.37-19,44.55,1.5,77.62,31.7,48.54,55.18,48.54,55.18,48.8-26.18,78.55-70.22c0,0-12.28,84.3-54.94,115.35,0,0,22.92,72.33,22.87,90.37,0,0,42.79,18,58.26,35.9s38.09,46.41,38.09,46.41,8.33,6,15.47,6,25.29,3.58,40-36.3c0,0,8.78-36.31,6.4-55.35s-2.38-47.61-17.86-71.41-66.34-74.18-74.83-109.69,3.42-77.18,3.42-77.18,28-71.93,50.91-105,49.07-67.58,94.3-95,96.41-25,96.41-25,58.32-3.57,117.83,28.57,90.94,91.38,90.94,91.38,21.42,45.15,22.37,115.54-20.48,112-20.48,112-35.7,45.23-42.84,71.42,7.14,41.65,7.14,41.65l33.32,17.86s11.11,7.09,13.89,19.61-13.89,31.57-13.89,31.57-16.84,17.77-45.32,29.12,52.46,79.19,52.46,79.19,35.49,19.53,73.09,18.09,62.6-12.14,85.21-28.81,23.6-68.47,23.6-68.47,4.56-62.95,0-71.63c0,0-49.78,2-64.06-36s-9.53-54.75-9.53-54.75,2.39-50,65.47-51.18S965.46,731,965.46,731s15.48-1.19,66.66-54.75c0,0-1.19,54.75-54.75,84.5,0,0,9.52,46.42,8.33,55.94,0,0,39.8-4.28,55-5.11s73.53-3.22,111.62,31.3,41.66,72.6,41.66,97.6-9.53,58.32-9.53,58.32-15.47,40.47-32.13,64.27-79.86,46.4-95.33,55.92-63-19-79-35c-7-7-11-4-11-35s44-36,44-36-21.12,23.84-5,41c6.2,6.6,5.34,7.33,17,14,30.25,17.29,75-2,75-2s17.43-16.24,21-21,7.14-9.3,9.52-15.25,8.48-32.75-15.47-58.32c-24.91-26.59-67.84-28.56-67.84-28.56s-50,1.19-77.36,14.28c0,0-19.05,65.46-69,100s-104.74,65.46-140.44,75-64.27,14.29-91.65,14.29-105.93-9.53-147.59-64.28c0,0-23.8-10.71-33.32-25h-5.95s-23.81,59.51-119,58.32c0,0-46.41-3.57-59.51-6,0,0-55.34-22-67.24-30.35-.81-.57-28.77-26.07-32.14-32.14-5.95-10.71-19-29.75-16.66-90.45,0-.13,1.19-9.53-9.52-9.53-6,0-23.81,3.57-27.38,44-1.22,13.79,10.69,55.78,23.8,70.22,9.08,10,27.38,50,64.28,48.8,5.35-.17,32.3-5,34.51-13.09,0,0,24.58,10.51,30.95,11.9,0,0-7.1,11.11-7.2,11.25-1,1.38-2.11,2.85-3.34,4.38-12.33,15.27-36.62,36.49-75.75,35C154.93,1157.11,99,1116.64,99,1116.64s-81.74-53.59-80.74-159.5c0,0,2.18-84.49,42.65-125Z"/></g><g id="arme_skygge" data-name="arme skygge"><path class="cls-8" d="M1130.22,1022.65s10.8-13.73,12-41.1-19-47.61-19-47.61-29.76-35.71-83.32-34.52-65.46,15.48-65.46,15.48L961.69,961s21.89-10.64,43.31-13,34-9,64.61-1,40.47,22.62,40.47,22.62A96.93,96.93,0,0,1,1124,994C1127.22,1002,1131.85,1010.06,1130.22,1022.65Z"/><path class="cls-8" d="M-41,619s11.79,66.65,59,67c5,0,8,22,8,22s-62.1-.2-75.2-39.48C-49.2,668.52-65,636-41,619Z"/><path class="cls-8" d="M120.41,648.88S167,623,199,578.66c0,0-23.13,38.2-28,44.34-11,14-40.31,36-45.66,40.5Z"/></g><g id="arme_skyge" data-name="arme skyge"><path class="cls-8" d="M519.13,1082.12s45.46,70,136.87,65.88,138-26,138-26,78.7-41.86,94.7-53.56c9.47-6.94,29.39-22.63,45.3-42.44,10.94-13.63,17.6-28.4,27.3-46.83,0,0,18.27-46.76,16.66-72.6-2.78-44.83-22.35-103.43-40.47-132.12a121.33,121.33,0,0,1-20.15,6,190.19,190.19,0,0,1-26.65,3.89c-6.13.46-12.76.68-19.83.52l3.55,46.7v32.14S870.61,910.34,848,927c0,0-6.93,17-13.82,31.86C829,970,823,982,811.33,994.64c-7.44,8.07-32.13,30.95-32.13,30.95s-42.2,33.41-69,42.85C680.9,1078.72,649,1087,649,1087s-21,9-67.38,11.19C554,1099.5,519.13,1082.12,519.13,1082.12Z"/><path class="cls-8" d="M75.78,818.3s-1.19-29.76-16.67-72.6S15.08,652.86-1.59,641c0,0,26.64,59.47,35.34,88.65S60.9,833.18,60.9,833.18Z"/><path class="cls-8" d="M926.78,742.32s-40.46,0-44-25,19.64-11.5,19.64-11.5Z"/></g><g id="Layer_21" data-name="Layer 21"><ellipse cx="654.22" cy="803.1" rx="14.28" ry="10.8"/></g><g id="right_eye" data-name="right eye"><path class="cls-9" d="M476.35,680.79s-5-52.4-55.47-52.56-50.34,59.52-46.26,68.82,8.86,33.36,43.32,28.93S483.28,698.19,476.35,680.79Z"/><path class="cls-6" d="M475.26,673.54s-9.7-36.9-44.11-36.21-39.79,44.89-39.79,44.89-.15,30.83,14.7,42.24c0,0,2.4,2.23,15,.18,0,0-12.37-16.67-15.1-28.15s1.22-33.89,14.25-42.11,27.62-12.14,37.72-6.6S475.26,673.54,475.26,673.54Z"/><path class="cls-6" d="M462.94,661.87A7.27,7.27,0,1,1,455.6,657,7.26,7.26,0,0,1,462.94,661.87Z"/><path class="cls-6" d="M454.79,713.52l13.79-10.46S447.69,689.07,454.79,713.52Z"/></g><g id="left_eye" data-name="left eye"><path class="cls-9" d="M518.74,680.62s5-52.4,55.46-52.57,50.34,59.52,46.26,68.82-8.86,33.37-43.31,28.94S511.8,698,518.74,680.62Z"/><path class="cls-6" d="M519.82,673.36s9.7-36.89,44.11-36.21S603.73,682,603.73,682s.15,30.84-14.71,42.25c0,0-2.4,2.23-15,.18,0,0,12.36-16.67,15.09-28.16s-1.22-33.88-14.25-42.1-27.62-12.14-37.72-6.6S519.82,673.36,519.82,673.36Z"/><ellipse class="cls-6" cx="539.02" cy="664.04" rx="7.27" ry="7.26"/><path class="cls-6" d="M540.29,713.34,526.5,702.88S547.4,688.9,540.29,713.34Z"/></g><g id="Layer_22" data-name="Layer 22"><path class="cls-10" d="M804.19,728s5.95,32.14,25,44l-171.54,42.6a8.74,8.74,0,0,1-2.1.25l-4.89-1.19c-8.33-2.38-9.7-5.73-10.42-8.34a9,9,0,0,1-.16-4,11.44,11.44,0,0,1,7-7.87Z"/><path class="cls-10" d="M882.37,702.18l231.28-271.7s107,299.85,138.06,329.69L931.06,742.32s-34.35.19-44.9-16C886.16,726.34,876.05,718,882.37,702.18Z"/><circle class="cls-11" cx="1261.83" cy="562" r="198.17"/><path class="cls-6" d="M1192.63,484.68a4.49,4.49,0,0,1,1.6-1.93,5.53,5.53,0,0,1,2.73-.53c1.82,0,3,.32,3.51.95s.81,1.88.87,3.75l.19,8.44v.48a4.83,4.83,0,0,1-1.11,3.63,5.41,5.41,0,0,1-3.74,1,5.32,5.32,0,0,1-5-3.34c-.15-.32-.28-.58-.37-.79a10,10,0,0,0-4-4.11,12,12,0,0,0-5.89-1.38,11.78,11.78,0,0,0-6.85,1.82,5.51,5.51,0,0,0-2.61,4.68q0,4,12,6.37l3.2.62q9,1.85,13.1,5.63c2.7,2.51,4,6,4,10.32q0,8.08-5.89,12.46t-16.86,4.37a50.22,50.22,0,0,1-7.66-.52,38.39,38.39,0,0,1-6.52-1.63,4.68,4.68,0,0,1-1.74,1.65,6.19,6.19,0,0,1-2.73.5c-2,0-3.37-.35-4.15-1s-1.19-2-1.22-3.74l-.19-10.32v-.49c0-1.93.38-3.28,1.15-4s2.11-1.14,4-1.14,3.75,1.37,5.13,4.13c.32.67.57,1.18.76,1.54a11.8,11.8,0,0,0,5.11,5.05,17.57,17.57,0,0,0,8,1.67,11.68,11.68,0,0,0,6.73-1.67,5.4,5.4,0,0,0,2.41-4.7q0-4.71-10.88-7.12-3.25-.71-5.14-1.19-9.14-2.24-12.67-5.6t-3.53-9.21a15,15,0,0,1,6-12.28q6.06-4.77,15.66-4.77a32.1,32.1,0,0,1,6.29.62A34.79,34.79,0,0,1,1192.63,484.68Z"/><path class="cls-6" d="M1232.38,517.16v9h4.85c2,0,3.5.36,4.36,1.1a4.54,4.54,0,0,1,1.29,3.64,4.74,4.74,0,0,1-1.31,3.74,6.62,6.62,0,0,1-4.34,1.14h-16.29c-2.08,0-3.56-.38-4.46-1.14a5.72,5.72,0,0,1-.07-7.27,5.19,5.19,0,0,1,3.72-1.21h.81V493.38h-.81a5.06,5.06,0,0,1-3.69-1.25,4.72,4.72,0,0,1-1.3-3.58,4.61,4.61,0,0,1,1.37-3.71,6.75,6.75,0,0,1,4.43-1.17h19.45q11.53,0,17.45,4.13t5.91,12.18q0,8.47-5.89,12.83t-17.47,4.35Zm0-23.78v13.89h6.69q5.55,0,8.36-1.76a5.81,5.81,0,0,0,2.8-5.27,5.64,5.64,0,0,0-2.89-5.08c-1.93-1.18-4.69-1.78-8.27-1.78Z"/><path class="cls-6" d="M1302.7,493.38v32.79h7.92c2.13,0,3.66.37,4.59,1.12a4.4,4.4,0,0,1,1.39,3.62,4.56,4.56,0,0,1-1.41,3.72,7.24,7.24,0,0,1-4.57,1.16h-28q-3.21,0-4.59-1.14a4.57,4.57,0,0,1-1.39-3.74,4.4,4.4,0,0,1,1.36-3.64c.91-.74,2.45-1.1,4.62-1.1h7.91V493.38h-7.91q-3.21,0-4.59-1.14a5.64,5.64,0,0,1,0-7.38c.91-.73,2.45-1.1,4.62-1.1h28c2.23,0,3.78.37,4.66,1.1a5.73,5.73,0,0,1,0,7.38c-.91.76-2.45,1.14-4.61,1.14Z"/><path class="cls-6" d="M1349.43,493.38v32.79h21.43v-7.83c0-2,.39-3.45,1.15-4.3a5,5,0,0,1,3.84-1.28,5.17,5.17,0,0,1,3.91,1.3c.82.86,1.23,2.29,1.23,4.28v13.5c0,1.58-.33,2.63-1,3.16s-2,.79-4,.79h-42.72q-3.06,0-4.38-1.14a4.71,4.71,0,0,1-1.32-3.74,4.5,4.5,0,0,1,1.3-3.64c.86-.74,2.33-1.1,4.4-1.1h4.15V493.38h-4.15q-3.06,0-4.38-1.14a4.63,4.63,0,0,1-1.32-3.69,4.55,4.55,0,0,1,1.39-3.71,6.78,6.78,0,0,1,4.41-1.17h20.06a6.75,6.75,0,0,1,4.4,1.17,5.67,5.67,0,0,1,0,7.4,6.9,6.9,0,0,1-4.43,1.14Z"/><path class="cls-6" d="M1186.93,601.38v32.79h7.91c2.14,0,3.67.37,4.59,1.12a4.37,4.37,0,0,1,1.39,3.62,4.56,4.56,0,0,1-1.41,3.72,7.23,7.23,0,0,1-4.57,1.16h-28q-3.19,0-4.59-1.14a4.57,4.57,0,0,1-1.39-3.74,4.37,4.37,0,0,1,1.37-3.64c.91-.74,2.45-1.1,4.61-1.1h7.92V601.38h-7.92q-3.19,0-4.59-1.14a4.5,4.5,0,0,1-1.39-3.69,4.44,4.44,0,0,1,1.37-3.69c.91-.73,2.45-1.1,4.61-1.1h28c2.23,0,3.78.37,4.66,1.1a5.75,5.75,0,0,1,0,7.38c-.92.76-2.45,1.14-4.62,1.14Z"/><path class="cls-6" d="M1253.06,593.12a6.34,6.34,0,0,1,1.91-2.24,4.5,4.5,0,0,1,2.52-.66,4.09,4.09,0,0,1,3.27,1.14,6.18,6.18,0,0,1,1,3.92l.09,11.42c0,2-.35,3.38-1.06,4.09s-2,1.05-3.89,1.05a4.77,4.77,0,0,1-3.08-.9,6.53,6.53,0,0,1-1.81-3.24,10.8,10.8,0,0,0-3.91-6.05q-2.64-1.8-7.4-1.8-7.26,0-11.09,4.57t-3.84,13.25q0,8.66,4,13.39t11.42,4.73a22.8,22.8,0,0,0,3.86-.37c1.45-.25,3.14-.64,5.09-1.17v-6.94h-5.32c-2.14,0-3.65-.36-4.55-1.1a4.47,4.47,0,0,1-1.34-3.64,4.66,4.66,0,0,1,1.34-3.76c.9-.75,2.41-1.12,4.55-1.12h17c2.2,0,3.74.36,4.64,1.1a4.52,4.52,0,0,1,1.34,3.69,4.68,4.68,0,0,1-1.34,3.58,5.53,5.53,0,0,1-3.89,1.25h-.75v11a4,4,0,0,1-.33,2,3.58,3.58,0,0,1-1.32,1.12,30.51,30.51,0,0,1-8.52,2.64,61.68,61.68,0,0,1-11.83,1.14q-12.33,0-20-7.6t-7.63-19.86q0-11.82,7.73-19.65t19.59-7.82a31.75,31.75,0,0,1,6.57.7A42.76,42.76,0,0,1,1253.06,593.12Z"/><path class="cls-6" d="M1310.15,600.94h-21.91v11.25h8.29v-.52a5.26,5.26,0,0,1,1.18-3.74,4.75,4.75,0,0,1,3.58-1.23,5.2,5.2,0,0,1,3.46,1.12,3.52,3.52,0,0,1,1.34,2.84c0,.05,0,.25.05.57s0,.64,0,1v9.1a6.34,6.34,0,0,1-1.13,4.22,4.69,4.69,0,0,1-3.68,1.27,5,5,0,0,1-3.62-1.18,4.68,4.68,0,0,1-1.23-3.52v-.79h-8.29v13.14h21.91V629.2a6.06,6.06,0,0,1,1.2-4.22,5.2,5.2,0,0,1,3.93-1.27,5,5,0,0,1,3.84,1.25c.77.83,1.15,2.25,1.15,4.24v10.64c0,1.58-.33,2.63-1,3.16s-2,.79-3.91.79H1276.8c-2.07,0-3.56-.38-4.45-1.14a5.68,5.68,0,0,1-.07-7.27,5.16,5.16,0,0,1,3.72-1.21h.8V601.38h-.8a5.09,5.09,0,0,1-3.7-1.25,4.76,4.76,0,0,1-1.3-3.58,4.61,4.61,0,0,1,1.37-3.71,6.77,6.77,0,0,1,4.43-1.17h38.57c1.92,0,3.21.27,3.89.81s1,1.62,1,3.23v9.85c0,2-.39,3.42-1.18,4.28a4.89,4.89,0,0,1-3.81,1.3,5.09,5.09,0,0,1-3.93-1.32,6.23,6.23,0,0,1-1.2-4.26Z"/><path class="cls-6" d="M1365.44,625.6V601.38h-2.59c-2.07,0-3.55-.38-4.45-1.14a4.61,4.61,0,0,1-1.34-3.69,4.67,4.67,0,0,1,1.34-3.71c.9-.78,2.38-1.17,4.45-1.17h13.38a6.77,6.77,0,0,1,4.43,1.17,4.61,4.61,0,0,1,1.36,3.71,4.76,4.76,0,0,1-1.29,3.58,5.1,5.1,0,0,1-3.7,1.25h-.8v39.91a4.5,4.5,0,0,1-.47,2.59,2.94,2.94,0,0,1-2.12.53h-4.71a8.12,8.12,0,0,1-3.18-.44,3.87,3.87,0,0,1-1.58-1.54l-19.59-32.13v23.87h2.73c2,0,3.5.36,4.38,1.1a4.48,4.48,0,0,1,1.32,3.64,4.68,4.68,0,0,1-1.34,3.74,6.72,6.72,0,0,1-4.36,1.14h-13.52a6.9,6.9,0,0,1-4.43-1.14,5.68,5.68,0,0,1-.09-7.27,5.26,5.26,0,0,1,3.77-1.21h.75V601.38H1333a5.17,5.17,0,0,1-3.72-1.25,4.69,4.69,0,0,1-1.32-3.58,4.55,4.55,0,0,1,1.39-3.71,6.75,6.75,0,0,1,4.4-1.17h7.73a7.23,7.23,0,0,1,3.76.68,9,9,0,0,1,2.22,2.75Z"/></g></g></svg>